<svg width="425" height="342" viewBox="0 0 425 342" fill="none" xmlns="http://www.w3.org/2000/svg">
<path d="M181.911 24.758C175.923 35.56 192.868 56.4007 219.759 71.307C237.937 81.3832 256.006 86.1685 267.656 84.8753C264.129 79.7642 259.266 74.5921 253.856 69.7164C247.119 69.6075 237.226 66.5122 227.144 60.9237C222.939 58.5926 219.118 56.0593 215.828 53.4876C206.582 46.2611 201.519 38.7316 203.847 34.5322C206.384 29.9549 216.93 30.7276 229.293 35.8213C231.165 33.5206 233.111 31.1885 235.1 28.8822C210.479 16.8465 187.427 14.8073 181.911 24.758Z" fill="#960000"/>
<path d="M292.158 0.188894C289.098 -0.199678 279.597 -0.248249 266.075 2.66604C258.146 4.37488 245.997 16.2427 235.1 28.8822C233.111 31.1885 231.165 33.5206 229.293 35.8213C223.928 42.415 219.179 48.7513 215.828 53.4876C219.118 56.0593 222.939 58.5926 227.144 60.9237L241.157 42.3004C241.236 42.1793 241.316 42.0572 241.397 41.9342C242.762 39.8654 244.467 37.5316 246.454 35.1041C256.81 22.4506 274.816 7.24936 292.158 13.7404C310.774 20.7084 314.221 40.8096 313.388 54.5807C317.458 55.5657 321.157 54.6528 324.489 52.368L324.453 49.3596C324.824 42.0074 323.705 32.2471 318.678 22.1918C310.518 5.87177 297.598 0.723184 292.158 0.188894Z" fill="#F1BC5D"/>
<path d="M203.847 34.5322C201.519 38.7316 206.582 46.2611 215.828 53.4876C219.179 48.7513 223.928 42.415 229.293 35.8213C216.93 30.7276 206.384 29.9549 203.847 34.5322Z" fill="#141414"/>
<path d="M241.157 42.3004L227.144 60.9237C237.226 66.5122 247.119 69.6075 253.856 69.7164C247.882 64.3317 241.24 59.3085 234.991 55.1277C245.357 60.3582 254.15 64.3033 261.578 67.1537C261.685 67.0076 261.783 66.8551 261.871 66.6962C264.837 61.3442 255.8 50.5833 241.397 41.9342C241.316 42.0572 241.236 42.1793 241.157 42.3004Z" fill="#141414"/>
<path d="M246.454 35.1041C244.467 37.5316 242.762 39.8654 241.397 41.9342C255.8 50.5833 264.837 61.3442 261.871 66.6962C261.783 66.8551 261.685 67.0076 261.578 67.1537C269.245 70.0962 275.458 71.8723 280.445 72.6919C279.536 62.1374 266.209 47.1533 246.454 35.1041Z" fill="#960000"/>
<path d="M202.628 103.495C229.519 118.402 256.65 120.868 263.226 109.004C264.812 106.009 266.884 102.097 269.01 98.0851C269.98 96.2553 270.961 94.4046 271.912 92.6104C270.911 90.0796 269.458 87.4854 267.656 84.8753C256.006 86.1685 237.937 81.3832 219.759 71.307C192.868 56.4007 175.923 35.56 181.911 24.758C181.283 25.3095 176.901 33.5747 172.53 42.0034C170.075 46.7381 167.624 51.5243 165.845 55.0239C159.269 66.8876 175.737 88.5889 202.628 103.495Z" fill="#660000"/>
<path fill-rule="evenodd" clip-rule="evenodd" d="M222.164 120.986C256.924 120.581 310.081 132.308 244.633 182.459C263.618 170.19 291.887 156.988 299.461 169.002C301.329 171.966 301.938 176.467 300.835 182.896C299.929 188.182 297.866 194.773 294.395 202.885C296.434 198.558 298.728 194.158 301.191 190.015C315.622 165.744 335.849 150.319 344.479 210.219C341.991 180.249 346.558 134.449 384.729 191.005C368.978 165.362 353.929 123.152 419.74 159.466C394.488 143.086 360.137 111.195 424.151 114.342C392.064 112.679 347.777 101.18 423.839 68.1214C391.472 78.4396 340.858 85.3106 384.818 35.0649C369.104 51.3216 349.33 65.5929 342.904 51.0184C340.26 45.0221 339.876 34.1431 342.964 16.5109C339.186 31.5695 333.05 46.4973 324.489 52.368C321.157 54.6528 317.458 55.5657 313.388 54.5807C309.701 53.6883 305.71 51.2382 301.41 46.8392C295.569 40.8621 289.16 31.287 282.176 17.1325C283.989 27.7523 319.17 79.0564 280.445 72.6919C275.458 71.8723 269.245 70.0962 261.578 67.1537C254.15 64.3033 245.357 60.3582 234.991 55.1277C241.24 59.3085 247.882 64.3317 253.856 69.7164C259.266 74.5921 264.129 79.7642 267.656 84.8753C269.458 87.4854 270.911 90.0796 271.912 92.6104C273.413 96.407 273.895 100.061 273.003 103.411C270.422 113.108 256.337 120.264 222.164 120.986ZM279.292 78.7385C279.275 78.7687 279.258 78.7988 279.241 78.8288C279.267 78.7823 279.284 78.752 279.292 78.7385ZM300.554 55.6325L319.383 102.728L273.307 80.0276L311.464 105.339L282.099 103.411L311.464 111.878L261.64 120.407L312.602 117.782L277.753 135.707L315.717 122.957L297.972 154.204L322.18 125.243L307.467 170.945L331.002 126.619L339.194 157.734L336.936 124.646L359.275 155.238C353.809 141.087 343.449 122.354 343.328 121.38C343.207 120.406 361.832 126.084 371.461 133.951L350.18 111.878L384.787 111.903L347.98 104.118L374.846 81.6239L339.922 98.9397L361.397 62.9032L331.251 98.7812L335.09 50.1056L322.278 96.1885L300.554 55.6325Z" fill="#F24B40"/>
<path d="M319.383 102.728L300.554 55.6325L322.278 96.1885L335.09 50.1056L331.251 98.7812L361.397 62.9032L339.922 98.9397L374.846 81.6239L347.98 104.118L384.787 111.903L350.18 111.878L371.461 133.951C361.832 126.084 343.207 120.406 343.328 121.38C343.449 122.354 353.809 141.087 359.275 155.238L336.936 124.646L339.194 157.734L331.002 126.619L307.467 170.945L322.18 125.243L297.972 154.204L315.717 122.957L277.753 135.707L312.602 117.782L261.64 120.407L311.464 111.878L282.099 103.411L311.464 105.339L273.307 80.0276L319.383 102.728Z" fill="#EEA139"/>
<path d="M263.226 109.004C256.65 120.868 229.519 118.402 202.628 103.495C175.737 88.5889 159.269 66.8876 165.845 55.0239C167.624 51.5243 170.075 46.7381 172.53 42.0034C165.347 40.9511 157.999 40.4061 150.523 40.4061V227.542V341.452C210.741 341.452 262.7 306.091 286.768 255C295.868 235.685 301.124 212.784 301.191 190.015C298.728 194.158 296.434 198.558 294.395 202.885C297.866 194.773 299.929 188.182 300.835 182.896C300.589 178.204 300.127 173.57 299.461 169.002C291.887 156.988 263.618 170.19 244.633 182.459C310.081 132.308 256.924 120.581 222.164 120.986C256.337 120.264 270.422 113.108 273.003 103.411C273.895 100.061 273.413 96.407 271.912 92.6104L269.01 98.0851C266.884 102.097 264.812 106.009 263.226 109.004Z" fill="#960000"/>
<path d="M150.523 40.4061C67.3915 40.4061 0 107.798 0 190.929C0 203.423 1.52218 215.561 4.39122 227.169C20.6121 292.795 79.8854 341.452 150.523 341.452V227.542V40.4061Z" fill="#660000"/>
</svg>
