<svg width="345" height="344" viewBox="0 0 345 344" fill="none" xmlns="http://www.w3.org/2000/svg">
<path d="M172.498 94.7966L145.357 79.2545L156.12 48.3702C133.085 51.4009 111.977 60.7871 94.5856 74.4944L90.608 93.0588L73.2941 97.7383L72.7179 96.5671C59.3992 113.794 50.4322 134.556 47.4646 157.206L78.2075 146.404L93.8836 173.779L78.2075 199.048L47.2976 189.023C50.0035 211.523 58.9568 232.647 71.8903 249.909L89.9061 252.628L93.1817 271.941C111.182 286.547 133.161 296.232 157.363 299.144L145.708 265.193L172.498 249.465V199.048H158.226L143.252 173.779L158.226 147.808H172.498V94.9306V94.7966Z" fill="#2B435F"/>
<path d="M172.498 94.9306V147.808H187.004L201.979 173.779L187.004 199.048H172.498V249.465L199.405 265.262L187.75 299.213C211.952 296.301 234.048 286.547 252.049 271.941L255.324 252.628L273.34 249.909C286.273 232.647 295.227 211.523 297.933 189.023L267.023 199.048L251.347 173.779L267.023 146.404L297.766 157.206C294.798 134.556 285.831 113.794 272.512 96.5671L271.936 97.7383L254.622 93.0588L250.645 74.4944C233.254 60.7871 212.145 51.4009 189.11 48.3702L199.873 79.2545L172.498 94.7966V94.9306Z" fill="#527D9D"/>
<path d="M172.498 0.873962L156.12 48.3702L145.357 79.2545L172.498 94.7966V0.873962Z" fill="#D0D0D0"/>
<path d="M94.5856 74.4944L51.7687 53.9856L72.7179 96.5671L73.2941 97.7383L90.608 93.0588L94.5856 74.4944Z" fill="#D0D0D0"/>
<path d="M93.8836 173.779L78.2075 146.404L47.4646 157.206L0.294922 173.779L47.2976 189.023L78.2075 199.048L93.8836 173.779Z" fill="#D0D0D0"/>
<path d="M71.8903 249.909L52.4706 292.169L93.1817 271.941L89.9061 252.628L71.8903 249.909Z" fill="#D0D0D0"/>
<path d="M145.708 265.193L157.363 299.144L172.498 343.233V249.465L145.708 265.193Z" fill="#D0D0D0"/>
<path d="M172.498 147.808H158.226L143.252 173.779L158.226 199.048H172.498V147.808Z" fill="#D0D0D0"/>
<path d="M189.11 48.3702L172.498 0.873962V94.7966L199.873 79.2545L189.11 48.3702Z" fill="#DEDEDE"/>
<path d="M293.462 53.9856L250.645 74.4944L254.622 93.0588L271.936 97.7383L272.512 96.5671L293.462 53.9856Z" fill="#DEDEDE"/>
<path d="M267.023 146.404L251.347 173.779L267.023 199.048L297.933 189.023L344.935 173.779L297.766 157.206L267.023 146.404Z" fill="#DEDEDE"/>
<path d="M292.76 292.169L273.34 249.909L255.324 252.628L252.049 271.941L292.76 292.169Z" fill="#DEDEDE"/>
<path d="M187.75 299.213L199.405 265.262L172.498 249.465V249.586V343.233L187.75 299.213Z" fill="#DEDEDE"/>
<path d="M172.498 147.808V199.048H187.004L201.979 173.779L187.004 147.808H172.498Z" fill="#DEDEDE"/>
</svg>
