<svg width="345" height="342" viewBox="0 0 345 342" fill="none" xmlns="http://www.w3.org/2000/svg">
<g clip-path="url(#clip0_649_261)">
<path d="M147.443 160.578C119.956 177.022 100.104 172.409 90.0795 165.756C103.126 177.527 121.901 197.926 140.529 225.289C149.764 225.849 166.233 223.807 182.284 215.097C167.638 191.563 155.162 172.226 147.443 160.578Z" fill="#CD0041"/>
<path d="M174.24 285.204C180.88 299.861 186.862 315.526 191.773 332.081C205.166 339.107 229.591 344.711 251.247 332.317C240.523 312.717 229.058 292.723 217.705 273.487C201.735 282.172 184.37 285.076 174.24 285.204Z" fill="#CD0041"/>
<path d="M184.79 121.526C185.992 126.598 180.208 140.976 147.443 160.578C155.162 172.226 167.638 191.563 182.284 215.097C193.309 209.114 204.137 199.985 212.29 186.391C200.397 164.073 190.322 141.536 184.79 121.526Z" fill="#AE0036"/>
<path d="M281.902 293.457C272.91 281.919 260.278 264.545 246.964 244.316C240.14 257.846 229.289 267.187 217.705 273.487C229.058 292.723 240.523 312.717 251.247 332.317C263.024 325.577 273.983 313.512 281.902 293.457Z" fill="#AE0036"/>
<path d="M140.529 225.289C152.321 242.61 164.055 262.723 174.24 285.204C184.37 285.076 201.735 282.172 217.705 273.487C205.406 252.649 193.239 232.699 182.284 215.097C166.233 223.807 149.764 225.849 140.529 225.289Z" fill="#F09528"/>
<path d="M246.964 244.316C235.262 226.537 223.034 206.554 212.29 186.391C204.137 199.985 193.309 209.114 182.284 215.097C193.239 232.699 205.406 252.649 217.705 273.487C229.289 267.187 240.14 257.846 246.964 244.316Z" fill="#C97422"/>
<path d="M118.152 111.4C81.6639 129.787 80.5774 152.054 84.969 161.337C86.5504 162.639 88.2592 164.113 90.0795 165.756C100.104 172.409 119.956 177.022 147.443 160.578L144.665 156.573C134.049 162.284 120.626 165.427 104.124 163.113C94.2236 159.017 83.3772 144.128 119.191 117.346C118.686 115.292 118.323 113.291 118.152 111.4Z" fill="#FF719F"/>
<path d="M126.868 107.382C126.656 108.586 126.471 109.889 126.324 111.295C126.243 112.067 126.231 112.861 126.28 113.673C139.637 107.216 168.169 99.5336 175.447 120.462C171.964 130.883 162.103 147.192 144.665 156.573L147.443 160.578C180.208 140.976 185.992 126.598 184.79 121.526L184.761 121.42C184.743 121.354 184.725 121.289 184.707 121.223C182.822 109.171 168.597 89.8377 126.868 107.382Z" fill="#FF719F"/>
<path d="M104.124 163.113C105.102 154.542 110.601 141.125 124.191 131.305C122.166 126.807 120.321 121.942 119.191 117.346C83.3772 144.128 94.2236 159.017 104.124 163.113Z" fill="#A9005D"/>
<path d="M170.024 118.844L175.447 120.462C168.169 99.5336 139.637 107.216 126.28 113.673C126.539 117.968 128.499 122.744 130.963 127.106C140.628 121.994 153.393 118.635 170.024 118.844Z" fill="#A9005D"/>
<path d="M175.447 120.462L170.024 118.844C153.393 118.635 140.628 121.994 130.963 127.106C133.746 132.033 137.172 136.432 139.516 139.013C139.084 144.873 133.649 144.943 130.985 144.245C129.005 141.015 126.482 136.395 124.191 131.305C110.601 141.125 105.102 154.542 104.124 163.113C120.626 165.427 134.049 162.284 144.665 156.573C162.103 147.192 171.964 130.883 175.447 120.462Z" fill="#690021"/>
<path d="M129.464 78.1556C122.284 86.9081 119.58 98.4198 119.125 103.082C118.113 105.364 117.864 108.226 118.152 111.4C118.323 113.291 118.686 115.292 119.191 117.346C120.321 121.942 122.166 126.807 124.191 131.305C126.482 136.395 129.005 141.015 130.985 144.245C133.649 144.943 139.084 144.873 139.516 139.013C137.172 136.432 133.746 132.033 130.963 127.106C128.499 122.744 126.539 117.968 126.28 113.673C126.231 112.861 126.243 112.067 126.324 111.295C126.471 109.889 126.656 108.586 126.868 107.382C128.083 100.48 130.196 96.8319 131.24 95.7879L141.547 75.0798C142.89 70.0375 145.289 58.919 144.148 54.7837C137.729 56.4833 135.152 61.1788 134.666 63.3141C135.173 67.9315 131.409 75.1323 129.464 78.1556Z" fill="#F09528"/>
<path d="M104.476 28.4293C121.992 32.26 106.473 45.9666 106.473 45.9666C123.269 35.616 126.156 52.8593 125.501 62.7748C125.501 62.7748 128.86 30.6695 150.744 43.8113C150.744 43.8113 134.635 26.5387 140.28 19.3922C126.62 38.7055 117.637 12.5416 117.637 12.5416C127.496 34.1847 104.476 28.4293 104.476 28.4293Z" fill="#FEC56C"/>
<path fill-rule="evenodd" clip-rule="evenodd" d="M134.666 63.3141C135.152 61.1788 137.729 56.4833 144.148 54.7837C150.226 53.843 162.218 50.7185 161.558 45.7459C160.899 40.7734 156.294 38.9804 154.074 38.7055C150.702 37.1726 144.554 32.4325 146.939 25.7348C149.324 19.0371 148.335 12.4366 147.542 9.97358C147.014 9.14903 144.936 8.30542 140.851 11.5273C136.766 14.7492 131.834 14.6033 129.878 14.1275C124.921 8.28169 114.555 -2.74405 112.754 -0.0802284C110.952 2.5836 111.305 10.4378 111.707 14.032C112.521 17.3618 112.119 23.5775 104 21.8014C95.882 20.0253 93.5775 23.0274 93.44 24.7504C93.5034 26.7377 95.2474 31.5433 101.717 34.867C102.71 35.7549 103.423 39.3384 98.3231 46.5688C93.2236 53.7993 107.678 51.8441 115.543 49.9626C115.427 56.2312 116.564 69.3899 122.044 71.8763C127.524 74.3628 132.742 67.2042 134.666 63.3141ZM106.473 45.9666C106.473 45.9666 121.992 32.26 104.476 28.4293C104.476 28.4293 127.496 34.1847 117.637 12.5416C117.637 12.5416 126.62 38.7055 140.28 19.3922C134.635 26.5387 150.744 43.8113 150.744 43.8113C128.86 30.6695 125.501 62.7748 125.501 62.7748C126.156 52.8593 123.269 35.616 106.473 45.9666Z" fill="#EC6224"/>
</g>
<defs>
<clipPath id="clip0_649_261">
<rect width="345" height="342" fill="white"/>
</clipPath>
</defs>
</svg>
