<svg width="345" height="342" viewBox="0 0 345 342" fill="none" xmlns="http://www.w3.org/2000/svg">
<g clip-path="url(#clip0_649_261)">
<path d="M123.316 57.083C118.849 57.6693 110.105 61.4645 110.871 71.9545C111.637 82.4444 120.231 85.0669 124.433 85.0669H129.379V132.4C105.606 139.489 58.6653 171.321 61.0905 241.937C63.5157 312.552 127.199 338.308 158.737 342.359H173.256C117.731 342.103 87.8954 301.636 79.7582 284.153C73.8466 273.812 64.5494 242.512 74.6525 200.041C84.7555 157.569 130.876 141.514 152.674 138.796V92.9024L173.256 87.1457L217.452 85.0669H222.398C226.307 85.0669 234.018 82.797 235.69 74.0333H173.256C135.856 79.9179 131.294 65.185 133.528 57.083H123.316Z" fill="#9FCDE7"/>
<path d="M78.4269 208.676C74.7756 200.763 138.763 199.587 173.256 200.041V87.1457L152.674 92.9024V138.796C130.876 141.514 84.7555 157.569 74.6525 200.041C64.5494 242.512 73.8466 273.812 79.7582 284.153C87.8954 301.636 117.731 342.103 173.256 342.359V324.609C79.8213 320.644 71.2121 245.668 78.4269 208.676Z" fill="#D1E2EC"/>
<path d="M173.256 87.1457V200.041C207.748 199.587 272.055 200.763 268.404 208.676C275.619 245.668 266.69 320.644 173.256 324.609V342.359H188.094C219.632 338.308 283.315 312.552 285.74 241.937C288.166 171.321 241.225 139.489 217.452 132.4V85.0669L173.256 87.1457Z" fill="#D8E9F4"/>
<path d="M79.7582 210.115C92.2671 219.326 147.195 221.309 173.256 221.149C199.316 221.309 254.564 219.326 267.073 210.115C267.756 209.612 268.193 209.133 268.404 208.676C272.055 200.763 207.748 199.587 173.256 200.041C138.763 199.587 74.7756 200.763 78.4269 208.676C78.6378 209.133 79.0752 209.612 79.7582 210.115Z" fill="#81CA7B"/>
<path d="M173.256 221.149C147.195 221.309 92.2671 219.326 79.7582 210.115C79.0752 209.612 78.6378 209.133 78.4269 208.676C71.2121 245.668 79.8213 320.644 173.256 324.609V221.149Z" fill="#529048"/>
<path d="M173.256 221.149V324.609C266.69 320.644 275.619 245.668 268.404 208.676C268.193 209.133 267.756 209.612 267.073 210.115C254.564 219.326 199.316 221.309 173.256 221.149Z" fill="#5AA85D"/>
<path d="M133.528 57.083H173.415H213.303L213.576 49.4074C195.046 51.7101 179.081 47.3819 173.415 44.93C161.134 41.8597 161.689 23.1298 163.501 14.1486C148.888 16.6902 134.267 12.5533 130.975 11.1893L133.528 57.083Z" fill="#EF7745"/>
<path fill-rule="evenodd" clip-rule="evenodd" d="M215.311 0.635407C201.367 7.92722 181.304 11.7757 173.415 12.7884C169.863 13.3929 166.563 13.8368 163.501 14.1486C161.689 23.1298 161.134 41.8597 173.415 44.93C179.081 47.3819 195.046 51.7101 213.576 49.4074L215.311 0.635407ZM199.8 13.2682C196.858 12.7564 195.163 15.1871 194.683 16.4663L193.244 35.9751C193.137 37.6808 193.852 41.1881 197.562 41.5719C201.271 41.9557 202.625 39.2799 202.839 37.894C203.318 31.551 204.31 18.6091 204.438 17.5857C204.566 16.5623 204.065 15.7734 203.798 15.5069C203.691 14.9738 202.743 13.7799 199.8 13.2682Z" fill="#F39452"/>
<path d="M194.683 16.4663C195.163 15.1871 196.858 12.7564 199.8 13.2682C202.743 13.7799 203.691 14.9738 203.798 15.5069C204.065 15.7734 204.566 16.5623 204.438 17.5857C204.31 18.6091 203.318 31.551 202.839 37.894C202.625 39.2799 201.271 41.9557 197.562 41.5719C193.852 41.1881 193.137 37.6808 193.244 35.9751L194.683 16.4663Z" fill="white"/>
<path d="M173.416 2.07458C147.887 4.50518 134.485 9.16384 130.975 11.1893C134.267 12.5533 148.888 16.6902 163.501 14.1486C166.563 13.8368 169.863 13.3929 173.415 12.7884C181.304 11.7757 201.367 7.92722 215.311 0.635407C211.801 -1.3901 173.416 2.07458 173.416 2.07458Z" fill="#F8B88C"/>
<path fill-rule="evenodd" clip-rule="evenodd" d="M173.415 57.083H133.528C131.294 65.185 135.856 79.9179 173.256 74.0333H235.69C235.815 73.3773 235.907 72.685 235.96 71.9545C236.726 61.4645 227.982 57.6693 223.515 57.083H213.303H173.415ZM170.217 60.7609H173.381H218.35C219.043 60.9208 220.428 61.6001 220.428 63.6392C220.428 65.5581 219.043 66.5709 218.35 66.8374H173.323H169.258C168.831 66.6775 167.947 65.846 167.819 63.7991C167.691 61.7523 169.364 60.9208 170.217 60.7609Z" fill="#D1E2EC"/>
<path d="M173.381 60.7609H170.217C169.364 60.9208 167.691 61.7523 167.819 63.7991C167.947 65.846 168.831 66.6775 169.258 66.8374H173.323H218.35C219.043 66.5709 220.428 65.5581 220.428 63.6392C220.428 61.6001 219.043 60.9208 218.35 60.7609H173.381Z" fill="white"/>
<path d="M205.285 296.859L184.686 286.839L205.287 276.819C206.433 276.246 206.899 274.852 206.324 273.706L204.248 269.552C203.675 268.406 202.281 267.94 201.133 268.513L174.07 281.676L147.007 268.513C145.861 267.94 144.467 268.404 143.892 269.552L141.816 273.706C141.243 274.852 141.707 276.246 142.853 276.819L163.454 286.839L142.855 296.859C141.708 297.432 141.243 298.826 141.817 299.974L143.893 304.128C144.467 305.274 145.861 305.74 147.008 305.165L174.07 292.003L201.133 305.165C202.279 305.738 203.673 305.274 204.248 304.128L206.324 299.974C206.897 298.826 206.432 297.432 205.285 296.859ZM163.334 265.552L162.539 269.305C162.151 271.136 163.325 272.911 164.925 272.911H183.218C184.818 272.911 185.992 271.136 185.604 269.305L184.806 265.552C190.868 262.301 194.962 256.448 194.962 249.697C194.962 239.441 185.609 231.126 174.07 231.126C162.531 231.126 153.178 239.441 153.178 249.697C153.178 256.448 157.272 262.301 163.334 265.552ZM182.195 247.376C184.756 247.376 186.838 249.458 186.838 252.018C186.838 254.579 184.756 256.661 182.195 256.661C179.634 256.661 177.552 254.579 177.552 252.018C177.552 249.458 179.634 247.376 182.195 247.376ZM165.945 247.376C168.506 247.376 170.588 249.458 170.588 252.018C170.588 254.579 168.506 256.661 165.945 256.661C163.384 256.661 161.302 254.579 161.302 252.018C161.302 249.458 163.384 247.376 165.945 247.376Z" fill="#74CC6C"/>
</g>
<defs>
<clipPath id="clip0_649_261">
<rect width="345" height="342" fill="white"/>
</clipPath>
</defs>
</svg>
