<svg width="400" height="315" viewBox="0 0 400 315" fill="none" xmlns="http://www.w3.org/2000/svg">
<path d="M154.336 52.5213C150.226 53.0608 142.181 56.5526 142.886 66.2043C143.59 75.856 151.498 78.2689 155.364 78.2689H159.915V121.819C138.041 128.342 94.8518 157.63 97.0832 222.603C99.3146 287.575 157.908 311.273 186.926 315H200.285C149.197 314.765 121.746 277.531 114.259 261.445C108.82 251.931 100.266 223.132 109.561 184.055C118.857 144.977 161.292 130.206 181.348 127.704V85.4783L200.285 80.1816L240.949 78.2689H245.5C249.097 78.2689 256.192 76.1804 257.73 68.117H200.285C165.874 73.5314 161.676 59.9758 163.732 52.5213H154.336Z" fill="#9FCDE7"/>
<path d="M113.034 192C109.675 184.719 168.549 183.638 200.285 184.055V80.1816L181.348 85.4783V127.704C161.292 130.206 118.857 144.977 109.561 184.055C100.266 223.132 108.82 251.931 114.259 261.445C121.746 277.531 149.197 314.765 200.285 315V298.669C114.317 295.02 106.396 226.036 113.034 192Z" fill="#D1E2EC"/>
<path d="M200.285 80.1816V184.055C232.021 183.638 291.189 184.719 287.83 192C294.468 226.036 286.252 295.02 200.285 298.669V315H213.937C242.955 311.273 301.549 287.575 303.781 222.603C306.012 157.63 262.823 128.342 240.949 121.819V78.2689L200.285 80.1816Z" fill="#D8E9F4"/>
<path d="M114.259 193.324C125.768 201.799 176.307 203.623 200.285 203.476C224.263 203.623 275.095 201.799 286.605 193.324C287.233 192.861 287.636 192.42 287.83 192C291.189 184.719 232.021 183.638 200.285 184.055C168.549 183.638 109.675 184.719 113.034 192C113.228 192.42 113.631 192.861 114.259 193.324Z" fill="#81CA7B"/>
<path d="M200.285 203.476C176.307 203.623 125.768 201.799 114.259 193.324C113.631 192.861 113.228 192.42 113.034 192C106.396 226.036 114.317 295.02 200.285 298.669V203.476Z" fill="#529048"/>
<path d="M200.285 203.476V298.669C286.252 295.02 294.468 226.036 287.83 192C287.636 192.42 287.233 192.861 286.605 193.324C275.095 201.799 224.263 203.623 200.285 203.476Z" fill="#5AA85D"/>
<path d="M163.732 52.5213H200.432H237.132L237.383 45.4591C220.334 47.5777 205.645 43.5954 200.432 41.3395C189.132 38.5146 189.642 21.2814 191.31 13.0179C177.864 15.3564 164.412 11.5501 161.383 10.2952L163.732 52.5213Z" fill="#EF7745"/>
<path fill-rule="evenodd" clip-rule="evenodd" d="M238.98 0.584629C226.15 7.29372 207.69 10.8346 200.432 11.7664C197.164 12.3226 194.127 12.7311 191.31 13.0179C189.642 21.2814 189.132 38.5146 200.432 41.3395C205.645 43.5954 220.334 47.5777 237.383 45.4591L238.98 0.584629ZM224.708 12.2078C222.001 11.737 220.442 13.9734 220 15.1504L218.676 33.1002C218.578 34.6696 219.235 37.8966 222.648 38.2498C226.062 38.6029 227.308 36.1409 227.504 34.8658C227.945 29.0296 228.857 17.122 228.975 16.1803C229.093 15.2387 228.632 14.5129 228.386 14.2677C228.288 13.7772 227.415 12.6787 224.708 12.2078Z" fill="#F39452"/>
<path d="M220 15.1504C220.442 13.9734 222.001 11.737 224.708 12.2078C227.415 12.6787 228.288 13.7772 228.386 14.2677C228.632 14.5129 229.093 15.2387 228.975 16.1803C228.857 17.122 227.945 29.0296 227.504 34.8658C227.308 36.1409 226.062 38.6029 222.648 38.2498C219.235 37.8966 218.578 34.6696 218.676 33.1002L220 15.1504Z" fill="white"/>
<path d="M200.432 1.90879C176.944 4.14516 164.612 8.43152 161.383 10.2952C164.412 11.5501 177.864 15.3564 191.31 13.0179C194.127 12.7311 197.164 12.3226 200.432 11.7664C207.69 10.8346 226.15 7.29372 238.98 0.584629C235.75 -1.27901 200.432 1.90879 200.432 1.90879Z" fill="#F8B88C"/>
<path fill-rule="evenodd" clip-rule="evenodd" d="M200.432 52.5213H163.732C161.676 59.9758 165.874 73.5314 200.285 68.117H257.73C257.845 67.5135 257.929 66.8764 257.978 66.2043C258.683 56.5526 250.638 53.0608 246.528 52.5213H237.132H200.432ZM197.489 55.9053H200.4H241.775C242.413 56.0524 243.688 56.6774 243.688 58.5536C243.688 60.3191 242.413 61.251 241.775 61.4962H200.347H196.607C196.214 61.3491 195.4 60.584 195.282 58.7007C195.165 56.8175 196.705 56.0524 197.489 55.9053Z" fill="#D1E2EC"/>
<path d="M200.4 55.9053H197.489C196.705 56.0524 195.165 56.8175 195.282 58.7007C195.4 60.584 196.214 61.3491 196.607 61.4962H200.347H241.775C242.413 61.251 243.688 60.3191 243.688 58.5536C243.688 56.6774 242.413 56.0524 241.775 55.9053H200.4Z" fill="white"/>
<path d="M229.855 272.85L210.887 263.641L229.856 254.431C230.912 253.905 231.34 252.623 230.811 251.57L228.9 247.752C228.372 246.698 227.088 246.27 226.031 246.797L201.113 258.895L176.194 246.797C175.138 246.27 173.854 246.697 173.325 247.752L171.414 251.57C170.886 252.623 171.313 253.905 172.369 254.431L191.338 263.641L172.37 272.85C171.315 273.377 170.886 274.658 171.415 275.713L173.327 279.531C173.854 280.584 175.138 281.012 176.195 280.484L201.113 268.387L226.031 280.484C227.087 281.011 228.371 280.584 228.9 279.531L230.811 275.713C231.339 274.658 230.91 273.377 229.855 272.85ZM191.227 244.075L190.495 247.525C190.138 249.208 191.219 250.839 192.692 250.839H209.536C211.009 250.839 212.09 249.208 211.733 247.525L210.998 244.075C216.58 241.087 220.35 235.708 220.35 229.503C220.35 220.076 211.737 212.434 201.113 212.434C190.488 212.434 181.875 220.076 181.875 229.503C181.875 235.708 185.645 241.087 191.227 244.075ZM208.594 227.369C210.952 227.369 212.869 229.283 212.869 231.636C212.869 233.99 210.952 235.904 208.594 235.904C206.236 235.904 204.319 233.99 204.319 231.636C204.319 229.283 206.236 227.369 208.594 227.369ZM193.631 227.369C195.989 227.369 197.906 229.283 197.906 231.636C197.906 233.99 195.989 235.904 193.631 235.904C191.273 235.904 189.356 233.99 189.356 231.636C189.356 229.283 191.273 227.369 193.631 227.369Z" fill="#74CC6C"/>
</svg>
