<svg width="400" height="315" viewBox="0 0 400 315" fill="none" xmlns="http://www.w3.org/2000/svg">
<path d="M172.017 22.84C166.487 32.8052 182.138 52.0314 206.975 65.7829C223.764 75.0784 240.453 79.493 251.214 78.3C247.956 73.5848 243.465 68.8135 238.468 64.3154C232.245 64.215 223.108 61.3595 213.796 56.204C209.912 54.0534 206.383 51.7164 203.344 49.3439C194.804 42.6773 190.128 35.731 192.278 31.857C194.622 27.6343 204.362 28.3471 215.781 33.0462C217.509 30.9237 219.307 28.7724 221.144 26.6447C198.404 15.5414 177.112 13.6602 172.017 22.84Z" fill="#960000"/>
<path d="M273.844 0.174261C271.018 -0.184209 262.243 -0.229017 249.753 2.4595C242.43 4.03595 231.209 14.9844 221.144 26.6447C219.307 28.7724 217.509 30.9237 215.781 33.0462C210.826 39.1291 206.439 44.9745 203.344 49.3439C206.383 51.7164 209.912 54.0534 213.796 56.204L226.739 39.0234C226.812 38.9117 226.886 38.799 226.961 38.6856C228.221 36.777 229.796 34.6241 231.631 32.3846C241.196 20.7114 257.827 6.68775 273.844 12.6759C291.038 19.1041 294.222 37.6481 293.453 50.3523C297.212 51.2611 300.629 50.4188 303.706 48.3111L303.673 45.5357C304.016 38.7531 302.982 29.7489 298.339 20.4726C290.802 5.41688 278.869 0.667159 273.844 0.174261Z" fill="#F1BC5D"/>
<path d="M192.278 31.857C190.128 35.731 194.804 42.6773 203.344 49.3439C206.439 44.9745 210.826 39.1291 215.781 33.0462C204.362 28.3471 194.622 27.6343 192.278 31.857Z" fill="#141414"/>
<path d="M226.739 39.0234L213.796 56.204C223.108 61.3595 232.245 64.215 238.468 64.3154C232.95 59.3479 226.815 54.7138 221.044 50.8569C230.618 55.6823 238.739 59.3217 245.6 61.9513C245.699 61.8165 245.789 61.6758 245.87 61.5292C248.611 56.5919 240.263 46.6646 226.961 38.6856C226.886 38.799 226.812 38.9117 226.739 39.0234Z" fill="#141414"/>
<path d="M231.631 32.3846C229.796 34.6241 228.221 36.777 226.961 38.6856C240.263 46.6646 248.611 56.5919 245.87 61.5292C245.789 61.6758 245.699 61.8165 245.6 61.9513C252.682 64.6659 258.42 66.3043 263.026 67.0605C262.186 57.3236 249.878 43.5004 231.631 32.3846Z" fill="#960000"/>
<path d="M191.153 95.4775C215.99 109.229 241.048 111.504 247.122 100.56C248.587 97.7968 250.501 94.1879 252.464 90.4865C253.36 88.7984 254.266 87.0911 255.145 85.4359C254.221 83.1012 252.878 80.7079 251.214 78.3C240.453 79.493 223.764 75.0784 206.975 65.7829C182.138 52.0314 166.487 32.8052 172.017 22.84C171.438 23.3488 167.39 30.9737 163.353 38.7494C161.086 43.1173 158.822 47.5327 157.179 50.7612C151.105 61.7058 166.315 81.726 191.153 95.4775Z" fill="#660000"/>
<path fill-rule="evenodd" clip-rule="evenodd" d="M209.197 111.613C241.302 111.239 290.399 122.058 229.949 168.324C247.484 157.005 273.595 144.826 280.589 155.909C282.315 158.644 282.877 162.796 281.859 168.727C281.022 173.604 279.116 179.684 275.911 187.168C277.794 183.176 279.913 179.116 282.188 175.295C295.517 152.903 314.198 138.674 322.169 193.933C319.872 166.285 324.09 124.034 359.345 176.208C344.797 152.551 330.898 113.612 391.682 147.113C368.359 132.001 336.631 102.581 395.756 105.484C366.121 103.95 325.216 93.3416 395.468 62.844C365.574 72.3629 318.825 78.7016 359.427 32.3484C344.914 47.3457 326.65 60.5114 320.715 47.066C318.273 41.5342 317.918 31.4981 320.77 15.2318C317.281 29.1238 311.613 42.8952 303.706 48.3111C300.629 50.4188 297.212 51.2611 293.453 50.3523C290.048 49.529 286.361 47.2688 282.39 43.2105C276.995 37.6965 271.076 28.8632 264.625 15.8053C266.299 25.6023 298.794 72.9319 263.026 67.0605C258.42 66.3043 252.682 64.6659 245.6 61.9513C238.739 59.3217 230.618 55.6823 221.044 50.8569C226.815 54.7138 232.95 59.3479 238.468 64.3154C243.465 68.8135 247.956 73.5848 251.214 78.3C252.878 80.7079 254.221 83.1012 255.145 85.4359C256.531 88.9383 256.976 92.3091 256.152 95.4C253.769 104.346 240.759 110.947 209.197 111.613ZM261.961 72.6386C261.945 72.6665 261.93 72.6943 261.914 72.7219C261.938 72.6791 261.953 72.6511 261.961 72.6386ZM281.6 51.3226L298.99 94.7693L256.433 73.8279L291.676 97.178L264.554 95.4L291.676 103.21L245.657 111.079L292.727 108.658L260.54 125.194L295.604 113.431L279.214 142.258L301.574 115.541L287.984 157.702L309.722 116.81L317.288 145.514L315.203 114.99L335.836 143.212C330.787 130.157 321.218 112.875 321.106 111.977C320.994 111.078 338.197 116.316 347.09 123.573L327.435 103.21L359.399 103.234L325.403 96.0518L350.217 75.3005L317.96 91.2749L337.795 58.03L309.952 91.1286L313.497 46.2239L301.664 88.7368L281.6 51.3226Z" fill="#F24B40"/>
<path d="M298.99 94.7693L281.6 51.3226L301.664 88.7368L313.497 46.2239L309.952 91.1286L337.795 58.03L317.96 91.2749L350.217 75.3005L325.403 96.0518L359.399 103.234L327.435 103.21L347.09 123.573C338.197 116.316 320.994 111.078 321.106 111.977C321.218 112.875 330.787 130.157 335.836 143.212L315.203 114.99L317.288 145.514L309.722 116.81L287.984 157.702L301.574 115.541L279.214 142.258L295.604 113.431L260.54 125.194L292.727 108.658L245.657 111.079L291.676 103.21L264.554 95.4L291.676 97.178L256.433 73.8279L298.99 94.7693Z" fill="#EEA139"/>
<path d="M247.122 100.56C241.048 111.504 215.99 109.229 191.153 95.4775C166.315 81.726 151.105 61.7058 157.179 50.7612C158.822 47.5327 161.086 43.1173 163.353 38.7494C156.719 37.7786 149.932 37.2758 143.027 37.2758V209.915V315C198.646 315 246.637 282.378 268.866 235.246C277.271 217.426 282.126 196.299 282.188 175.295C279.913 179.116 277.794 183.176 275.911 187.168C279.116 179.684 281.022 173.604 281.859 168.727C281.631 164.399 281.205 160.123 280.589 155.909C273.595 144.826 247.484 157.005 229.949 168.324C290.399 122.058 241.302 111.239 209.197 111.613C240.759 110.947 253.769 104.346 256.152 95.4C256.976 92.3091 256.531 88.9383 255.145 85.4359L252.464 90.4865C250.501 94.1879 248.587 97.7968 247.122 100.56Z" fill="#960000"/>
<path d="M143.027 37.2758C66.2445 37.2758 4 99.4465 4 176.138C4 187.664 5.40593 198.862 8.05584 209.57C23.0379 270.112 77.7841 315 143.027 315V209.915V37.2758Z" fill="#660000"/>
</svg>
