<svg width="400" height="315" viewBox="0 0 400 315" fill="none" xmlns="http://www.w3.org/2000/svg">
<g clip-path="url(#clip0_660_12)">
<path d="M177.129 151.053C151.89 166.153 133.662 161.917 124.457 155.808C136.437 166.617 153.676 185.347 170.78 210.472C179.26 210.986 194.382 209.112 209.12 201.113C195.672 179.504 184.216 161.75 177.129 151.053Z" fill="#CD0041"/>
<path d="M201.734 265.486C207.831 278.945 213.324 293.329 217.833 308.53C230.13 314.98 252.558 320.127 272.442 308.746C262.595 290.749 252.069 272.391 241.644 254.728C226.98 262.702 211.035 265.369 201.734 265.486Z" fill="#CD0041"/>
<path d="M211.421 115.196C212.525 119.853 207.214 133.055 177.129 151.053C184.216 161.75 195.672 179.504 209.12 201.113C219.243 195.62 229.186 187.237 236.672 174.756C225.752 154.263 216.501 133.569 211.421 115.196Z" fill="#AE0036"/>
<path d="M300.59 273.065C292.334 262.471 280.734 246.517 268.51 227.943C262.244 240.366 252.281 248.943 241.644 254.728C252.069 272.391 262.595 290.749 272.442 308.746C283.257 302.557 293.319 291.48 300.59 273.065Z" fill="#AE0036"/>
<path d="M170.78 210.472C181.608 226.377 192.382 244.844 201.734 265.486C211.035 265.369 226.98 262.702 241.644 254.728C230.351 235.594 219.179 217.276 209.12 201.113C194.382 209.112 179.26 210.986 170.78 210.472Z" fill="#F09528"/>
<path d="M268.51 227.943C257.765 211.618 246.537 193.269 236.672 174.756C229.186 187.237 219.243 195.62 209.12 201.113C219.179 217.276 230.351 235.594 241.644 254.728C252.281 248.943 262.244 240.366 268.51 227.943Z" fill="#C97422"/>
<path d="M150.233 105.899C116.73 122.782 115.732 143.227 119.765 151.751C121.217 152.946 122.786 154.3 124.457 155.808C133.662 161.917 151.89 166.153 177.129 151.053L174.578 147.377C164.83 152.62 152.505 155.507 137.352 153.382C128.262 149.62 118.303 135.95 151.187 111.358C150.724 109.472 150.391 107.634 150.233 105.899Z" fill="#FF719F"/>
<path d="M158.236 102.209C158.042 103.315 157.872 104.511 157.737 105.802C157.663 106.51 157.652 107.24 157.697 107.985C169.961 102.056 196.16 95.0024 202.842 114.219C199.644 123.788 190.59 138.763 174.578 147.377L177.129 151.053C207.214 133.055 212.525 119.853 211.421 115.196L211.394 115.099C211.378 115.038 211.361 114.978 211.345 114.918C209.614 103.852 196.553 86.0995 158.236 102.209Z" fill="#FF719F"/>
<path d="M137.352 153.382C138.251 145.511 143.3 133.192 155.778 124.175C153.919 120.045 152.225 115.578 151.187 111.358C118.303 135.95 128.262 149.62 137.352 153.382Z" fill="#A9005D"/>
<path d="M197.863 112.733L202.842 114.219C196.16 95.0024 169.961 102.056 157.697 107.985C157.935 111.929 159.734 116.314 161.996 120.319C170.871 115.626 182.592 112.542 197.863 112.733Z" fill="#A9005D"/>
<path d="M202.842 114.219L197.863 112.733C182.592 112.542 170.871 115.626 161.996 120.319C164.552 124.844 167.698 128.883 169.85 131.252C169.454 136.634 164.463 136.697 162.017 136.057C160.199 133.091 157.883 128.849 155.778 124.175C143.3 133.192 138.251 145.511 137.352 153.382C152.505 155.507 164.83 152.62 174.578 147.377C190.59 138.763 199.644 123.788 202.842 114.219Z" fill="#690021"/>
<path d="M160.621 75.3729C154.028 83.4096 151.545 93.9797 151.127 98.2602C150.197 100.356 149.969 102.984 150.233 105.899C150.391 107.634 150.724 109.472 151.187 111.358C152.225 115.578 153.919 120.045 155.778 124.175C157.883 128.849 160.199 133.091 162.017 136.057C164.463 136.697 169.454 136.634 169.85 131.252C167.698 128.883 164.552 124.844 161.996 120.319C159.734 116.314 157.935 111.929 157.697 107.985C157.652 107.24 157.663 106.51 157.737 105.802C157.872 104.511 158.042 103.315 158.236 102.209C159.352 95.8714 161.292 92.5217 162.251 91.5631L171.715 72.5487C172.948 67.9188 175.151 57.7098 174.103 53.9127C168.209 55.4733 165.843 59.7848 165.396 61.7454C165.862 65.9851 162.407 72.597 160.621 75.3729Z" fill="#F09528"/>
<path d="M137.676 29.7139C153.76 33.2313 139.51 45.8168 139.51 45.8168C154.932 36.3128 157.583 52.1457 156.981 61.2502C156.981 61.2502 160.066 31.7708 180.16 43.8377C180.16 43.8377 165.368 27.9779 170.552 21.4159C158.009 39.1496 149.761 15.1257 149.761 15.1257C158.813 34.9986 137.676 29.7139 137.676 29.7139Z" fill="#FEC56C"/>
<path fill-rule="evenodd" clip-rule="evenodd" d="M165.396 61.7454C165.843 59.7848 168.209 55.4733 174.103 53.9127C179.684 53.0489 190.695 50.18 190.09 45.6142C189.484 41.0483 185.256 39.402 183.218 39.1496C180.121 37.7421 174.476 33.3896 176.666 27.2398C178.856 21.0899 177.948 15.0293 177.22 12.7677C176.735 12.0106 174.826 11.236 171.076 14.1944C167.325 17.1527 162.796 17.0187 161.001 16.5819C156.448 11.2142 146.931 1.09025 145.277 3.5362C143.623 5.98215 143.947 13.194 144.315 16.4941C145.063 19.5516 144.694 25.2589 137.239 23.6281C129.785 21.9972 127.669 24.7538 127.543 26.3359C127.601 28.1607 129.202 32.5732 135.143 35.625C136.055 36.4403 136.709 39.7307 132.026 46.3697C127.344 53.0088 140.616 51.2135 147.838 49.486C147.731 55.2418 148.775 67.3242 153.807 69.6073C158.839 71.8903 163.63 65.3173 165.396 61.7454ZM139.51 45.8168C139.51 45.8168 153.76 33.2313 137.676 29.7139C137.676 29.7139 158.813 34.9986 149.761 15.1257C149.761 15.1257 158.009 39.1496 170.552 21.4159C165.368 27.9779 180.16 43.8377 180.16 43.8377C160.066 31.7708 156.981 61.2502 156.981 61.2502C157.583 52.1457 154.932 36.3128 139.51 45.8168Z" fill="#EC6224"/>
</g>
<defs>
<clipPath id="clip0_660_12">
<rect width="400" height="315" fill="white"/>
</clipPath>
</defs>
</svg>
