<svg width="301" height="343" viewBox="0 0 301 343" fill="none" xmlns="http://www.w3.org/2000/svg">
<path d="M212.411 242.327L300.027 256.994L243.771 189.255C241.449 190.265 238.718 191.244 235.762 192.044L281.5 246.862L211.946 234.028C212.866 237.858 213.01 240.966 212.411 242.327Z" fill="#767676"/>
<path d="M242.999 153.938L300.22 85.9098L212.7 100.673C212.832 102.797 212.498 105.598 211.704 108.682L281.597 96.2346L235.28 151.072C237.711 151.818 240.282 152.765 242.999 153.938Z" fill="#767676"/>
<path fill-rule="evenodd" clip-rule="evenodd" d="M150.268 0.223022L180.857 82.3395C178.853 83.3303 176.658 84.9477 174.488 87.0166L150.268 20.7763V0.223022Z" fill="#767676"/>
<path fill-rule="evenodd" clip-rule="evenodd" d="M150.268 321.968V342.522L181.243 260.66C179.407 259.755 177.3 258.127 175.171 255.983L150.268 321.968Z" fill="#767676"/>
<path d="M119.583 260.66L150.172 342.777L150.268 342.522V321.968L150.172 322.224L125.952 255.983C123.782 258.052 121.588 259.67 119.583 260.66Z" fill="#646464"/>
<path d="M57.4412 189.062L0.220215 257.09L87.7403 242.327C87.608 240.203 87.9422 237.402 88.7365 234.318L18.8436 246.765L65.1607 191.928C62.7298 191.182 60.1589 190.235 57.4412 189.062Z" fill="#646464"/>
<path d="M88.0298 100.673L0.41321 86.0062L56.6692 153.745C58.9917 152.735 61.7221 151.756 64.6782 150.956L18.9401 96.1381L88.4948 108.972C87.5747 105.142 87.4302 102.034 88.0298 100.673Z" fill="#646464"/>
<path d="M150.268 0.223022L119.197 82.3395C121.034 83.2446 123.14 84.8728 125.27 87.0166L150.268 20.7763V0.223022Z" fill="#646464"/>
<path d="M175.171 255.983C163.546 244.28 151.244 217.211 178.541 208.554C198.221 202.312 209.016 221.832 211.946 234.028L281.5 246.862L235.762 192.044C220.827 196.087 200.129 195.569 197.165 171.403C198.377 160.43 207.468 142.545 235.28 151.072L281.597 96.2346L211.704 108.682C208.177 122.38 195.578 141.675 174.488 132.13C152.03 121.966 162.907 98.0594 174.488 87.0166L150.268 20.7763L150.268 155.385C162.465 155.308 166.415 165.968 166.865 171.403C166.384 176.761 162.39 187.48 150.268 187.614V321.968L175.171 255.983Z" fill="#3C3C3F"/>
<path d="M150.172 187.614C137.975 187.692 134.025 176.839 133.575 171.403C134.057 166.032 138.072 155.463 150.268 155.385L150.268 20.7763L125.27 87.0166C136.894 98.72 149.197 125.789 121.899 134.446C102.219 140.688 91.4246 121.168 88.4948 108.972L18.9401 96.1381L64.6782 150.956C79.6135 146.913 100.312 147.431 103.276 171.596C102.063 182.57 92.9724 200.455 65.1607 191.928L18.8436 246.765L88.7365 234.318C92.2635 220.62 104.862 201.325 125.952 210.87C148.41 221.034 137.533 244.94 125.952 255.983L150.172 322.224L150.268 321.968V187.614L150.172 187.614Z" fill="#2E2E31"/>
</svg>
