<svg width="345" height="342" viewBox="0 0 345 342" fill="none" xmlns="http://www.w3.org/2000/svg">
<g clip-path="url(#clip0_649_262)">
<path d="M172.911 0L128 138.319C128.196 137.716 157.748 122.699 172.5 115.266L172.911 115.478V0Z" fill="#BFC1C0"/>
<path d="M128 138.319L159.218 190.934H172.911V115.478L172.5 115.266C157.748 122.699 128.196 137.716 128 138.319Z" fill="#9EA09F"/>
<path d="M217 138.319L172.911 0V115.478L217 138.319Z" fill="#A4A4A4"/>
<path d="M186.603 190.934L217 138.319L172.911 115.478V190.934H186.603Z" fill="#848484"/>
<path d="M154.015 204.766H161.409H172.5H183.591H191.258V190.934H186.603H172.911H159.218H154.015V204.766Z" fill="#C01621"/>
<path d="M161.409 204.766V276.621C164.883 275.416 168.615 274.755 172.5 274.739V204.766H161.409Z" fill="#F31421"/>
<path d="M172.637 274.739C176.47 274.739 180.154 275.368 183.591 276.527V204.766H172.5V274.739C172.546 274.739 172.591 274.739 172.637 274.739Z" fill="#CF191F"/>
<path fill-rule="evenodd" clip-rule="evenodd" d="M172.637 342C191.391 342 206.594 326.943 206.594 308.37C206.594 293.592 196.97 281.04 183.591 276.527C180.154 275.368 176.47 274.739 172.637 274.739C172.591 274.739 172.546 274.739 172.5 274.739C168.615 274.755 164.883 275.416 161.409 276.621C148.173 281.212 138.68 293.693 138.68 308.37C138.68 326.943 153.883 342 172.637 342ZM172.911 327.897C183.951 327.897 192.902 319.033 192.902 308.098C192.902 297.164 183.951 288.3 172.911 288.3C161.87 288.3 152.92 297.164 152.92 308.098C152.92 319.033 161.87 327.897 172.911 327.897Z" fill="#373440"/>
</g>
<defs>
<clipPath id="clip0_649_262">
<rect width="345" height="342" fill="white"/>
</clipPath>
</defs>
</svg>
