<svg width="400" height="315" viewBox="0 0 400 315" fill="none" xmlns="http://www.w3.org/2000/svg">
<g clip-path="url(#clip0_661_18)">
<path d="M200.378 0L159 127.399C159.18 126.844 186.408 113.012 200 106.166L200.378 106.362V0Z" fill="#BFC1C0"/>
<path d="M159 127.399L187.763 175.86H200.378V106.362L200 106.166C186.408 113.012 159.18 126.844 159 127.399Z" fill="#9EA09F"/>
<path d="M241 127.399L200.378 0V106.362L241 127.399Z" fill="#A4A4A4"/>
<path d="M212.994 175.86L241 127.399L200.378 106.362V175.86H212.994Z" fill="#848484"/>
<path d="M182.969 188.6H189.782H200H210.218H217.283V175.86H212.994H200.378H187.763H182.969V188.6Z" fill="#C01621"/>
<path d="M189.782 188.6V254.782C192.982 253.673 196.42 253.063 200 253.049V188.6H189.782Z" fill="#F31421"/>
<path d="M200.126 253.049C203.657 253.049 207.052 253.628 210.218 254.696V188.6H200V253.049C200.042 253.049 200.084 253.049 200.126 253.049Z" fill="#CF191F"/>
<path fill-rule="evenodd" clip-rule="evenodd" d="M200.126 315C217.405 315 231.412 301.132 231.412 284.025C231.412 270.414 222.545 258.853 210.218 254.696C207.052 253.628 203.657 253.049 200.126 253.049C200.084 253.049 200.042 253.049 200 253.049C196.42 253.063 192.982 253.673 189.782 254.782C177.586 259.011 168.84 270.507 168.84 284.025C168.84 301.132 182.847 315 200.126 315ZM200.378 302.01C210.551 302.01 218.797 293.846 218.797 283.775C218.797 273.704 210.551 265.539 200.378 265.539C190.206 265.539 181.96 273.704 181.96 283.775C181.96 293.846 190.206 302.01 200.378 302.01Z" fill="#373440"/>
</g>
<defs>
<clipPath id="clip0_661_18">
<rect width="400" height="315" fill="white"/>
</clipPath>
</defs>
</svg>
