<svg width="400" height="315" viewBox="0 0 400 315" fill="none" xmlns="http://www.w3.org/2000/svg">
<path d="M257.389 222.63L338.068 236.117L286.267 173.827C284.128 174.755 281.614 175.656 278.892 176.391L321.008 226.8L256.961 214.999C257.808 218.521 257.941 221.378 257.389 222.63Z" fill="#767676"/>
<path d="M285.556 141.351L338.246 78.7944L257.656 92.3704C257.778 94.3234 257.47 96.8988 256.739 99.7352L321.097 88.2888L278.448 138.715C280.686 139.401 283.053 140.272 285.556 141.351Z" fill="#767676"/>
<path fill-rule="evenodd" clip-rule="evenodd" d="M200.167 0L228.334 75.5113C226.488 76.4225 224.468 77.9097 222.47 79.8122L200.167 18.9V0Z" fill="#767676"/>
<path fill-rule="evenodd" clip-rule="evenodd" d="M200.167 295.865V314.765L228.689 239.489C226.999 238.656 225.059 237.159 223.098 235.188L200.167 295.865Z" fill="#767676"/>
<path d="M171.912 239.489L200.079 315L200.167 314.765V295.865L200.079 296.1L177.776 235.188C175.778 237.09 173.758 238.578 171.912 239.489Z" fill="#646464"/>
<path d="M114.69 173.649L62 236.206L142.59 222.63C142.468 220.677 142.776 218.101 143.508 215.265L79.1488 226.711L121.799 176.285C119.56 175.599 117.193 174.728 114.69 173.649Z" fill="#646464"/>
<path d="M142.857 92.3704L62.1777 78.8831L113.979 141.173C116.118 140.245 118.632 139.344 121.354 138.609L79.2376 88.2L143.285 100.001C142.438 96.4794 142.305 93.6216 142.857 92.3704Z" fill="#646464"/>
<path d="M200.167 0L171.557 75.5113C173.247 76.3436 175.187 77.8408 177.148 79.8122L200.167 18.9V0Z" fill="#646464"/>
<path d="M223.098 235.188C212.394 224.426 201.066 199.535 226.202 191.573C244.323 185.834 254.263 203.784 256.961 214.999L321.008 226.8L278.892 176.391C265.139 180.11 246.08 179.633 243.35 157.411C244.467 147.32 252.838 130.874 278.448 138.715L321.097 88.2888L256.739 99.7352C253.491 112.331 241.89 130.074 222.47 121.297C201.79 111.951 211.806 89.9668 222.47 79.8122L200.167 18.9L200.167 142.682C211.399 142.611 215.036 152.413 215.45 157.411C215.007 162.338 211.329 172.195 200.167 172.318V295.865L223.098 235.188Z" fill="#3C3C3F"/>
<path d="M200.079 172.318C188.848 172.389 185.21 162.41 184.796 157.411C185.24 152.472 188.936 142.753 200.167 142.682L200.167 18.9L177.148 79.8122C187.852 90.5742 199.18 115.465 174.044 123.427C155.923 129.166 145.983 111.216 143.285 100.001L79.2376 88.2L121.354 138.609C135.107 134.89 154.166 135.367 156.896 157.589C155.779 167.68 147.408 184.126 121.799 176.285L79.1488 226.711L143.508 215.265C146.755 202.669 158.356 184.926 177.776 193.703C198.457 203.049 188.44 225.033 177.776 235.188L200.079 296.1L200.167 295.865V172.318L200.079 172.318Z" fill="#2E2E31"/>
</svg>
