<svg width="400" height="315" viewBox="0 0 400 315" fill="none" xmlns="http://www.w3.org/2000/svg">
<path d="M200.386 86.417L175.423 72.1169L185.322 43.7007C164.136 46.4891 144.721 55.1252 128.725 67.7372L125.067 84.818L109.142 89.1235L108.612 88.0459C96.3619 103.896 88.1144 122.999 85.3849 143.839L113.661 133.901L128.079 159.088L113.661 182.337L85.2313 173.114C87.7201 193.815 95.955 213.251 107.851 229.133L124.421 231.635L127.434 249.405C143.99 262.843 164.206 271.755 186.465 274.434L175.746 243.197L200.386 228.725V182.337H187.259L173.486 159.088L187.259 135.192H200.386V86.5402V86.417Z" fill="#2B435F"/>
<path d="M200.386 86.5402V135.192H213.728L227.501 159.088L213.728 182.337H200.386V228.725L225.134 243.26L214.414 274.497C236.674 271.818 256.998 262.843 273.554 249.405L276.566 231.635L293.137 229.133C305.032 213.251 313.267 193.815 315.756 173.114L287.326 182.337L272.908 159.088L287.326 133.901L315.602 143.839C312.873 122.999 304.626 103.896 292.375 88.0459L291.845 89.1235L275.921 84.818L272.262 67.7372C256.267 55.1252 236.852 46.4891 215.665 43.7007L225.564 72.1169L200.386 86.417V86.5402Z" fill="#527D9D"/>
<path d="M200.386 0L185.322 43.7007L175.423 72.1169L200.386 86.417V0Z" fill="#D0D0D0"/>
<path d="M128.725 67.7372L89.3437 48.8673L108.612 88.0459L109.142 89.1235L125.067 84.818L128.725 67.7372Z" fill="#D0D0D0"/>
<path d="M128.079 159.088L113.661 133.901L85.3849 143.839L42 159.088L85.2313 173.114L113.661 182.337L128.079 159.088Z" fill="#D0D0D0"/>
<path d="M107.851 229.133L89.9893 268.016L127.434 249.405L124.421 231.635L107.851 229.133Z" fill="#D0D0D0"/>
<path d="M175.746 243.197L186.465 274.434L200.386 315V228.725L175.746 243.197Z" fill="#D0D0D0"/>
<path d="M200.386 135.192H187.259L173.486 159.088L187.259 182.337H200.386V135.192Z" fill="#D0D0D0"/>
<path d="M215.665 43.7007L200.386 0V86.417L225.564 72.1169L215.665 43.7007Z" fill="#DEDEDE"/>
<path d="M311.644 48.8673L272.262 67.7372L275.921 84.818L291.845 89.1235L292.375 88.0459L311.644 48.8673Z" fill="#DEDEDE"/>
<path d="M287.326 133.901L272.908 159.088L287.326 182.337L315.756 173.114L358.987 159.088L315.602 143.839L287.326 133.901Z" fill="#DEDEDE"/>
<path d="M310.998 268.016L293.137 229.133L276.566 231.635L273.554 249.405L310.998 268.016Z" fill="#DEDEDE"/>
<path d="M214.414 274.497L225.134 243.26L200.386 228.725V228.837V315L214.414 274.497Z" fill="#DEDEDE"/>
<path d="M200.386 135.192V182.337H213.728L227.501 159.088L213.728 135.192H200.386Z" fill="#DEDEDE"/>
</svg>
