<svg width="390" height="730" viewBox="0 0 390 730" fill="none" xmlns="http://www.w3.org/2000/svg">
<rect width="390" height="730" fill="#3CA064"/>
<g clip-path="url(#clip0_1008_287)">
<path d="M0 0H39V38.4253H0V0Z" fill="#3D9E64"/>
<path d="M39 0H78V38.4253H39V0Z" fill="#3CA064"/>
<path d="M78 0H117V38.4253H78V0Z" fill="#3D9E64"/>
<path d="M117 0H156V38.4253H117V0Z" fill="#3CA064"/>
<path d="M156 0H195V38.4253H156V0Z" fill="#3D9E64"/>
<path d="M195 0H234V38.4253H195V0Z" fill="#3CA064"/>
<path d="M234 0H273V38.4253H234V0Z" fill="#3D9E64"/>
<path d="M273 0H312V38.4253H273V0Z" fill="#3CA064"/>
<path d="M312 0H351V38.4253H312V0Z" fill="#3D9E64"/>
<path d="M351 0H390V38.4253H351V0Z" fill="#3CA064"/>
<path d="M0 38.4253H39V76.8505H0V38.4253Z" fill="#3CA064"/>
<path d="M39 38.4253H78V76.8505H39V38.4253Z" fill="#3D9E64"/>
<path d="M78 38.4253H117V76.8505H78V38.4253Z" fill="#3CA064"/>
<path d="M117 38.4253H156V76.8505H117V38.4253Z" fill="#3D9E64"/>
<path d="M156 38.4253H195V76.8505H156V38.4253Z" fill="#3CA064"/>
<path d="M195 38.4253H234V76.8505H195V38.4253Z" fill="#3D9E64"/>
<path d="M234 38.4253H273V76.8505H234V38.4253Z" fill="#3CA064"/>
<path d="M273 38.4253H312V76.8505H273V38.4253Z" fill="#3D9E64"/>
<path d="M312 38.4253H351V76.8505H312V38.4253Z" fill="#3CA064"/>
<path d="M351 38.4253H390V76.8505H351V38.4253Z" fill="#3D9E64"/>
<path d="M0 76.8506H39V115.276H0V76.8506Z" fill="#3D9E64"/>
<path d="M39 76.8506H78V115.276H39V76.8506Z" fill="#3CA064"/>
<path d="M78 76.8506H117V115.276H78V76.8506Z" fill="#3D9E64"/>
<path d="M117 76.8506H156V115.276H117V76.8506Z" fill="#3CA064"/>
<path d="M156 76.8506H195V115.276H156V76.8506Z" fill="#3D9E64"/>
<path d="M195 76.8506H234V115.276H195V76.8506Z" fill="#3CA064"/>
<path d="M234 76.8506H273V115.276H234V76.8506Z" fill="#3D9E64"/>
<path d="M273 76.8506H312V115.276H273V76.8506Z" fill="#3CA064"/>
<path d="M312 76.8506H351V115.276H312V76.8506Z" fill="#3D9E64"/>
<path d="M351 76.8506H390V115.276H351V76.8506Z" fill="#3CA064"/>
<path d="M0 115.276H39V153.701H0V115.276Z" fill="#3CA064"/>
<path d="M39 115.276H78V153.701H39V115.276Z" fill="#3D9E64"/>
<path d="M78 115.276H117V153.701H78V115.276Z" fill="#3CA064"/>
<path d="M117 115.276H156V153.701H117V115.276Z" fill="#3D9E64"/>
<path d="M156 115.276H195V153.701H156V115.276Z" fill="#3CA064"/>
<path d="M195 115.276H234V153.701H195V115.276Z" fill="#3D9E64"/>
<path d="M234 115.276H273V153.701H234V115.276Z" fill="#3CA064"/>
<path d="M273 115.276H312V153.701H273V115.276Z" fill="#3D9E64"/>
<path d="M312 115.276H351V153.701H312V115.276Z" fill="#3CA064"/>
<path d="M351 115.276H390V153.701H351V115.276Z" fill="#3D9E64"/>
<path d="M0 153.701H39V192.126H0V153.701Z" fill="#3D9E64"/>
<path d="M39 153.701H78V192.126H39V153.701Z" fill="#3CA064"/>
<path d="M78 153.701H117V192.126H78V153.701Z" fill="#3D9E64"/>
<path d="M117 153.701H156V192.126H117V153.701Z" fill="#3CA064"/>
<path d="M156 153.701H195V192.126H156V153.701Z" fill="#3D9E64"/>
<path d="M195 153.701H234V192.126H195V153.701Z" fill="#3CA064"/>
<path d="M234 153.701H273V192.126H234V153.701Z" fill="#3D9E64"/>
<path d="M273 153.701H312V192.126H273V153.701Z" fill="#3CA064"/>
<path d="M312 153.701H351V192.126H312V153.701Z" fill="#3D9E64"/>
<path d="M351 153.701H390V192.126H351V153.701Z" fill="#3CA064"/>
<path d="M0 192.126H39V230.552H0V192.126Z" fill="#3CA064"/>
<path d="M39 192.126H78V230.552H39V192.126Z" fill="#3D9E64"/>
<path d="M78 192.126H117V230.552H78V192.126Z" fill="#3CA064"/>
<path d="M117 192.126H156V230.552H117V192.126Z" fill="#3D9E64"/>
<path d="M156 192.126H195V230.552H156V192.126Z" fill="#3CA064"/>
<path d="M195 192.126H234V230.552H195V192.126Z" fill="#3D9E64"/>
<path d="M234 192.126H273V230.552H234V192.126Z" fill="#3CA064"/>
<path d="M273 192.126H312V230.552H273V192.126Z" fill="#3D9E64"/>
<path d="M312 192.126H351V230.552H312V192.126Z" fill="#3CA064"/>
<path d="M351 192.126H390V230.552H351V192.126Z" fill="#3D9E64"/>
<path d="M0 230.552H39V268.977H0V230.552Z" fill="#3D9E64"/>
<path d="M39 230.552H78V268.977H39V230.552Z" fill="#3CA064"/>
<path d="M78 230.552H117V268.977H78V230.552Z" fill="#3D9E64"/>
<path d="M117 230.552H156V268.977H117V230.552Z" fill="#3CA064"/>
<path d="M156 230.552H195V268.977H156V230.552Z" fill="#3D9E64"/>
<path d="M195 230.552H234V268.977H195V230.552Z" fill="#3CA064"/>
<path d="M234 230.552H273V268.977H234V230.552Z" fill="#3D9E64"/>
<path d="M273 230.552H312V268.977H273V230.552Z" fill="#3CA064"/>
<path d="M312 230.552H351V268.977H312V230.552Z" fill="#3D9E64"/>
<path d="M351 230.552H390V268.977H351V230.552Z" fill="#3CA064"/>
<path d="M0 268.977H39V307.402H0V268.977Z" fill="#3CA064"/>
<path d="M39 268.977H78V307.402H39V268.977Z" fill="#3D9E64"/>
<path d="M78 268.977H117V307.402H78V268.977Z" fill="#3CA064"/>
<path d="M117 268.977H156V307.402H117V268.977Z" fill="#3D9E64"/>
<path d="M156 268.977H195V307.402H156V268.977Z" fill="#3CA064"/>
<path d="M195 268.977H234V307.402H195V268.977Z" fill="#3D9E64"/>
<path d="M234 268.977H273V307.402H234V268.977Z" fill="#3CA064"/>
<path d="M273 268.977H312V307.402H273V268.977Z" fill="#3D9E64"/>
<path d="M312 268.977H351V307.402H312V268.977Z" fill="#3CA064"/>
<path d="M351 268.977H390V307.402H351V268.977Z" fill="#3D9E64"/>
<path d="M0 307.402H39V345.827H0V307.402Z" fill="#3D9E64"/>
<path d="M39 307.402H78V345.827H39V307.402Z" fill="#3CA064"/>
<path d="M78 307.402H117V345.827H78V307.402Z" fill="#3D9E64"/>
<path d="M117 307.402H156V345.827H117V307.402Z" fill="#3CA064"/>
<path d="M156 307.402H195V345.827H156V307.402Z" fill="#3D9E64"/>
<path d="M195 307.402H234V345.827H195V307.402Z" fill="#3CA064"/>
<path d="M234 307.402H273V345.827H234V307.402Z" fill="#3D9E64"/>
<path d="M273 307.402H312V345.827H273V307.402Z" fill="#3CA064"/>
<path d="M312 307.402H351V345.827H312V307.402Z" fill="#3D9E64"/>
<path d="M351 307.402H390V345.827H351V307.402Z" fill="#3CA064"/>
<path d="M0 345.827H39V384.253H0V345.827Z" fill="#3CA064"/>
<path d="M39 345.827H78V384.253H39V345.827Z" fill="#3D9E64"/>
<path d="M78 345.827H117V384.253H78V345.827Z" fill="#3CA064"/>
<path d="M117 345.827H156V384.253H117V345.827Z" fill="#3D9E64"/>
<path d="M156 345.827H195V384.253H156V345.827Z" fill="#3CA064"/>
<path d="M195 345.827H234V384.253H195V345.827Z" fill="#3D9E64"/>
<path d="M234 345.827H273V384.253H234V345.827Z" fill="#3CA064"/>
<path d="M273 345.827H312V384.253H273V345.827Z" fill="#3D9E64"/>
<path d="M312 345.827H351V384.253H312V345.827Z" fill="#3CA064"/>
<path d="M351 345.827H390V384.253H351V345.827Z" fill="#3D9E64"/>
<path d="M0 384.253H39V422.678H0V384.253Z" fill="#3D9E64"/>
<path d="M39 384.253H78V422.678H39V384.253Z" fill="#3CA064"/>
<path d="M78 384.253H117V422.678H78V384.253Z" fill="#3D9E64"/>
<path d="M117 384.253H156V422.678H117V384.253Z" fill="#3CA064"/>
<path d="M156 384.253H195V422.678H156V384.253Z" fill="#3D9E64"/>
<path d="M195 384.253H234V422.678H195V384.253Z" fill="#3CA064"/>
<path d="M234 384.253H273V422.678H234V384.253Z" fill="#3D9E64"/>
<path d="M273 384.253H312V422.678H273V384.253Z" fill="#3CA064"/>
<path d="M312 384.253H351V422.678H312V384.253Z" fill="#3D9E64"/>
<path d="M351 384.253H390V422.678H351V384.253Z" fill="#3CA064"/>
<path d="M0 422.678H39V461.103H0V422.678Z" fill="#3CA064"/>
<path d="M39 422.678H78V461.103H39V422.678Z" fill="#3D9E64"/>
<path d="M78 422.678H117V461.103H78V422.678Z" fill="#3CA064"/>
<path d="M117 422.678H156V461.103H117V422.678Z" fill="#3D9E64"/>
<path d="M156 422.678H195V461.103H156V422.678Z" fill="#3CA064"/>
<path d="M195 422.678H234V461.103H195V422.678Z" fill="#3D9E64"/>
<path d="M234 422.678H273V461.103H234V422.678Z" fill="#3CA064"/>
<path d="M273 422.678H312V461.103H273V422.678Z" fill="#3D9E64"/>
<path d="M312 422.678H351V461.103H312V422.678Z" fill="#3CA064"/>
<path d="M351 422.678H390V461.103H351V422.678Z" fill="#3D9E64"/>
<path d="M0 461.103H39V499.528H0V461.103Z" fill="#3D9E64"/>
<path d="M39 461.103H78V499.528H39V461.103Z" fill="#3CA064"/>
<path d="M78 461.103H117V499.528H78V461.103Z" fill="#3D9E64"/>
<path d="M117 461.103H156V499.528H117V461.103Z" fill="#3CA064"/>
<path d="M156 461.103H195V499.528H156V461.103Z" fill="#3D9E64"/>
<path d="M195 461.103H234V499.528H195V461.103Z" fill="#3CA064"/>
<path d="M234 461.103H273V499.528H234V461.103Z" fill="#3D9E64"/>
<path d="M273 461.103H312V499.528H273V461.103Z" fill="#3CA064"/>
<path d="M312 461.103H351V499.528H312V461.103Z" fill="#3D9E64"/>
<path d="M351 461.103H390V499.528H351V461.103Z" fill="#3CA064"/>
<path d="M0 499.528H39V537.954H0V499.528Z" fill="#3CA064"/>
<path d="M39 499.528H78V537.954H39V499.528Z" fill="#3D9E64"/>
<path d="M78 499.528H117V537.954H78V499.528Z" fill="#3CA064"/>
<path d="M117 499.528H156V537.954H117V499.528Z" fill="#3D9E64"/>
<path d="M156 499.528H195V537.954H156V499.528Z" fill="#3CA064"/>
<path d="M195 499.528H234V537.954H195V499.528Z" fill="#3D9E64"/>
<path d="M234 499.528H273V537.954H234V499.528Z" fill="#3CA064"/>
<path d="M273 499.528H312V537.954H273V499.528Z" fill="#3D9E64"/>
<path d="M312 499.528H351V537.954H312V499.528Z" fill="#3CA064"/>
<path d="M351 499.528H390V537.954H351V499.528Z" fill="#3D9E64"/>
<path d="M0 537.954H39V576.379H0V537.954Z" fill="#3D9E64"/>
<path d="M39 537.954H78V576.379H39V537.954Z" fill="#3CA064"/>
<path d="M78 537.954H117V576.379H78V537.954Z" fill="#3D9E64"/>
<path d="M117 537.954H156V576.379H117V537.954Z" fill="#3CA064"/>
<path d="M156 537.954H195V576.379H156V537.954Z" fill="#3D9E64"/>
<path d="M195 537.954H234V576.379H195V537.954Z" fill="#3CA064"/>
<path d="M234 537.954H273V576.379H234V537.954Z" fill="#3D9E64"/>
<path d="M273 537.954H312V576.379H273V537.954Z" fill="#3CA064"/>
<path d="M312 537.954H351V576.379H312V537.954Z" fill="#3D9E64"/>
<path d="M351 537.954H390V576.379H351V537.954Z" fill="#3CA064"/>
<path d="M0 576.379H39V614.804H0V576.379Z" fill="#3CA064"/>
<path d="M39 576.379H78V614.804H39V576.379Z" fill="#3D9E64"/>
<path d="M78 576.379H117V614.804H78V576.379Z" fill="#3CA064"/>
<path d="M117 576.379H156V614.804H117V576.379Z" fill="#3D9E64"/>
<path d="M156 576.379H195V614.804H156V576.379Z" fill="#3CA064"/>
<path d="M195 576.379H234V614.804H195V576.379Z" fill="#3D9E64"/>
<path d="M234 576.379H273V614.804H234V576.379Z" fill="#3CA064"/>
<path d="M273 576.379H312V614.804H273V576.379Z" fill="#3D9E64"/>
<path d="M312 576.379H351V614.804H312V576.379Z" fill="#3CA064"/>
<path d="M351 576.379H390V614.804H351V576.379Z" fill="#3D9E64"/>
<path d="M0 614.804H39V653.229H0V614.804Z" fill="#3D9E64"/>
<path d="M39 614.804H78V653.229H39V614.804Z" fill="#3CA064"/>
<path d="M78 614.804H117V653.229H78V614.804Z" fill="#3D9E64"/>
<path d="M117 614.804H156V653.229H117V614.804Z" fill="#3CA064"/>
<path d="M156 614.804H195V653.229H156V614.804Z" fill="#3D9E64"/>
<path d="M195 614.804H234V653.229H195V614.804Z" fill="#3CA064"/>
<path d="M234 614.804H273V653.229H234V614.804Z" fill="#3D9E64"/>
<path d="M273 614.804H312V653.229H273V614.804Z" fill="#3CA064"/>
<path d="M312 614.804H351V653.229H312V614.804Z" fill="#3D9E64"/>
<path d="M351 614.804H390V653.229H351V614.804Z" fill="#3CA064"/>
<path d="M0 653.229H39V691.655H0V653.229Z" fill="#3CA064"/>
<path d="M39 653.229H78V691.655H39V653.229Z" fill="#3D9E64"/>
<path d="M78 653.229H117V691.655H78V653.229Z" fill="#3CA064"/>
<path d="M117 653.229H156V691.655H117V653.229Z" fill="#3D9E64"/>
<path d="M156 653.229H195V691.655H156V653.229Z" fill="#3CA064"/>
<path d="M195 653.229H234V691.655H195V653.229Z" fill="#3D9E64"/>
<path d="M234 653.229H273V691.655H234V653.229Z" fill="#3CA064"/>
<path d="M273 653.229H312V691.655H273V653.229Z" fill="#3D9E64"/>
<path d="M312 653.229H351V691.655H312V653.229Z" fill="#3CA064"/>
<path d="M351 653.229H390V691.655H351V653.229Z" fill="#3D9E64"/>
<path d="M0 691.655H39V730.08H0V691.655Z" fill="#3D9E64"/>
<path d="M39 691.655H78V730.08H39V691.655Z" fill="#3CA064"/>
<path d="M78 691.655H117V730.08H78V691.655Z" fill="#3D9E64"/>
<path d="M117 691.655H156V730.08H117V691.655Z" fill="#3CA064"/>
<path d="M156 691.655H195V730.08H156V691.655Z" fill="#3D9E64"/>
<path d="M195 691.655H234V730.08H195V691.655Z" fill="#3CA064"/>
<path d="M234 691.655H273V730.08H234V691.655Z" fill="#3D9E64"/>
<path d="M273 691.655H312V730.08H273V691.655Z" fill="#3CA064"/>
<path d="M312 691.655H351V730.08H312V691.655Z" fill="#3D9E64"/>
<path d="M351 691.655H390V730.08H351V691.655Z" fill="#3CA064"/>
</g>
<defs>
<clipPath id="clip0_1008_287">
<rect width="390" height="730" fill="white"/>
</clipPath>
</defs>
</svg>
