
<svg width="26" height="26" viewBox="0 0 26 26" fill="none" xmlns="http://www.w3.org/2000/svg">
    <path d="M6.50033 16.2497H4.33366C3.13704 16.2497 2.16699 15.2796 2.16699 14.083V6.49967M20.042 16.2497H21.667C22.8636 16.2497 23.8337 15.2796 23.8337 14.083V6.49967M2.16699 6.49967V3.24967C2.16699 2.05306 3.13704 1.08301 4.33366 1.08301H21.667C22.8636 1.08301 23.8337 2.05306 23.8337 3.24967V6.49967M2.16699 6.49967H23.8337M9.20866 17.8747L12.6173 14.466C12.7231 14.3603 12.8617 14.3074 13.0003 14.3074M16.792 17.8747L13.3833 14.466C13.2776 14.3603 13.1389 14.3074 13.0003 14.3074M13.0003 14.3074V23.833" stroke="#FF9E0D" stroke-width="1.7" stroke-linecap="round"/>
</svg>
