<svg width="508" height="405" viewBox="0 0 508 405" fill="none" xmlns="http://www.w3.org/2000/svg">
<path fill-rule="evenodd" clip-rule="evenodd" d="M79.623 110.666C66.2231 215.349 20.9577 260.049 0 269.314C13.3118 267.644 30.0665 258.527 43.2101 249.953C55.2336 242.108 64.2352 234.717 64.8151 233.895C66.4514 231.152 69.1823 228.354 72.826 225.527C80.5902 219.503 92.4991 213.35 106.793 207.331C113.46 204.523 120.647 201.745 128.174 199.022C142.633 193.792 158.349 188.769 174.054 184.142C179.821 182.443 185.588 180.797 191.29 179.214C214.69 172.718 237.012 167.279 253.92 163.549L253.799 0.00431437C206.608 8.66229 134.081 31.4655 103.656 41.796C86.9542 75.2473 80.675 101.648 79.623 110.666ZM113.123 103.287C120.648 89.2673 115.065 74.5094 113.123 71.0659C128.174 92.2189 127.203 100.09 128.659 112.88C129.824 123.112 124.937 128.458 122.348 129.852C124.678 124.736 123.804 121.161 123.076 120.013C119.192 120.21 117.897 128.622 117.735 132.803C119.192 158.384 135.214 152.972 136.185 153.464C136.185 153.464 130.019 156.809 120.891 153.464C111.764 150.119 108.511 136.329 108.025 129.852C107.216 125.67 107.103 114.503 113.123 103.287Z" fill="#1B412C"/>
<path d="M113.123 71.0659C115.065 74.5094 120.648 89.2673 113.123 103.287C107.103 114.503 107.216 125.67 108.025 129.852C108.511 136.329 111.764 150.119 120.891 153.464C130.019 156.809 136.185 153.464 136.185 153.464C135.214 152.972 119.192 158.384 117.735 132.803C117.897 128.622 119.192 120.21 123.076 120.013C123.804 121.161 124.678 124.736 122.348 129.852C124.937 128.458 129.824 123.112 128.659 112.88C127.203 100.09 128.174 92.2189 113.123 71.0659Z" fill="#B97A39"/>
<path d="M223.09 242.012C218.882 233.485 204.738 214.07 181.822 204.625C174.459 202.001 156.77 196.557 144.924 195.77C145.247 197.082 146.38 200.05 148.322 201.428C146.461 201.919 141.816 202.608 138.127 201.428C138.288 201.919 139.146 203.248 141.282 204.625C139.017 204.625 133.806 203.887 131.087 200.936C131.41 202.329 133.077 205.56 137.156 207.331C136.185 207.987 132.64 209.003 126.232 207.823C127.445 208.397 129.824 209.938 129.63 211.512C129.436 213.086 124.209 213.316 121.619 213.234C121.943 215.448 124.144 220.465 130.358 222.826C130.925 223.318 130.893 224.647 126.232 226.024C129.387 226.352 135.505 228.189 134.728 232.911C133.951 232.911 131.491 233.731 130.358 234.141C132.786 235.207 137.884 238.273 138.855 242.012C139.826 245.75 147.351 252.26 150.992 255.048C156.414 259.639 169.684 268.428 179.395 266.854C189.105 265.28 194.445 263.411 195.902 262.673C175.996 265.132 168.713 260.951 156.09 251.85C145.992 244.57 141.04 228.484 139.826 221.351C145.128 215.448 157.733 212.332 163.373 211.512C178.132 212.693 193.96 220.695 200.029 224.548C202.281 226.468 205.547 229.255 208.525 231.802C212.288 235.021 215.591 237.857 215.808 238.076C218.332 240.241 221.715 241.602 223.09 242.012Z" fill="#020202"/>
<path d="M195.902 262.673C200.029 261.197 209.011 257.163 211.924 252.834C214.837 248.505 216.05 244.635 216.293 243.242C216.617 242.258 216.973 239.847 215.808 238.076C215.591 237.857 212.288 235.021 208.525 231.802C203.67 248.035 191.29 251.931 185.706 251.85C162.79 251.85 161.269 224.958 163.373 211.512C157.733 212.332 145.128 215.448 139.826 221.351C141.04 228.484 145.992 244.57 156.09 251.85C168.713 260.951 175.996 265.132 195.902 262.673Z" fill="white"/>
<path d="M200.029 224.548C193.96 220.695 178.132 212.693 163.373 211.512C161.269 224.958 162.79 251.85 185.706 251.85C191.29 251.931 203.67 248.035 208.525 231.802C205.547 229.255 202.281 226.468 200.029 224.548Z" fill="#FFA115"/>
<path d="M0 269.314C9.22462 276.119 33.9855 293.222 59.2318 307.193C73.7607 315.233 118.036 337.452 163.373 359.947C161.949 359.24 139.887 329.329 129.63 307.193C128.37 304.9 127.164 302.163 126.015 299.099C117.666 279.732 111.708 261.257 108.511 252.834C107.625 250.5 106.834 248.062 106.146 245.701C104.668 251.194 104.432 266.264 115.308 282.596C115.308 282.596 104.53 272.069 101.228 257.508C100.985 251.731 100.257 239.305 99.2861 235.807C92.4072 240.545 84.6365 243.564 76.2245 243.242C73.5542 243.307 63.2129 244.74 43.2101 249.953C30.0665 258.527 13.3118 267.644 0 269.314Z" fill="#0D1015"/>
<path d="M227.702 196.754C215.808 191.343 191.872 180.259 191.29 179.214C185.588 180.797 179.821 182.443 174.054 184.142C186.095 200.026 214.837 214.254 227.702 219.383C229.806 217.907 234.063 214.611 234.257 213.234C234.451 211.856 229.968 201.673 227.702 196.754Z" fill="#E73C28"/>
<path d="M80.3513 223.81C95.879 219.646 105.392 209.605 106.653 207.609C106.7 207.516 106.747 207.424 106.793 207.331C92.4991 213.35 80.5902 219.503 72.826 225.527L80.3513 223.81Z" fill="#E73C28"/>
<path fill-rule="evenodd" clip-rule="evenodd" d="M64.8151 233.895C64.2352 234.717 55.2336 242.108 43.2101 249.953C63.2129 244.74 73.5542 243.307 76.2245 243.242C84.6365 243.564 92.4072 240.545 99.2861 235.807C100.602 234.901 101.885 233.932 103.134 232.911C109.526 227.686 115.018 221.111 119.373 214.71C123.274 208.976 126.264 203.382 128.174 199.022C120.647 201.745 113.46 204.523 106.793 207.331C106.78 207.389 106.733 207.483 106.653 207.609C102.981 214.846 97.0217 220.155 90.7897 222.826C85.7404 224.991 76.71 225.529 72.826 225.527C69.1823 228.354 66.4514 231.152 64.8151 233.895ZM117.25 206.347C97.344 236.847 64.0868 237.83 62.3876 238.322C71.8549 238.322 92.7317 234.141 99.2861 230.451C104.53 227.5 113.447 213.152 117.25 206.347Z" fill="#E73C28"/>
<path d="M106.653 207.609C105.392 209.605 95.879 219.646 80.3513 223.81L72.826 225.527C76.71 225.529 85.7404 224.991 90.7897 222.826C97.0217 220.155 102.981 214.846 106.653 207.609Z" fill="#B62F1F"/>
<path d="M62.3876 238.322C64.0868 237.83 97.344 236.847 117.25 206.347C113.447 213.152 104.53 227.5 99.2861 230.451C92.7317 234.141 71.8549 238.322 62.3876 238.322Z" fill="#B62F1F"/>
<path d="M115.308 282.596C104.432 266.264 104.668 251.194 106.146 245.701C105.058 241.967 104.227 238.428 103.684 235.807C103.442 234.637 103.258 233.651 103.134 232.911C101.885 233.932 100.602 234.901 99.2861 235.807C100.257 239.305 100.985 251.731 101.228 257.508C104.53 272.069 115.308 282.596 115.308 282.596Z" fill="#B62F1F"/>
<path d="M163.373 359.947C161.916 357.694 154.974 345.76 138.855 316.047C130.854 301.299 125.941 281.496 123.049 262.673C122.604 259.773 122.206 256.896 121.852 254.064C120.203 240.851 119.513 228.625 119.386 219.629C117.765 222.035 114.845 225.94 111.637 229.375C113.387 245.386 118.664 279.491 126.015 299.099C127.174 301.788 128.38 304.494 129.63 307.193C139.887 329.329 161.949 359.24 163.373 359.947Z" fill="#E73C28"/>
<path d="M119.373 214.71C115.018 221.111 109.526 227.686 103.134 232.911C103.258 233.651 103.442 234.637 103.684 235.807C106.153 234.72 108.993 232.207 111.637 229.375C114.845 225.94 117.765 222.035 119.386 219.629C119.361 217.858 119.358 216.213 119.373 214.71Z" fill="#B62F1F"/>
<path d="M108.511 252.834C111.708 261.257 117.666 279.732 126.015 299.099C118.664 279.491 113.387 245.386 111.637 229.375C108.993 232.207 106.153 234.72 103.684 235.807C104.227 238.428 105.058 241.967 106.146 245.701C106.834 248.062 107.625 250.5 108.511 252.834Z" fill="#9F2C1E"/>
<path d="M163.373 359.947C196.816 376.54 230.836 393.283 253.92 404.595V328.715L239.431 257.508C234.462 259.108 229.009 260.863 223.378 262.673C205.444 268.436 185.702 274.756 174.054 278.415C149.779 286.04 123.804 262.673 123.049 262.673C125.941 281.496 130.854 301.299 138.855 316.047C154.974 345.76 161.916 357.694 163.373 359.947Z" fill="#1B412C"/>
<path d="M158.761 273.987C147.108 273.987 129.3 260.705 121.852 254.064C122.206 256.896 122.604 259.773 123.049 262.673C123.804 262.673 149.779 286.04 174.054 278.415C185.702 274.756 205.444 268.436 223.378 262.673C229.009 260.863 234.462 259.108 239.431 257.508C245.019 255.707 249.957 254.114 253.883 252.846V248.665V248.772L244.452 252.834L195.174 267.838C187.891 269.888 170.413 273.987 158.761 273.987Z" fill="#153322"/>
<path d="M253.883 252.846C249.957 254.114 245.019 255.707 239.431 257.508L253.92 328.715L253.883 252.846Z" fill="#207245"/>
<path d="M394.474 71.0659C392.532 74.5094 386.949 89.2673 394.474 103.287C400.494 114.503 400.381 125.67 399.572 129.852C399.086 136.329 395.833 150.119 386.706 153.464C377.578 156.809 371.412 153.464 371.412 153.464C372.383 152.972 388.405 158.384 389.862 132.803C389.7 128.622 388.405 120.21 384.521 120.013C383.793 121.161 382.919 124.736 385.249 129.852C382.66 128.458 377.773 123.112 378.938 112.88C380.394 100.09 379.423 92.2189 394.474 71.0659Z" fill="#B97A39"/>
<path d="M284.507 242.012C288.714 233.485 302.859 214.07 325.775 204.625C333.138 202.001 350.827 196.557 362.673 195.77C362.35 197.082 361.217 200.05 359.275 201.428C361.136 201.919 365.78 202.608 369.47 201.428C369.309 201.919 368.451 203.248 366.315 204.625C368.58 204.625 373.791 203.887 376.51 200.936C376.187 202.329 374.52 205.56 370.441 207.331C371.412 207.987 374.957 209.003 381.365 207.823C380.151 208.397 377.773 209.938 377.967 211.512C378.161 213.086 383.388 213.316 385.978 213.234C385.654 215.448 383.453 220.465 377.238 222.826C376.672 223.318 376.704 224.647 381.365 226.024C378.209 226.352 372.092 228.189 372.869 232.911C373.646 232.911 376.106 233.731 377.238 234.141C374.811 235.207 369.713 238.273 368.742 242.012C367.771 245.75 360.246 252.26 356.604 255.048C351.183 259.639 337.912 268.428 328.202 266.854C318.492 265.28 313.152 263.411 311.695 262.673C331.601 265.132 338.883 260.951 351.507 251.85C361.605 244.57 366.557 228.484 367.771 221.351C362.469 215.448 349.864 212.332 344.224 211.512C329.465 212.693 313.637 220.695 307.568 224.548C305.316 226.468 302.05 229.255 299.072 231.802C295.309 235.021 292.006 237.857 291.789 238.076C289.265 240.241 285.882 241.602 284.507 242.012Z" fill="#020202"/>
<path d="M311.695 262.673C307.568 261.197 298.586 257.163 295.673 252.834C292.76 248.505 291.547 244.635 291.304 243.242C290.98 242.258 290.624 239.847 291.789 238.076C292.006 237.857 295.309 235.021 299.072 231.802C303.927 248.035 316.307 251.931 321.891 251.85C344.807 251.85 346.328 224.958 344.224 211.512C349.864 212.332 362.469 215.448 367.771 221.351C366.557 228.484 361.605 244.57 351.507 251.85C338.883 260.951 331.601 265.132 311.695 262.673Z" fill="white"/>
<path d="M307.568 224.548C313.637 220.695 329.465 212.693 344.224 211.512C346.328 224.958 344.807 251.85 321.891 251.85C316.307 251.931 303.927 248.035 299.072 231.802C302.05 229.255 305.316 226.468 307.568 224.548Z" fill="#FFA115"/>
<path d="M507.597 269.314C498.372 276.119 473.611 293.222 448.365 307.193C433.836 315.233 389.561 337.452 344.224 359.947C345.648 359.24 367.71 329.329 377.967 307.193C379.227 304.9 380.433 302.163 381.582 299.099C389.931 279.732 395.889 261.257 399.086 252.834C399.972 250.5 400.763 248.062 401.451 245.701C402.928 251.194 403.164 266.264 392.289 282.596C392.289 282.596 403.067 272.069 406.369 257.508C406.612 251.731 407.34 239.305 408.311 235.807C415.19 240.545 422.96 243.564 431.372 243.242C434.043 243.307 444.384 244.74 464.387 249.953C477.53 258.527 494.285 267.644 507.597 269.314Z" fill="#0D1015"/>
<path d="M279.894 196.754C291.789 191.343 315.725 180.259 316.307 179.214C322.009 180.797 327.775 182.443 333.543 184.142C321.502 200.026 292.76 214.254 279.894 219.383C277.791 217.907 273.534 214.611 273.34 213.234C273.146 211.856 277.629 201.673 279.894 196.754Z" fill="#E73C28"/>
<path d="M427.246 223.81C411.718 219.646 402.205 209.605 400.944 207.609C400.897 207.516 400.85 207.424 400.804 207.331C415.098 213.35 427.007 219.503 434.771 225.527L427.246 223.81Z" fill="#E73C28"/>
<path fill-rule="evenodd" clip-rule="evenodd" d="M442.782 233.895C443.362 234.717 452.363 242.108 464.387 249.953C444.384 244.74 434.043 243.307 431.372 243.242C422.96 243.564 415.19 240.545 408.311 235.807C406.995 234.901 405.712 233.932 404.463 232.911C398.071 227.686 392.579 221.111 388.224 214.71C384.322 208.976 381.333 203.382 379.423 199.022C386.95 201.745 394.136 204.523 400.804 207.331C400.817 207.389 400.864 207.483 400.944 207.609C404.616 214.846 410.575 220.155 416.807 222.826C421.856 224.991 430.887 225.529 434.771 225.527C438.415 228.354 441.146 231.152 442.782 233.895ZM390.347 206.347C410.253 236.847 443.51 237.83 445.209 238.322C435.742 238.322 414.865 234.141 408.311 230.451C403.067 227.5 394.15 213.152 390.347 206.347Z" fill="#E73C28"/>
<path d="M400.944 207.609C402.205 209.605 411.718 219.646 427.246 223.81L434.771 225.527C430.887 225.529 421.856 224.991 416.807 222.826C410.575 220.155 404.616 214.846 400.944 207.609Z" fill="#B62F1F"/>
<path d="M445.209 238.322C443.51 237.83 410.253 236.847 390.347 206.347C394.15 213.152 403.067 227.5 408.311 230.451C414.865 234.141 435.742 238.322 445.209 238.322Z" fill="#B62F1F"/>
<path d="M392.289 282.596C403.164 266.264 402.928 251.194 401.451 245.701C402.539 241.967 403.37 238.428 403.912 235.807C404.154 234.637 404.339 233.651 404.463 232.911C405.712 233.932 406.995 234.901 408.311 235.807C407.34 239.305 406.612 251.731 406.369 257.508C403.067 272.069 392.289 282.596 392.289 282.596Z" fill="#B62F1F"/>
<path d="M344.224 359.947C345.681 357.694 352.623 345.76 368.742 316.047C376.743 301.299 381.656 281.496 384.548 262.673C384.993 259.773 385.391 256.896 385.744 254.064C387.394 240.851 388.084 228.625 388.211 219.629C389.832 222.035 392.752 225.94 395.959 229.375C394.21 245.386 388.933 279.491 381.582 299.099C380.422 301.788 379.217 304.494 377.967 307.193C367.71 329.329 345.648 359.24 344.224 359.947Z" fill="#E73C28"/>
<path d="M388.224 214.71C392.579 221.111 398.071 227.686 404.463 232.911C404.339 233.651 404.154 234.637 403.912 235.807C401.444 234.72 398.604 232.207 395.959 229.375C392.752 225.94 389.832 222.035 388.211 219.629C388.236 217.858 388.239 216.213 388.224 214.71Z" fill="#B62F1F"/>
<path d="M399.086 252.834C395.889 261.257 389.931 279.732 381.582 299.099C388.933 279.491 394.21 245.386 395.959 229.375C398.604 232.207 401.444 234.72 403.912 235.807C403.37 238.428 402.539 241.967 401.451 245.701C400.763 248.062 399.972 250.5 399.086 252.834Z" fill="#9F2C1E"/>
<path d="M253.883 248.665L253.92 236.601L260.246 239.977C262.189 243.07 262.281 245.059 262.381 247.221C262.456 248.841 262.535 250.559 263.402 252.913L253.883 248.665Z" fill="#F4AE80"/>
<path d="M348.836 273.987C360.488 273.987 378.297 260.705 385.744 254.064C385.391 256.896 384.993 259.773 384.548 262.673C383.793 262.673 357.818 286.04 333.543 278.415C321.894 274.756 302.153 268.436 284.219 262.673C278.588 260.863 273.135 259.108 268.166 257.508C262.692 255.744 257.77 254.102 253.883 252.846C253.802 252.82 253.963 252.872 253.883 252.846V248.772V248.665L263.402 252.913L263.144 252.834L312.423 267.838C319.706 269.888 337.184 273.987 348.836 273.987Z" fill="#153322"/>
<path fill-rule="evenodd" clip-rule="evenodd" d="M507.597 269.314C486.639 260.049 441.374 215.349 427.974 110.666C426.922 101.648 420.643 75.2473 403.941 41.796C373.568 31.4832 300.996 8.69584 253.799 0.00431437L253.92 163.549V163.602C255.959 164.053 258.076 164.528 260.263 165.027C266.32 166.407 272.917 167.968 279.894 169.686C291.255 172.482 303.622 175.693 316.307 179.214C322.009 180.797 327.775 182.443 333.543 184.142C349.248 188.769 364.964 193.792 379.423 199.022C386.95 201.745 394.136 204.523 400.804 207.331C415.098 213.35 427.007 219.503 434.771 225.527C438.415 228.354 441.146 231.152 442.782 233.895C443.362 234.717 452.363 242.108 464.387 249.953C477.53 258.527 494.285 267.644 507.597 269.314ZM394.474 103.287C386.949 89.2673 392.532 74.5094 394.474 71.0659C379.423 92.2189 380.394 100.09 378.938 112.88C377.773 123.112 382.66 128.458 385.249 129.852C382.919 124.736 383.793 121.161 384.521 120.013C388.405 120.21 389.7 128.622 389.862 132.803C388.405 158.384 372.383 152.972 371.412 153.464C371.412 153.464 377.578 156.809 386.706 153.464C395.833 150.119 399.086 136.329 399.572 129.852C400.381 125.67 400.494 114.503 394.474 103.287Z" fill="#407444"/>
<path d="M344.224 359.947C345.681 357.694 352.623 345.76 368.742 316.047C376.743 301.299 381.656 281.496 384.548 262.673C383.793 262.673 357.818 286.04 333.543 278.415C321.894 274.756 302.153 268.436 284.219 262.673C278.588 260.863 273.135 259.108 268.166 257.508L253.92 328.715V404.595C276.999 393.285 310.898 376.482 344.224 359.947Z" fill="#407444"/>
<path d="M253.92 328.715L268.166 257.508C262.692 255.744 257.77 254.102 253.883 252.846L253.92 328.715Z" fill="#4F9054"/>
<path d="M247.608 239.899C245.666 242.992 245.574 244.98 245.474 247.142C245.399 248.763 245.319 250.481 244.452 252.834L253.883 248.772V248.665L253.92 236.601L247.608 239.899Z" fill="#F4AE80"/>
<path fill-rule="evenodd" clip-rule="evenodd" d="M191.29 179.214C214.69 172.718 237.012 167.279 253.92 163.549V163.602V177.137C250.08 183.69 245.264 190.69 240.579 194.626C243.668 194.024 248.464 192.554 253.913 189.999L253.92 189.996V236.601L247.608 239.899C245.666 242.992 245.574 244.98 245.474 247.142C245.399 248.763 245.319 250.481 244.452 252.834L195.174 267.838C187.891 269.888 170.413 273.987 158.761 273.987C147.108 273.987 129.3 260.705 121.852 254.064C120.203 240.851 119.513 228.625 119.386 219.629C119.361 217.858 119.358 216.213 119.373 214.71C123.274 208.976 126.264 203.382 128.174 199.022C142.633 193.792 158.349 188.769 174.054 184.142C186.095 200.026 214.837 214.254 227.702 219.383C229.806 217.907 234.063 214.611 234.257 213.234C234.451 211.856 229.968 201.673 227.702 196.754C215.808 191.343 191.872 180.259 191.29 179.214ZM223.09 242.012C218.882 233.485 204.738 214.07 181.822 204.625C174.459 202.001 156.77 196.557 144.924 195.77C145.247 197.082 146.38 200.05 148.322 201.428C146.461 201.919 141.816 202.608 138.127 201.428C138.288 201.919 139.146 203.248 141.282 204.625C139.017 204.625 133.806 203.887 131.087 200.936C131.41 202.329 133.077 205.56 137.156 207.331C136.185 207.987 132.64 209.003 126.232 207.823C127.445 208.397 129.824 209.938 129.63 211.512C129.436 213.086 124.209 213.316 121.619 213.234C121.943 215.448 124.144 220.465 130.358 222.826C130.925 223.318 130.893 224.647 126.232 226.024C129.387 226.352 135.505 228.189 134.728 232.911C133.951 232.911 131.491 233.731 130.358 234.141C132.786 235.207 137.884 238.273 138.855 242.012C139.826 245.75 147.351 252.26 150.992 255.048C156.414 259.639 169.684 268.428 179.395 266.854C189.105 265.28 194.445 263.411 195.902 262.673C200.029 261.197 209.011 257.163 211.924 252.834C214.837 248.505 216.05 244.635 216.293 243.242C216.617 242.258 216.973 239.847 215.808 238.076C218.332 240.241 221.715 241.602 223.09 242.012Z" fill="#E0A178"/>
<path fill-rule="evenodd" clip-rule="evenodd" d="M316.307 179.214C315.725 180.259 291.789 191.343 279.894 196.754C277.629 201.673 273.146 211.856 273.34 213.234C273.534 214.611 277.791 217.907 279.894 219.383C292.76 214.254 321.502 200.026 333.543 184.142C349.248 188.769 364.964 193.792 379.423 199.022C381.333 203.382 384.322 208.976 388.224 214.71C388.239 216.213 388.236 217.858 388.211 219.629C388.084 228.625 387.394 240.851 385.744 254.064C378.297 260.705 360.488 273.987 348.836 273.987C337.184 273.987 319.706 269.888 312.423 267.838L263.402 252.913C262.535 250.559 262.456 248.841 262.381 247.221C262.281 245.059 262.189 243.07 260.246 239.977L253.92 236.601V189.996C262.308 186.062 272.244 179.556 279.894 169.686C291.255 172.482 303.622 175.693 316.307 179.214ZM260.263 165.027C258.076 164.528 255.959 164.053 253.92 163.602V177.137C256.672 172.439 258.923 167.971 260.263 165.027ZM325.775 204.625C302.859 214.07 288.714 233.485 284.507 242.012C285.882 241.602 289.265 240.241 291.789 238.076C290.624 239.847 290.98 242.258 291.304 243.242C291.547 244.635 292.76 248.505 295.673 252.834C298.586 257.163 307.568 261.197 311.695 262.673C313.152 263.411 318.492 265.28 328.202 266.854C337.912 268.428 351.183 259.639 356.604 255.048C360.246 252.26 367.771 245.75 368.742 242.012C369.713 238.273 374.811 235.207 377.238 234.141C376.106 233.731 373.646 232.911 372.869 232.911C372.092 228.189 378.209 226.352 381.365 226.024C376.704 224.647 376.672 223.318 377.238 222.826C383.453 220.465 385.654 215.448 385.978 213.234C383.388 213.316 378.161 213.086 377.967 211.512C377.773 209.938 380.151 208.397 381.365 207.823C374.957 209.003 371.412 207.987 370.441 207.331C374.52 205.56 376.187 202.329 376.51 200.936C373.791 203.887 368.58 204.625 366.315 204.625C368.451 203.248 369.309 201.919 369.47 201.428C365.78 202.608 361.136 201.919 359.275 201.428C361.217 200.05 362.35 197.082 362.673 195.77C350.827 196.557 333.138 202.001 325.775 204.625Z" fill="#ECAC82"/>
<path d="M253.92 177.137C250.08 183.69 245.264 190.69 240.579 194.626C243.668 194.024 248.464 192.554 253.913 189.999L253.92 189.996V177.137Z" fill="#E0A178"/>
<path d="M279.894 169.686C272.917 167.968 266.32 166.407 260.263 165.027C258.923 167.971 256.672 172.439 253.92 177.137V189.996C262.308 186.062 272.244 179.556 279.894 169.686Z" fill="#ECAC82"/>
</svg>
