<svg width="400" height="315" viewBox="0 0 400 315" fill="none" xmlns="http://www.w3.org/2000/svg">
<path fill-rule="evenodd" clip-rule="evenodd" d="M129.984 62.4057C103.476 64.0698 88.5656 92.816 84.4237 106.981C81.9949 108.337 76.053 138.733 70.0957 173.06C68.7151 189.008 77.0275 221.451 119.629 222.877C132.45 221.986 160.163 217.73 167.5 207.508C165.967 210.64 165.486 213.741 165.486 215.448C165.584 218.618 167.083 225.79 172.29 229.118H173.769C172.981 225.552 172.882 218.895 178.799 220.797C179.982 221.193 183.237 222.877 186.787 226.443C190.337 230.009 196.747 231.891 199.508 232.387V89.7453L129.984 62.4057ZM188.858 122.434C182.715 123.903 152.565 109.684 150.172 108.502C160.554 113.665 181.942 124.1 185.012 124.811C188.088 125.525 188.858 123.524 188.858 122.434ZM121.109 121.542C112.825 120.829 102.076 131.943 97.7368 137.59C107.204 129.031 113.713 130.259 115.783 131.943C124.758 137.59 146.847 150.962 163.415 159.283C179.982 167.604 189.055 155.024 191.52 147.693C190.633 149.476 186.373 152.805 176.432 151.854C166.492 150.903 135.408 131.25 121.109 121.542ZM106.021 162.552C106.494 156.846 107.993 150.863 108.683 148.585C126.927 154.627 164.421 167.069 168.444 168.495C172.197 169.826 176.756 170.225 178.953 170.273C182.161 169.247 189.241 165.028 193.211 156.166C193.455 155.557 193.683 155.006 193.887 154.528C193.674 155.091 193.448 155.637 193.211 156.166C191.327 160.858 188.475 169.004 188.266 173.844C186.491 175.33 182.349 182.759 170.811 186.92C170.318 190.387 164.894 198.212 147.143 201.778C124.955 206.236 116.375 193.373 115.488 193.051C98.8812 186.73 102.132 170.269 106.021 162.552Z" fill="#E0A178"/>
<path d="M97.7368 137.59C102.076 131.943 112.825 120.829 121.109 121.542C135.408 131.25 166.492 150.903 176.432 151.854C186.373 152.805 190.633 149.476 191.52 147.693C189.055 155.024 179.982 167.604 163.415 159.283C146.847 150.962 124.758 137.59 115.783 131.943C113.713 130.259 107.204 129.031 97.7368 137.59Z" fill="#010101"/>
<path d="M108.683 148.585C107.993 150.863 106.494 156.846 106.021 162.552C111.829 164.275 119.461 166.519 127.322 168.798C138.862 172.144 150.896 175.566 158.385 177.53C160.134 177.989 161.634 178.368 162.823 178.648C164.439 179.029 165.479 179.227 165.782 179.193C169.332 180.283 177.024 180.025 179.391 170.278C179.258 170.278 179.111 170.277 178.953 170.273C176.756 170.225 172.197 169.826 168.444 168.495C164.421 167.069 126.927 154.627 108.683 148.585Z" fill="#010101"/>
<path d="M153.652 196.132C149.51 197.717 136.493 199.46 117.559 193.755C116.836 193.537 116.146 193.302 115.488 193.051C116.375 193.373 124.955 206.236 147.143 201.778C164.894 198.212 170.318 190.387 170.811 186.92C166.314 191.912 157.498 195.142 153.652 196.132Z" fill="#010101"/>
<path d="M117.559 193.755C136.493 199.46 149.51 197.717 153.652 196.132C157.498 195.142 166.314 191.912 170.811 186.92C170.417 186.16 168.267 183.442 162.823 178.648C161.634 178.368 160.134 177.989 158.385 177.53C157.912 190.464 147.538 193.141 142.41 192.863C122.884 188.406 127.913 169.387 127.322 168.798C119.461 166.519 111.829 164.275 106.021 162.552C102.132 170.269 98.8812 186.73 115.488 193.051C116.146 193.302 116.836 193.537 117.559 193.755Z" fill="white"/>
<path d="M127.322 168.798C127.913 169.387 122.884 188.406 142.41 192.863C147.538 193.141 157.912 190.464 158.385 177.53C150.896 175.566 138.862 172.144 127.322 168.798Z" fill="#F8861D"/>
<path d="M127.321 283.5C142.212 292.316 177.497 310.958 199.508 315V262.104C189.449 262.203 164.362 265.492 144.481 277.854C140.579 279.934 132.232 282.49 130.049 276.071C129.593 276.081 129.174 276.08 128.801 276.071C114.008 272.802 121.614 259.132 121.7 258.538C120.714 264.58 122.41 275.417 137.084 270.425C154.539 261.509 166.637 255.566 167.541 254.972C168.444 254.377 176.728 249.92 199.508 249.325V236.844C196.846 236.844 192.408 235.656 189.154 232.684C186.239 230.022 184.716 229.118 183.828 229.118H173.769H172.29C167.083 225.79 165.584 218.618 165.486 215.448C165.486 213.741 165.967 210.64 167.5 207.508C160.163 217.73 132.45 221.986 119.629 222.877C77.0275 221.451 68.7151 189.008 70.0957 173.06C67.7114 186.799 65.3246 201.168 63.1596 214.557C61.2459 226.391 59.5055 237.46 58.0933 246.651C75.8072 258.658 99.1053 271.975 127.321 283.5Z" fill="#93705A"/>
<path d="M137.084 270.425C122.41 275.417 120.714 264.58 121.7 258.538C121.614 259.132 114.008 272.802 128.801 276.071C129.174 276.08 129.593 276.081 130.049 276.071C134.422 275.974 142.266 274.893 146.552 271.019C151.285 266.74 163.711 260.123 169.332 257.349C173.474 255.467 185.307 251.822 199.508 252.297V249.325C176.728 249.92 168.444 254.377 167.541 254.972C166.637 255.566 154.539 261.509 137.084 270.425Z" fill="#010101"/>
<path d="M169.332 257.349C163.711 260.123 151.285 266.74 146.552 271.019C142.266 274.893 134.422 275.974 130.049 276.071C132.232 282.49 140.579 279.934 144.481 277.854C164.362 265.492 189.449 262.203 199.508 262.104V252.297C185.307 251.822 173.474 255.467 169.332 257.349Z" fill="#6D503F"/>
<path d="M178.799 220.797C172.882 218.895 172.981 225.552 173.769 229.118H183.828C184.716 229.118 186.239 230.022 189.154 232.684C192.408 235.656 196.846 236.844 199.508 236.844V232.387C196.747 231.891 190.337 230.009 186.787 226.443C183.237 222.877 179.982 221.193 178.799 220.797Z" fill="#010302"/>
<path d="M167.557 9.50944C166.965 9.80661 138.86 10.9953 96.2576 31.2028C95.37 31.2028 89.7489 35.3632 79.986 35.066C73.2801 41.1085 59.3359 71.4991 57.2058 144.722C57.7975 145.613 67.2646 159.283 66.0812 167.307C65.1345 173.725 64.3061 175.925 64.0103 176.222C58.0933 178.995 48.4487 190.545 57.2058 214.557H63.1596C65.3246 201.168 67.7114 186.799 70.0957 173.06C76.053 138.733 81.9949 108.337 84.4237 106.981C88.5656 92.816 103.476 64.0698 129.984 62.4057L199.508 89.7453V21.0991C195.048 21.1944 188.182 21.4181 181.757 21.7834C174.828 22.1775 168.411 22.7363 166.077 23.4764C165.486 20.6038 164.953 13.7887 167.557 9.50944Z" fill="#313236"/>
<path fill-rule="evenodd" clip-rule="evenodd" d="M57.2058 144.722C55.9238 143.632 52.7089 142.107 50.1055 144.722C44.0899 151.953 30.047 176.578 22 217.231C27.7307 223.488 39.9985 234.386 58.0933 246.651C59.5055 237.46 61.2459 226.391 63.1596 214.557H57.2058C48.4487 190.545 58.0933 178.995 64.0103 176.222C64.3061 175.925 65.1345 173.725 66.0812 167.307C67.2646 159.283 57.7975 145.613 57.2058 144.722ZM53.9515 159.283C43.8927 158.094 43.8927 180.976 43.301 186.623C46.1411 177.589 51.5847 169.981 53.9515 167.307L57.7975 173.06C58.9062 164.112 55.6954 160.147 53.9515 159.283Z" fill="#736359"/>
<path d="M43.301 186.623C43.8927 180.976 43.8927 158.094 53.9515 159.283C55.6954 160.147 58.9062 164.112 57.7975 173.06L53.9515 167.307C51.5847 169.981 46.1411 177.589 43.301 186.623Z" fill="#4C4139"/>
<path d="M179.391 170.278C177.024 180.025 169.332 180.283 165.782 179.193C165.479 179.227 164.439 179.029 162.823 178.648C168.267 183.442 170.417 186.16 170.811 186.92C182.349 182.759 186.491 175.33 188.266 173.844C188.475 169.004 191.327 160.858 193.211 156.166C189.241 165.028 182.161 169.247 178.953 170.273C179.111 170.277 179.258 170.278 179.391 170.278Z" fill="#625046"/>
<path d="M167.557 9.50944C164.953 13.7887 165.486 20.6038 166.077 23.4764C168.411 22.7363 174.828 22.1775 181.757 21.7834C181.271 16.9516 182.145 7.66282 188.266 2.93054C184.124 1.2603 174.184 0.237742 167.557 9.50944Z" fill="#F6B746"/>
<path d="M150.172 108.502C152.565 109.684 182.715 123.903 188.858 122.434C188.858 123.524 188.088 125.525 185.012 124.811C181.942 124.1 160.554 113.665 150.172 108.502Z" fill="#625046"/>
<path d="M301.279 137.59C296.94 131.943 286.191 120.829 277.908 121.542C263.608 131.25 232.525 150.903 222.584 151.854C212.644 152.805 208.384 149.476 207.496 147.693C209.961 155.024 219.034 167.604 235.601 159.283C252.169 150.962 274.259 137.59 283.233 131.943C285.304 130.259 291.812 129.031 301.279 137.59Z" fill="#010101"/>
<path d="M290.333 148.585C291.023 150.863 292.522 156.846 292.996 162.552C287.187 164.275 279.556 166.519 271.695 168.798C260.155 172.144 248.12 175.566 240.631 177.53C238.883 177.989 237.382 178.368 236.193 178.648C234.577 179.029 233.537 179.227 233.235 179.193C229.685 180.283 221.992 180.025 219.626 170.278C219.759 170.278 219.905 170.277 220.064 170.273C222.261 170.225 226.82 169.826 230.572 168.495C234.596 167.069 272.089 154.627 290.333 148.585Z" fill="#010101"/>
<path d="M245.364 196.132C249.506 197.717 262.524 199.46 281.458 193.755C282.18 193.537 282.87 193.302 283.529 193.051C282.641 193.373 274.062 206.236 251.873 201.778C234.122 198.212 228.698 190.387 228.205 186.92C232.702 191.912 241.518 195.142 245.364 196.132Z" fill="#010101"/>
<path d="M281.458 193.755C262.524 199.46 249.506 197.717 245.364 196.132C241.518 195.142 232.702 191.912 228.205 186.92C228.6 186.16 230.75 183.442 236.193 178.648C237.382 178.368 238.883 177.989 240.631 177.53C241.104 190.464 251.479 193.141 256.607 192.863C276.132 188.406 271.103 169.387 271.695 168.798C279.556 166.519 287.187 164.275 292.996 162.552C296.885 170.269 300.135 186.73 283.529 193.051C282.87 193.302 282.18 193.537 281.458 193.755Z" fill="white"/>
<path d="M271.695 168.798C271.103 169.387 276.132 188.406 256.607 192.863C251.479 193.141 241.104 190.464 240.631 177.53C248.12 175.566 260.155 172.144 271.695 168.798Z" fill="#F8861D"/>
<path d="M261.932 270.425C276.606 275.417 278.302 264.58 277.316 258.538C277.402 259.132 285.008 272.802 270.216 276.071C269.843 276.08 269.424 276.081 268.967 276.071C264.594 275.974 256.751 274.893 252.465 271.019C247.731 266.74 235.306 260.123 229.685 257.349C225.543 255.467 213.709 251.822 199.508 252.297V249.325C222.288 249.92 230.572 254.377 231.476 254.972C232.379 255.566 244.477 261.509 261.932 270.425Z" fill="#010101"/>
<path d="M229.685 257.349C235.306 260.123 247.731 266.74 252.465 271.019C256.751 274.893 264.594 275.974 268.967 276.071C266.785 282.49 258.437 279.934 254.536 277.854C234.655 265.492 209.567 262.203 199.508 262.104V252.297C213.709 251.822 225.543 255.467 229.685 257.349Z" fill="#6D503F"/>
<path d="M220.217 220.797C226.134 218.895 226.036 225.552 225.247 229.118H215.188C214.3 229.118 212.777 230.022 209.863 232.684C206.608 235.656 202.171 236.844 199.508 236.844V232.387C202.269 231.891 208.679 230.009 212.23 226.443C215.78 222.877 219.034 221.193 220.217 220.797Z" fill="#010302"/>
<path d="M355.715 186.623C355.124 180.976 355.124 158.094 345.065 159.283C343.321 160.147 340.11 164.112 341.219 173.06L345.065 167.307C347.432 169.981 352.875 177.589 355.715 186.623Z" fill="#4C4139"/>
<path d="M219.626 170.278C221.992 180.025 229.685 180.283 233.235 179.193C233.537 179.227 234.577 179.029 236.193 178.648C230.75 183.442 228.6 186.16 228.205 186.92C216.667 182.759 212.525 175.33 210.75 173.844C210.541 169.004 207.689 160.858 205.806 156.166C209.775 165.028 216.855 169.247 220.064 170.273C219.905 170.277 219.759 170.278 219.626 170.278Z" fill="#625046"/>
<path d="M231.46 9.50944C234.063 13.7887 233.531 20.6038 232.939 23.4764C230.605 22.7363 224.189 22.1775 217.259 21.7834C217.746 16.9516 216.871 7.66282 210.75 2.93054C214.892 1.2603 224.833 0.237742 231.46 9.50944Z" fill="#F6B746"/>
<path d="M248.844 108.502C246.451 109.684 216.302 123.903 210.159 122.434C210.159 123.524 210.928 125.525 214.005 124.811C217.074 124.1 238.462 113.665 248.844 108.502Z" fill="#625046"/>
<path d="M199.508 21.0991V89.7453L269.032 62.4057C295.54 64.0698 310.451 92.816 314.593 106.981C317.021 108.337 322.963 138.733 328.921 173.06C331.305 186.799 333.692 201.168 335.857 214.557H341.811C350.568 190.545 340.923 178.995 335.006 176.222C334.71 175.925 333.882 173.725 332.935 167.307C331.752 159.283 341.219 145.613 341.811 144.722C339.68 71.4991 325.736 41.1085 319.03 35.066C309.267 35.3632 303.646 31.2028 302.759 31.2028C260.157 10.9953 232.051 9.80661 231.46 9.50944C234.063 13.7887 233.531 20.6038 232.939 23.4764C230.605 22.7363 224.189 22.1775 217.259 21.7834C210.834 21.4181 203.968 21.1944 199.508 21.0991Z" fill="#3A3B40"/>
<path fill-rule="evenodd" clip-rule="evenodd" d="M199.508 89.7453V232.387C202.269 231.891 208.679 230.009 212.23 226.443C215.78 222.877 219.034 221.193 220.217 220.797C226.134 218.895 226.036 225.552 225.247 229.118H226.726C231.933 225.79 233.432 218.618 233.531 215.448C233.531 213.741 233.05 210.64 231.517 207.508C238.854 217.73 266.567 221.986 279.387 222.877C321.989 221.451 330.301 189.008 328.921 173.06C322.963 138.733 317.021 108.337 314.593 106.981C310.451 92.816 295.54 64.0698 269.032 62.4057L199.508 89.7453ZM210.159 122.434C216.302 123.903 246.451 109.684 248.844 108.502C238.462 113.665 217.074 124.1 214.005 124.811C210.928 125.525 210.159 123.524 210.159 122.434ZM277.908 121.542C286.191 120.829 296.94 131.943 301.279 137.59C291.812 129.031 285.304 130.259 283.233 131.943C274.259 137.59 252.169 150.962 235.601 159.283C219.034 167.604 209.961 155.024 207.496 147.693C208.384 149.476 212.644 152.805 222.584 151.854C232.525 150.903 263.608 131.25 277.908 121.542ZM290.333 148.585C291.023 150.863 292.522 156.846 292.996 162.552C296.885 170.269 300.135 186.73 283.529 193.051C282.641 193.373 274.062 206.236 251.873 201.778C234.122 198.212 228.698 190.387 228.205 186.92C216.667 182.759 212.525 175.33 210.75 173.844C210.541 169.004 207.689 160.858 205.806 156.166C205.569 155.637 205.343 155.091 205.129 154.528C205.333 155.006 205.561 155.557 205.806 156.166C209.775 165.028 216.855 169.247 220.064 170.273C222.261 170.225 226.82 169.826 230.572 168.495C234.596 167.069 272.089 154.627 290.333 148.585Z" fill="#EBAB82"/>
<path fill-rule="evenodd" clip-rule="evenodd" d="M348.911 144.722C346.307 142.107 343.093 143.632 341.811 144.722C341.219 145.613 331.752 159.283 332.935 167.307C333.882 173.725 334.71 175.925 335.006 176.222C340.923 178.995 350.568 190.545 341.811 214.557H335.857C337.77 226.391 339.511 237.46 340.923 246.651C359.018 234.386 371.286 223.488 377.016 217.231C368.969 176.578 354.926 151.953 348.911 144.722ZM345.065 159.283C355.124 158.094 355.124 180.976 355.715 186.623C352.875 177.589 347.432 169.981 345.065 167.307L341.219 173.06C340.11 164.112 343.321 160.147 345.065 159.283Z" fill="#8A786C"/>
<path d="M199.508 236.844V249.325C222.288 249.92 230.572 254.377 231.476 254.972C232.379 255.566 244.477 261.509 261.932 270.425C276.606 275.417 278.302 264.58 277.316 258.538C277.402 259.132 285.008 272.802 270.216 276.071C269.843 276.08 269.424 276.081 268.967 276.071C266.785 282.49 258.437 279.934 254.536 277.854C234.655 265.492 209.567 262.203 199.508 262.104V315C221.519 310.958 256.804 292.316 271.695 283.5C299.911 271.975 323.209 258.658 340.923 246.651C339.511 237.46 337.77 226.391 335.857 214.557C333.692 201.168 331.305 186.799 328.921 173.06C330.301 189.008 321.989 221.451 279.387 222.877C266.567 221.986 238.854 217.73 231.517 207.508C233.05 210.64 233.531 213.741 233.531 215.448C233.432 218.618 231.933 225.79 226.726 229.118H225.247H215.188C214.3 229.118 212.777 230.022 209.863 232.684C206.608 235.656 202.171 236.844 199.508 236.844Z" fill="#A07A62"/>
<path d="M181.757 21.7834C188.182 21.4181 195.048 21.1944 199.508 21.0991V0C195.721 0 193.591 0.396226 193 0.59434C191.151 1.10062 189.587 1.90953 188.266 2.93054C182.145 7.66282 181.271 16.9516 181.757 21.7834Z" fill="#EEA139"/>
<path d="M199.508 0V21.0991C203.968 21.1944 210.834 21.4181 217.259 21.7834C217.746 16.9516 216.871 7.66282 210.75 2.93054C209.43 1.90953 207.865 1.10062 206.017 0.59434C205.425 0.396226 203.295 0 199.508 0Z" fill="#EEA139"/>
</svg>
