<svg width="400" height="315" viewBox="0 0 400 315" fill="none" xmlns="http://www.w3.org/2000/svg">
<path d="M108.011 82.0785C99.5579 81.3007 96.5314 67.7121 94.2355 60.8459C93.9027 59.8265 93.6266 58.567 93.4358 57.0925C92.0451 46.3439 95.1897 24.1718 113.959 0.316906C101.415 12.6597 82.3644 40.0377 84.1053 69.193C84.6497 78.3087 87.2265 87.5982 92.6701 96.6562C99.765 103.314 111.822 108.584 118.076 93.804C120.653 87.7138 122.245 78.2193 122.099 64.0149C122.059 64.1189 122.018 64.2245 121.976 64.3318C119.493 70.6554 113.429 82.5771 108.011 82.0785Z" fill="#B82820"/>
<path d="M94.2355 60.8459C96.5314 67.7121 99.5579 81.3007 108.011 82.0785C113.429 82.5771 119.493 70.6554 121.976 64.3318C117.369 75.9939 111.581 71.9376 109.263 68.4516C104.936 63.4044 103.624 54.9501 104.01 45.4534C104.651 29.6676 109.985 11.0018 113.959 0.316906C95.1897 24.1718 92.0451 46.3439 93.4358 57.0925C93.6266 58.567 93.9027 59.8265 94.2355 60.8459Z" fill="#FC5E55"/>
<path d="M291.989 82.0785C300.442 81.3007 303.469 67.7121 305.764 60.8459C306.097 59.8265 306.373 58.567 306.564 57.0925C307.955 46.3439 304.81 24.1718 286.041 0.316906C290.015 11.0018 295.349 29.6676 295.99 45.4534C296.376 54.9501 295.064 63.4044 290.737 68.4516C288.419 71.9376 282.631 75.9939 278.024 64.3318C280.507 70.6554 286.571 82.5771 291.989 82.0785Z" fill="#FC5E55"/>
<path d="M89.5395 131.833C95.0705 138.699 108.449 153.699 117.716 158.77C119.429 159.707 121.56 160.804 123.978 161.992C125.354 162.669 126.823 163.375 128.361 164.098C142.393 170.698 162.161 178.735 169.374 178.735C170.18 178.735 170.972 178.749 171.752 178.762C179.937 178.907 186.75 179.028 193.793 162.678C192.066 166.356 187.036 171.994 178.14 169.861C168.622 167.58 146.415 152.854 136.501 145.777C127.943 139.755 107.886 126.826 96.1141 123.276C90.4788 124.861 89.5395 130.882 89.5395 131.833Z" fill="#040716"/>
<path d="M282.284 158.77C291.551 153.699 304.929 138.699 310.46 131.833C310.46 128.283 306.077 124.65 303.886 123.276C292.114 126.826 272.057 139.755 263.499 145.777C253.585 152.854 231.378 167.58 221.86 169.861C212.964 171.994 207.934 166.356 206.207 162.678C213.25 179.028 220.063 178.907 228.248 178.762C229.028 178.749 229.82 178.735 230.626 178.735C237.839 178.735 257.607 170.698 271.639 164.098C273.177 163.375 274.646 162.669 276.022 161.992C278.44 160.804 280.571 159.707 282.284 158.77Z" fill="#040716"/>
<path d="M282.284 158.77C280.571 159.707 278.44 160.804 276.022 161.992C279.153 163.876 287.293 167.58 294.807 167.326C291.885 174.298 283.286 189.573 272.265 194.897C261.245 200.221 251.185 199.017 247.532 197.749C244.715 196.904 237.702 193.693 232.192 187.608C229.437 185.58 228.33 181.904 228.122 180.319C225.367 181.618 223.843 186.776 223.426 189.193C227.433 188.432 233.861 192.679 236.575 194.897C241.688 199.65 255.86 207.573 271.639 201.235C287.418 194.897 295.955 185.918 298.251 182.221C301.381 178.101 307.768 169.037 308.269 165.742C308.77 162.446 314.53 157.185 317.348 154.967C295.809 162.319 284.997 160.565 282.284 158.77Z" fill="#020816"/>
<path d="M123.978 161.992C121.56 160.804 119.429 159.707 117.716 158.77C115.003 160.565 104.191 162.319 82.6519 154.967C85.4696 157.185 91.2301 162.446 91.7311 165.742C92.232 169.037 98.6187 178.101 101.749 182.221C104.045 185.918 112.582 194.897 128.361 201.235C144.14 207.573 158.312 199.65 163.425 194.897C166.139 192.679 172.567 188.432 176.574 189.193C176.157 186.776 174.633 181.618 171.878 180.319C171.67 181.904 170.563 185.58 167.808 187.608C162.298 193.693 155.285 196.904 152.468 197.749C148.815 199.017 138.755 200.221 127.735 194.897C116.714 189.573 108.115 174.298 105.193 167.326C112.707 167.58 120.847 163.876 123.978 161.992Z" fill="#020816"/>
<path d="M123.978 161.992C120.847 163.876 112.707 167.58 105.193 167.326C108.115 174.298 116.714 189.573 127.735 194.897C138.755 200.221 148.815 199.017 152.468 197.749C155.285 196.904 162.298 193.693 167.808 187.608C165.617 185.812 160.858 181.46 159.355 178.418L159.424 176.648C154.916 191.099 146.206 192.995 142.449 192.045C127.672 186.467 126.9 171.09 128.361 164.098C126.823 163.375 125.354 162.669 123.978 161.992Z" fill="white"/>
<path d="M294.807 167.326C287.293 167.58 279.153 163.876 276.022 161.992C274.646 162.669 273.177 163.375 271.639 164.098C273.1 171.09 272.328 186.467 257.551 192.045C253.794 192.995 245.153 191.078 240.645 176.627V178.418C239.142 181.46 234.383 185.812 232.192 187.608C237.702 193.693 244.715 196.904 247.532 197.749C251.185 199.017 261.245 200.221 272.265 194.897C283.286 189.573 291.885 174.298 294.807 167.326Z" fill="white"/>
<path d="M159.424 176.648C150.305 173.827 137.984 168.625 128.361 164.098C126.9 171.09 127.672 186.467 142.449 192.045C146.206 192.995 154.916 191.099 159.424 176.648Z" fill="#FF3423"/>
<path d="M271.639 164.098C262.04 168.613 249.757 173.8 240.645 176.627C245.153 191.078 253.794 192.995 257.551 192.045C272.328 186.467 273.1 171.09 271.639 164.098Z" fill="#FF3423"/>
<path d="M200.055 272.856C185.341 270.849 155.786 266.771 155.285 266.518C154.784 266.264 148.398 265.989 145.267 265.884L153.72 260.496C163.217 259.863 182.899 258.785 185.654 259.546C189.097 260.496 193.794 263.348 200.055 263.348V258.912C197.237 259.123 189.911 259.102 183.149 257.327C176.387 255.553 170.939 252.785 169.061 251.623C158.541 245.488 146.728 238.926 142.136 236.412C141.781 236.225 141.309 236.01 140.719 235.778C136.974 234.3 128.509 232.096 115.525 231.658C113.915 231.604 112.348 231.418 110.829 231.122C98.1684 228.658 88.824 218.559 85.4696 213.277C87.2228 218.855 93.7139 225.32 96.7403 227.855C100.184 230.707 108.762 236.285 115.525 235.778C122.287 235.271 129.404 236.623 132.118 237.362C144.39 240.912 162.277 252.362 169.687 257.644C165.429 256.63 154.764 257.01 149.963 257.327L142.136 268.419C144.223 268.525 149.587 269.053 154.346 270.32C159.105 271.588 186.802 275.497 200.055 277.292V272.856Z" fill="#FF3423"/>
<path d="M244.715 266.518C244.214 266.771 214.77 270.849 200.055 272.856V277.292C213.309 275.497 240.895 271.588 245.654 270.32C250.413 269.053 255.777 268.525 257.864 268.419L250.037 257.327C245.236 257.01 234.571 256.63 230.313 257.644C237.723 252.362 255.61 240.912 267.882 237.362C270.596 236.623 277.713 235.271 284.475 235.778C291.238 236.285 299.816 230.707 303.26 227.855C306.286 225.32 312.777 218.855 314.53 213.277C311.176 218.559 301.832 228.658 289.171 231.122C287.652 231.418 286.085 231.604 284.475 231.658C271.491 232.096 263.026 234.3 259.281 235.778C258.691 236.01 258.219 236.225 257.864 236.412C253.272 238.926 241.459 245.488 230.939 251.623C229.061 252.785 223.613 255.553 216.851 257.327C210.089 259.102 202.873 259.123 200.055 258.912V263.348C206.317 263.348 210.903 260.496 214.346 259.546C217.101 258.785 236.783 259.863 246.28 260.496L254.733 265.884C251.602 265.989 245.216 266.264 244.715 266.518Z" fill="#FF3423"/>
<path d="M143.075 247.186C138.484 253.313 131.617 269.053 140.884 282.997C136.292 281.412 127.735 275.137 130.239 262.715C132.744 250.292 139.84 247.186 143.075 247.186Z" fill="#FF3423"/>
<path d="M155.285 266.518C155.786 266.771 185.341 270.849 200.055 272.856V263.348C193.794 263.348 189.097 260.496 185.654 259.546C182.899 258.785 163.217 259.863 153.72 260.496L145.267 265.884C148.398 265.989 154.784 266.264 155.285 266.518Z" fill="white"/>
<path d="M200.055 272.856C214.77 270.849 244.214 266.771 244.715 266.518C245.216 266.264 251.602 265.989 254.733 265.884L246.28 260.496C236.783 259.863 217.101 258.785 214.346 259.546C210.903 260.496 206.317 263.348 200.055 263.348V272.856Z" fill="white"/>
<path d="M165.304 231.341C164.573 233.454 164.051 238.44 167.808 241.482C171.565 244.524 178.557 241.693 181.584 239.897C177.722 240.181 170.063 239.394 170.313 233.984C168.02 232.884 166.275 231.929 165.304 231.341Z" fill="#FF3423"/>
<path d="M232.192 241.482C235.949 238.44 235.427 233.454 234.696 231.341C233.725 231.929 231.98 232.884 229.687 233.984C229.938 239.394 222.283 239.897 218.416 239.897C221.443 241.693 228.435 244.524 232.192 241.482Z" fill="#FF3423"/>
<path d="M256.925 247.186C261.516 253.313 268.383 269.053 259.116 282.997C263.708 281.412 272.265 275.137 269.761 262.715C267.256 250.292 260.16 247.186 256.925 247.186Z" fill="#FF3423"/>
<path d="M277.901 64.0149C277.4 112.692 297.311 106.058 307.33 96.6562C312.774 87.5982 315.35 78.3087 315.895 69.193C317.636 40.0377 298.585 12.6597 286.041 0.316906C304.81 24.1718 307.955 46.3439 306.564 57.0925C306.373 58.567 306.097 59.8265 305.764 60.8459C303.469 67.7121 300.442 81.3007 291.989 82.0785C286.571 82.5771 280.507 70.6554 278.024 64.3318C277.982 64.2245 277.941 64.1189 277.901 64.0149Z" fill="#AA140B"/>
<path fill-rule="evenodd" clip-rule="evenodd" d="M59.1712 126.445C53.3272 150.847 33.3112 203.897 0 220.883C13.1492 217.608 43.9558 221.263 61.9889 262.081C66.9981 255.848 77.5174 243.447 79.5211 243.7C80.0145 243.763 80.7873 245.375 81.9593 247.819C86.7364 257.783 98.1451 281.58 124.291 270.637C124.813 277.081 129.926 289.208 146.206 286.166C150.798 288.278 163.363 295.483 176.888 307.398C179.45 309.888 187.609 314.823 200 314.999L200.055 314.998V277.292C186.802 275.497 159.105 271.588 154.346 270.32C149.587 269.053 144.223 268.525 142.136 268.419L149.963 257.327C154.764 257.01 165.429 256.63 169.687 257.644C162.277 252.362 144.39 240.912 132.118 237.362C129.404 236.623 122.287 235.271 115.525 235.778C108.762 236.285 100.184 230.707 96.7403 227.855C93.7139 225.32 87.2228 218.855 85.4696 213.277C88.824 218.559 98.1684 228.658 110.829 231.122C111.455 231.237 138.692 229.756 151.528 214.862C133.683 216.658 94.9244 211.82 82.6519 178.101C80.7734 174.298 77.3922 163.967 78.895 153.065C78.9544 153.005 79.104 152.591 79.3588 151.886C80.4465 148.877 83.4516 140.563 89.5395 131.833C89.5395 130.882 90.4788 124.861 96.1141 123.276C96.1141 122.326 96.7403 116.621 105.506 112.185C108.46 110.283 115.108 103.945 118.076 93.804C111.822 108.584 99.765 103.314 92.6701 96.6562C87.2265 87.5982 84.6497 78.3087 84.1053 69.193C73.6919 83.9432 63.4124 103.318 59.1712 126.445ZM140.884 282.997C131.617 269.053 138.484 253.313 143.075 247.186C139.84 247.186 132.744 250.292 130.239 262.715C127.735 275.137 136.292 281.412 140.884 282.997Z" fill="#040716"/>
<path fill-rule="evenodd" clip-rule="evenodd" d="M166.869 211.059C163.296 212.434 155.285 214.439 151.528 214.862C133.683 216.658 94.9244 211.82 82.6519 178.101C80.7734 174.298 77.3922 163.967 78.895 153.065C78.9544 153.005 79.104 152.591 79.3588 151.886C80.4465 148.877 83.4516 140.563 89.5395 131.833C95.0705 138.699 108.449 153.699 117.716 158.77C115.003 160.565 104.191 162.319 82.6519 154.967C85.4696 157.185 91.2301 162.446 91.7311 165.742C92.232 169.037 98.6187 178.101 101.749 182.221C104.045 185.918 112.582 194.897 128.361 201.235C144.14 207.573 158.312 199.65 163.425 194.897C166.139 192.679 172.567 188.432 176.574 189.193C176.157 186.776 174.633 181.618 171.878 180.319C171.67 181.904 170.563 185.58 167.808 187.608C165.617 185.812 160.858 181.46 159.355 178.418L159.424 176.648C163.602 177.941 167.108 178.735 169.374 178.735C170.18 178.735 170.972 178.749 171.752 178.762C179.937 178.907 186.75 179.028 193.793 162.678C193.914 162.421 194.018 162.173 194.107 161.939C195.109 160.164 195.15 158.03 195.046 157.185C196.195 157.513 198.113 157.909 200.055 158.004V196.798C197.3 196.038 193.272 197.96 191.602 199.017C182.586 204.341 170.73 209.58 166.869 211.059Z" fill="#B82820"/>
<path d="M166.869 137.22C173.652 143.347 188.784 155.918 195.046 157.185C196.195 157.513 198.113 157.909 200.055 158.004V32.6413C200.055 109.966 177.931 134.685 166.869 137.22Z" fill="#050716"/>
<path fill-rule="evenodd" clip-rule="evenodd" d="M248.472 214.862C244.715 214.439 236.387 213.087 233.131 211.059C229.27 209.58 217.414 204.341 208.398 199.017C206.728 197.96 202.81 196.038 200.055 196.798V158.004C201.868 158.093 203.702 157.919 204.954 157.185C204.917 158.075 205.054 160.272 205.893 161.939C205.982 162.173 206.086 162.421 206.207 162.678C213.25 179.028 220.063 178.907 228.248 178.762C229.028 178.749 229.82 178.735 230.626 178.735C232.905 178.735 236.437 177.933 240.645 176.627V178.418C239.142 181.46 234.383 185.812 232.192 187.608C229.437 185.58 228.33 181.904 228.122 180.319C225.367 181.618 223.843 186.776 223.426 189.193C227.433 188.432 233.861 192.679 236.575 194.897C241.688 199.65 255.86 207.573 271.639 201.235C287.418 194.897 295.955 185.918 298.251 182.221C301.381 178.101 307.768 169.037 308.269 165.742C308.77 162.446 314.53 157.185 317.348 154.967C295.809 162.319 284.997 160.565 282.284 158.77C291.551 153.699 304.929 138.699 310.46 131.833C316.548 140.563 319.553 148.877 320.641 151.886L320.641 151.887C320.896 152.592 321.046 153.005 321.105 153.065C322.608 163.967 319.227 174.298 317.348 178.101C305.076 211.82 266.317 216.658 248.472 214.862Z" fill="#D82D24"/>
<path d="M204.954 157.185C211.216 155.918 226.348 143.347 233.131 137.22C222.069 134.685 200.055 109.966 200.055 32.6413V158.004C201.868 158.093 203.702 157.919 204.954 157.185Z" fill="#2D2D33"/>
<path fill-rule="evenodd" clip-rule="evenodd" d="M142.136 236.412C146.728 238.926 158.541 245.488 169.061 251.623C170.939 252.785 176.387 255.553 183.149 257.327C189.911 259.102 197.237 259.123 200.055 258.912V196.798C197.3 196.038 193.272 197.96 191.602 199.017C182.586 204.341 170.73 209.58 166.869 211.059V211.693C166.238 217.08 160.123 229.44 140.719 235.778C141.309 236.01 141.781 236.225 142.136 236.412ZM180.958 226.271C183.462 230.327 193.689 244.968 198.49 251.623C195.735 251.877 194.211 250.461 193.794 249.722C188.033 242.369 183.462 239.264 181.897 238.63C177.418 237.18 173.377 235.453 170.313 233.984C170.063 239.394 177.722 240.181 181.584 239.897C178.557 241.693 171.565 244.524 167.808 241.482C164.051 238.44 164.573 233.454 165.304 231.341C165.805 225.763 169.269 223.524 170.939 223.101C173.235 222.468 178.453 222.214 180.958 226.271Z" fill="#040716"/>
<path fill-rule="evenodd" clip-rule="evenodd" d="M230.939 251.623C241.459 245.488 253.272 238.926 257.864 236.412C258.219 236.225 258.691 236.01 259.281 235.778C239.877 229.44 233.762 217.08 233.131 211.693V211.059C229.27 209.58 217.414 204.341 208.398 199.017C206.728 197.96 202.81 196.038 200.055 196.798V258.912C202.873 259.123 210.089 259.102 216.851 257.327C223.613 255.553 229.061 252.785 230.939 251.623ZM201.51 251.623C206.311 244.968 216.538 230.327 219.042 226.271C221.547 222.214 226.765 222.468 229.061 223.101C230.731 223.524 234.195 225.763 234.696 231.341C235.427 233.454 235.949 238.44 232.192 241.482C228.435 244.524 221.443 241.693 218.416 239.897C222.283 239.897 229.938 239.394 229.687 233.984C226.623 235.453 222.582 237.18 218.103 238.63C216.538 239.264 211.967 242.369 206.206 249.722C205.789 250.461 204.265 251.877 201.51 251.623Z" fill="#2D2D33"/>
<path fill-rule="evenodd" clip-rule="evenodd" d="M200.055 0C220.509 0.422541 266.567 8.42969 287.606 37.0779C287.9 37.5034 288.9 38.4715 290.433 39.9568C291.866 41.3444 293.765 43.1835 295.99 45.4534C296.376 54.9501 295.064 63.4044 290.737 68.4516C288.419 71.9376 282.631 75.9939 278.024 64.3318C277.982 64.2245 277.941 64.1189 277.901 64.0149C277.763 77.3864 279.166 86.5841 281.481 92.6973C282.483 100.557 292.141 110.836 294.542 112.209C287.529 108.66 250.663 127.396 233.131 137.22C222.069 134.685 200.055 109.966 200.055 32.6413V0Z" fill="#484852"/>
<path fill-rule="evenodd" clip-rule="evenodd" d="M400 220.883C366.689 203.897 346.673 150.847 340.829 126.445C336.588 103.318 326.308 83.9432 315.895 69.193C315.35 78.3087 312.774 87.5982 307.33 96.6562C300.064 103.475 287.593 108.838 281.481 92.6973C282.483 100.557 292.141 110.836 294.542 112.209C303.308 116.646 303.886 122.326 303.886 123.276C306.077 124.65 310.46 128.283 310.46 131.833C316.548 140.563 319.553 148.877 320.641 151.886L320.641 151.887C320.896 152.592 321.046 153.005 321.105 153.065C322.608 163.967 319.227 174.298 317.348 178.101C305.076 211.82 266.317 216.658 248.472 214.862C261.308 229.756 288.545 231.237 289.171 231.122C301.832 228.658 311.176 218.559 314.53 213.277C312.777 218.855 306.286 225.32 303.26 227.855C299.816 230.707 291.238 236.285 284.475 235.778C277.713 235.271 270.596 236.623 267.882 237.362C255.61 240.912 237.723 252.362 230.313 257.644C234.571 256.63 245.236 257.01 250.037 257.327L257.864 268.419C255.777 268.525 250.413 269.053 245.654 270.32C240.895 271.588 213.309 275.497 200.055 277.292V314.998C212.415 314.809 220.554 309.885 223.112 307.398C236.637 295.483 249.202 288.278 253.794 286.166C270.074 289.208 275.187 277.081 275.709 270.637C308.269 284.264 317.974 244.017 320.479 243.7C322.483 243.447 333.002 255.848 338.011 262.081C356.044 221.263 386.851 217.608 400 220.883ZM259.116 282.997C268.383 269.053 261.516 253.313 256.925 247.186C260.16 247.186 267.256 250.292 269.761 262.715C272.265 275.137 263.708 281.412 259.116 282.997Z" fill="#2D2D33"/>
<path d="M110.829 231.122C112.348 231.418 113.915 231.604 115.525 231.658C128.509 232.096 136.974 234.3 140.719 235.778C160.123 229.44 166.238 217.08 166.869 211.693V211.059C163.296 212.434 155.285 214.439 151.528 214.862C138.692 229.756 111.455 231.237 110.829 231.122Z" fill="#383841"/>
<path d="M284.475 231.658C286.085 231.604 287.652 231.418 289.171 231.122C288.545 231.237 261.308 229.756 248.472 214.862C244.715 214.439 236.387 213.087 233.131 211.059V211.693C233.762 217.08 239.877 229.44 259.281 235.778C263.026 234.3 271.491 232.096 284.475 231.658Z" fill="#383841"/>
<path d="M198.49 251.623C193.689 244.968 183.462 230.327 180.958 226.271C178.453 222.214 173.235 222.468 170.939 223.101C169.269 223.524 165.805 225.763 165.304 231.341C166.275 231.929 168.02 232.884 170.313 233.984C173.377 235.453 177.418 237.18 181.897 238.63C183.462 239.264 188.033 242.369 193.794 249.722C194.211 250.461 195.735 251.877 198.49 251.623Z" fill="#383841"/>
<path d="M219.042 226.271C216.538 230.327 206.311 244.968 201.51 251.623C204.265 251.877 205.789 250.461 206.206 249.722C211.967 242.369 216.538 239.264 218.103 238.63C222.582 237.18 226.623 235.453 229.687 233.984C231.98 232.884 233.725 231.929 234.696 231.341C234.195 225.763 230.731 223.524 229.061 223.101C226.765 222.468 221.547 222.214 219.042 226.271Z" fill="#383841"/>
<path d="M136.501 145.777C146.415 152.854 168.622 167.58 178.14 169.861C187.036 171.994 192.066 166.356 193.793 162.678C193.897 162.435 194.002 162.189 194.107 161.939C195.109 160.164 195.15 158.03 195.046 157.185C188.784 155.918 173.652 143.347 166.869 137.22C149.337 127.396 112.519 108.635 105.506 112.185C96.7403 116.621 96.1141 122.326 96.1141 123.276C107.886 126.826 127.943 139.755 136.501 145.777Z" fill="#8A1912"/>
<path d="M221.86 169.861C231.378 167.58 253.585 152.854 263.499 145.777C272.057 139.755 292.114 126.826 303.886 123.276C303.886 122.326 303.308 116.646 294.542 112.209C287.529 108.66 250.663 127.396 233.131 137.22C226.348 143.347 211.216 155.918 204.954 157.185C204.917 158.075 205.054 160.272 205.893 161.939C205.998 162.189 206.103 162.435 206.207 162.678C207.934 166.356 212.964 171.994 221.86 169.861Z" fill="#B3231B"/>
<path d="M200.055 0C179.601 0.422541 133.433 8.42969 112.394 37.0779C111.825 37.9008 108.617 40.7537 104.01 45.4534C103.624 54.9501 104.936 63.4044 109.263 68.4516C111.581 71.9376 117.369 75.9939 121.976 64.3318C122.018 64.2245 122.059 64.1189 122.099 64.0149C122.245 78.2193 120.653 87.7138 118.076 93.804C115.108 103.945 108.46 110.283 105.506 112.185C112.519 108.635 149.337 127.396 166.869 137.22C177.931 134.685 200.055 109.966 200.055 32.6413V0Z" fill="#27282C"/>
</svg>
