<svg width="400" height="315" viewBox="0 0 400 315" fill="none" xmlns="http://www.w3.org/2000/svg">
<path d="M106.31 34.5368C91.7807 46.6074 83.1862 64.023 80.7051 71.2219C74.6512 102.779 60.4594 168.556 52.1229 179.206C50.0388 184.63 45.5132 195.951 44.0841 197.845C42.655 199.738 42.0992 205.537 42 208.199C42.7925 212.294 45.3192 220.225 49.8225 225.062C49.9905 224.143 52.9633 195.398 88.1766 167.745C94.8311 162.52 102.626 157.347 111.757 152.426C116.516 149.861 121.639 147.364 127.151 144.965C127.716 144.797 128.312 144.621 128.938 144.438C144.052 140.034 176.857 131.459 199.5 130.095V0.295847V0C174.266 6.55749 120.782 22.5138 106.31 34.5368Z" fill="#2C2B3B"/>
<path d="M199.5 0V0.295847V130.095C222.143 131.459 254.948 140.034 270.062 144.438C270.688 144.621 271.284 144.797 271.849 144.965C277.361 147.364 282.484 149.861 287.243 152.426C296.374 157.347 304.169 162.52 310.823 167.745C346.037 195.398 349.01 224.143 349.178 225.062C353.681 220.225 356.207 212.294 357 208.199C356.901 205.537 356.345 199.738 354.916 197.845C353.487 195.951 348.961 184.63 346.877 179.206C338.541 168.556 324.349 102.779 318.295 71.2219C315.814 64.023 307.219 46.6074 292.69 34.5368C278.218 22.5138 224.734 6.55749 199.5 0Z" fill="#585C68"/>
<path d="M53.6115 228.021C63.7344 236.798 88.2079 256.777 105.119 266.481C122.03 276.185 143.725 288.078 152.458 292.811C159.009 295.967 173.181 303.048 177.468 306.125C181.755 309.201 193.942 313.324 199.5 315V312.633C185.904 307.505 156.091 293.658 146.802 277.801C144.122 274.743 136.083 266.499 125.365 257.979C122.884 254.823 116.909 244.902 112.86 230.465C104.027 222.28 86.5093 195.437 88.1766 167.745C52.9633 195.398 49.9905 224.143 49.8225 225.062C50.9584 226.283 52.2201 227.306 53.6115 228.021Z" fill="#111020"/>
<path fill-rule="evenodd" clip-rule="evenodd" d="M112.86 230.465C126.675 233.542 135.091 235.494 137.572 236.086C140.251 239.636 145.73 246.855 146.206 247.328C146.802 247.92 146.802 252.654 153.649 252.654C159.128 252.654 172.605 250.287 178.659 249.103L199.5 243.997V130.095C176.857 131.459 144.052 140.034 128.938 144.438C131.022 144.965 159.604 167.154 171.811 168.337C178.56 169.225 189.794 168.219 180.743 157.095C184.018 159.264 189.318 166.207 184.316 176.621C184.911 176.325 198.607 175.733 190.866 157.095C194.736 161.237 199.321 171.236 186.698 178.1C182.529 179.283 172.406 180.526 165.261 176.029L173.3 187.271L171.811 189.934C170.62 189.145 168.06 187.094 167.345 185.2C166.75 187.074 165.023 191.531 162.879 194.372C164.665 193.977 169.25 193.247 173.3 193.484C168.834 195.654 158.711 201.058 153.947 205.318C151.267 207.981 133.999 211.531 132.808 216.264C132.808 215.673 129.831 214.193 133.999 209.756C129.831 210.545 120.482 210.584 116.433 204.43C119.112 206.304 125.484 209.637 129.533 207.981C123.38 205.318 111.193 196.975 111.669 184.905C110.578 184.214 107.977 182.656 106.31 181.946C107.997 180.565 111.431 177.449 111.669 176.029C111.967 174.254 114.051 169.52 117.922 164.491C121.018 160.468 128.342 157.489 131.617 156.503C127.449 154.038 117.207 151.355 109.585 160.349L111.757 152.426C102.626 157.347 94.8311 162.52 88.1766 167.745C86.5093 195.437 104.027 222.28 112.86 230.465ZM191.461 238.749H182.529C187.055 245.139 195.133 244.961 198.607 244.074C197.416 242.654 193.347 239.932 191.461 238.749ZM189.376 236.086C189.376 236.086 202.179 238.453 194.14 207.389C181.636 218.631 177.17 234.311 189.376 236.086Z" fill="#373948"/>
<path fill-rule="evenodd" clip-rule="evenodd" d="M128.938 144.438C128.312 144.621 127.716 144.797 127.151 144.965C121.639 147.364 116.516 149.861 111.757 152.426L109.585 160.349C117.207 151.355 127.449 154.038 131.617 156.503C128.342 157.489 121.018 160.468 117.922 164.491C114.051 169.52 111.967 174.254 111.669 176.029C111.431 177.449 107.997 180.565 106.31 181.946C107.977 182.656 110.578 184.214 111.669 184.905C111.193 196.975 123.38 205.318 129.533 207.981C125.484 209.637 119.112 206.304 116.433 204.43C120.482 210.584 129.831 210.545 133.999 209.756C129.831 214.193 132.808 215.673 132.808 216.264C133.999 211.531 151.267 207.981 153.947 205.318C158.711 201.058 168.834 195.654 173.3 193.484C169.25 193.247 164.665 193.977 162.879 194.372C165.023 191.531 166.75 187.074 167.345 185.2C168.06 187.094 170.62 189.145 171.811 189.934L173.3 187.271L165.261 176.029C172.406 180.526 182.529 179.283 186.698 178.1C199.321 171.236 194.736 161.237 190.866 157.095C198.607 175.733 184.911 176.325 184.316 176.621C189.318 166.207 184.018 159.264 180.743 157.095C189.794 168.219 178.56 169.225 171.811 168.337C159.604 167.154 131.022 144.965 128.938 144.438ZM159.604 174.254C151.168 169.915 134.118 161.296 133.404 161.533C125.305 163.426 120.7 168.83 119.41 171.296C118.219 172.676 116.254 177.982 117.922 188.159C119.589 198.336 130.327 202.853 135.488 203.839C141.145 204.529 154.007 203.365 160.199 193.188C166.392 183.011 162.383 176.325 159.604 174.254Z" fill="#12101F"/>
<path fill-rule="evenodd" clip-rule="evenodd" d="M157.52 268.629C164.368 278.096 198.011 280.386 199.5 280.682V243.997L178.659 249.103C172.605 250.287 159.128 252.654 153.649 252.654C146.802 252.654 146.802 247.92 146.206 247.328C145.73 246.855 140.251 239.636 137.572 236.086C138.763 237.96 141.919 243.423 145.015 250.287C148.886 258.866 150.672 259.162 157.52 268.629ZM158.115 262.712C150.672 261.529 153.352 255.02 153.352 254.724C159.306 253.304 161.787 255.316 162.284 256.5C163.236 262.416 159.902 263.107 158.115 262.712ZM165.559 261.825C162.879 252.654 170.62 254.133 171.216 253.541C175.265 254.014 174.888 259.261 174.193 261.825C171.096 265.612 167.147 263.403 165.559 261.825ZM178.957 263.896C176.575 260.582 177.369 255.02 178.063 252.654C181.338 250.583 184.613 252.358 184.911 253.245C185.149 253.955 184.613 260.247 184.316 263.304C183.125 265.434 180.247 264.586 178.957 263.896ZM197.714 253.541C193.188 247.151 188.285 250.878 186.4 253.541C185.685 260.405 186.698 263.896 187.293 264.783C190.767 265.079 197.773 265.493 198.011 264.783C198.25 264.073 197.912 256.993 197.714 253.541ZM159.604 268.038C158.413 267.801 156.726 265.375 155.733 264.192C157.833 263.507 158.844 263.656 161.688 263.896C162.879 265.671 159.902 268.038 159.604 268.038ZM170.918 273.955C166.63 272.771 165.559 267.742 165.559 265.375C173.657 265.848 176.078 267.347 176.277 268.038C176.277 270.503 175.205 275.138 170.918 273.955ZM184.613 268.629C181.993 265.789 178.758 267.051 177.468 268.038C177.766 270.404 177.17 275.138 181.636 276.025C185.209 276.735 185.11 271.39 184.613 268.629ZM198.309 267.742L186.4 267.446C185.507 274.546 187.888 277.505 193.545 278.096C198.071 278.57 198.607 271.39 198.309 267.742Z" fill="#140D25"/>
<path d="M189.376 236.086C189.376 236.086 202.179 238.453 194.14 207.389C181.636 218.631 177.17 234.311 189.376 236.086Z" fill="#100F21"/>
<path d="M153.352 254.724C153.352 255.02 150.672 261.529 158.115 262.712C159.902 263.107 163.236 262.416 162.284 256.5C161.787 255.316 159.306 253.304 153.352 254.724Z" fill="#D4DFD9"/>
<path d="M171.216 253.541C170.62 254.133 162.879 252.654 165.559 261.825C167.147 263.403 171.096 265.612 174.193 261.825C174.888 259.261 175.265 254.014 171.216 253.541Z" fill="#D4DFD9"/>
<path d="M178.063 252.654C177.369 255.02 176.575 260.582 178.957 263.896C180.247 264.586 183.125 265.434 184.316 263.304C184.613 260.247 185.149 253.955 184.911 253.245C184.613 252.358 181.338 250.583 178.063 252.654Z" fill="#D4DFD9"/>
<path d="M186.4 253.541C188.285 250.878 193.188 247.151 197.714 253.541C197.912 256.993 198.25 264.073 198.011 264.783C197.773 265.493 190.767 265.079 187.293 264.783C186.698 263.896 185.685 260.405 186.4 253.541Z" fill="#D4DFD9"/>
<path d="M155.733 264.192C156.726 265.375 158.413 267.801 159.604 268.038C159.902 268.038 162.879 265.671 161.688 263.896C158.844 263.656 157.833 263.507 155.733 264.192Z" fill="#D4DFD9"/>
<path d="M165.559 265.375C165.559 267.742 166.63 272.771 170.918 273.955C175.205 275.138 176.277 270.503 176.277 268.038C176.078 267.347 173.657 265.848 165.559 265.375Z" fill="#D4DFD9"/>
<path d="M177.468 268.038C178.758 267.051 181.993 265.789 184.613 268.629C185.11 271.39 185.209 276.735 181.636 276.025C177.17 275.138 177.766 270.404 177.468 268.038Z" fill="#D4DFD9"/>
<path d="M186.4 267.446L198.309 267.742C198.607 271.39 198.071 278.57 193.545 278.096C187.888 277.505 185.507 274.546 186.4 267.446Z" fill="#D4DFD9"/>
<path d="M212.6 267.446L200.691 267.742C200.393 271.39 200.929 278.57 205.455 278.096C211.112 277.505 213.493 274.546 212.6 267.446Z" fill="#D4DFD9"/>
<path d="M212.6 253.541C210.715 250.878 205.812 247.151 201.286 253.541C201.088 256.993 200.75 264.073 200.989 264.783C201.227 265.493 208.233 265.079 211.707 264.783C212.302 263.896 213.315 260.405 212.6 253.541Z" fill="#D4DFD9"/>
<path d="M146.802 277.801C156.091 293.658 185.904 307.505 199.5 312.633V280.682C198.011 280.386 164.368 278.096 157.52 268.629C150.672 259.162 148.886 258.866 145.015 250.287C141.919 243.423 138.763 237.96 137.572 236.086C135.091 235.494 126.675 233.542 112.86 230.465C116.909 244.902 122.884 254.823 125.365 257.979C136.083 266.499 144.122 274.743 146.802 277.801Z" fill="#2C2E39"/>
<path fill-rule="evenodd" clip-rule="evenodd" d="M199.5 130.095V243.997L220.341 249.103C226.395 250.287 239.872 252.654 245.351 252.654C252.198 252.654 252.198 247.92 252.794 247.328C253.27 246.855 258.749 239.636 261.428 236.086C263.909 235.494 272.325 233.542 286.14 230.465C294.973 222.28 312.491 195.437 310.823 167.745C304.169 162.52 296.374 157.347 287.243 152.426L289.415 160.349C281.793 151.355 271.551 154.038 267.383 156.503C270.658 157.489 277.982 160.468 281.078 164.491C284.949 169.52 287.033 174.254 287.331 176.029C287.569 177.449 291.003 180.565 292.69 181.946C291.023 182.656 288.423 184.214 287.331 184.905C287.807 196.975 275.62 205.318 269.467 207.981C273.516 209.637 279.888 206.304 282.567 204.43C278.518 210.584 269.169 210.545 265.001 209.756C269.169 214.193 266.192 215.673 266.192 216.264C265.001 211.531 247.733 207.981 245.053 205.318C240.289 201.058 230.166 195.654 225.7 193.484C229.75 193.247 234.335 193.977 236.121 194.372C233.977 191.531 232.25 187.074 231.655 185.2C230.94 187.094 228.38 189.145 227.189 189.934L225.7 187.271L233.739 176.029C226.594 180.526 216.471 179.283 212.302 178.1C199.679 171.236 204.264 161.237 208.134 157.095C200.393 175.733 214.089 176.325 214.684 176.621C209.682 166.207 214.982 159.264 218.257 157.095C209.206 168.219 220.44 169.225 227.189 168.337C239.396 167.154 267.978 144.965 270.062 144.438C254.948 140.034 222.143 131.459 199.5 130.095ZM207.539 238.749H216.471C211.945 245.139 203.867 244.961 200.393 244.074C201.584 242.595 205.653 239.932 207.539 238.749ZM209.624 236.086C209.624 236.086 196.821 238.453 204.86 207.389C217.364 218.631 221.83 234.311 209.624 236.086Z" fill="#484A5A"/>
<path d="M199.5 280.682V312.633C213.096 307.505 242.909 293.658 252.198 277.801C254.878 274.743 262.917 266.499 273.635 257.979C276.116 254.823 282.091 244.902 286.14 230.465C272.325 233.542 263.909 235.494 261.428 236.086C260.237 237.96 257.081 243.423 253.985 250.287C250.114 258.866 248.328 259.162 241.48 268.629C234.632 278.096 200.989 280.386 199.5 280.682Z" fill="#3A3C4B"/>
<path fill-rule="evenodd" clip-rule="evenodd" d="M199.5 243.997V280.682C200.989 280.386 234.632 278.096 241.48 268.629C248.328 259.162 250.114 258.866 253.985 250.287C257.081 243.423 260.237 237.96 261.428 236.086C258.749 239.636 253.27 246.855 252.794 247.328C252.198 247.92 252.198 252.654 245.351 252.654C239.872 252.654 226.395 250.287 220.341 249.103L199.5 243.997ZM240.885 262.712C248.328 261.529 245.648 255.02 245.648 254.724C239.694 253.304 237.213 255.316 236.716 256.5C235.764 262.416 239.098 263.107 240.885 262.712ZM233.441 261.825C236.121 252.654 228.38 254.133 227.785 253.541C223.735 254.014 224.112 259.261 224.807 261.825C227.904 265.612 231.854 263.403 233.441 261.825ZM220.043 263.896C222.425 260.582 221.631 255.02 220.937 252.654C217.662 250.583 214.387 252.358 214.089 253.245C213.851 253.955 214.387 260.247 214.684 263.304C215.875 265.434 218.753 264.586 220.043 263.896ZM201.286 253.541C205.812 247.151 210.715 250.878 212.6 253.541C213.315 260.405 212.302 263.896 211.707 264.783C208.233 265.079 201.227 265.493 200.989 264.783C200.75 264.073 201.088 256.993 201.286 253.541ZM239.396 268.038C240.587 267.801 242.274 265.375 243.267 264.192C241.167 263.507 240.156 263.656 237.312 263.896C236.121 265.671 239.098 268.038 239.396 268.038ZM228.082 273.955C232.37 272.771 233.441 267.742 233.441 265.375C225.343 265.848 222.922 267.347 222.723 268.038C222.723 270.503 223.795 275.138 228.082 273.955ZM214.387 268.629C217.007 265.789 220.242 267.051 221.532 268.038C221.234 270.404 221.83 275.138 217.364 276.025C213.791 276.735 213.89 271.39 214.387 268.629ZM200.691 267.742L212.6 267.446C213.493 274.546 211.112 277.505 205.455 278.096C200.929 278.57 200.393 271.39 200.691 267.742Z" fill="#140D25"/>
<path d="M220.937 252.654C221.631 255.02 222.425 260.582 220.043 263.896C218.753 264.586 215.875 265.434 214.684 263.304C214.387 260.247 213.851 253.955 214.089 253.245C214.387 252.358 217.662 250.583 220.937 252.654Z" fill="#D4DFD9"/>
<path d="M227.785 253.541C228.38 254.133 236.121 252.654 233.441 261.825C231.854 263.403 227.904 265.612 224.807 261.825C224.112 259.261 223.735 254.014 227.785 253.541Z" fill="#D4DFD9"/>
<path d="M245.648 254.724C245.648 255.02 248.328 261.529 240.885 262.712C239.098 263.107 235.764 262.416 236.716 256.5C237.213 255.316 239.694 253.304 245.648 254.724Z" fill="#D4DFD9"/>
<path d="M221.532 268.038C220.242 267.051 217.007 265.789 214.387 268.629C213.89 271.39 213.791 276.735 217.364 276.025C221.83 275.138 221.234 270.404 221.532 268.038Z" fill="#D4DFD9"/>
<path d="M233.441 265.375C233.441 267.742 232.37 272.771 228.082 273.955C223.795 275.138 222.723 270.503 222.723 268.038C222.922 267.347 225.343 265.848 233.441 265.375Z" fill="#D4DFD9"/>
<path d="M243.267 264.192C242.274 265.375 240.587 267.801 239.396 268.038C239.098 268.038 236.121 265.671 237.312 263.896C240.156 263.656 241.167 263.507 243.267 264.192Z" fill="#D4DFD9"/>
<path d="M209.624 236.086C209.624 236.086 196.821 238.453 204.86 207.389C217.364 218.631 221.83 234.311 209.624 236.086Z" fill="#100F21"/>
<path d="M216.471 238.749H207.539C205.653 239.932 201.584 242.595 200.393 244.074C203.867 244.961 211.945 245.139 216.471 238.749Z" fill="#1D1C2D"/>
<path d="M182.529 238.749H191.461C193.347 239.932 197.416 242.654 198.607 244.074C195.133 244.961 187.055 245.139 182.529 238.749Z" fill="#1D1C2D"/>
<path fill-rule="evenodd" clip-rule="evenodd" d="M271.849 144.965C271.284 144.797 270.688 144.621 270.062 144.438C267.978 144.965 239.396 167.154 227.189 168.337C220.44 169.225 209.206 168.219 218.257 157.095C214.982 159.264 209.682 166.207 214.684 176.621C214.089 176.325 200.393 175.733 208.134 157.095C204.264 161.237 199.679 171.236 212.302 178.1C216.471 179.283 226.594 180.526 233.739 176.029L225.7 187.271L227.189 189.934C228.38 189.145 230.94 187.094 231.655 185.2C232.25 187.074 233.977 191.531 236.121 194.372C234.335 193.977 229.75 193.247 225.7 193.484C230.166 195.654 240.289 201.058 245.053 205.318C247.733 207.981 265.001 211.531 266.192 216.264C266.192 215.673 269.169 214.193 265.001 209.756C269.169 210.545 278.518 210.584 282.567 204.43C279.888 206.304 273.516 209.637 269.467 207.981C275.62 205.318 287.807 196.975 287.331 184.905C288.423 184.214 291.023 182.656 292.69 181.946C291.003 180.565 287.569 177.449 287.331 176.029C287.033 174.254 284.949 169.52 281.078 164.491C277.982 160.468 270.658 157.489 267.383 156.503C271.551 154.038 281.793 151.355 289.415 160.349L287.243 152.426C282.484 149.861 277.361 147.364 271.849 144.965ZM239.396 174.254C247.832 169.915 264.882 161.296 265.596 161.533C265.797 161.579 265.996 161.629 266.192 161.68C273.921 163.692 278.332 168.891 279.59 171.296C280.781 172.676 282.746 177.982 281.078 188.159C279.411 198.336 268.673 202.853 263.512 203.839C257.855 204.529 244.993 203.365 238.801 193.188C232.608 183.011 236.617 176.325 239.396 174.254Z" fill="#12101F"/>
<path d="M199.5 312.633V315C205.058 313.324 217.245 309.201 221.532 306.125C225.819 303.048 239.991 295.967 246.542 292.811C255.275 288.078 276.97 276.185 293.881 266.481C310.792 256.777 335.266 236.798 345.388 228.021C346.78 227.306 348.042 226.283 349.178 225.062C349.01 224.143 346.037 195.398 310.823 167.745C312.491 195.437 294.973 222.28 286.14 230.465C282.091 244.902 276.116 254.823 273.635 257.979C262.917 266.499 254.878 274.743 252.198 277.801C242.909 293.658 213.096 307.505 199.5 312.633Z" fill="#111020"/>
<path d="M135.488 203.839C141.145 204.529 154.007 203.365 160.199 193.188C130.188 197.448 129.632 173.662 133.404 161.533C125.305 163.426 120.7 168.83 119.41 171.296C118.219 172.676 116.254 177.982 117.922 188.159C119.589 198.336 130.327 202.853 135.488 203.839Z" fill="#D4DFD9"/>
<path d="M238.801 193.188C244.993 203.365 257.855 204.529 263.512 203.839C268.673 202.853 279.411 198.336 281.078 188.159C282.746 177.982 280.781 172.676 279.59 171.296C278.332 168.891 273.921 163.692 266.192 161.68C270.757 172.577 271.67 194.135 238.801 193.188Z" fill="#D4DFD9"/>
<path d="M159.604 174.254C151.168 169.915 134.118 161.296 133.404 161.533C129.632 173.662 130.188 197.448 160.199 193.188C166.392 183.011 162.383 176.325 159.604 174.254Z" fill="#C2CEC7"/>
<path d="M265.596 161.533C264.882 161.296 247.832 169.915 239.396 174.254C236.617 176.325 232.608 183.011 238.801 193.188C271.67 194.135 270.757 172.577 266.192 161.68C265.996 161.629 265.797 161.579 265.596 161.533Z" fill="#C2CEC7"/>
</svg>
