<svg width="449" height="406" viewBox="0 0 449 406" fill="none" xmlns="http://www.w3.org/2000/svg">
<path d="M224.504 203.061V214.324C275.356 213.66 331.236 187.625 353.234 174.487C353.349 174.418 353.464 174.349 353.578 174.281L344.967 170.166C308.338 188.23 263.276 204.488 224.504 203.061Z" fill="#F68F46"/>
<path d="M224.504 214.324V226.838C225.229 226.504 235.899 225.586 241.186 225.169C247.403 236.311 260.729 233.798 268.378 230.442C269.205 230.08 269.966 229.707 270.644 229.34C288.217 222.17 306.332 212.619 321.84 203.59C321.85 203.584 321.86 203.578 321.869 203.573C322.761 203.053 323.645 202.536 324.519 202.02C330.182 198.681 335.458 195.438 340.183 192.442C340.689 192.121 341.188 191.803 341.681 191.488C342.012 191.277 342.34 191.067 342.665 190.858C348.778 186.934 353.831 183.509 357.424 180.955C355.899 178.645 354.498 176.48 353.234 174.487C331.236 187.625 275.356 213.66 224.504 214.324Z" fill="#1C1E2B"/>
<path d="M224.504 203.061V214.324C173.651 213.66 117.686 187.625 95.6884 174.487C95.5727 174.418 95.4579 174.349 95.344 174.281L103.955 170.166C140.584 188.23 185.731 204.488 224.504 203.061Z" fill="#F68F46"/>
<path d="M224.504 214.324V226.838C223.779 226.504 213.023 225.586 207.736 225.169C204.703 230.605 199.978 232.79 195.046 233.214C189.868 233.659 184.461 232.161 180.544 230.442C179.717 230.08 178.956 229.707 178.278 229.34C153.226 219.119 127.073 204.057 108.94 192.569C101.618 187.93 95.6037 183.874 91.498 180.955C93.0228 178.645 94.4241 176.48 95.6884 174.487C117.686 187.625 173.651 213.66 224.504 214.324Z" fill="#1C1E2B"/>
<path d="M224.504 85.4341L224.504 0.758789C199.88 1.17591 143.654 8.01668 115.738 32.0428C109.242 35.2407 94.4377 45.1404 87.1866 59.1556C90.3588 48.1714 101.145 21.3645 118.91 2.01015C101.991 13.4114 65.3428 46.2249 54.1037 86.2684L38.6951 129.232C40.3568 131.595 44.5866 136.573 48.2122 137.574C60.7843 146.442 80.6446 158.67 103.955 170.166C140.584 188.23 185.731 204.488 224.504 203.061V175.114C220.153 157.095 207.584 152.59 201.844 152.59L207.282 148.419C218.159 137.741 205.923 135.906 198.219 135.906C198.974 134.793 203.352 130.443 206.376 122.558C209.095 115.467 204.261 114.493 200.938 114.633C211.452 107.625 221.331 91.9692 224.504 85.4341Z" fill="#4F5054"/>
<path d="M224.504 0.758789L224.504 85.4341C227.676 91.9692 237.47 107.625 247.984 114.633C244.661 114.493 239.827 115.467 242.546 122.558C245.57 130.443 249.948 134.793 250.703 135.906C242.999 135.906 230.763 137.741 241.64 148.419L247.078 152.59C241.337 152.59 228.855 157.095 224.504 175.114V203.061C263.276 204.488 308.338 188.23 344.967 170.166C368.277 158.67 388.138 146.442 400.71 137.574C404.335 136.573 408.565 131.595 410.227 129.232L394.818 86.2684C383.579 46.2249 346.931 13.4114 330.012 2.01015C347.777 21.3645 358.563 48.1714 361.735 59.1556C354.484 45.1404 339.68 35.2407 333.184 32.0428C305.268 8.01668 249.127 1.17591 224.504 0.758789Z" fill="#656668"/>
<path d="M224.504 175.114L224.504 85.4341C221.331 91.9692 211.452 107.625 200.938 114.633C204.261 114.493 209.095 115.467 206.376 122.558C203.352 130.443 198.974 134.793 198.219 135.906C205.923 135.906 218.159 137.741 207.282 148.419L201.844 152.59C207.584 152.59 220.153 157.095 224.504 175.114Z" fill="#D9DADB"/>
<path d="M224.504 85.4341L224.504 175.114C228.855 157.095 241.337 152.59 247.078 152.59L241.64 148.419C230.763 137.741 242.999 135.906 250.703 135.906C249.948 134.793 245.57 130.443 242.546 122.558C239.827 115.467 244.661 114.493 247.984 114.633C237.47 107.625 227.676 91.9692 224.504 85.4341Z" fill="#F5F7F6"/>
<path d="M48.2122 137.574C47.3058 141.884 45.6743 152.34 46.3994 159.681C34.7675 179.425 9.23768 230.675 0.173847 277.726C0.0103549 279.005 0.0613885 280.747 0.502926 282.732C28.0894 266.113 61.5345 224.069 82.6547 193.936C85.9193 189.279 88.8895 184.905 91.498 180.955C93.0228 178.645 94.4241 176.48 95.6884 174.487C95.5727 174.418 95.4579 174.349 95.344 174.281L103.955 170.166C80.6446 158.67 60.7843 146.442 48.2122 137.574Z" fill="#34373C"/>
<path d="M178.278 229.34C160.788 222.204 142.761 212.709 127.301 203.717C125.337 214.841 126.599 236.079 145.648 241.02C168.396 246.92 178.106 236.137 180.544 230.442C179.717 230.08 178.956 229.707 178.278 229.34Z" fill="#F68F46"/>
<path d="M99.876 284.817L112.112 327.364L132.697 339.877L118.004 326.529L106.221 284.817C102.233 281.115 100.329 283.275 99.876 284.817Z" fill="#1E1E2B"/>
<path d="M142.815 340.194L150.437 336.467C141.011 310.439 138.699 298.861 138.85 296.497C144.651 296.163 160.604 291.657 167.855 289.446C146.685 292.642 125.563 287.621 108.94 280.728C111.961 283.203 120.36 289.489 129.787 294.828C130.844 301.085 135.202 319.171 142.815 340.194Z" fill="#1E1E2B"/>
<path d="M86.1292 311.513L97.61 331.5L124.348 346.842C130.315 345.823 135.678 344.466 137.491 342.797L132.697 339.877L112.112 327.364L99.1408 319.438L86.1292 311.513Z" fill="#818588"/>
<path d="M83.5611 324.444L103.955 361.568C109.402 361.15 120.171 359.853 128.88 357.535H112.565L107.58 348.857L97.61 331.5L86.1292 311.513L75.8568 305.256L83.5611 324.444Z" fill="#77787A"/>
<path d="M142.815 340.194L137.491 342.797C135.678 344.466 130.315 345.823 124.348 346.842C118.381 347.861 111.81 348.542 107.58 348.857L112.565 357.535H128.88C131.763 356.768 134.421 355.889 136.584 354.894C142.25 352.853 152.717 348.372 156.978 344.255C157.943 343.322 158.59 342.408 158.791 341.546C159.879 336.874 154.712 335.706 151.993 335.706L150.437 336.467L142.815 340.194Z" fill="#AEB0AF"/>
<path d="M224.504 349.888V339.877C212.177 340.211 186.738 337.514 175.559 336.123L156.978 344.255C152.717 348.372 142.25 352.853 136.584 354.894C152.295 369.493 188.248 397.44 200.938 400.777C204.364 402.285 213.813 405.28 224.504 405.363V353.642C219.821 352.669 207.736 351.39 196.859 354.059C186.304 356.65 177.457 355.784 174.043 354.968C173.923 354.945 173.824 354.92 173.746 354.894C173.84 354.918 173.939 354.943 174.043 354.968C175.804 355.297 182.271 355.096 196.859 351.974C216.346 347.803 223.144 349.888 224.504 349.888Z" fill="#393943"/>
<path d="M176.465 329.866C173.927 323.192 165.74 326.251 161.963 328.615L151.993 335.706C154.712 335.706 159.879 336.874 158.791 341.546C158.59 342.408 157.943 343.322 156.978 344.255L175.559 336.123C177.734 334.121 177.07 331.118 176.465 329.866Z" fill="#2D2D36"/>
<path d="M224.504 330.701V325.278C215.44 324.166 193.959 321.023 180.544 317.353C167.13 313.682 158.942 312.764 156.525 312.764C153.884 313.008 149.904 314.61 152.334 319.021C160.945 322.358 204.035 328.198 224.504 330.701Z" fill="#DFE1E1"/>
<path d="M224.504 339.877V330.701C204.035 328.198 160.945 322.358 152.334 319.021C152.684 319.657 153.167 320.351 153.806 321.107C158.882 327.113 161.51 328.754 161.963 328.615C165.74 326.251 173.927 323.192 176.465 329.866C177.07 331.118 177.734 334.121 175.559 336.123C186.738 337.514 212.177 340.211 224.504 339.877Z" fill="#C4C4C4"/>
<path d="M69.0589 226.004C69.0589 226.319 70.3372 244.008 75.8568 256.419C77.6444 260.438 79.8768 263.904 82.6547 266.047C83.6932 266.848 84.846 267.686 86.1047 268.55C91.8029 272.459 99.6719 276.884 108.94 280.728C125.563 287.621 146.685 292.642 167.855 289.446C172.095 288.806 176.336 287.836 180.544 286.486C184.623 284.261 192.055 277.56 189.155 268.55C165.69 277.189 113.595 281.881 78.506 239.351C77.6117 238.267 76.7283 237.153 75.8568 236.007C73.4995 232.907 71.2286 229.577 69.0589 226.004Z" fill="#30303A"/>
<path fill-rule="evenodd" clip-rule="evenodd" d="M224.504 311.93V241.854C216.165 240.519 208.642 245.191 205.923 247.694C194.321 262.376 172.689 264.935 163.323 264.379C119.816 265.713 92.0206 234.902 83.5611 219.33L82.6547 193.936C80.6727 204.486 77.0682 228.339 78.506 239.351C113.595 281.881 165.69 277.189 189.155 268.55C192.055 277.56 184.623 284.261 180.544 286.486C176.336 287.836 172.095 288.806 167.855 289.446C160.604 291.657 144.651 296.163 138.85 296.497C138.699 298.861 141.011 310.439 150.437 336.467L151.993 335.706L161.963 328.615C161.51 328.754 158.882 327.113 153.806 321.107C153.167 320.351 152.684 319.657 152.334 319.021C149.904 314.61 153.884 313.008 156.525 312.764C158.942 312.764 167.13 313.682 180.544 317.353C193.959 321.023 215.44 324.166 224.504 325.278V319.021C224.504 318.02 217.253 313.877 213.627 311.93C212.116 310.957 206.829 308.176 197.765 304.839C188.702 301.502 192.176 298.721 195.046 297.748C203.385 299.083 218.159 307.759 224.504 311.93ZM75.8568 256.419C77.6444 260.438 79.8768 263.904 82.6547 266.047C83.6932 266.848 84.846 267.686 86.1047 268.55C91.8029 272.459 99.6719 276.884 108.94 280.728C111.961 283.203 120.36 289.489 129.787 294.828C130.844 301.085 135.202 319.171 142.815 340.194L137.491 342.797L132.697 339.877L118.004 326.529L106.221 284.817C102.233 281.115 100.329 283.275 99.876 284.817L112.112 327.364L99.1408 319.438L86.1292 311.513C75.5605 293.114 75.8151 261.676 75.8539 256.885V256.884C75.8555 256.679 75.8568 256.523 75.8568 256.419Z" fill="#393943"/>
<path d="M0.502926 282.732C1.69328 288.084 5.7217 295.209 16.0356 299.834C18.7369 301.045 21.5229 302.334 24.4065 303.669L24.4081 303.669C40.3915 311.066 59.3744 319.85 83.5611 324.444L75.8568 305.256L86.1292 311.513C75.5605 293.114 75.8151 261.676 75.8539 256.885V256.884C75.8555 256.679 75.8568 256.523 75.8568 256.419C70.3372 244.008 69.0589 226.319 69.0589 226.004C71.2286 229.577 73.4995 232.907 75.8568 236.007C76.7283 237.153 77.6117 238.267 78.506 239.351C77.0682 228.339 80.6727 204.486 82.6547 193.936C61.5345 224.069 28.0894 266.113 0.502926 282.732Z" fill="#1D1F2B"/>
<path d="M145.648 241.02C126.599 236.079 125.337 214.841 127.301 203.717C120.617 199.83 114.413 196.037 108.94 192.569C103.199 206.634 100.389 235.021 129.787 247.694C168.491 264.379 185.982 242.351 195.046 233.214C189.868 233.659 184.461 232.161 180.544 230.442C178.106 236.137 168.396 246.92 145.648 241.02Z" fill="white"/>
<path fill-rule="evenodd" clip-rule="evenodd" d="M321.84 203.59L321.869 203.573C322.761 203.053 323.645 202.536 324.519 202.02C323.635 202.541 322.742 203.065 321.84 203.59Z" fill="#D5D5D5"/>
<path d="M270.644 229.34C288.134 222.204 306.161 212.709 321.621 203.717C323.585 214.841 322.323 236.079 303.274 241.02C280.526 246.92 270.816 236.137 268.378 230.442C269.205 230.08 269.966 229.707 270.644 229.34Z" fill="#F68F46"/>
<path d="M303.274 241.02C322.323 236.079 323.585 214.841 321.621 203.717C328.305 199.83 334.509 196.037 339.982 192.569C345.723 206.634 348.533 235.021 319.135 247.694C280.431 264.379 262.94 242.351 253.876 233.214C259.054 233.659 264.461 232.161 268.378 230.442C270.816 236.137 280.526 246.92 303.274 241.02Z" fill="white"/>
<path d="M224.504 339.877V349.888C225.863 349.888 232.576 347.803 252.063 351.974C266.651 355.096 273.118 355.297 274.879 354.968C274.983 354.943 275.082 354.918 275.176 354.894C275.098 354.92 274.999 354.945 274.879 354.968C271.465 355.784 262.618 356.65 252.063 354.059C241.186 351.39 229.187 352.669 224.504 353.642V405.363C235.195 405.28 244.558 402.285 247.984 400.777C260.674 397.44 296.627 369.493 312.337 354.894C306.672 352.853 296.205 348.372 291.944 344.255L273.363 336.123C262.184 337.514 236.831 340.211 224.504 339.877Z" fill="#474752"/>
<path d="M366.267 266.047C377.623 257.288 379.863 226.421 379.863 226.004C376.474 231.586 372.837 236.574 369.01 241.02C333.949 281.756 282.921 277.074 259.767 268.55C256.867 277.56 264.299 284.261 268.378 286.486C272.586 287.836 276.827 288.806 281.067 289.446C302.228 292.787 323.349 287.79 339.982 280.728C349.25 276.884 357.119 272.459 362.817 268.55C364.076 267.686 365.229 266.848 366.267 266.047Z" fill="#3B3B45"/>
<path d="M402.523 159.681C403.248 152.34 401.616 141.884 400.71 137.574C388.138 146.442 368.277 158.67 344.967 170.166L353.578 174.281C353.464 174.349 353.349 174.418 353.234 174.487C354.498 176.48 355.899 178.645 357.424 180.955C360.032 184.905 363.003 189.279 366.267 193.936C387.387 224.069 420.833 266.113 448.419 282.732C448.861 280.747 448.912 279.005 448.748 277.726C439.684 230.675 414.154 179.425 402.523 159.681Z" fill="#3F434A"/>
<path d="M365.361 324.444C393.912 319.021 415.212 307.759 432.886 299.834C443.2 295.209 447.229 288.084 448.419 282.732C420.833 266.113 387.387 224.069 366.267 193.936C368.096 201.288 371.204 220.998 369.01 241.02C372.837 236.574 376.474 231.586 379.863 226.004C379.863 226.421 377.623 257.288 366.267 266.047C365.229 266.848 364.076 267.686 362.817 268.55C360.832 280.09 355.445 306.424 349.781 319.438L362.793 311.513L373.065 305.256L365.361 324.444Z" fill="#1D1F2B"/>
<path d="M311.431 342.797L296.929 335.706C294.21 335.706 289.043 336.874 290.131 341.546C290.332 342.408 290.979 343.322 291.944 344.255C296.205 348.372 306.672 352.853 312.337 354.894C314.501 355.889 317.159 356.768 320.042 357.535H336.357L341.342 348.857C337.112 348.542 330.541 347.861 324.574 346.842C318.607 345.823 313.244 344.466 311.431 342.797Z" fill="#AEB0AF"/>
<path d="M344.967 361.568L365.361 324.444L373.065 305.256L362.793 311.513L351.312 331.5L341.342 348.857L336.357 357.535H320.042C328.751 359.853 339.52 361.15 344.967 361.568Z" fill="#77787A"/>
<path d="M351.312 331.5L362.793 311.513L349.781 319.438L336.81 327.364L316.225 339.877L311.431 342.797C313.244 344.466 318.607 345.823 324.574 346.842L351.312 331.5Z" fill="#818588"/>
<path d="M286.959 328.615C287.412 328.754 290.04 327.113 295.116 321.107C295.755 320.351 296.238 319.657 296.588 319.021C287.977 322.358 244.973 328.198 224.504 330.701V339.877C236.831 340.211 262.184 337.514 273.363 336.123C271.188 334.121 271.852 331.118 272.457 329.866C274.994 323.192 283.182 326.251 286.959 328.615Z" fill="#C4C4C4"/>
<path d="M224.504 319.021V311.93C218.159 307.759 203.385 299.083 195.046 297.748C192.176 298.721 188.702 301.502 197.765 304.839C206.829 308.176 212.116 310.957 213.627 311.93C217.253 313.877 224.504 318.02 224.504 319.021Z" fill="#191B27"/>
<path d="M224.504 311.93V319.021C224.504 318.02 231.669 313.877 235.295 311.93C236.806 310.957 242.093 308.176 251.157 304.839C260.22 301.502 256.746 298.721 253.876 297.748C245.537 299.083 230.848 307.759 224.504 311.93Z" fill="#191B27"/>
<path d="M224.504 353.642V349.888C223.144 349.888 216.346 347.803 196.859 351.974C182.271 355.096 175.804 355.297 174.043 354.968C177.457 355.784 186.304 356.65 196.859 354.059C207.736 351.39 219.821 352.669 224.504 353.642Z" fill="#191B27"/>
<path d="M224.504 349.888V353.642C229.187 352.669 241.186 351.39 252.063 354.059C262.618 356.65 271.465 355.784 274.879 354.968C273.118 355.297 266.651 355.096 252.063 351.974C232.576 347.803 225.863 349.888 224.504 349.888Z" fill="#191B27"/>
<path fill-rule="evenodd" clip-rule="evenodd" d="M224.504 311.93V241.854C232.843 240.519 240.28 245.191 242.999 247.694C254.601 262.376 276.233 264.935 285.599 264.379C329.106 265.713 356.901 234.902 365.361 219.33L366.267 193.936C368.096 201.288 371.204 220.998 369.01 241.02C333.949 281.756 282.921 277.074 259.767 268.55C256.867 277.56 264.299 284.261 268.378 286.486C272.586 287.836 276.827 288.806 281.067 289.446C288.318 291.657 304.271 296.163 310.072 296.497C310.223 298.861 308.061 310.512 298.635 336.54L296.929 335.706L286.959 328.615C287.412 328.754 290.04 327.113 295.116 321.107C295.755 320.351 296.238 319.657 296.588 319.021C299.017 314.61 295.038 313.008 292.397 312.764C289.98 312.764 281.792 313.682 268.378 317.353C254.963 321.023 233.568 324.166 224.504 325.278V319.021C224.504 318.02 231.669 313.877 235.295 311.93C236.806 310.957 242.093 308.176 251.157 304.839C260.22 301.502 256.746 298.721 253.876 297.748C245.537 299.083 230.848 307.759 224.504 311.93ZM306.313 340.294L311.431 342.797L316.225 339.877L330.918 326.529L342.701 284.817C346.689 281.115 348.593 283.275 349.046 284.817L336.81 327.364L349.781 319.438C355.445 306.424 360.832 280.09 362.817 268.55C357.119 272.459 349.25 276.884 339.982 280.728C336.961 283.203 328.562 289.489 319.135 294.828C318.078 301.085 313.926 319.272 306.313 340.294Z" fill="#474752"/>
<path d="M298.635 336.54L306.313 340.294C313.926 319.272 318.078 301.085 319.135 294.828C328.562 289.489 336.961 283.203 339.982 280.728C323.349 287.79 302.228 292.787 281.067 289.446C288.318 291.657 304.271 296.163 310.072 296.497C310.223 298.861 308.061 310.512 298.635 336.54Z" fill="#1E1E2B"/>
<path d="M336.81 327.364L349.046 284.817C348.593 283.275 346.689 281.115 342.701 284.817L330.918 326.529L316.225 339.877L336.81 327.364Z" fill="#1E1E2B"/>
<path d="M286.959 328.615C283.182 326.251 274.994 323.192 272.457 329.866C271.852 331.118 271.188 334.121 273.363 336.123L291.944 344.255C290.979 343.322 290.332 342.408 290.131 341.546C289.043 336.874 294.21 335.706 296.929 335.706L286.959 328.615Z" fill="#2D2D36"/>
<path d="M115.738 32.0428C114.227 28.7058 112.746 18.0276 118.91 2.01015C101.145 21.3645 90.3588 48.1714 87.1866 59.1556C94.4377 45.1404 109.242 35.2407 115.738 32.0428Z" fill="#1B1D2A"/>
<path d="M330.012 2.01015C336.175 18.0276 334.695 28.7058 333.184 32.0428C339.68 35.2407 354.484 45.1404 361.735 59.1556C358.563 48.1714 347.777 21.3645 330.012 2.01015Z" fill="#1B1D2A"/>
<path d="M224.504 241.854V226.838C223.779 226.504 213.023 225.586 207.736 225.169C204.703 230.605 199.978 232.79 195.046 233.214C185.982 242.351 168.491 264.379 129.787 247.694C100.389 235.021 103.199 206.634 108.94 192.569C101.618 187.93 95.6037 183.874 91.498 180.955C88.8895 184.905 85.9193 189.279 82.6547 193.936L83.5611 219.33C92.0206 234.902 119.816 265.713 163.323 264.379C172.689 264.935 194.321 262.376 205.923 247.694C208.642 245.191 216.165 240.519 224.504 241.854Z" fill="#4C4E57"/>
<path fill-rule="evenodd" clip-rule="evenodd" d="M340.183 192.442C340.689 192.121 341.188 191.803 341.681 191.488C342.012 191.277 342.34 191.067 342.665 190.858C341.856 191.377 341.029 191.906 340.183 192.442Z" fill="#D2D2D2"/>
<path d="M224.504 226.838V241.854C232.843 240.519 240.28 245.191 242.999 247.694C254.601 262.376 276.233 264.935 285.599 264.379C329.106 265.713 356.901 234.902 365.361 219.33L366.267 193.936C363.003 189.279 360.032 184.905 357.424 180.955C353.831 183.509 348.778 186.934 342.665 190.858C342.34 191.067 342.012 191.277 341.681 191.488C341.188 191.803 340.689 192.121 340.183 192.442L339.982 192.569C345.723 206.634 348.533 235.021 319.135 247.694C280.431 264.379 262.94 242.351 253.876 233.214C248.944 232.79 244.219 230.605 241.186 225.169C235.899 225.586 225.229 226.504 224.504 226.838Z" fill="#64666D"/>
</svg>
