<svg width="487" height="406" viewBox="0 0 487 406" fill="none" xmlns="http://www.w3.org/2000/svg">
<path fill-rule="evenodd" clip-rule="evenodd" d="M2.03323 265.373C3.18882 270.15 7.58006 282.204 15.9003 292.199C17.5991 294.24 20.8973 296.551 25.2607 298.995C24.5674 298.603 7.23373 268.68 50.2215 224.581L49.5281 217.599H47.1014C48.6036 214.169 54.2429 206.941 64.7819 205.471C75.3209 204.001 80.0357 200.204 81.0757 198.489C83.9647 194.447 90.5053 184.451 93.5561 176.807C96.6068 169.163 102.223 160.637 104.65 157.33C108.463 151.94 116.229 141.013 116.783 140.425C117.338 139.837 123.717 132.34 126.837 128.666C120.366 139.568 107.215 162.989 106.383 169.457C111.769 167.826 125.049 167.026 140.704 174.093C154.849 175.155 167.167 178.06 171.558 179.379L207.266 191.874C215.24 195.794 228.691 205.324 218.706 212.086C219.746 214.169 219.608 220.098 210.733 227.153C210.848 228.623 212.05 231.784 215.933 232.666C222.867 229.432 226.68 223.723 227.72 221.274C235.694 220.906 240.2 212.821 241.24 210.249L243.667 212.821V184.157C243.436 183.789 242.419 181.584 240.2 175.705C237.427 168.355 243.667 134.913 243.667 132.34V0.778183C171.836 -3.92572 125.913 38.0174 111.93 59.5769C115.397 63.4969 124.272 72.6597 132.037 77.9515C139.803 83.2434 141.051 87.9963 140.704 89.7113C138.736 94.3596 136.555 97.969 134.276 100.736C125.31 111.62 114.825 109.471 109.85 106.248C81.0757 122.786 45.368 167.252 42.9413 170.192C32.0787 188.812 10.3535 226.271 10.3535 227.153C-0.740184 245.381 0.184287 260.228 2.03323 265.373ZM227.72 216.864C233.821 198.93 226.333 182.932 221.826 177.174C229.684 183.667 243.39 199.885 235.347 212.821C233.729 215.271 229.939 219.51 227.72 216.864Z" fill="#2B435F"/>
<path d="M88.0092 38.9974C49.4588 69.5727 41.9012 139.2 42.9413 170.192C45.368 167.252 81.0757 122.786 109.85 106.248C86.2758 81.259 85.4669 51.0021 88.0092 38.9974Z" fill="#1E3048"/>
<path d="M140.704 89.7113C141.051 87.9963 139.803 83.2434 132.037 77.9515C124.272 72.6597 115.397 63.4969 111.93 59.5769C107.654 52.5946 99.2416 36.3514 99.7962 27.2376C100.49 15.8454 99.1029 10.333 101.53 4.82063C101.53 4.82063 68.2189 63.9869 134.276 100.736C136.555 97.969 138.736 94.3596 140.704 89.7113Z" fill="#EF6250"/>
<path d="M88.0092 38.9974C85.4669 51.0021 86.2758 81.259 109.85 106.248C114.825 109.471 125.31 111.62 134.276 100.736C68.2189 63.9869 101.53 4.82063 101.53 4.82063C96.0984 9.23054 88.0092 38.9974 88.0092 38.9974Z" fill="#C95047"/>
<path d="M81.0757 198.489C80.0357 200.204 75.3209 204.001 64.7819 205.471C69.6354 207.186 80.0357 212.013 82.8091 217.599C84.8533 221.716 89.4088 236.734 93.0049 249.203C94.2876 253.651 95.4484 257.774 96.3295 260.963L98.0629 253.613C93.9861 243.349 94.2789 209.76 95.0703 190.404C95.1404 188.692 95.2143 187.091 95.2894 185.627C97.7162 185.627 111.583 171.295 135.504 185.627C154.641 197.093 163.816 204.859 166.011 207.309C172.136 211.351 186.673 219.804 195.826 221.274L210.733 227.153C219.608 220.098 219.746 214.169 218.706 212.086C208.722 218.848 192.128 209.269 185.079 203.634C181.728 200.816 170.102 192.021 150.411 179.379C147.109 177.26 143.858 175.516 140.704 174.093C125.049 167.026 111.769 167.826 106.383 169.457C107.215 162.989 120.366 139.568 126.837 128.666C123.717 132.34 117.338 139.837 116.783 140.425C116.229 141.013 108.463 151.94 104.65 157.33C102.223 160.637 96.6068 169.163 93.5561 176.807C90.5053 184.451 83.9647 194.447 81.0757 198.489Z" fill="#112035"/>
<path d="M150.411 179.379C170.102 192.021 181.728 200.816 185.079 203.634C192.128 209.269 208.722 218.848 218.706 212.086C228.691 205.324 215.24 195.794 207.266 191.874L171.558 179.379C167.167 178.06 154.849 175.155 140.704 174.093C143.858 175.516 147.109 177.26 150.411 179.379Z" fill="#FFD8AF"/>
<path d="M135.504 185.627C111.583 171.295 97.7162 185.627 95.2894 185.627C95.2143 187.091 95.1404 188.692 95.0703 190.404C96.6456 194.079 101.183 201.502 106.73 201.796C113.663 202.164 118.863 200.732 127.184 203.634C130.077 203.941 134.033 205.056 138.277 206.535C146.239 209.31 155.219 213.364 160.118 215.761C164.424 217.836 174.215 222.247 183.345 225.514C184.997 226.105 186.627 226.658 188.199 227.153C198.46 230.387 207.497 228.501 210.733 227.153L195.826 221.274C186.673 219.804 172.136 211.351 166.011 207.309C163.816 204.859 154.641 197.093 135.504 185.627Z" fill="#284763"/>
<path d="M160.118 215.761C155.219 213.364 146.239 209.31 138.277 206.535C137.122 218.553 139.248 242.588 156.998 242.588C174.748 242.588 181.959 231.205 183.345 225.514C174.215 222.247 164.424 217.836 160.118 215.761Z" fill="#F24B40"/>
<path d="M127.184 203.634C118.863 202.752 114.703 204.736 113.663 205.839C112.739 214.169 113.941 233.18 126.144 242.588C138.347 251.996 151.798 253.123 156.998 252.51C165.665 252.143 184.663 250.893 191.319 248.835C193.399 248.468 198.322 247.733 201.373 247.733C203.754 247.733 205.164 246.39 205.832 245.276C205.961 245.002 206.093 244.719 206.226 244.426L188.199 227.153C186.627 226.658 184.997 226.105 183.345 225.514C181.959 231.205 174.748 242.588 156.998 242.588C139.248 242.588 137.122 218.553 138.277 206.535C134.033 205.056 130.077 203.941 127.184 203.634Z" fill="white"/>
<path d="M101.183 283.012L104.65 286.32C107.328 288.719 111.575 291.51 116.988 293.669C128.158 298.126 144.291 299.896 161.851 289.995C187.921 275.295 200.679 268.925 203.799 267.578C206.302 266.843 211.493 265.814 212.234 267.578C214.572 266.098 216.78 266.684 218.013 267.578L223.907 273.457C224.369 273.825 225.363 274.339 225.64 273.457C225.917 272.575 227.836 265.005 228.76 261.33C229.045 260.651 229.509 259.735 230.129 258.758L230.84 247.733C231.418 244.793 234.792 239.06 243.667 239.648L243.667 230.093C240.062 228.329 239.854 223.479 240.2 221.274C234.931 240.677 221.826 236.953 215.933 232.666C212.05 231.784 210.848 228.623 210.733 227.153C207.497 228.501 198.46 230.387 188.199 227.153L206.226 244.426C206.15 244.667 206.02 244.963 205.832 245.276C201.598 254.242 199.639 252.543 199.639 253.613C183.576 257.655 148.816 265.593 138.277 265.005C127.738 264.417 120.944 261.33 118.863 259.86C115.281 258.023 108.533 251.628 110.197 240.751L112.277 234.503C108.116 217.966 100.143 203.634 99.7962 202.164C100.351 202.164 104.65 201.919 106.73 201.796C101.183 201.502 96.6456 194.079 95.0703 190.404C94.2789 209.76 93.9861 243.349 98.0629 253.613L96.3295 260.963C95.6361 267.21 95.6361 280.366 101.183 283.012Z" fill="#527D9D"/>
<path d="M146.598 257.655C136.544 255.45 115.605 247.733 112.277 234.503L110.197 240.751C108.533 251.628 115.281 258.023 118.863 259.86C120.944 261.33 127.738 264.417 138.277 265.005C148.816 265.593 183.576 257.655 199.639 253.613L187.852 254.348C175.094 256.994 155.033 257.655 146.598 257.655Z" fill="#EC5647"/>
<path d="M113.663 205.839C114.703 204.736 118.863 202.752 127.184 203.634C118.863 200.732 113.663 202.164 106.73 201.796C104.65 201.919 100.351 202.164 99.7962 202.164C100.143 203.634 108.116 217.966 112.277 234.503C115.605 247.733 136.544 255.45 146.598 257.655C155.033 257.655 175.094 256.994 187.852 254.348L199.639 253.613C199.639 252.543 201.598 254.242 205.832 245.276C205.164 246.39 203.754 247.733 201.373 247.733C198.322 247.733 193.399 248.468 191.319 248.835C184.663 250.893 165.665 252.143 156.998 252.51C151.798 253.123 138.347 251.996 126.144 242.588C113.941 233.18 112.739 214.169 113.663 205.839Z" fill="#253651"/>
<path d="M241.24 210.249C240.2 212.821 235.694 220.906 227.72 221.274C226.68 223.723 222.867 229.432 215.933 232.666C221.826 236.953 234.931 240.677 240.2 221.274C239.854 223.479 240.062 228.329 243.667 230.093L243.667 212.821L241.24 210.249Z" fill="#3C6385"/>
<path d="M221.826 177.174C226.333 182.932 233.821 198.93 227.72 216.864C229.939 219.51 233.729 215.271 235.347 212.821C243.39 199.885 229.684 183.667 221.826 177.174Z" fill="#E25446"/>
<path d="M236.387 253.245C240.27 252.069 242.858 252.265 243.667 252.51V239.648C234.792 239.06 231.418 244.793 230.84 247.733L230.129 258.758C231.522 256.562 233.7 254.059 236.387 253.245Z" fill="#DD4F43"/>
<path d="M243.667 254.348C242.974 254.715 236.734 252.878 234.307 259.86C232.365 265.446 229.8 274.682 228.76 278.602C227.951 282.522 227.928 291.024 234.307 293.669C240.686 296.315 243.205 295.507 243.667 294.772V254.348Z" fill="#FEDBB5"/>
<path d="M234.307 299.549C237.912 302.195 242.049 301.877 243.667 301.387V294.772C243.205 295.507 240.686 296.315 234.307 293.669C227.928 291.024 227.951 282.522 228.76 278.602C229.8 274.682 232.365 265.446 234.307 259.86C236.734 252.878 242.974 254.715 243.667 254.348V252.51C242.858 252.265 240.27 252.069 236.387 253.245C233.7 254.059 231.522 256.562 230.129 258.758C229.509 259.735 229.045 260.651 228.76 261.33C227.836 265.005 225.917 272.575 225.64 273.457V287.422C222.52 283.38 211.426 279.705 209.693 278.602C207.959 277.5 207.475 274.192 207.788 273.457C207.49 274.13 207.199 274.863 206.919 275.662C206.651 276.429 206.45 277.164 206.31 277.867C204.57 286.608 212.241 290.558 216.626 291.465C215.586 290.975 213.922 289.48 215.586 287.422C217.25 285.364 221.826 288.28 223.907 289.995C225.871 292.077 230.701 296.903 234.307 299.549Z" fill="#DBAD8A"/>
<path d="M223.907 273.457L218.013 267.578C216.78 266.684 214.572 266.098 212.234 267.578C210.73 268.529 209.173 270.333 207.788 273.457C207.475 274.192 207.959 277.5 209.693 278.602C211.426 279.705 222.52 283.38 225.64 287.422V273.457C225.363 274.339 224.369 273.825 223.907 273.457Z" fill="#FEDBB5"/>
<path d="M168.785 390.32C164.625 384.44 163.816 374.885 163.932 370.843L165.318 363.493C166.382 355.261 161.832 343.158 159.425 338.136C158.153 335.931 154.71 329.169 151.104 319.761C147.499 310.354 147.753 303.102 148.331 300.652L166.011 292.935C171.789 290.117 185.217 283.159 192.706 277.867C202.066 271.252 206.388 277.5 206.31 277.867C206.45 277.164 206.651 276.429 206.919 275.662C207.199 274.863 207.49 274.13 207.788 273.457C209.173 270.333 210.73 268.529 212.234 267.578C211.493 265.814 206.302 266.843 203.799 267.578C200.679 268.925 187.921 275.295 161.851 289.995C144.291 299.896 128.158 298.126 116.988 293.669C125.472 299.549 138.414 302.244 143.824 302.857C143.899 310.37 145.846 326.605 150.064 336.666C155.611 349.896 154.571 358.103 153.878 364.963C151.104 376.135 162.66 386.522 168.785 390.32Z" fill="#1B2B42"/>
<path d="M243.667 314.617C229.453 313.147 197.004 307.487 182.305 296.609C167.606 285.732 160.002 298.937 158.038 306.899C157.344 314.127 160.048 330.713 176.411 339.239C196.865 349.896 214.2 333.726 228.76 332.256C240.408 331.08 243.667 331.766 243.667 332.256V327.084C242.69 327.061 241.158 327.077 239.854 327.084C234.064 327.114 225.929 327.509 223.213 328.949C219.885 330.713 202.413 334.339 194.092 335.931C188.702 336.761 178.43 336.009 171.194 328.949C168.813 326.626 166.76 323.619 165.318 319.761C158.038 300.284 171.558 298.447 172.598 298.447C173.638 298.447 175.372 298.814 185.425 305.062C193.468 310.06 227.72 316.944 243.667 319.761L243.667 314.617Z" fill="#C04B47"/>
<path d="M185.425 305.062C175.372 298.814 173.638 298.447 172.598 298.447C171.558 298.447 158.038 300.284 165.318 319.761C166.76 323.619 168.813 326.626 171.194 328.949C168.961 325.421 169.813 321.354 170.518 319.761L175.025 317.924L184.385 324.906C191.596 324.906 194.786 327.601 195.479 328.949L197.906 326.376C201.719 323.804 212.12 324.171 213.16 324.171L203.453 321.966L202.066 319.761L194.092 326.376C191.319 324.318 187.159 311.309 185.425 305.062Z" fill="black"/>
<path d="M243.667 319.761C227.72 316.944 193.468 310.06 185.425 305.062C187.159 311.309 191.319 324.318 194.092 326.376L202.066 319.761L203.453 321.966L213.16 324.171C214.546 323.314 217.32 321.231 217.32 319.761L219.4 322.701C224.6 322.456 235.694 322.407 238.467 324.171L239.854 327.084C241.158 327.077 242.69 327.061 243.667 327.084V319.761Z" fill="#FEE4C2"/>
<path d="M194.092 335.931C202.413 334.339 219.885 330.713 223.213 328.949C225.929 327.509 234.064 327.114 239.854 327.084L238.467 324.171C235.694 322.407 224.6 322.456 219.4 322.701H217.32C216.626 324.416 215.309 328.067 215.586 328.949C215.864 329.831 214.084 326.131 213.16 324.171C212.12 324.171 201.719 323.804 197.906 326.376L195.479 328.949C194.786 327.601 191.596 324.906 184.385 324.906L175.025 317.924L170.518 319.761C169.813 321.354 168.961 325.421 171.194 328.949C178.43 336.009 188.702 336.761 194.092 335.931Z" fill="#FEE4C2"/>
<path d="M124.064 342.913C128.778 350.851 145.904 360.921 153.878 364.963C154.571 358.103 155.611 349.896 150.064 336.666C145.846 326.605 143.899 310.37 143.824 302.857C138.414 302.244 125.472 299.549 116.988 293.669C111.575 291.51 107.328 288.719 104.65 286.32C106.314 304.547 118.286 331.644 124.064 342.913Z" fill="#305170"/>
<path d="M47.1014 217.599H49.5281C50.4228 217.599 51.443 217.646 52.5582 217.751C58.3153 218.293 66.6018 220.382 73.1929 225.514C76.3736 227.99 79.1595 231.176 81.0757 235.238L82.8091 239.117L86.9874 248.468L87.3159 249.203C88.7974 249.57 92.0092 250.085 93.0049 249.203C89.4088 236.734 84.8533 221.716 82.8091 217.599C80.0357 212.013 69.6354 207.186 64.7819 205.471C54.2429 206.941 48.6036 214.169 47.1014 217.599Z" fill="#C74E45"/>
<path d="M101.183 292.935V283.012C95.6361 280.366 95.6361 267.21 96.3295 260.963C95.4484 257.774 94.2876 253.651 93.0049 249.203C92.0092 250.085 88.7974 249.57 87.3159 249.203L86.9874 248.468C82.6366 252.29 81.8668 255.205 82.0257 256.185C87.8498 260.889 90.2304 268.435 90.6926 271.62L92.426 273.825C92.1949 273.947 91.1779 273.898 88.9592 272.722C86.7405 271.546 83.6435 267.823 82.3724 266.108C82.9501 265.863 84.2959 265.226 85.0565 264.638C81.7714 261.148 78.977 259.09 77.1722 257.655C73.2687 242.956 81.0757 240.751 82.8091 239.117C81.3924 239.662 77.4857 240.016 73.1929 237.076C70.3909 235.157 70.2768 232.536 70.932 230.237C67.0492 223.132 56.8338 222.036 52.2115 222.376C54.176 233.278 61.3637 257.876 74.3988 269.048C87.4338 280.219 91.8482 285.217 92.426 286.32L96.3295 293.833C98.3868 293.825 100.077 293.42 101.183 292.935Z" fill="#3D6181"/>
<path d="M49.5281 217.599L50.2215 224.581C50.6837 231.196 53.2029 247.292 59.5817 258.758C65.9606 270.224 69.4551 273.928 75.7452 280.596C77.3177 282.263 79.065 284.115 81.0757 286.32C86.4641 292.229 92.1533 293.849 96.3295 293.833L92.426 286.32C91.8482 285.217 87.4338 280.219 74.3988 269.048C61.3637 257.876 54.176 233.278 52.2115 222.376C52.327 221.151 52.5582 218.511 52.5582 217.751C51.443 217.646 50.4228 217.599 49.5281 217.599Z" fill="#577E9D"/>
<path d="M81.0757 235.238C79.1595 231.176 76.3736 227.99 73.1929 225.514C72.7752 226.297 71.5316 228.133 70.932 230.237C70.2768 232.536 70.3909 235.157 73.1929 237.076C77.4857 240.016 81.3924 239.662 82.8091 239.117L81.0757 235.238Z" fill="#1B2F4A"/>
<path d="M82.8091 239.117C81.0757 240.751 73.2687 242.956 77.1722 257.655C78.977 259.09 81.7714 261.148 85.0565 264.638C86.8195 266.511 88.7239 268.796 90.6926 271.62C90.2304 268.435 87.8498 260.889 82.0257 256.185C81.8668 255.205 82.6366 252.29 86.9874 248.468L82.8091 239.117Z" fill="#223D58"/>
<path d="M90.6926 271.62C88.7239 268.796 86.8195 266.511 85.0565 264.638C84.2959 265.226 82.9501 265.863 82.3724 266.108C83.6435 267.823 86.7405 271.546 88.9592 272.722C91.1779 273.898 92.1949 273.947 92.426 273.825L90.6926 271.62Z" fill="#EC5647"/>
<path d="M73.1929 225.514C66.6018 220.382 58.3153 218.293 52.5582 217.751C52.5582 218.511 52.327 221.151 52.2115 222.376C56.8338 222.036 67.0492 223.132 70.932 230.237C71.5316 228.133 72.7752 226.297 73.1929 225.514Z" fill="#243B55"/>
<path fill-rule="evenodd" clip-rule="evenodd" d="M124.064 342.913C123.024 344.261 120.458 347.103 118.517 347.691C117.823 349.896 118.517 357.099 126.837 368.27C123.139 365.208 114.842 357.76 111.236 352.468C108.579 352.223 102.5 350.704 99.4494 346.588C96.3986 342.472 94.0181 330.909 93.2092 325.641C93.3257 326.376 99.7962 346.221 106.73 339.239L109.413 328.949C107.162 328.864 100.769 328.084 93.2092 325.641C75.4601 320.085 42.2683 308.523 25.2607 298.995C24.5674 298.603 7.23373 268.68 50.2215 224.581C50.6837 231.196 53.2029 247.292 59.5817 258.758C65.9606 270.224 69.4551 273.928 75.7452 280.596C77.3177 282.263 79.065 284.115 81.0757 286.32C86.4641 292.229 92.1533 293.849 96.3295 293.833C98.3868 293.825 100.077 293.42 101.183 292.935V283.012L104.65 286.32C106.314 304.547 118.286 331.644 124.064 342.913Z" fill="#1E3048"/>
<path d="M243.667 132.34C243.667 134.913 237.427 168.355 240.2 175.705C242.419 181.584 243.436 183.789 243.667 184.157V132.34Z" fill="#EC5546"/>
<path d="M230.147 400.61C235.416 400.61 241.356 403.55 243.667 405.02V361.656C242.558 360.186 241.356 353.938 240.894 350.998L238.467 361.656C236.156 368.76 230.216 382.823 224.947 382.235C219.677 381.647 221.826 374.395 223.56 370.843C217.238 380.637 217.477 388.482 219.875 393.995C221.58 397.914 224.375 400.655 226.68 402.08C227.235 400.61 229.222 400.487 230.147 400.61Z" fill="#1B2B42"/>
<path d="M243.667 340.341C240.547 339.361 230.771 338.577 216.626 343.281C206.951 346.499 199.752 348.065 195.318 348.734C204.968 347.773 219.408 346.242 223.213 345.486C218.937 347.568 205.879 357.613 205.879 357.613C205.879 357.613 229.245 343.061 243.667 346.588V340.341Z" fill="#204061"/>
<path d="M346.63 89.7113C346.283 87.9963 347.531 83.2434 355.297 77.9515C363.063 72.6597 371.937 63.4969 375.404 59.5769C379.68 52.5946 388.093 36.3514 387.538 27.2376C386.845 15.8454 388.231 10.333 385.805 4.82063C385.805 4.82063 419.115 63.9869 353.059 100.736C350.779 97.969 348.598 94.3596 346.63 89.7113Z" fill="#EF6250"/>
<path d="M399.325 38.9974C401.867 51.0021 401.058 81.259 377.484 106.248C372.509 109.471 362.024 111.62 353.059 100.736C419.115 63.9869 385.805 4.82063 385.805 4.82063C391.236 9.23054 399.325 38.9974 399.325 38.9974Z" fill="#C95047"/>
<path d="M406.259 198.489C407.299 200.204 412.013 204.001 422.552 205.471C417.699 207.186 407.299 212.013 404.525 217.599C402.481 221.716 397.925 236.734 394.329 249.203C393.047 253.651 391.886 257.774 391.005 260.963L389.271 253.613C393.348 243.349 393.055 209.76 392.264 190.404C392.194 188.692 392.12 187.091 392.045 185.627C389.618 185.627 375.751 171.295 351.83 185.627C332.694 197.093 323.518 204.859 321.323 207.309C315.198 211.351 300.661 219.804 291.508 221.274L276.601 227.153C267.726 220.098 267.588 214.169 268.628 212.086C278.612 218.848 295.206 209.269 302.255 203.634C305.607 200.816 317.232 192.021 336.923 179.379C340.225 177.26 343.476 175.516 346.63 174.093C362.286 167.026 375.565 167.826 380.951 169.457C380.119 162.989 366.968 139.568 360.497 128.666C363.617 132.34 369.996 139.837 370.551 140.425C371.105 141.013 378.871 151.94 382.684 157.33C385.111 160.637 390.727 169.163 393.778 176.807C396.829 184.451 403.37 194.447 406.259 198.489Z" fill="#112035"/>
<path d="M336.923 179.379C317.232 192.021 305.607 200.816 302.255 203.634C295.206 209.269 278.612 218.848 268.628 212.086C258.644 205.324 272.095 195.794 280.068 191.874L315.776 179.379C320.167 178.06 332.486 175.155 346.63 174.093C343.476 175.516 340.225 177.26 336.923 179.379Z" fill="#FFD8AF"/>
<path d="M351.83 185.627C375.751 171.295 389.618 185.627 392.045 185.627C392.12 187.091 392.194 188.692 392.264 190.404C390.689 194.079 386.151 201.502 380.604 201.796C373.671 202.164 368.471 200.732 360.15 203.634C357.257 203.941 353.302 205.056 349.057 206.535C341.095 209.31 332.115 213.364 327.216 215.761C322.91 217.836 313.119 222.247 303.989 225.514C302.337 226.105 300.707 226.658 299.135 227.153C288.874 230.387 279.837 228.501 276.601 227.153L291.508 221.274C300.661 219.804 315.198 211.351 321.323 207.309C323.518 204.859 332.694 197.093 351.83 185.627Z" fill="#284763"/>
<path d="M327.216 215.761C332.115 213.364 341.095 209.31 349.057 206.535C350.212 218.553 348.086 242.588 330.336 242.588C312.586 242.588 305.376 231.205 303.989 225.514C313.119 222.247 322.91 217.836 327.216 215.761Z" fill="#F24B40"/>
<path d="M360.15 203.634C368.471 202.752 372.631 204.736 373.671 205.839C374.595 214.169 373.394 233.18 361.191 242.588C348.987 251.996 335.536 253.123 330.336 252.51C321.669 252.143 302.671 250.893 296.015 248.835C293.935 248.468 289.012 247.733 285.962 247.733C283.58 247.733 282.171 246.39 281.502 245.276C281.373 245.002 281.242 244.719 281.108 244.426L299.135 227.153C300.707 226.658 302.337 226.105 303.989 225.514C305.376 231.205 312.586 242.588 330.336 242.588C348.086 242.588 350.212 218.553 349.057 206.535C353.302 205.056 357.257 203.941 360.15 203.634Z" fill="white"/>
<path d="M340.737 257.655C350.79 255.45 371.729 247.733 375.058 234.503L377.138 240.751C378.802 251.628 372.053 258.023 368.471 259.86C366.391 261.33 359.596 264.417 349.057 265.005C338.518 265.593 303.758 257.655 287.695 253.613L299.482 254.348C312.24 256.994 332.301 257.655 340.737 257.655Z" fill="#EC5647"/>
<path d="M373.671 205.839C372.631 204.736 368.471 202.752 360.15 203.634C368.471 200.732 373.671 202.164 380.604 201.796C382.684 201.919 386.983 202.164 387.538 202.164C387.191 203.634 379.218 217.966 375.058 234.503C371.729 247.733 350.79 255.45 340.737 257.655C332.301 257.655 312.24 256.994 299.482 254.348L287.695 253.613C287.695 252.543 285.736 254.242 281.502 245.276C282.171 246.39 283.58 247.733 285.962 247.733C289.012 247.733 293.935 248.468 296.015 248.835C302.671 250.893 321.669 252.143 330.336 252.51C335.536 253.123 348.987 251.996 361.191 242.588C373.394 233.18 374.595 214.169 373.671 205.839Z" fill="#253651"/>
<path d="M246.094 210.249C247.134 212.821 251.641 220.906 259.614 221.274C260.654 223.723 264.468 229.432 271.401 232.666C265.508 236.953 252.403 240.677 247.134 221.274C247.481 223.479 247.273 228.329 243.667 230.093L243.667 212.821L246.094 210.249Z" fill="#3C6385"/>
<path d="M265.508 177.174C261.001 182.932 253.513 198.93 259.614 216.864C257.396 219.51 253.605 215.271 251.987 212.821C243.944 199.885 257.65 183.667 265.508 177.174Z" fill="#E25446"/>
<path d="M250.947 253.245C247.065 252.069 244.476 252.265 243.667 252.51V239.648C252.542 239.06 255.916 244.793 256.494 247.733L257.205 258.758C255.812 256.562 253.634 254.059 250.947 253.245Z" fill="#DD4F43"/>
<path d="M243.667 254.348C244.36 254.715 250.601 252.878 253.027 259.86C254.969 265.446 257.534 274.682 258.574 278.602C259.383 282.522 259.406 291.024 253.027 293.669C246.648 296.315 244.129 295.507 243.667 294.772V254.348Z" fill="#FEDBB5"/>
<path d="M253.027 299.549C249.422 302.195 245.285 301.877 243.667 301.387V294.772C244.129 295.507 246.648 296.315 253.027 293.669C259.406 291.024 259.383 282.522 258.574 278.602C257.534 274.682 254.969 265.446 253.027 259.86C250.601 252.878 244.36 254.715 243.667 254.348V252.51C244.476 252.265 247.065 252.069 250.947 253.245C253.634 254.059 255.812 256.562 257.205 258.758C257.825 259.735 258.289 260.651 258.574 261.33C259.499 265.005 261.417 272.575 261.694 273.457V287.422C264.814 283.38 275.908 279.705 277.641 278.602C279.375 277.5 279.859 274.192 279.546 273.457C279.845 274.13 280.135 274.863 280.415 275.662C280.683 276.429 280.884 277.164 281.025 277.867C282.764 286.608 275.093 290.558 270.708 291.465C271.748 290.975 273.412 289.48 271.748 287.422C270.084 285.364 265.508 288.28 263.428 289.995C261.463 292.077 256.633 296.903 253.027 299.549Z" fill="#DBAD8A"/>
<path d="M263.428 273.457L269.321 267.578C270.554 266.684 272.762 266.098 275.101 267.578C276.604 268.529 278.161 270.333 279.546 273.457C279.859 274.192 279.375 277.5 277.641 278.602C275.908 279.705 264.814 283.38 261.694 287.422V273.457C261.972 274.339 262.965 273.825 263.428 273.457Z" fill="#FEDBB5"/>
<path d="M243.667 314.617C257.881 313.147 290.33 307.487 305.029 296.609C319.728 285.732 327.332 298.937 329.297 306.899C329.99 314.127 327.286 330.713 310.923 339.239C290.469 349.896 273.134 333.726 258.574 332.256C246.926 331.08 243.667 331.766 243.667 332.256V327.084C244.644 327.061 246.176 327.077 247.481 327.084C253.27 327.114 261.405 327.509 264.121 328.949C267.449 330.713 284.922 334.339 293.242 335.931C298.633 336.761 308.904 336.009 316.14 328.949C318.521 326.626 320.574 323.619 322.016 319.761C329.296 300.284 315.776 298.447 314.736 298.447C313.696 298.447 311.962 298.814 301.909 305.062C293.866 310.06 259.614 316.944 243.667 319.761L243.667 314.617Z" fill="#C04B47"/>
<path d="M301.909 305.062C311.962 298.814 313.696 298.447 314.736 298.447C315.776 298.447 329.296 300.284 322.016 319.761C320.574 323.619 318.521 326.626 316.14 328.949C318.373 325.421 317.521 321.354 316.816 319.761L312.309 317.924L302.949 324.906C295.738 324.906 292.549 327.601 291.855 328.949L289.428 326.376C285.615 323.804 275.215 324.171 274.175 324.171L283.882 321.966L285.268 319.761L293.242 326.376C296.015 324.318 300.175 311.309 301.909 305.062Z" fill="black"/>
<path d="M243.667 319.761C259.614 316.944 293.866 310.06 301.909 305.062C300.175 311.309 296.015 324.318 293.242 326.376L285.268 319.761L283.882 321.966L274.175 324.171C272.788 323.314 270.015 321.231 270.015 319.761L267.934 322.701C262.734 322.456 251.641 322.407 248.867 324.171L247.481 327.084C246.176 327.077 244.644 327.061 243.667 327.084V319.761Z" fill="#FEE4C2"/>
<path d="M293.242 335.931C284.922 334.339 267.449 330.713 264.121 328.949C261.405 327.509 253.27 327.114 247.481 327.084L248.867 324.171C251.641 322.407 262.734 322.456 267.934 322.701H270.015C270.708 324.416 272.025 328.067 271.748 328.949C271.471 329.831 273.25 326.131 274.175 324.171C275.215 324.171 285.615 323.804 289.428 326.376L291.855 328.949C292.549 327.601 295.738 324.906 302.949 324.906L312.309 317.924L316.816 319.761C317.521 321.354 318.373 325.421 316.14 328.949C308.904 336.009 298.633 336.761 293.242 335.931Z" fill="#FEE4C2"/>
<path d="M440.233 217.599H437.806C436.911 217.599 435.891 217.646 434.776 217.751C429.019 218.293 420.732 220.382 414.141 225.514C410.961 227.99 408.175 231.176 406.259 235.238L404.525 239.117L400.347 248.468L400.018 249.203C398.537 249.57 395.325 250.085 394.329 249.203C397.925 236.734 402.481 221.716 404.525 217.599C407.299 212.013 417.699 207.186 422.552 205.471C433.091 206.941 438.731 214.169 440.233 217.599Z" fill="#C74E45"/>
<path d="M386.151 292.935V283.012C391.698 280.366 391.698 267.21 391.005 260.963C391.886 257.774 393.047 253.651 394.329 249.203C395.325 250.085 398.537 249.57 400.018 249.203L400.347 248.468C404.698 252.29 405.467 255.205 405.309 256.185C399.484 260.889 397.104 268.435 396.642 271.62L394.908 273.825C395.139 273.947 396.156 273.898 398.375 272.722C400.594 271.546 403.691 267.823 404.962 266.108C404.384 265.863 403.038 265.226 402.278 264.638C405.563 261.148 408.357 259.09 410.162 257.655C414.065 242.956 406.259 240.751 404.525 239.117C405.942 239.662 409.849 240.016 414.141 237.076C416.943 235.157 417.057 232.536 416.402 230.237C420.285 223.132 430.5 222.036 435.123 222.376C433.158 233.278 425.97 257.876 412.935 269.048C399.9 280.219 395.486 285.217 394.908 286.32L391.005 293.833C388.947 293.825 387.257 293.42 386.151 292.935Z" fill="#3D6181"/>
<path d="M437.806 217.599L437.113 224.581C436.65 231.196 434.131 247.292 427.752 258.758C421.374 270.224 417.879 273.928 411.589 280.596C410.016 282.263 408.269 284.115 406.259 286.32C400.87 292.229 395.181 293.849 391.005 293.833L394.908 286.32C395.486 285.217 399.9 280.219 412.935 269.048C425.97 257.876 433.158 233.278 435.123 222.376C435.007 221.151 434.776 218.511 434.776 217.751C435.891 217.646 436.911 217.599 437.806 217.599Z" fill="#577E9D"/>
<path d="M406.259 235.238C408.175 231.176 410.961 227.99 414.141 225.514C414.559 226.297 415.803 228.133 416.402 230.237C417.057 232.536 416.943 235.157 414.141 237.076C409.849 240.016 405.942 239.662 404.525 239.117L406.259 235.238Z" fill="#1B2F4A"/>
<path d="M404.525 239.117C406.259 240.751 414.065 242.956 410.162 257.655C408.357 259.09 405.563 261.148 402.278 264.638C400.515 266.511 398.61 268.796 396.642 271.62C397.104 268.435 399.484 260.889 405.309 256.185C405.467 255.205 404.698 252.29 400.347 248.468L404.525 239.117Z" fill="#223D58"/>
<path d="M396.642 271.62C398.61 268.796 400.515 266.511 402.278 264.638C403.038 265.226 404.384 265.863 404.962 266.108C403.691 267.823 400.594 271.546 398.375 272.722C396.156 273.898 395.139 273.947 394.908 273.825L396.642 271.62Z" fill="#EC5647"/>
<path d="M414.141 225.514C420.732 220.382 429.019 218.293 434.776 217.751C434.776 218.511 435.007 221.151 435.123 222.376C430.5 222.036 420.285 223.132 416.402 230.237C415.803 228.133 414.559 226.297 414.141 225.514Z" fill="#243B55"/>
<path d="M243.667 132.34C243.667 134.913 249.907 168.355 247.134 175.705C244.915 181.584 243.898 183.789 243.667 184.157V132.34Z" fill="#EC5546"/>
<path d="M243.667 340.341C246.787 339.361 256.563 338.577 270.708 343.281C280.383 346.499 287.582 348.065 292.016 348.734C282.366 347.773 267.926 346.242 264.121 345.486C268.397 347.568 281.455 357.613 281.455 357.613C281.455 357.613 258.089 343.061 243.667 346.588V340.341Z" fill="#204061"/>
<path fill-rule="evenodd" clip-rule="evenodd" d="M243.667 0.778183V132.34C243.667 134.913 249.907 168.355 247.134 175.705C244.915 181.584 243.898 183.789 243.667 184.157V212.821L246.094 210.249C247.134 212.821 251.641 220.906 259.614 221.274C260.654 223.723 264.468 229.432 271.401 232.666C275.284 231.784 276.486 228.623 276.601 227.153C267.726 220.098 267.588 214.169 268.628 212.086C258.644 205.324 272.095 195.794 280.068 191.874L315.776 179.379C320.167 178.06 332.486 175.155 346.63 174.093C362.286 167.026 375.565 167.826 380.951 169.457C380.119 162.989 366.968 139.568 360.497 128.666C363.617 132.34 369.996 139.837 370.551 140.425C371.105 141.013 378.871 151.94 382.684 157.33C385.111 160.637 390.727 169.163 393.778 176.807C396.829 184.451 403.37 194.447 406.259 198.489C407.299 200.204 412.013 204.001 422.552 205.471C433.091 206.941 438.731 214.169 440.233 217.599H437.806L437.113 224.581C480.1 268.68 462.767 298.603 462.073 298.995C466.437 296.551 469.735 294.24 471.434 292.199C479.754 282.204 484.145 270.15 485.301 265.373C487.15 260.228 488.074 245.381 476.981 227.153C476.981 226.271 455.256 188.812 444.393 170.192C441.966 167.252 406.258 122.786 377.484 106.248C372.509 109.471 362.024 111.62 353.059 100.736C350.779 97.969 348.598 94.3596 346.63 89.7113C346.283 87.9963 347.531 83.2434 355.297 77.9515C363.063 72.6597 371.937 63.4969 375.404 59.5769C361.422 38.0174 315.499 -3.92572 243.667 0.778183ZM259.614 216.864C253.513 198.93 261.001 182.932 265.508 177.174C257.65 183.667 243.944 199.885 251.987 212.821C253.605 215.271 257.396 219.51 259.614 216.864Z" fill="#345071"/>
<path d="M444.393 170.192C445.433 139.2 437.875 69.5727 399.325 38.9974C401.867 51.0021 401.058 81.259 377.484 106.248C406.258 122.786 441.966 167.252 444.393 170.192Z" fill="#243956"/>
<path d="M363.271 342.913C364.311 344.261 366.876 347.103 368.818 347.691C369.511 349.896 368.817 357.099 360.497 368.27C364.195 365.208 372.492 357.76 376.098 352.468C378.756 352.223 384.834 350.704 387.885 346.588C390.936 342.472 393.316 330.909 394.125 325.641C394.008 326.376 387.538 346.221 380.604 339.239L377.921 328.949C380.172 328.864 386.565 328.084 394.125 325.641C411.874 320.085 445.066 308.523 462.073 298.995C462.767 298.603 480.1 268.68 437.113 224.581C436.65 231.196 434.131 247.292 427.752 258.758C421.374 270.224 417.879 273.928 411.589 280.596C410.016 282.263 408.269 284.115 406.259 286.32C400.87 292.229 395.181 293.849 391.005 293.833C388.947 293.825 387.257 293.42 386.151 292.935V283.012L382.684 286.32C381.02 304.547 369.049 331.644 363.271 342.913Z" fill="#243956"/>
<path d="M243.667 230.093L243.667 239.648C252.542 239.06 255.916 244.793 256.494 247.733L257.205 258.758C257.825 259.735 258.289 260.651 258.574 261.33C259.499 265.005 261.417 272.575 261.694 273.457C261.972 274.339 262.965 273.825 263.428 273.457L269.321 267.578C270.554 266.684 272.762 266.098 275.101 267.578C275.841 265.814 281.032 266.843 283.535 267.578C286.655 268.925 299.413 275.295 325.483 289.995C343.043 299.896 359.177 298.126 370.346 293.669C375.759 291.51 380.006 288.719 382.684 286.32L386.151 283.012C391.698 280.366 391.698 267.21 391.005 260.963L389.271 253.613C393.348 243.349 393.055 209.76 392.264 190.404C390.689 194.079 386.151 201.502 380.604 201.796C382.684 201.919 386.983 202.164 387.538 202.164C387.191 203.634 379.218 217.966 375.058 234.503L377.138 240.751C378.802 251.628 372.053 258.023 368.471 259.86C366.391 261.33 359.596 264.417 349.057 265.005C338.518 265.593 303.758 257.655 287.695 253.613C287.695 252.543 285.736 254.242 281.502 245.276C281.314 244.963 281.184 244.667 281.108 244.426L299.135 227.153C288.874 230.387 279.837 228.501 276.601 227.153C276.486 228.623 275.284 231.784 271.401 232.666C265.508 236.953 252.403 240.677 247.134 221.274C247.481 223.479 247.273 228.329 243.667 230.093Z" fill="#5E8DB1"/>
<path d="M217.32 319.761C217.32 321.231 214.546 323.314 213.16 324.171C214.084 326.131 215.864 329.831 215.586 328.949C215.309 328.067 216.626 324.416 217.32 322.701H219.4L217.32 319.761Z" fill="black"/>
<path d="M274.175 324.171C272.788 323.314 270.015 321.231 270.015 319.761L267.934 322.701H270.015C270.708 324.416 272.025 328.067 271.748 328.949C271.471 329.831 273.25 326.131 274.175 324.171Z" fill="black"/>
<path d="M243.667 361.656V405.02C245.978 403.55 251.918 400.61 257.188 400.61C258.112 400.487 260.1 400.61 260.654 402.08C262.959 400.655 265.755 397.914 267.459 393.995C269.857 388.482 270.096 380.637 263.774 370.843C265.508 374.395 267.657 381.647 262.387 382.235C257.118 382.823 251.178 368.76 248.867 361.656L246.44 350.998C245.978 353.938 244.777 360.186 243.667 361.656Z" fill="#223856"/>
<path d="M323.403 370.843C323.518 374.885 322.709 384.44 318.549 390.32C324.674 386.522 336.23 376.135 333.456 364.963C332.763 358.103 331.723 349.896 337.27 336.666C341.488 326.605 343.435 310.37 343.51 302.857C348.92 302.244 361.862 299.549 370.346 293.669C359.177 298.126 343.043 299.896 325.483 289.995C299.413 275.295 286.655 268.925 283.535 267.578C281.032 266.843 275.841 265.814 275.101 267.578C276.604 268.529 278.161 270.333 279.546 273.457C279.845 274.13 280.135 274.863 280.415 275.662C280.683 276.429 280.884 277.164 281.025 277.867C280.946 277.5 285.268 271.252 294.629 277.867C302.117 283.159 315.545 290.117 321.323 292.935L339.003 300.652C339.581 303.102 339.835 310.354 336.23 319.761C332.624 329.169 329.181 335.931 327.91 338.136C325.502 343.158 320.952 355.261 322.016 363.493L323.403 370.843Z" fill="#223856"/>
<path d="M223.56 370.843C221.826 374.395 219.677 381.647 224.947 382.235C230.216 382.823 236.156 368.76 238.467 361.656L240.894 350.998C241.356 353.938 242.558 360.186 243.667 361.656V346.588C229.245 343.061 205.879 357.613 205.879 357.613C205.879 357.613 218.937 347.568 223.213 345.486C219.408 346.242 204.968 347.773 195.318 348.734C199.752 348.065 206.951 346.499 216.626 343.281C230.771 338.577 240.547 339.361 243.667 340.341V332.256C243.667 331.766 240.408 331.08 228.76 332.256C214.2 333.726 196.865 349.896 176.411 339.239C160.048 330.713 157.344 314.127 158.038 306.899C160.002 298.937 167.606 285.732 182.305 296.609C197.004 307.487 229.453 313.147 243.667 314.617L243.667 301.387C242.049 301.877 237.912 302.195 234.307 299.549C230.701 296.903 225.871 292.077 223.907 289.995C221.826 288.28 217.25 285.364 215.586 287.422C213.922 289.48 215.586 290.975 216.626 291.465C212.241 290.558 204.57 286.608 206.31 277.867C206.388 277.5 202.066 271.252 192.706 277.867C185.217 283.159 171.789 290.117 166.011 292.935L148.331 300.652C147.753 303.102 147.499 310.354 151.104 319.761C154.71 329.169 158.153 335.931 159.425 338.136C161.832 343.158 166.382 355.261 165.318 363.493L163.932 370.843C171.096 373.66 187.228 380.324 194.439 384.44C201.65 388.556 214.401 392.525 219.875 393.995C217.477 388.482 217.238 380.637 223.56 370.843Z" fill="#527D9D"/>
<path d="M243.667 301.387L243.667 314.617C257.881 313.147 290.33 307.487 305.029 296.609C319.728 285.732 327.332 298.937 329.297 306.899C329.99 314.127 327.286 330.713 310.923 339.239C290.469 349.896 273.134 333.726 258.574 332.256C246.926 331.08 243.667 331.766 243.667 332.256V340.341C246.787 339.361 256.563 338.577 270.708 343.281C280.383 346.499 287.582 348.065 292.016 348.734C282.366 347.773 267.926 346.242 264.121 345.486C268.397 347.568 281.455 357.613 281.455 357.613C281.455 357.613 258.089 343.061 243.667 346.588V361.656C244.777 360.186 245.978 353.938 246.44 350.998L248.867 361.656C251.178 368.76 257.118 382.823 262.387 382.235C267.657 381.647 265.508 374.395 263.774 370.843C270.096 380.637 269.857 388.482 267.459 393.995C272.933 392.525 285.684 388.556 292.895 384.44C300.106 380.324 316.238 373.66 323.403 370.843L322.016 363.493C320.952 355.261 325.502 343.158 327.91 338.136C329.181 335.931 332.624 329.169 336.23 319.761C339.835 310.354 339.581 303.102 339.003 300.652L321.323 292.935C315.545 290.117 302.117 283.159 294.629 277.867C285.268 271.252 280.946 277.5 281.025 277.867C282.764 286.608 275.093 290.558 270.708 291.465C271.748 290.975 273.412 289.48 271.748 287.422C270.084 285.364 265.508 288.28 263.428 289.995C261.463 292.077 256.633 296.903 253.027 299.549C249.422 302.195 245.285 301.877 243.667 301.387Z" fill="#5E8DB1"/>
<path d="M333.456 364.963C341.43 360.921 358.556 350.851 363.271 342.913C369.049 331.644 381.02 304.547 382.684 286.32C380.006 288.719 375.759 291.51 370.346 293.669C361.862 299.549 348.92 302.244 343.51 302.857C343.435 310.37 341.488 326.605 337.27 336.666C331.723 349.896 332.763 358.103 333.456 364.963Z" fill="#375C7E"/>
</svg>
