<svg width="400" height="315" viewBox="0 0 400 315" fill="none" xmlns="http://www.w3.org/2000/svg">
<path fill-rule="evenodd" clip-rule="evenodd" d="M11.8783 206.28C12.7765 209.999 16.1898 219.384 22.657 227.166C23.9775 228.755 26.5411 230.553 29.9328 232.456C29.3939 232.151 15.9206 208.855 49.3346 174.522L48.7956 169.086H46.9093C48.077 166.416 52.4604 160.789 60.6522 159.645C68.8441 158.5 72.5089 155.544 73.3173 154.209C75.5628 151.062 80.6468 143.28 83.0181 137.329C85.3895 131.378 89.7549 124.74 91.6411 122.165C94.6053 117.969 100.641 109.462 101.073 109.004C101.504 108.546 106.462 102.71 108.887 99.8488C103.857 108.337 93.6352 126.571 92.9885 131.606C97.1751 130.336 107.497 129.714 119.666 135.215C130.66 136.043 140.235 138.304 143.649 139.331L171.404 149.059C177.602 152.111 188.057 159.53 180.296 164.795C181.105 166.416 180.997 171.032 174.099 176.525C174.188 177.669 175.123 180.13 178.141 180.817C183.53 178.299 186.494 173.855 187.303 171.947C193.5 171.661 197.003 165.367 197.812 163.364L199.698 165.367V143.051C199.518 142.765 198.728 141.048 197.003 136.47C194.848 130.748 199.698 104.713 199.698 102.71V0.284051C143.864 -3.3781 108.169 29.2761 97.3 46.0609C99.9947 49.1127 106.893 56.2463 112.929 60.3662C118.965 64.4861 119.935 68.1864 119.666 69.5216C118.136 73.1404 116.441 75.9505 114.669 78.1047C107.7 86.5781 99.5504 84.9055 95.6832 82.3963C73.3173 95.2711 45.562 129.89 43.6757 132.179C35.2323 146.675 18.3455 175.838 18.3455 176.525C9.72252 190.716 10.4411 202.274 11.8783 206.28ZM187.303 168.514C192.045 154.552 186.225 142.097 182.722 137.615C188.83 142.669 199.483 155.296 193.231 165.367C191.973 167.274 189.027 170.574 187.303 168.514Z" fill="#2B435F"/>
<path d="M78.7066 30.039C48.7417 53.843 42.8673 108.05 43.6757 132.179C45.562 129.89 73.3173 95.2711 95.6832 82.3963C77.3593 62.9411 76.7305 39.3851 78.7066 30.039Z" fill="#1E3048"/>
<path d="M119.666 69.5216C119.935 68.1864 118.965 64.4861 112.929 60.3662C106.893 56.2463 99.9947 49.1127 97.3 46.0609C93.9765 40.6249 87.4374 27.9791 87.8686 20.8836C88.4075 12.0144 87.3296 7.72282 89.2159 3.43124C89.2159 3.43124 63.3238 49.4942 114.669 78.1047C116.441 75.9505 118.136 73.1404 119.666 69.5216Z" fill="#EF6250"/>
<path d="M78.7066 30.039C76.7305 39.3851 77.3593 62.9411 95.6832 82.3963C99.5504 84.9055 107.7 86.5781 114.669 78.1047C63.3238 49.4942 89.2159 3.43124 89.2159 3.43124C84.9943 6.8645 78.7066 30.039 78.7066 30.039Z" fill="#C95047"/>
<path d="M73.3173 154.209C72.5089 155.544 68.8441 158.5 60.6522 159.645C64.4248 160.98 72.5089 164.737 74.6646 169.086C76.2536 172.292 79.7945 183.984 82.5897 193.691C83.5868 197.154 84.489 200.364 85.1739 202.847L86.5212 197.125C83.3524 189.134 83.58 162.984 84.1952 147.914C84.2496 146.581 84.3071 145.335 84.3655 144.195C86.2518 144.195 97.0305 133.037 115.624 144.195C130.499 153.122 137.63 159.168 139.337 161.075C144.098 164.222 155.397 170.803 162.511 171.947L174.099 176.525C180.997 171.032 181.105 166.416 180.296 164.795C172.536 170.059 159.637 162.601 154.158 158.214C151.553 156.021 142.517 149.173 127.211 139.331C124.644 137.681 122.118 136.324 119.666 135.215C107.497 129.714 97.1751 130.336 92.9885 131.606C93.6352 126.571 103.857 108.337 108.887 99.8488C106.462 102.71 101.504 108.546 101.073 109.004C100.641 109.462 94.6053 117.969 91.6411 122.165C89.7549 124.74 85.3895 131.378 83.0181 137.329C80.6468 143.28 75.5628 151.062 73.3173 154.209Z" fill="#112035"/>
<path d="M127.211 139.331C142.517 149.173 151.553 156.021 154.158 158.214C159.637 162.601 172.536 170.059 180.296 164.795C188.057 159.53 177.602 152.111 171.404 149.059L143.649 139.331C140.235 138.304 130.66 136.043 119.666 135.215C122.118 136.324 124.644 137.681 127.211 139.331Z" fill="#FFD8AF"/>
<path d="M115.624 144.195C97.0305 133.037 86.2518 144.195 84.3655 144.195C84.3071 145.335 84.2496 146.581 84.1952 147.914C85.4196 150.776 88.9464 156.555 93.2579 156.784C98.6473 157.07 102.689 155.955 109.157 158.214C111.406 158.453 114.48 159.322 117.78 160.473C123.968 162.633 130.948 165.79 134.756 167.656C138.103 169.271 145.714 172.705 152.811 175.248C154.094 175.708 155.361 176.139 156.583 176.525C164.559 179.043 171.584 177.574 174.099 176.525L162.511 171.947C155.397 170.803 144.098 164.222 139.337 161.075C137.63 159.168 130.499 153.122 115.624 144.195Z" fill="#284763"/>
<path d="M134.756 167.656C130.948 165.79 123.968 162.633 117.78 160.473C116.881 169.829 118.534 188.541 132.331 188.541C146.128 188.541 151.733 179.679 152.811 175.248C145.714 172.705 138.103 169.271 134.756 167.656Z" fill="#F24B40"/>
<path d="M109.157 158.214C102.689 157.528 99.4557 159.073 98.6473 159.931C97.9287 166.416 98.8629 181.217 108.348 188.541C117.833 195.866 128.289 196.743 132.331 196.266C139.068 195.98 153.835 195.007 159.008 193.405C160.625 193.119 164.452 192.547 166.823 192.547C168.674 192.547 169.77 191.501 170.29 190.634C170.39 190.421 170.492 190.2 170.595 189.972L156.583 176.525C155.361 176.139 154.094 175.708 152.811 175.248C151.733 179.679 146.128 188.541 132.331 188.541C118.534 188.541 116.881 169.829 117.78 160.473C114.48 159.322 111.406 158.453 109.157 158.214Z" fill="white"/>
<path d="M88.9465 220.013L91.6411 222.588C93.7229 224.456 97.0241 226.629 101.232 228.31C109.914 231.78 122.454 233.157 136.103 225.449C156.368 214.005 166.284 209.046 168.709 207.997C170.655 207.424 174.689 206.623 175.265 207.997C177.083 206.845 178.799 207.301 179.757 207.997L184.338 212.574C184.698 212.86 185.47 213.261 185.686 212.574C185.901 211.888 187.392 205.994 188.111 203.133C188.332 202.604 188.693 201.891 189.175 201.13L189.728 192.547C190.177 190.258 192.8 185.795 199.698 186.253L199.698 178.814C196.896 177.441 196.734 173.664 197.003 171.947C192.907 187.054 182.722 184.154 178.141 180.817C175.123 180.13 174.188 177.669 174.099 176.525C171.584 177.574 164.559 179.043 156.583 176.525L170.595 189.972C170.536 190.16 170.436 190.39 170.29 190.634C166.998 197.614 165.476 196.292 165.476 197.125C152.99 200.272 125.971 206.452 117.78 205.994C109.588 205.536 104.306 203.133 102.689 201.988C99.9048 200.558 94.6592 195.58 95.9526 187.111L97.5695 182.247C94.3358 169.372 88.138 158.214 87.8686 157.07C88.2997 157.07 91.6411 156.879 93.2579 156.784C88.9464 156.555 85.4196 150.776 84.1952 147.914C83.58 162.984 83.3524 189.134 86.5212 197.125L85.1739 202.847C84.635 207.71 84.635 217.953 88.9465 220.013Z" fill="#527D9D"/>
<path d="M124.247 200.272C116.432 198.555 100.156 192.547 97.5695 182.247L95.9526 187.111C94.6592 195.58 99.9048 200.558 102.689 201.988C104.306 203.133 109.588 205.536 117.78 205.994C125.971 206.452 152.99 200.272 165.476 197.125L156.314 197.697C146.397 199.757 130.804 200.272 124.247 200.272Z" fill="#EC5647"/>
<path d="M98.6473 159.931C99.4557 159.073 102.689 157.528 109.157 158.214C102.689 155.955 98.6473 157.07 93.2579 156.784C91.6411 156.879 88.2997 157.07 87.8686 157.07C88.138 158.214 94.3358 169.372 97.5695 182.247C100.156 192.547 116.432 198.555 124.247 200.272C130.804 200.272 146.397 199.757 156.314 197.697L165.476 197.125C165.476 196.292 166.998 197.614 170.29 190.634C169.77 191.501 168.674 192.547 166.823 192.547C164.452 192.547 160.625 193.119 159.008 193.405C153.835 195.007 139.068 195.98 132.331 196.266C128.289 196.743 117.833 195.866 108.348 188.541C98.8629 181.217 97.9287 166.416 98.6473 159.931Z" fill="#253651"/>
<path d="M197.812 163.364C197.003 165.367 193.5 171.661 187.303 171.947C186.494 173.855 183.53 178.299 178.141 180.817C182.722 184.154 192.907 187.054 197.003 171.947C196.734 173.664 196.896 177.441 199.698 178.814L199.698 165.367L197.812 163.364Z" fill="#3C6385"/>
<path d="M182.722 137.615C186.225 142.097 192.045 154.552 187.303 168.514C189.027 170.574 191.973 167.274 193.231 165.367C199.483 155.296 188.83 142.669 182.722 137.615Z" fill="#E25446"/>
<path d="M194.039 196.838C197.057 195.923 199.069 196.076 199.698 196.266V186.253C192.8 185.795 190.177 190.258 189.728 192.547L189.175 201.13C190.258 199.421 191.951 197.472 194.039 196.838Z" fill="#DD4F43"/>
<path d="M199.698 197.697C199.159 197.983 194.309 196.552 192.422 201.988C190.913 206.337 188.919 213.528 188.111 216.58C187.482 219.632 187.464 226.25 192.422 228.31C197.381 230.37 199.339 229.741 199.698 229.168V197.697Z" fill="#FEDBB5"/>
<path d="M192.422 232.888C195.225 234.948 198.441 234.7 199.698 234.318V229.168C199.339 229.741 197.381 230.37 192.422 228.31C187.464 226.25 187.482 219.632 188.111 216.58C188.919 213.528 190.913 206.337 192.422 201.988C194.309 196.552 199.159 197.983 199.698 197.697V196.266C199.069 196.076 197.057 195.923 194.039 196.838C191.951 197.472 190.258 199.421 189.175 201.13C188.693 201.891 188.332 202.604 188.111 203.133C187.392 205.994 185.901 211.888 185.686 212.574V223.446C183.261 220.299 174.637 217.438 173.29 216.58C171.943 215.721 171.566 213.147 171.809 212.574C171.578 213.098 171.352 213.669 171.134 214.291C170.926 214.888 170.769 215.46 170.661 216.008C169.308 222.812 175.271 225.887 178.68 226.593C177.871 226.212 176.578 225.048 177.871 223.446C179.165 221.844 182.722 224.114 184.338 225.449C185.865 227.07 189.62 230.828 192.422 232.888Z" fill="#DBAD8A"/>
<path d="M184.338 212.574L179.757 207.997C178.799 207.301 177.083 206.845 175.265 207.997C174.097 208.737 172.886 210.142 171.809 212.574C171.566 213.147 171.943 215.721 173.29 216.58C174.637 217.438 183.261 220.299 185.686 223.446V212.574C185.47 213.261 184.698 212.86 184.338 212.574Z" fill="#FEDBB5"/>
<path d="M141.493 303.556C138.259 298.978 137.631 291.539 137.72 288.392L138.798 282.67C139.625 276.261 136.089 266.839 134.217 262.929C133.229 261.212 130.552 255.948 127.75 248.624C124.947 241.299 125.145 235.653 125.594 233.746L139.337 227.738C143.828 225.544 154.266 220.127 160.086 216.008C167.362 210.858 170.721 215.721 170.661 216.008C170.769 215.46 170.926 214.888 171.134 214.291C171.352 213.669 171.578 213.098 171.809 212.574C172.886 210.142 174.097 208.737 175.265 207.997C174.689 206.623 170.655 207.424 168.709 207.997C166.284 209.046 156.368 214.005 136.103 225.449C122.454 233.157 109.914 231.78 101.232 228.31C107.826 232.888 117.886 234.986 122.091 235.463C122.149 241.312 123.663 253.951 126.942 261.784C131.253 272.084 130.445 278.474 129.906 283.814C127.75 292.512 136.732 300.599 141.493 303.556Z" fill="#1B2B42"/>
<path d="M199.698 244.618C188.65 243.474 163.427 239.068 152.002 230.599C140.576 222.13 134.666 232.411 133.139 238.61C132.6 244.237 134.702 257.15 147.421 263.787C163.32 272.084 176.794 259.496 188.111 258.351C197.165 257.436 199.698 257.97 199.698 258.351V254.324C198.938 254.307 197.748 254.319 196.734 254.324C192.234 254.348 185.911 254.655 183.799 255.776C181.213 257.15 167.631 259.972 161.164 261.212C156.974 261.858 148.99 261.273 143.365 255.776C141.514 253.968 139.919 251.627 138.798 248.624C133.139 233.46 143.649 232.029 144.457 232.029C145.265 232.029 146.613 232.316 154.427 237.179C160.679 241.07 187.303 246.43 199.698 248.624L199.698 244.618Z" fill="#C04B47"/>
<path d="M154.427 237.179C146.613 232.316 145.265 232.029 144.457 232.029C143.649 232.029 133.139 233.46 138.798 248.624C139.919 251.627 141.514 253.968 143.365 255.776C141.63 253.03 142.292 249.863 142.84 248.624L146.343 247.193L153.619 252.629C159.224 252.629 161.703 254.727 162.242 255.776L164.128 253.773C167.092 251.771 175.176 252.057 175.985 252.057L168.44 250.34L167.362 248.624L161.164 253.773C159.008 252.171 155.775 242.043 154.427 237.179Z" fill="black"/>
<path d="M199.698 248.624C187.303 246.43 160.679 241.07 154.427 237.179C155.775 242.043 159.008 252.171 161.164 253.773L167.362 248.624L168.44 250.34L175.985 252.057C177.063 251.389 179.218 249.768 179.218 248.624L180.835 250.912C184.877 250.722 193.5 250.684 195.656 252.057L196.734 254.324C197.748 254.319 198.938 254.307 199.698 254.324V248.624Z" fill="#FEE4C2"/>
<path d="M161.164 261.212C167.631 259.972 181.213 257.15 183.799 255.776C185.911 254.655 192.234 254.348 196.734 254.324L195.656 252.057C193.5 250.684 184.877 250.722 180.835 250.912H179.218C178.68 252.248 177.656 255.09 177.871 255.776C178.087 256.463 176.703 253.583 175.985 252.057C175.176 252.057 167.092 251.771 164.128 253.773L162.242 255.776C161.703 254.727 159.224 252.629 153.619 252.629L146.343 247.193L142.84 248.624C142.292 249.863 141.63 253.03 143.365 255.776C148.99 261.273 156.974 261.858 161.164 261.212Z" fill="#FEE4C2"/>
<path d="M106.731 266.648C110.396 272.828 123.708 280.667 129.906 283.814C130.445 278.474 131.253 272.084 126.942 261.784C123.663 253.951 122.149 241.312 122.091 235.463C117.886 234.986 107.826 232.888 101.232 228.31C97.0241 226.629 93.7229 224.456 91.6411 222.588C92.9346 236.779 102.24 257.874 106.731 266.648Z" fill="#305170"/>
<path d="M46.9093 169.086H48.7956C49.491 169.086 50.284 169.123 51.1508 169.205C55.6258 169.627 62.0669 171.253 67.19 175.248C69.6624 177.177 71.8278 179.656 73.3173 182.819L74.6646 185.839L77.9124 193.119L78.1677 193.691C79.3193 193.977 81.8158 194.378 82.5897 193.691C79.7945 183.984 76.2536 172.292 74.6646 169.086C72.5089 164.737 64.4248 160.98 60.6522 159.645C52.4604 160.789 48.077 166.416 46.9093 169.086Z" fill="#C74E45"/>
<path d="M88.9465 227.738V220.013C84.635 217.953 84.635 207.71 85.1739 202.847C84.489 200.364 83.5868 197.154 82.5897 193.691C81.8158 194.378 79.3193 193.977 78.1677 193.691L77.9124 193.119C74.5306 196.095 73.9321 198.364 74.0557 199.127C78.5827 202.789 80.4331 208.664 80.7924 211.144L82.1397 212.86C81.9601 212.956 81.1697 212.918 79.4451 212.002C77.7205 211.087 75.3132 208.187 74.3251 206.852C74.7743 206.661 75.8203 206.166 76.4115 205.708C73.858 202.991 71.686 201.389 70.2831 200.272C67.249 188.828 73.3173 187.111 74.6646 185.839C73.5634 186.263 70.5268 186.539 67.19 184.25C65.0121 182.756 64.9234 180.716 65.4327 178.926C62.4146 173.395 54.4743 172.541 50.8814 172.806C52.4084 181.293 57.9953 200.443 68.1274 209.141C78.2594 217.839 81.6906 221.73 82.1397 222.588L85.1739 228.437C86.773 228.431 88.0867 228.116 88.9465 227.738Z" fill="#3D6181"/>
<path d="M48.7956 169.086L49.3346 174.522C49.6938 179.672 51.652 192.204 56.6102 201.13C61.5684 210.057 64.2847 212.94 69.1739 218.132C70.3962 219.429 71.7543 220.871 73.3173 222.588C77.5056 227.188 81.9278 228.45 85.1739 228.437L82.1397 222.588C81.6906 221.73 78.2594 217.839 68.1274 209.141C57.9953 200.443 52.4084 181.293 50.8814 172.806C50.9712 171.852 51.1508 169.797 51.1508 169.205C50.284 169.123 49.491 169.086 48.7956 169.086Z" fill="#577E9D"/>
<path d="M73.3173 182.819C71.8278 179.656 69.6624 177.177 67.19 175.248C66.8654 175.858 65.8987 177.287 65.4327 178.926C64.9234 180.716 65.0121 182.756 67.19 184.25C70.5268 186.539 73.5634 186.263 74.6646 185.839L73.3173 182.819Z" fill="#1B2F4A"/>
<path d="M74.6646 185.839C73.3173 187.111 67.249 188.828 70.2831 200.272C71.686 201.389 73.858 202.991 76.4115 205.708C77.7819 207.166 79.2622 208.946 80.7924 211.144C80.4331 208.664 78.5827 202.789 74.0557 199.127C73.9321 198.364 74.5306 196.095 77.9124 193.119L74.6646 185.839Z" fill="#223D58"/>
<path d="M80.7924 211.144C79.2622 208.946 77.7819 207.166 76.4115 205.708C75.8203 206.166 74.7743 206.661 74.3251 206.852C75.3132 208.187 77.7205 211.087 79.4451 212.002C81.1697 212.918 81.9601 212.956 82.1397 212.86L80.7924 211.144Z" fill="#EC5647"/>
<path d="M67.19 175.248C62.0669 171.253 55.6258 169.627 51.1508 169.205C51.1508 169.797 50.9712 171.852 50.8814 172.806C54.4743 172.541 62.4146 173.395 65.4327 178.926C65.8987 177.287 66.8654 175.858 67.19 175.248Z" fill="#243B55"/>
<path fill-rule="evenodd" clip-rule="evenodd" d="M106.731 266.648C105.923 267.697 103.929 269.91 102.42 270.368C101.881 272.084 102.42 277.692 108.887 286.389C106.013 284.005 99.5634 278.207 96.7609 274.087C94.695 273.896 89.9703 272.714 87.599 269.509C85.2276 266.305 83.3773 257.302 82.7485 253.201C82.8391 253.773 87.8686 269.223 93.2579 263.787L95.3437 255.776C93.5938 255.71 88.6249 255.103 82.7485 253.201C68.9523 248.875 43.1527 239.874 29.9328 232.456C29.3939 232.151 15.9206 208.855 49.3346 174.522C49.6938 179.672 51.652 192.204 56.6102 201.13C61.5684 210.057 64.2847 212.94 69.1739 218.132C70.3962 219.429 71.7543 220.871 73.3173 222.588C77.5056 227.188 81.9278 228.45 85.1739 228.437C86.773 228.431 88.0867 228.116 88.9465 227.738V220.013L91.6411 222.588C92.9346 236.779 102.24 257.874 106.731 266.648Z" fill="#1E3048"/>
<path d="M199.698 102.71C199.698 104.713 194.848 130.748 197.003 136.47C198.728 141.048 199.518 142.765 199.698 143.051V102.71Z" fill="#EC5546"/>
<path d="M189.189 311.567C193.285 311.567 197.902 313.856 199.698 315V281.24C198.836 280.095 197.902 275.231 197.542 272.942L195.656 281.24C193.86 286.771 189.243 297.719 185.147 297.261C181.051 296.804 182.722 291.158 184.069 288.392C179.155 296.018 179.341 302.125 181.205 306.417C182.53 309.468 184.703 311.602 186.494 312.711C186.925 311.567 188.47 311.471 189.189 311.567Z" fill="#1B2B42"/>
<path d="M199.698 264.645C197.273 263.883 189.674 263.272 178.68 266.934C171.159 269.439 165.563 270.659 162.117 271.18C169.618 270.431 180.842 269.24 183.799 268.651C180.476 270.272 170.326 278.092 170.326 278.092C170.326 278.092 188.488 266.763 199.698 269.509V264.645Z" fill="#204061"/>
<path d="M279.73 69.5216C279.461 68.1864 280.431 64.4861 286.467 60.3662C292.503 56.2463 299.401 49.1127 302.096 46.0609C305.42 40.6249 311.959 27.9791 311.528 20.8836C310.989 12.0144 312.067 7.72282 310.18 3.43124C310.18 3.43124 336.072 49.4942 284.727 78.1047C282.955 75.9505 281.26 73.1404 279.73 69.5216Z" fill="#EF6250"/>
<path d="M320.69 30.039C322.666 39.3851 322.037 62.9411 303.713 82.3963C299.846 84.9055 291.696 86.5781 284.727 78.1047C336.072 49.4942 310.18 3.43124 310.18 3.43124C314.402 6.8645 320.69 30.039 320.69 30.039Z" fill="#C95047"/>
<path d="M326.079 154.209C326.887 155.544 330.552 158.5 338.744 159.645C334.971 160.98 326.887 164.737 324.732 169.086C323.143 172.292 319.602 183.984 316.806 193.691C315.809 197.154 314.907 200.364 314.222 202.847L312.875 197.125C316.044 189.134 315.816 162.984 315.201 147.914C315.147 146.581 315.089 145.335 315.031 144.195C313.144 144.195 302.366 133.037 283.772 144.195C268.898 153.122 261.766 159.168 260.059 161.075C255.298 164.222 243.999 170.803 236.885 171.947L225.298 176.525C218.399 171.032 218.291 166.416 219.1 164.795C226.861 170.059 239.759 162.601 245.238 158.214C247.843 156.021 256.879 149.173 272.185 139.331C274.752 137.681 277.279 136.324 279.73 135.215C291.899 129.714 302.221 130.336 306.408 131.606C305.761 126.571 295.539 108.337 290.509 99.8488C292.934 102.71 297.892 108.546 298.324 109.004C298.755 109.462 304.791 117.969 307.755 122.165C309.641 124.74 314.007 131.378 316.378 137.329C318.749 143.28 323.833 151.062 326.079 154.209Z" fill="#112035"/>
<path d="M272.185 139.331C256.879 149.173 247.843 156.021 245.238 158.214C239.759 162.601 226.861 170.059 219.1 164.795C211.339 159.53 221.795 152.111 227.992 149.059L255.748 139.331C259.161 138.304 268.736 136.043 279.73 135.215C277.279 136.324 274.752 137.681 272.185 139.331Z" fill="#FFD8AF"/>
<path d="M283.772 144.195C302.366 133.037 313.144 144.195 315.031 144.195C315.089 145.335 315.147 146.581 315.201 147.914C313.977 150.776 310.45 156.555 306.138 156.784C300.749 157.07 296.707 155.955 290.24 158.214C287.991 158.453 284.916 159.322 281.617 160.473C275.428 162.633 268.448 165.79 264.64 167.656C261.293 169.271 253.682 172.705 246.586 175.248C245.302 175.708 244.035 176.139 242.813 176.525C234.837 179.043 227.813 177.574 225.298 176.525L236.885 171.947C243.999 170.803 255.298 164.222 260.059 161.075C261.766 159.168 268.898 153.122 283.772 144.195Z" fill="#284763"/>
<path d="M264.64 167.656C268.448 165.79 275.428 162.633 281.617 160.473C282.515 169.829 280.862 188.541 267.065 188.541C253.268 188.541 247.664 179.679 246.586 175.248C253.682 172.705 261.293 169.271 264.64 167.656Z" fill="#F24B40"/>
<path d="M290.24 158.214C296.707 157.528 299.94 159.073 300.749 159.931C301.467 166.416 300.533 181.217 291.048 188.541C281.563 195.866 271.107 196.743 267.065 196.266C260.329 195.98 245.562 195.007 240.388 193.405C238.771 193.119 234.945 192.547 232.573 192.547C230.722 192.547 229.627 191.501 229.107 190.634C229.006 190.421 228.904 190.2 228.801 189.972L242.813 176.525C244.035 176.139 245.302 175.708 246.586 175.248C247.664 179.679 253.268 188.541 267.065 188.541C280.862 188.541 282.515 169.829 281.617 160.473C284.916 159.322 287.991 158.453 290.24 158.214Z" fill="white"/>
<path d="M275.149 200.272C282.964 198.555 299.24 192.547 301.827 182.247L303.444 187.111C304.737 195.58 299.491 200.558 296.707 201.988C295.09 203.133 289.808 205.536 281.617 205.994C273.425 206.452 246.406 200.272 233.921 197.125L243.083 197.697C252.999 199.757 268.592 200.272 275.149 200.272Z" fill="#EC5647"/>
<path d="M300.749 159.931C299.94 159.073 296.707 157.528 290.24 158.214C296.707 155.955 300.749 157.07 306.138 156.784C307.755 156.879 311.096 157.07 311.528 157.07C311.258 158.214 305.06 169.372 301.827 182.247C299.24 192.547 282.964 198.555 275.149 200.272C268.592 200.272 252.999 199.757 243.083 197.697L233.921 197.125C233.921 196.292 232.398 197.614 229.107 190.634C229.627 191.501 230.722 192.547 232.573 192.547C234.945 192.547 238.771 193.119 240.388 193.405C245.562 195.007 260.329 195.98 267.065 196.266C271.107 196.743 281.563 195.866 291.048 188.541C300.533 181.217 301.467 166.416 300.749 159.931Z" fill="#253651"/>
<path d="M201.584 163.364C202.393 165.367 205.896 171.661 212.094 171.947C212.902 173.855 215.866 178.299 221.256 180.817C216.675 184.154 206.489 187.054 202.393 171.947C202.662 173.664 202.501 177.441 199.698 178.814L199.698 165.367L201.584 163.364Z" fill="#3C6385"/>
<path d="M216.675 137.615C213.172 142.097 207.351 154.552 212.094 168.514C210.369 170.574 207.423 167.274 206.165 165.367C199.914 155.296 210.567 142.669 216.675 137.615Z" fill="#E25446"/>
<path d="M205.357 196.838C202.339 195.923 200.327 196.076 199.698 196.266V186.253C206.596 185.795 209.219 190.258 209.668 192.547L210.221 201.13C209.138 199.421 207.445 197.472 205.357 196.838Z" fill="#DD4F43"/>
<path d="M199.698 197.697C200.237 197.983 205.087 196.552 206.974 201.988C208.483 206.337 210.477 213.528 211.285 216.58C211.914 219.632 211.932 226.25 206.974 228.31C202.016 230.37 200.057 229.741 199.698 229.168V197.697Z" fill="#FEDBB5"/>
<path d="M206.974 232.888C204.171 234.948 200.956 234.7 199.698 234.318V229.168C200.057 229.741 202.016 230.37 206.974 228.31C211.932 226.25 211.914 219.632 211.285 216.58C210.477 213.528 208.483 206.337 206.974 201.988C205.087 196.552 200.237 197.983 199.698 197.697V196.266C200.327 196.076 202.339 195.923 205.357 196.838C207.445 197.472 209.138 199.421 210.221 201.13C210.703 201.891 211.064 202.604 211.285 203.133C212.004 205.994 213.495 211.888 213.71 212.574V223.446C216.136 220.299 224.759 217.438 226.106 216.58C227.453 215.721 227.83 213.147 227.587 212.574C227.819 213.098 228.044 213.669 228.262 214.291C228.471 214.888 228.627 215.46 228.736 216.008C230.088 222.812 224.125 225.887 220.717 226.593C221.525 226.212 222.819 225.048 221.525 223.446C220.232 221.844 216.675 224.114 215.058 225.449C213.531 227.07 209.776 230.828 206.974 232.888Z" fill="#DBAD8A"/>
<path d="M215.058 212.574L219.639 207.997C220.597 207.301 222.314 206.845 224.131 207.997C225.3 208.737 226.51 210.142 227.587 212.574C227.83 213.147 227.453 215.721 226.106 216.58C224.759 217.438 216.136 220.299 213.71 223.446V212.574C213.926 213.261 214.699 212.86 215.058 212.574Z" fill="#FEDBB5"/>
<path d="M199.698 244.618C210.746 243.474 235.969 239.068 247.394 230.599C258.82 222.13 264.73 232.411 266.257 238.61C266.796 244.237 264.694 257.15 251.975 263.787C236.077 272.084 222.603 259.496 211.285 258.351C202.231 257.436 199.698 257.97 199.698 258.351V254.324C200.458 254.307 201.649 254.319 202.662 254.324C207.162 254.348 213.485 254.655 215.597 255.776C218.184 257.15 231.765 259.972 238.232 261.212C242.422 261.858 250.406 261.273 256.031 255.776C257.882 253.968 259.477 251.627 260.598 248.624C266.257 233.46 255.748 232.029 254.939 232.029C254.131 232.029 252.783 232.316 244.969 237.179C238.717 241.07 212.094 246.43 199.698 248.624L199.698 244.618Z" fill="#C04B47"/>
<path d="M244.969 237.179C252.783 232.316 254.131 232.029 254.939 232.029C255.748 232.029 266.257 233.46 260.598 248.624C259.477 251.627 257.882 253.968 256.031 255.776C257.766 253.03 257.104 249.863 256.556 248.624L253.053 247.193L245.777 252.629C240.172 252.629 237.693 254.727 237.154 255.776L235.268 253.773C232.304 251.771 224.22 252.057 223.411 252.057L230.956 250.34L232.034 248.624L238.232 253.773C240.388 252.171 243.621 242.043 244.969 237.179Z" fill="black"/>
<path d="M199.698 248.624C212.094 246.43 238.717 241.07 244.969 237.179C243.621 242.043 240.388 252.171 238.232 253.773L232.034 248.624L230.956 250.34L223.411 252.057C222.333 251.389 220.178 249.768 220.178 248.624L218.561 250.912C214.519 250.722 205.896 250.684 203.74 252.057L202.662 254.324C201.649 254.319 200.458 254.307 199.698 254.324V248.624Z" fill="#FEE4C2"/>
<path d="M238.232 261.212C231.765 259.972 218.184 257.15 215.597 255.776C213.485 254.655 207.162 254.348 202.662 254.324L203.74 252.057C205.896 250.684 214.519 250.722 218.561 250.912H220.178C220.717 252.248 221.741 255.09 221.525 255.776C221.309 256.463 222.693 253.583 223.411 252.057C224.22 252.057 232.304 251.771 235.268 253.773L237.154 255.776C237.693 254.727 240.172 252.629 245.777 252.629L253.053 247.193L256.556 248.624C257.104 249.863 257.766 253.03 256.031 255.776C250.406 261.273 242.422 261.858 238.232 261.212Z" fill="#FEE4C2"/>
<path d="M352.487 169.086H350.601C349.905 169.086 349.112 169.123 348.245 169.205C343.77 169.627 337.329 171.253 332.206 175.248C329.734 177.177 327.568 179.656 326.079 182.819L324.732 185.839L321.484 193.119L321.228 193.691C320.077 193.977 317.58 194.378 316.806 193.691C319.602 183.984 323.143 172.292 324.732 169.086C326.887 164.737 334.971 160.98 338.744 159.645C346.936 160.789 351.319 166.416 352.487 169.086Z" fill="#C74E45"/>
<path d="M310.45 227.738V220.013C314.761 217.953 314.761 207.71 314.222 202.847C314.907 200.364 315.809 197.154 316.806 193.691C317.58 194.378 320.077 193.977 321.228 193.691L321.484 193.119C324.866 196.095 325.464 198.364 325.34 199.127C320.813 202.789 318.963 208.664 318.604 211.144L317.256 212.86C317.436 212.956 318.227 212.918 319.951 212.002C321.676 211.087 324.083 208.187 325.071 206.852C324.622 206.661 323.576 206.166 322.985 205.708C325.538 202.991 327.71 201.389 329.113 200.272C332.147 188.828 326.079 187.111 324.732 185.839C325.833 186.263 328.869 186.539 332.206 184.25C334.384 182.756 334.473 180.716 333.964 178.926C336.982 173.395 344.922 172.541 348.515 172.806C346.988 181.293 341.401 200.443 331.269 209.141C321.137 217.839 317.706 221.73 317.256 222.588L314.222 228.437C312.623 228.431 311.309 228.116 310.45 227.738Z" fill="#3D6181"/>
<path d="M350.601 169.086L350.062 174.522C349.702 179.672 347.744 192.204 342.786 201.13C337.828 210.057 335.112 212.94 330.222 218.132C329 219.429 327.642 220.871 326.079 222.588C321.891 227.188 317.468 228.45 314.222 228.437L317.256 222.588C317.706 221.73 321.137 217.839 331.269 209.141C341.401 200.443 346.988 181.293 348.515 172.806C348.425 171.852 348.245 169.797 348.245 169.205C349.112 169.123 349.905 169.086 350.601 169.086Z" fill="#577E9D"/>
<path d="M326.079 182.819C327.568 179.656 329.734 177.177 332.206 175.248C332.531 175.858 333.497 177.287 333.964 178.926C334.473 180.716 334.384 182.756 332.206 184.25C328.869 186.539 325.833 186.263 324.732 185.839L326.079 182.819Z" fill="#1B2F4A"/>
<path d="M324.732 185.839C326.079 187.111 332.147 188.828 329.113 200.272C327.71 201.389 325.538 202.991 322.985 205.708C321.614 207.166 320.134 208.946 318.604 211.144C318.963 208.664 320.813 202.789 325.34 199.127C325.464 198.364 324.866 196.095 321.484 193.119L324.732 185.839Z" fill="#223D58"/>
<path d="M318.604 211.144C320.134 208.946 321.614 207.166 322.985 205.708C323.576 206.166 324.622 206.661 325.071 206.852C324.083 208.187 321.676 211.087 319.951 212.002C318.227 212.918 317.436 212.956 317.256 212.86L318.604 211.144Z" fill="#EC5647"/>
<path d="M332.206 175.248C337.329 171.253 343.77 169.627 348.245 169.205C348.245 169.797 348.425 171.852 348.515 172.806C344.922 172.541 336.982 173.395 333.964 178.926C333.497 177.287 332.531 175.858 332.206 175.248Z" fill="#243B55"/>
<path d="M199.698 102.71C199.698 104.713 204.549 130.748 202.393 136.47C200.668 141.048 199.878 142.765 199.698 143.051V102.71Z" fill="#EC5546"/>
<path d="M199.698 264.645C202.123 263.883 209.722 263.272 220.717 266.934C228.237 269.439 233.833 270.659 237.279 271.18C229.779 270.431 218.554 269.24 215.597 268.651C218.92 270.272 229.07 278.092 229.07 278.092C229.07 278.092 210.908 266.763 199.698 269.509V264.645Z" fill="#204061"/>
<path fill-rule="evenodd" clip-rule="evenodd" d="M199.698 0.284051V102.71C199.698 104.713 204.549 130.748 202.393 136.47C200.668 141.048 199.878 142.765 199.698 143.051V165.367L201.584 163.364C202.393 165.367 205.896 171.661 212.094 171.947C212.902 173.855 215.866 178.299 221.256 180.817C224.274 180.13 225.208 177.669 225.298 176.525C218.399 171.032 218.291 166.416 219.1 164.795C211.339 159.53 221.795 152.111 227.992 149.059L255.748 139.331C259.161 138.304 268.736 136.043 279.73 135.215C291.899 129.714 302.221 130.336 306.408 131.606C305.761 126.571 295.539 108.337 290.509 99.8488C292.934 102.71 297.892 108.546 298.324 109.004C298.755 109.462 304.791 117.969 307.755 122.165C309.641 124.74 314.007 131.378 316.378 137.329C318.749 143.28 323.833 151.062 326.079 154.209C326.887 155.544 330.552 158.5 338.744 159.645C346.936 160.789 351.319 166.416 352.487 169.086H350.601L350.062 174.522C383.476 208.855 370.002 232.151 369.463 232.456C372.855 230.553 375.419 228.755 376.739 227.166C383.206 219.384 386.62 209.999 387.518 206.28C388.955 202.274 389.674 190.716 381.051 176.525C381.051 175.838 364.164 146.675 355.72 132.179C353.834 129.89 326.079 95.2711 303.713 82.3963C299.846 84.9055 291.696 86.5781 284.727 78.1047C282.955 75.9505 281.26 73.1404 279.73 69.5216C279.461 68.1864 280.431 64.4861 286.467 60.3662C292.503 56.2463 299.401 49.1127 302.096 46.0609C291.228 29.2761 255.532 -3.3781 199.698 0.284051ZM212.094 168.514C207.351 154.552 213.172 142.097 216.675 137.615C210.567 142.669 199.914 155.296 206.165 165.367C207.423 167.274 210.369 170.574 212.094 168.514Z" fill="#345071"/>
<path d="M355.72 132.179C356.529 108.05 350.654 53.843 320.69 30.039C322.666 39.3851 322.037 62.9411 303.713 82.3963C326.079 95.2711 353.834 129.89 355.72 132.179Z" fill="#243956"/>
<path d="M292.665 266.648C293.473 267.697 295.467 269.91 296.976 270.368C297.515 272.084 296.976 277.692 290.509 286.389C293.383 284.005 299.833 278.207 302.635 274.087C304.701 273.896 309.426 272.714 311.797 269.509C314.169 266.305 316.019 257.302 316.648 253.201C316.557 253.773 311.528 269.223 306.138 263.787L304.052 255.776C305.802 255.71 310.771 255.103 316.648 253.201C330.444 248.875 356.244 239.874 369.463 232.456C370.002 232.151 383.476 208.855 350.062 174.522C349.702 179.672 347.744 192.204 342.786 201.13C337.828 210.057 335.112 212.94 330.222 218.132C329 219.429 327.642 220.871 326.079 222.588C321.891 227.188 317.468 228.45 314.222 228.437C312.623 228.431 311.309 228.116 310.45 227.738V220.013L307.755 222.588C306.462 236.779 297.156 257.874 292.665 266.648Z" fill="#243956"/>
<path d="M199.698 178.814L199.698 186.253C206.596 185.795 209.219 190.258 209.668 192.547L210.221 201.13C210.703 201.891 211.064 202.604 211.285 203.133C212.004 205.994 213.495 211.888 213.71 212.574C213.926 213.261 214.699 212.86 215.058 212.574L219.639 207.997C220.597 207.301 222.314 206.845 224.131 207.997C224.707 206.623 228.742 207.424 230.687 207.997C233.112 209.046 243.029 214.005 263.293 225.449C276.942 233.157 289.483 231.78 298.165 228.31C302.372 226.629 305.673 224.456 307.755 222.588L310.45 220.013C314.761 217.953 314.761 207.71 314.222 202.847L312.875 197.125C316.044 189.134 315.816 162.984 315.201 147.914C313.977 150.776 310.45 156.555 306.138 156.784C307.755 156.879 311.096 157.07 311.528 157.07C311.258 158.214 305.06 169.372 301.827 182.247L303.444 187.111C304.737 195.58 299.491 200.558 296.707 201.988C295.09 203.133 289.808 205.536 281.617 205.994C273.425 206.452 246.406 200.272 233.921 197.125C233.921 196.292 232.398 197.614 229.107 190.634C228.96 190.39 228.86 190.16 228.801 189.972L242.813 176.525C234.837 179.043 227.813 177.574 225.298 176.525C225.208 177.669 224.274 180.13 221.256 180.817C216.675 184.154 206.489 187.054 202.393 171.947C202.662 173.664 202.501 177.441 199.698 178.814Z" fill="#5E8DB1"/>
<path d="M179.218 248.624C179.218 249.768 177.063 251.389 175.985 252.057C176.703 253.583 178.087 256.463 177.871 255.776C177.656 255.09 178.68 252.248 179.218 250.912H180.835L179.218 248.624Z" fill="black"/>
<path d="M223.411 252.057C222.333 251.389 220.178 249.768 220.178 248.624L218.561 250.912H220.178C220.717 252.248 221.741 255.09 221.525 255.776C221.309 256.463 222.693 253.583 223.411 252.057Z" fill="black"/>
<path d="M199.698 281.24V315C201.495 313.856 206.111 311.567 210.207 311.567C210.926 311.471 212.471 311.567 212.902 312.711C214.694 311.602 216.867 309.468 218.192 306.417C220.055 302.125 220.241 296.018 215.327 288.392C216.675 291.158 218.345 296.804 214.249 297.261C210.153 297.719 205.536 286.771 203.74 281.24L201.854 272.942C201.495 275.231 200.56 280.095 199.698 281.24Z" fill="#223856"/>
<path d="M261.676 288.392C261.766 291.539 261.137 298.978 257.903 303.556C262.664 300.599 271.646 292.512 269.49 283.814C268.952 278.474 268.143 272.084 272.455 261.784C275.734 253.951 277.247 241.312 277.305 235.463C281.51 234.986 291.57 232.888 298.165 228.31C289.483 231.78 276.942 233.157 263.293 225.449C243.029 214.005 233.112 209.046 230.687 207.997C228.742 207.424 224.707 206.623 224.131 207.997C225.3 208.737 226.51 210.142 227.587 212.574C227.819 213.098 228.044 213.669 228.262 214.291C228.471 214.888 228.627 215.46 228.736 216.008C228.675 215.721 232.034 210.858 239.31 216.008C245.131 220.127 255.568 225.544 260.059 227.738L273.802 233.746C274.251 235.653 274.449 241.299 271.646 248.624C268.844 255.948 266.167 261.212 265.179 262.929C263.307 266.839 259.771 276.261 260.598 282.67L261.676 288.392Z" fill="#223856"/>
<path d="M184.069 288.392C182.722 291.158 181.051 296.804 185.147 297.261C189.243 297.719 193.86 286.771 195.656 281.24L197.542 272.942C197.902 275.231 198.836 280.095 199.698 281.24V269.509C188.488 266.763 170.326 278.092 170.326 278.092C170.326 278.092 180.476 270.272 183.799 268.651C180.842 269.24 169.618 270.431 162.117 271.18C165.563 270.659 171.159 269.439 178.68 266.934C189.674 263.272 197.273 263.883 199.698 264.645V258.351C199.698 257.97 197.165 257.436 188.111 258.351C176.794 259.496 163.32 272.084 147.421 263.787C134.702 257.15 132.6 244.237 133.139 238.61C134.666 232.411 140.576 222.13 152.002 230.599C163.427 239.068 188.65 243.474 199.698 244.618L199.698 234.318C198.441 234.7 195.225 234.948 192.422 232.888C189.62 230.828 185.865 227.07 184.338 225.449C182.722 224.114 179.165 221.844 177.871 223.446C176.578 225.048 177.871 226.212 178.68 226.593C175.271 225.887 169.308 222.812 170.661 216.008C170.721 215.721 167.362 210.858 160.086 216.008C154.266 220.127 143.828 225.544 139.337 227.738L125.594 233.746C125.145 235.653 124.947 241.299 127.75 248.624C130.552 255.948 133.229 261.212 134.217 262.929C136.089 266.839 139.625 276.261 138.798 282.67L137.72 288.392C143.289 290.586 155.829 295.774 161.434 298.978C167.039 302.182 176.95 305.272 181.205 306.417C179.341 302.125 179.155 296.018 184.069 288.392Z" fill="#527D9D"/>
<path d="M199.698 234.318L199.698 244.618C210.746 243.474 235.969 239.068 247.394 230.599C258.82 222.13 264.73 232.411 266.257 238.61C266.796 244.237 264.694 257.15 251.975 263.787C236.077 272.084 222.603 259.496 211.285 258.351C202.231 257.436 199.698 257.97 199.698 258.351V264.645C202.123 263.883 209.722 263.272 220.717 266.934C228.237 269.439 233.833 270.659 237.279 271.18C229.779 270.431 218.554 269.24 215.597 268.651C218.92 270.272 229.07 278.092 229.07 278.092C229.07 278.092 210.908 266.763 199.698 269.509V281.24C200.56 280.095 201.495 275.231 201.854 272.942L203.74 281.24C205.536 286.771 210.153 297.719 214.249 297.261C218.345 296.804 216.675 291.158 215.327 288.392C220.241 296.018 220.055 302.125 218.192 306.417C222.446 305.272 232.358 302.182 237.963 298.978C243.567 295.774 256.107 290.586 261.676 288.392L260.598 282.67C259.771 276.261 263.307 266.839 265.179 262.929C266.167 261.212 268.844 255.948 271.646 248.624C274.449 241.299 274.251 235.653 273.802 233.746L260.059 227.738C255.568 225.544 245.131 220.127 239.31 216.008C232.034 210.858 228.675 215.721 228.736 216.008C230.088 222.812 224.125 225.887 220.717 226.593C221.525 226.212 222.819 225.048 221.525 223.446C220.232 221.844 216.675 224.114 215.058 225.449C213.531 227.07 209.776 230.828 206.974 232.888C204.171 234.948 200.956 234.7 199.698 234.318Z" fill="#5E8DB1"/>
<path d="M269.49 283.814C275.688 280.667 289 272.828 292.665 266.648C297.156 257.874 306.462 236.779 307.755 222.588C305.673 224.456 302.372 226.629 298.165 228.31C291.57 232.888 281.51 234.986 277.305 235.463C277.247 241.312 275.734 253.951 272.455 261.784C268.143 272.084 268.952 278.474 269.49 283.814Z" fill="#375C7E"/>
</svg>
