<svg width="457" height="406" viewBox="0 0 457 406" fill="none" xmlns="http://www.w3.org/2000/svg">
<path fill-rule="evenodd" clip-rule="evenodd" d="M139.022 80.9166C104.967 83.0542 85.8103 119.978 80.4891 138.172C77.3688 139.913 69.735 178.956 62.0815 223.048C60.3078 243.533 70.987 285.205 125.719 287.037C142.19 285.892 177.793 280.426 187.22 267.295C185.25 271.319 184.632 275.301 184.632 277.494C184.759 281.566 186.685 290.778 193.374 295.053H195.275C194.261 290.472 194.134 281.922 201.736 284.365C203.257 284.874 207.437 287.037 211.998 291.617C216.559 296.198 224.795 298.615 228.342 299.251V116.033L139.022 80.9166ZM214.659 158.021C206.767 159.908 168.032 141.643 164.959 140.126C178.296 146.758 205.774 160.16 209.718 161.074C213.671 161.991 214.659 159.42 214.659 158.021ZM127.62 156.876C116.977 155.96 103.168 170.235 97.593 177.488C109.756 166.495 118.118 168.072 120.778 170.235C132.307 177.488 160.687 194.664 181.972 205.352C203.257 216.04 214.912 199.881 218.08 190.466C216.94 192.756 211.466 197.031 198.696 195.81C185.925 194.588 145.99 169.345 127.62 156.876ZM108.235 209.551C108.843 202.222 110.769 194.537 111.656 191.611C135.095 199.372 183.264 215.353 188.433 217.185C193.254 218.894 199.111 219.407 201.934 219.469C206.056 218.15 215.152 212.732 220.252 201.348C220.566 200.566 220.859 199.859 221.12 199.245C220.846 199.967 220.556 200.668 220.252 201.348C217.832 207.375 214.168 217.839 213.899 224.056C211.618 225.964 206.297 235.507 191.474 240.851C190.84 245.304 183.872 255.355 161.067 259.936C132.561 265.661 121.538 249.14 120.398 248.727C99.0632 240.606 103.239 219.464 108.235 209.551Z" fill="#E0A178"/>
<path d="M97.593 177.488C103.168 170.235 116.977 155.96 127.62 156.876C145.99 169.345 185.925 194.588 198.696 195.81C211.466 197.031 216.94 192.756 218.08 190.466C214.912 199.881 203.257 216.04 181.972 205.352C160.687 194.664 132.307 177.488 120.778 170.235C118.118 168.072 109.756 166.495 97.593 177.488Z" fill="#010101"/>
<path d="M111.656 191.611C110.769 194.537 108.843 202.222 108.235 209.551C115.698 211.764 125.502 214.646 135.601 217.574C150.427 221.871 165.889 226.267 175.51 228.79C177.756 229.379 179.684 229.866 181.212 230.226C183.288 230.715 184.623 230.97 185.012 230.926C189.573 232.326 199.456 231.995 202.496 219.475C202.326 219.475 202.138 219.473 201.934 219.469C199.111 219.407 193.254 218.894 188.433 217.185C183.264 215.353 135.095 199.372 111.656 191.611Z" fill="#010101"/>
<path d="M169.429 252.683C164.108 254.719 147.384 256.959 123.059 249.63C122.131 249.35 121.244 249.049 120.398 248.727C121.538 249.14 132.561 265.661 161.067 259.936C183.872 255.355 190.84 245.304 191.474 240.851C185.697 247.263 174.37 251.411 169.429 252.683Z" fill="#010101"/>
<path d="M123.059 249.63C147.384 256.959 164.108 254.719 169.429 252.683C174.37 251.411 185.697 247.263 191.474 240.851C190.967 239.875 188.205 236.384 181.212 230.226C179.684 229.866 177.756 229.379 175.51 228.79C174.902 245.403 161.574 248.842 154.986 248.485C129.9 242.759 136.362 218.33 135.601 217.574C125.502 214.646 115.698 211.764 108.235 209.551C103.239 219.464 99.0632 240.606 120.398 248.727C121.244 249.049 122.131 249.35 123.059 249.63Z" fill="white"/>
<path d="M135.601 217.574C136.362 218.33 129.9 242.759 154.986 248.485C161.574 248.842 174.902 245.403 175.51 228.79C165.889 226.267 150.427 221.871 135.601 217.574Z" fill="#F8861D"/>
<path d="M135.601 364.904C154.732 376.228 200.064 400.174 228.342 405.365V337.422C215.419 337.549 183.188 341.773 157.646 357.652C152.634 360.324 141.91 363.607 139.106 355.362C138.519 355.375 137.981 355.374 137.502 355.362C118.498 351.163 128.269 333.605 128.38 332.841C127.113 340.603 129.292 354.522 148.144 348.109C170.569 336.658 186.111 329.024 187.272 328.261C188.433 327.497 199.076 321.772 228.342 321.008V304.977C224.921 304.977 219.22 303.45 215.039 299.633C211.295 296.214 209.338 295.053 208.198 295.053H195.275H193.374C186.685 290.778 184.759 281.566 184.632 277.494C184.632 275.301 185.25 271.319 187.22 267.295C177.793 280.426 142.19 285.892 125.719 287.037C70.987 285.205 60.3078 243.533 62.0815 223.048C59.0183 240.696 55.9519 259.152 53.1704 276.349C50.7119 291.55 48.4759 305.768 46.6616 317.573C69.4192 332.995 99.3511 350.101 135.601 364.904Z" fill="#93705A"/>
<path d="M148.144 348.109C129.292 354.522 127.113 340.603 128.38 332.841C128.269 333.605 118.498 351.163 137.502 355.362C137.981 355.374 138.519 355.375 139.106 355.362C144.724 355.238 154.801 353.85 160.307 348.873C166.388 343.376 182.352 334.877 189.573 331.315C194.895 328.897 210.098 324.215 228.342 324.826V321.008C199.076 321.772 188.433 327.497 187.272 328.261C186.111 329.024 170.569 336.658 148.144 348.109Z" fill="#010101"/>
<path d="M189.573 331.315C182.352 334.877 166.388 343.376 160.307 348.873C154.801 353.85 144.724 355.238 139.106 355.362C141.91 363.607 152.634 360.324 157.646 357.652C183.188 341.773 215.419 337.549 228.342 337.422V324.826C210.098 324.215 194.895 328.897 189.573 331.315Z" fill="#6D503F"/>
<path d="M201.736 284.365C194.134 281.922 194.261 290.472 195.275 295.053H208.198C209.338 295.053 211.295 296.214 215.039 299.633C219.22 303.45 224.921 304.977 228.342 304.977V299.251C224.795 298.615 216.559 296.198 211.998 291.617C207.437 287.037 203.257 284.874 201.736 284.365Z" fill="#010302"/>
<path d="M187.293 12.9733C186.533 13.355 150.425 14.8818 95.6925 40.8377C94.5523 40.8377 87.3307 46.1816 74.7879 45.7999C66.1726 53.5612 48.2579 92.5968 45.5213 186.649C46.2815 187.794 58.4442 205.352 56.9239 215.658C55.7076 223.903 54.6434 226.728 54.2633 227.109C46.6616 230.672 34.2708 245.507 45.5213 276.349H53.1704C55.9519 259.152 59.0183 240.696 62.0815 223.048C69.735 178.956 77.3688 139.913 80.4891 138.172C85.8103 119.978 104.967 83.0542 139.022 80.9166L228.342 116.033V27.8598C222.612 27.9822 213.792 28.2696 205.537 28.7389C196.634 29.245 188.39 29.9627 185.393 30.9134C184.632 27.2236 183.948 18.4699 187.293 12.9733Z" fill="#313236"/>
<path fill-rule="evenodd" clip-rule="evenodd" d="M45.5213 186.649C43.8743 185.249 39.7441 183.29 36.3993 186.649C28.6709 195.937 10.6296 227.567 0.29126 279.784C7.65372 287.821 23.4146 301.819 46.6616 317.573C48.4759 305.768 50.7119 291.55 53.1704 276.349H45.5213C34.2708 245.507 46.6616 230.672 54.2633 227.109C54.6434 226.728 55.7076 223.903 56.9239 215.658C58.4442 205.352 46.2815 187.794 45.5213 186.649ZM41.3404 205.352C28.4175 203.825 28.4175 233.217 27.6574 240.469C31.3062 228.865 38.2997 219.094 41.3404 215.658L46.2815 223.048C47.706 211.555 43.581 206.462 41.3404 205.352Z" fill="#736359"/>
<path d="M27.6574 240.469C28.4175 233.217 28.4175 203.825 41.3404 205.352C43.581 206.462 47.706 211.555 46.2815 223.048L41.3404 215.658C38.2997 219.094 31.3062 228.865 27.6574 240.469Z" fill="#4C4139"/>
<path d="M202.496 219.475C199.456 231.995 189.573 232.326 185.012 230.926C184.623 230.97 183.288 230.715 181.212 230.226C188.205 236.384 190.967 239.875 191.474 240.851C206.297 235.507 211.618 225.964 213.899 224.056C214.168 217.839 217.832 207.375 220.252 201.348C215.152 212.732 206.056 218.15 201.934 219.469C202.138 219.473 202.326 219.475 202.496 219.475Z" fill="#625046"/>
<path d="M187.293 12.9733C183.948 18.4699 184.632 27.2236 185.393 30.9134C188.39 29.9627 196.634 29.245 205.537 28.7389C204.912 22.5325 206.035 10.6014 213.899 4.52296C208.578 2.3776 195.807 1.06416 187.293 12.9733Z" fill="#F6B746"/>
<path d="M164.959 140.126C168.032 141.643 206.767 159.908 214.659 158.021C214.659 159.42 213.671 161.991 209.718 161.074C205.774 160.16 178.296 146.758 164.959 140.126Z" fill="#625046"/>
<path d="M359.091 177.488C353.517 170.235 339.707 155.96 329.065 156.876C310.694 169.345 270.76 194.588 257.989 195.81C245.218 197.031 239.745 192.756 238.604 190.466C241.772 199.881 253.428 216.04 274.712 205.352C295.997 194.664 324.377 177.488 335.906 170.235C338.567 168.072 346.928 166.495 359.091 177.488Z" fill="#010101"/>
<path d="M345.028 191.611C345.915 194.537 347.841 202.222 348.449 209.551C340.986 211.764 331.182 214.646 321.083 217.574C306.257 221.871 290.796 226.267 281.174 228.79C278.928 229.379 277 229.866 275.473 230.226C273.397 230.715 272.061 230.97 271.672 230.926C267.111 232.326 257.229 231.995 254.188 219.475C254.359 219.475 254.547 219.473 254.75 219.469C257.573 219.407 263.43 218.894 268.251 217.185C273.42 215.353 321.59 199.372 345.028 191.611Z" fill="#010101"/>
<path d="M287.255 252.683C292.576 254.719 309.3 256.959 333.626 249.63C334.554 249.35 335.44 249.049 336.286 248.727C335.146 249.14 324.123 265.661 295.617 259.936C272.812 255.355 265.844 245.304 265.21 240.851C270.988 247.263 282.314 251.411 287.255 252.683Z" fill="#010101"/>
<path d="M333.626 249.63C309.3 256.959 292.576 254.719 287.255 252.683C282.314 251.411 270.988 247.263 265.21 240.851C265.717 239.875 268.479 236.384 275.473 230.226C277 229.866 278.928 229.379 281.174 228.79C281.782 245.403 295.11 248.842 301.698 248.485C326.784 242.759 320.323 218.33 321.083 217.574C331.182 214.646 340.986 211.764 348.449 209.551C353.445 219.464 357.621 240.606 336.286 248.727C335.44 249.049 334.554 249.35 333.626 249.63Z" fill="white"/>
<path d="M321.083 217.574C320.323 218.33 326.784 242.759 301.698 248.485C295.11 248.842 281.782 245.403 281.174 228.79C290.796 226.267 306.257 221.871 321.083 217.574Z" fill="#F8861D"/>
<path d="M308.54 348.109C327.392 354.522 329.571 340.603 328.304 332.841C328.415 333.605 338.187 351.163 319.182 355.362C318.703 355.374 318.165 355.375 317.578 355.362C311.96 355.238 301.884 353.85 296.377 348.873C290.296 343.376 274.332 334.877 267.111 331.315C261.79 328.897 246.586 324.215 228.342 324.826V321.008C257.609 321.772 268.251 327.497 269.412 328.261C270.573 329.024 286.115 336.658 308.54 348.109Z" fill="#010101"/>
<path d="M267.111 331.315C274.332 334.877 290.296 343.376 296.377 348.873C301.884 353.85 311.96 355.238 317.578 355.362C314.775 363.607 304.05 360.324 299.038 357.652C273.496 341.773 241.265 337.549 228.342 337.422V324.826C246.586 324.215 261.79 328.897 267.111 331.315Z" fill="#6D503F"/>
<path d="M254.948 284.365C262.55 281.922 262.423 290.472 261.409 295.053H248.487C247.346 295.053 245.39 296.214 241.645 299.633C237.464 303.45 231.763 304.977 228.342 304.977V299.251C231.89 298.615 240.125 296.198 244.686 291.617C249.247 287.037 253.428 284.874 254.948 284.365Z" fill="#010302"/>
<path d="M429.027 240.469C428.267 233.217 428.267 203.825 415.344 205.352C413.103 206.462 408.978 211.555 410.403 223.048L415.344 215.658C418.384 219.094 425.378 228.865 429.027 240.469Z" fill="#4C4139"/>
<path d="M254.188 219.475C257.229 231.995 267.111 232.326 271.672 230.926C272.061 230.97 273.397 230.715 275.473 230.226C268.479 236.384 265.717 239.875 265.21 240.851C250.387 235.507 245.066 225.964 242.785 224.056C242.516 217.839 238.852 207.375 236.433 201.348C241.533 212.732 250.628 218.15 254.75 219.469C254.547 219.473 254.359 219.475 254.188 219.475Z" fill="#625046"/>
<path d="M269.391 12.9733C272.736 18.4699 272.052 27.2236 271.292 30.9134C268.294 29.9627 260.05 29.245 251.147 28.7389C251.772 22.5325 250.649 10.6014 242.785 4.52296C248.107 2.3776 260.877 1.06416 269.391 12.9733Z" fill="#F6B746"/>
<path d="M291.725 140.126C288.652 141.643 249.917 159.908 242.025 158.021C242.025 159.42 243.013 161.991 246.966 161.074C250.91 160.16 278.388 146.758 291.725 140.126Z" fill="#625046"/>
<path d="M228.342 27.8598V116.033L317.662 80.9166C351.718 83.0542 370.874 119.978 376.195 138.172C379.315 139.913 386.949 178.956 394.603 223.048C397.666 240.696 400.732 259.152 403.514 276.349H411.163C422.413 245.507 410.023 230.672 402.421 227.109C402.041 226.728 400.977 223.903 399.76 215.658C398.24 205.352 410.403 187.794 411.163 186.649C408.426 92.5968 390.512 53.5612 381.896 45.7999C369.354 46.1816 362.132 40.8377 360.992 40.8377C306.259 14.8818 270.151 13.355 269.391 12.9733C272.736 18.4699 272.052 27.2236 271.292 30.9134C268.294 29.9627 260.05 29.245 251.147 28.7389C242.893 28.2696 234.072 27.9822 228.342 27.8598Z" fill="#3A3B40"/>
<path fill-rule="evenodd" clip-rule="evenodd" d="M228.342 116.033V299.251C231.89 298.615 240.125 296.198 244.686 291.617C249.247 287.037 253.428 284.874 254.948 284.365C262.55 281.922 262.423 290.472 261.409 295.053H263.31C269.999 290.778 271.925 281.566 272.052 277.494C272.052 275.301 271.434 271.319 269.465 267.295C278.891 280.426 314.495 285.892 330.965 287.037C385.697 285.205 396.376 243.533 394.603 223.048C386.949 178.956 379.315 139.913 376.195 138.172C370.874 119.978 351.718 83.0542 317.662 80.9166L228.342 116.033ZM242.025 158.021C249.917 159.908 288.652 141.643 291.725 140.126C278.388 146.758 250.91 160.16 246.966 161.074C243.013 161.991 242.025 159.42 242.025 158.021ZM329.065 156.876C339.707 155.96 353.517 170.235 359.091 177.488C346.928 166.495 338.567 168.072 335.906 170.235C324.377 177.488 295.997 194.664 274.712 205.352C253.428 216.04 241.772 199.881 238.604 190.466C239.745 192.756 245.218 197.031 257.989 195.81C270.76 194.588 310.694 169.345 329.065 156.876ZM345.028 191.611C345.915 194.537 347.841 202.222 348.449 209.551C353.445 219.464 357.621 240.606 336.286 248.727C335.146 249.14 324.123 265.661 295.617 259.936C272.812 255.355 265.844 245.304 265.21 240.851C250.387 235.507 245.066 225.964 242.785 224.056C242.516 217.839 238.852 207.375 236.433 201.348C236.128 200.668 235.838 199.967 235.564 199.245C235.826 199.859 236.119 200.566 236.433 201.348C241.533 212.732 250.628 218.15 254.75 219.469C257.573 219.407 263.43 218.894 268.251 217.185C273.42 215.353 321.59 199.372 345.028 191.611Z" fill="#EBAB82"/>
<path fill-rule="evenodd" clip-rule="evenodd" d="M420.285 186.649C416.94 183.29 412.81 185.249 411.163 186.649C410.403 187.794 398.24 205.352 399.76 215.658C400.977 223.903 402.041 226.728 402.421 227.109C410.023 230.672 422.413 245.507 411.163 276.349H403.514C405.972 291.55 408.208 305.768 410.023 317.573C433.27 301.819 449.03 287.821 456.393 279.784C446.055 227.567 428.013 195.937 420.285 186.649ZM415.344 205.352C428.267 203.825 428.267 233.217 429.027 240.469C425.378 228.865 418.384 219.094 415.344 215.658L410.403 223.048C408.978 211.555 413.103 206.462 415.344 205.352Z" fill="#8A786C"/>
<path d="M228.342 304.977V321.008C257.609 321.772 268.251 327.497 269.412 328.261C270.573 329.024 286.115 336.658 308.54 348.109C327.392 354.522 329.571 340.603 328.304 332.841C328.415 333.605 338.187 351.163 319.182 355.362C318.703 355.374 318.165 355.375 317.578 355.362C314.775 363.607 304.05 360.324 299.038 357.652C273.496 341.773 241.265 337.549 228.342 337.422V405.365C256.62 400.174 301.952 376.228 321.083 364.904C357.333 350.101 387.265 332.995 410.023 317.573C408.208 305.768 405.972 291.55 403.514 276.349C400.732 259.152 397.666 240.696 394.603 223.048C396.376 243.533 385.697 285.205 330.965 287.037C314.495 285.892 278.891 280.426 269.465 267.295C271.434 271.319 272.052 275.301 272.052 277.494C271.925 281.566 269.999 290.778 263.31 295.053H261.409H248.487C247.346 295.053 245.39 296.214 241.645 299.633C237.464 303.45 231.763 304.977 228.342 304.977Z" fill="#A07A62"/>
<path d="M205.537 28.7389C213.792 28.2696 222.612 27.9822 228.342 27.8598V0.758789C223.477 0.758789 220.74 1.26773 219.98 1.5222C217.606 2.17249 215.596 3.21151 213.899 4.52296C206.035 10.6014 204.912 22.5325 205.537 28.7389Z" fill="#EEA139"/>
<path d="M228.342 0.758789V27.8598C234.072 27.9822 242.893 28.2696 251.147 28.7389C251.772 22.5325 250.649 10.6014 242.785 4.52296C241.089 3.21151 239.078 2.17249 236.704 1.5222C235.944 1.26773 233.207 0.758789 228.342 0.758789Z" fill="#EEA139"/>
</svg>
