<svg width="400" height="315" viewBox="0 0 400 315" fill="none" xmlns="http://www.w3.org/2000/svg">
<g clip-path="url(#clip0_659_276)">
<path fill-rule="evenodd" clip-rule="evenodd" d="M62.7451 86.1575C52.1856 167.657 16.5152 202.457 0 209.67C10.49 208.37 23.6932 201.273 34.0507 194.597C43.5255 188.49 50.6191 182.736 51.076 182.095C52.3655 179.96 54.5175 177.781 57.3888 175.58C63.5073 170.891 72.8918 166.1 84.1557 161.414C89.4099 159.228 95.073 157.065 101.004 154.946C112.399 150.874 124.783 146.963 137.159 143.361C141.704 142.038 146.248 140.757 150.741 139.524C169.182 134.467 186.772 130.233 200.096 127.328L200.001 0.00335889C162.813 6.74389 105.659 24.497 81.6834 32.5396C68.5222 58.5826 63.574 79.1361 62.7451 86.1575ZM89.144 80.4128C95.0741 69.4977 90.6743 58.0081 89.144 55.3272C101.004 71.7956 100.239 77.9234 101.387 87.881C102.305 95.8471 98.4537 100.009 96.4132 101.094C98.2496 97.1109 97.561 94.3279 96.9871 93.4342C93.9263 93.5874 92.9061 100.136 92.7786 103.392C93.9263 123.307 106.552 119.094 107.317 119.477C107.317 119.477 102.458 122.082 95.2654 119.477C88.0727 116.873 85.5093 106.137 85.1267 101.094C84.4891 97.8386 84.3998 89.1448 89.144 80.4128Z" fill="#1B412C"/>
<path d="M89.144 55.3272C90.6743 58.0081 95.0741 69.4977 89.144 80.4128C84.3998 89.1448 84.4891 97.8386 85.1267 101.094C85.5093 106.137 88.0727 116.873 95.2654 119.477C102.458 122.082 107.317 119.477 107.317 119.477C106.552 119.094 93.9263 123.307 92.7786 103.392C92.9061 100.136 93.9263 93.5874 96.9871 93.4342C97.561 94.3279 98.2496 97.1109 96.4132 101.094C98.4537 100.009 102.305 95.8471 101.387 87.881C100.239 77.9234 101.004 71.7956 89.144 55.3272Z" fill="#B97A39"/>
<path d="M175.801 188.415C172.485 181.776 161.339 166.661 143.281 159.308C137.478 157.265 123.539 153.027 114.204 152.414C114.459 153.435 115.352 155.746 116.882 156.818C115.415 157.201 111.755 157.737 108.847 156.818C108.975 157.201 109.651 158.235 111.334 159.308C109.549 159.308 105.442 158.733 103.3 156.435C103.555 157.52 104.868 160.035 108.082 161.414C107.317 161.925 104.524 162.716 99.4739 161.797C100.43 162.244 102.305 163.444 102.152 164.669C101.999 165.895 97.8798 166.074 95.8393 166.01C96.0944 167.733 97.8288 171.64 102.726 173.478C103.172 173.861 103.147 174.895 99.4739 175.968C101.961 176.223 106.781 177.653 106.169 181.329C105.557 181.329 103.619 181.968 102.726 182.287C104.639 183.117 108.656 185.504 109.421 188.415C110.187 191.325 116.117 196.393 118.986 198.564C123.258 202.138 133.716 208.981 141.368 207.755C149.02 206.53 153.228 205.074 154.376 204.5C138.69 206.415 132.951 203.159 123.003 196.074C115.045 190.406 111.143 177.882 110.187 172.329C114.365 167.733 124.298 165.308 128.742 164.669C140.373 165.589 152.846 171.819 157.628 174.819C159.403 176.313 161.976 178.483 164.323 180.466C167.288 182.972 169.891 185.18 170.062 185.351C172.052 187.036 174.717 188.095 175.801 188.415Z" fill="#020202"/>
<path d="M154.376 204.5C157.628 203.351 164.706 200.21 167.001 196.84C169.297 193.47 170.253 190.457 170.445 189.372C170.7 188.606 170.98 186.729 170.062 185.351C169.891 185.18 167.288 182.972 164.323 180.466C160.497 193.104 150.741 196.137 146.341 196.074C128.283 196.074 127.084 175.138 128.742 164.669C124.298 165.308 114.365 167.733 110.187 172.329C111.143 177.882 115.045 190.406 123.003 196.074C132.951 203.159 138.69 206.415 154.376 204.5Z" fill="white"/>
<path d="M157.628 174.819C152.846 171.819 140.373 165.589 128.742 164.669C127.084 175.138 128.283 196.074 146.341 196.074C150.741 196.137 160.497 193.104 164.323 180.466C161.976 178.483 159.403 176.313 157.628 174.819Z" fill="#FFA115"/>
<path d="M0 209.67C7.26925 214.968 26.7814 228.283 46.6762 239.16C58.1254 245.419 93.0158 262.718 128.742 280.231C127.62 279.681 110.235 256.394 102.152 239.16C101.159 237.375 100.209 235.245 99.3034 232.859C92.7238 217.781 88.0289 203.398 85.5093 196.84C84.8112 195.023 84.1879 193.125 83.6458 191.287C82.4815 195.564 82.2956 207.296 90.8656 220.011C90.8656 220.011 82.3721 211.815 79.7704 200.479C79.5791 195.982 79.0053 186.307 78.2401 183.584C72.8193 187.273 66.6958 189.623 60.067 189.372C57.9627 189.423 49.8135 190.538 34.0507 194.597C23.6932 201.273 10.49 208.37 0 209.67Z" fill="#0D1015"/>
<path d="M179.436 153.18C170.062 148.967 151.2 140.338 150.741 139.524C146.248 140.757 141.704 142.038 137.159 143.361C146.648 155.727 169.297 166.804 179.436 170.797C181.094 169.648 184.448 167.082 184.601 166.01C184.754 164.938 181.221 157.01 179.436 153.18Z" fill="#E73C28"/>
<path d="M63.319 174.244C75.5552 171.002 83.052 163.185 84.0457 161.631C84.0827 161.559 84.1193 161.487 84.1557 161.414C72.8918 166.1 63.5073 170.891 57.3888 175.58L63.319 174.244Z" fill="#E73C28"/>
<path fill-rule="evenodd" clip-rule="evenodd" d="M51.076 182.095C50.6191 182.736 43.5255 188.49 34.0507 194.597C49.8135 190.538 57.9627 189.423 60.067 189.372C66.6958 189.623 72.8193 187.273 78.2401 183.584C79.2769 182.878 80.288 182.124 81.2721 181.329C86.3096 177.262 90.6371 172.143 94.0694 167.159C97.1435 162.695 99.4996 158.34 101.004 154.946C95.073 157.065 89.4099 159.228 84.1557 161.414C84.1452 161.46 84.1084 161.533 84.0457 161.631C81.1518 167.265 76.4557 171.398 71.5447 173.478C67.5658 175.163 60.4495 175.582 57.3888 175.58C54.5175 177.781 52.3655 179.96 51.076 182.095ZM92.396 160.648C76.7097 184.393 50.5022 185.159 49.1631 185.542C56.6236 185.542 73.0751 182.287 78.2401 179.414C82.3721 177.116 89.399 165.946 92.396 160.648Z" fill="#E73C28"/>
<path d="M84.0457 161.631C83.052 163.185 75.5552 171.002 63.319 174.244L57.3888 175.58C60.4495 175.582 67.5658 175.163 71.5447 173.478C76.4557 171.398 81.1518 167.265 84.0457 161.631Z" fill="#B62F1F"/>
<path d="M49.1631 185.542C50.5022 185.159 76.7097 184.393 92.396 160.648C89.399 165.946 82.3721 177.116 78.2401 179.414C73.0751 182.287 56.6236 185.542 49.1631 185.542Z" fill="#B62F1F"/>
<path d="M90.8656 220.011C82.2956 207.296 82.4815 195.564 83.6458 191.287C82.7881 188.38 82.1334 185.624 81.7061 183.584C81.5154 182.673 81.37 181.905 81.2721 181.329C80.288 182.124 79.2769 182.878 78.2401 183.584C79.0053 186.307 79.5791 195.982 79.7704 200.479C82.3721 211.815 90.8656 220.011 90.8656 220.011Z" fill="#B62F1F"/>
<path d="M128.742 280.231C127.594 278.477 122.123 269.186 109.421 246.054C103.116 234.571 99.2449 219.154 96.966 204.5C96.6149 202.242 96.3016 200.002 96.023 197.798C94.723 187.511 94.1793 177.992 94.0793 170.989C92.8016 172.862 90.5006 175.902 87.9733 178.576C89.352 191.041 93.5107 217.594 99.3034 232.859C100.217 234.952 101.167 237.059 102.152 239.16C110.235 256.394 127.62 279.681 128.742 280.231Z" fill="#E73C28"/>
<path d="M94.0694 167.159C90.6371 172.143 86.3096 177.262 81.2721 181.329C81.37 181.905 81.5154 182.673 81.7061 183.584C83.651 182.738 85.8891 180.782 87.9733 178.576C90.5006 175.902 92.8016 172.862 94.0793 170.989C94.0596 169.61 94.0571 168.329 94.0694 167.159Z" fill="#B62F1F"/>
<path d="M85.5093 196.84C88.0289 203.398 92.7238 217.781 99.3034 232.859C93.5107 217.594 89.352 191.041 87.9733 178.576C85.8891 180.782 83.651 182.738 81.7061 183.584C82.1334 185.624 82.7881 188.38 83.6458 191.287C84.1879 193.125 84.8112 195.023 85.5093 196.84Z" fill="#9F2C1E"/>
<path d="M128.742 280.231C155.096 293.149 181.905 306.185 200.096 314.991V255.916L188.678 200.479C184.763 201.725 180.465 203.091 176.028 204.5C161.895 208.987 146.339 213.907 137.159 216.755C118.03 222.692 97.561 204.5 96.966 204.5C99.2449 219.154 103.116 234.571 109.421 246.054C122.123 269.186 127.594 278.477 128.742 280.231Z" fill="#1B412C"/>
<path d="M125.108 213.309C115.925 213.309 101.892 202.968 96.023 197.798C96.3016 200.002 96.6149 202.242 96.966 204.5C97.561 204.5 118.03 222.692 137.159 216.755C146.339 213.907 161.895 208.987 176.028 204.5C180.465 203.091 184.763 201.725 188.678 200.479C193.082 199.077 196.973 197.837 200.067 196.849V193.594V193.678L192.635 196.84L153.802 208.521C148.063 210.117 134.29 213.309 125.108 213.309Z" fill="#153322"/>
<path d="M200.067 196.849C196.973 197.837 193.082 199.077 188.678 200.479L200.096 255.916L200.067 196.849Z" fill="#207245"/>
<path d="M310.856 55.3272C309.326 58.0081 304.926 69.4977 310.856 80.4128C315.6 89.1448 315.511 97.8386 314.873 101.094C314.491 106.137 311.927 116.873 304.735 119.477C297.542 122.082 292.683 119.477 292.683 119.477C293.448 119.094 306.074 123.307 307.221 103.392C307.094 100.136 306.074 93.5874 303.013 93.4342C302.439 94.3279 301.75 97.1109 303.587 101.094C301.546 100.009 297.695 95.8471 298.613 87.881C299.761 77.9234 298.996 71.7956 310.856 55.3272Z" fill="#B97A39"/>
<path d="M224.199 188.415C227.515 181.776 238.661 166.661 256.719 159.308C262.522 157.265 276.461 153.027 285.796 152.414C285.541 153.435 284.648 155.746 283.118 156.818C284.585 157.201 288.245 157.737 291.153 156.818C291.025 157.201 290.349 158.235 288.666 159.308C290.451 159.308 294.558 158.733 296.7 156.435C296.445 157.52 295.132 160.035 291.918 161.414C292.683 161.925 295.476 162.716 300.526 161.797C299.57 162.244 297.695 163.444 297.848 164.669C298.001 165.895 302.12 166.074 304.161 166.01C303.906 167.733 302.171 171.64 297.274 173.478C296.828 173.861 296.853 174.895 300.526 175.968C298.039 176.223 293.219 177.653 293.831 181.329C294.443 181.329 296.381 181.968 297.274 182.287C295.361 183.117 291.344 185.504 290.579 188.415C289.813 191.325 283.883 196.393 281.014 198.564C276.742 202.138 266.284 208.981 258.632 207.755C250.98 206.53 246.772 205.074 245.624 204.5C261.31 206.415 267.049 203.159 276.997 196.074C284.955 190.406 288.857 177.882 289.813 172.329C285.635 167.733 275.702 165.308 271.258 164.669C259.627 165.589 247.154 171.819 242.372 174.819C240.597 176.313 238.024 178.483 235.677 180.466C232.711 182.972 230.109 185.18 229.938 185.351C227.948 187.036 225.283 188.095 224.199 188.415Z" fill="#020202"/>
<path d="M245.624 204.5C242.372 203.351 235.294 200.21 232.999 196.84C230.703 193.47 229.747 190.457 229.555 189.372C229.3 188.606 229.02 186.729 229.938 185.351C230.109 185.18 232.711 182.972 235.677 180.466C239.503 193.104 249.259 196.137 253.659 196.074C271.717 196.074 272.916 175.138 271.258 164.669C275.702 165.308 285.635 167.733 289.813 172.329C288.857 177.882 284.955 190.406 276.997 196.074C267.049 203.159 261.31 206.415 245.624 204.5Z" fill="white"/>
<path d="M242.372 174.819C247.154 171.819 259.627 165.589 271.258 164.669C272.916 175.138 271.717 196.074 253.659 196.074C249.259 196.137 239.503 193.104 235.677 180.466C238.024 178.483 240.597 176.313 242.372 174.819Z" fill="#FFA115"/>
<path d="M400 209.67C392.731 214.968 373.219 228.283 353.324 239.16C341.875 245.419 306.984 262.718 271.258 280.231C272.38 279.681 289.765 256.394 297.848 239.16C298.841 237.375 299.791 235.245 300.697 232.859C307.276 217.781 311.971 203.398 314.491 196.84C315.189 195.023 315.812 193.125 316.354 191.287C317.518 195.564 317.704 207.296 309.134 220.011C309.134 220.011 317.628 211.815 320.23 200.479C320.421 195.982 320.995 186.307 321.76 183.584C327.181 187.273 333.304 189.623 339.933 189.372C342.037 189.423 350.187 190.538 365.949 194.597C376.307 201.273 389.51 208.37 400 209.67Z" fill="#0D1015"/>
<path d="M220.564 153.18C229.938 148.967 248.8 140.338 249.259 139.524C253.752 140.757 258.296 142.038 262.841 143.361C253.352 155.727 230.703 166.804 220.564 170.797C218.906 169.648 215.552 167.082 215.399 166.01C215.246 164.938 218.779 157.01 220.564 153.18Z" fill="#E73C28"/>
<path d="M336.681 174.244C324.445 171.002 316.948 163.185 315.954 161.631C315.917 161.559 315.881 161.487 315.844 161.414C327.108 166.1 336.493 170.891 342.611 175.58L336.681 174.244Z" fill="#E73C28"/>
<path fill-rule="evenodd" clip-rule="evenodd" d="M348.924 182.095C349.381 182.736 356.474 188.49 365.949 194.597C350.187 190.538 342.037 189.423 339.933 189.372C333.304 189.623 327.181 187.273 321.76 183.584C320.723 182.878 319.712 182.124 318.728 181.329C313.69 177.262 309.363 172.143 305.931 167.159C302.856 162.695 300.5 158.34 298.996 154.946C304.927 157.065 310.59 159.228 315.844 161.414C315.855 161.46 315.892 161.533 315.954 161.631C318.848 167.265 323.544 171.398 328.455 173.478C332.434 175.163 339.55 175.582 342.611 175.58C345.482 177.781 347.635 179.96 348.924 182.095ZM307.604 160.648C323.29 184.393 349.498 185.159 350.837 185.542C343.376 185.542 326.925 182.287 321.76 179.414C317.628 177.116 310.601 165.946 307.604 160.648Z" fill="#E73C28"/>
<path d="M315.954 161.631C316.948 163.185 324.445 171.002 336.681 174.244L342.611 175.58C339.55 175.582 332.434 175.163 328.455 173.478C323.544 171.398 318.848 167.265 315.954 161.631Z" fill="#B62F1F"/>
<path d="M350.837 185.542C349.498 185.159 323.29 184.393 307.604 160.648C310.601 165.946 317.628 177.116 321.76 179.414C326.925 182.287 343.376 185.542 350.837 185.542Z" fill="#B62F1F"/>
<path d="M309.134 220.011C317.704 207.296 317.518 195.564 316.354 191.287C317.212 188.38 317.867 185.624 318.294 183.584C318.485 182.673 318.63 181.905 318.728 181.329C319.712 182.124 320.723 182.878 321.76 183.584C320.995 186.307 320.421 195.982 320.23 200.479C317.628 211.815 309.134 220.011 309.134 220.011Z" fill="#B62F1F"/>
<path d="M271.258 280.231C272.406 278.477 277.877 269.186 290.579 246.054C296.884 234.571 300.755 219.154 303.034 204.5C303.385 202.242 303.698 200.002 303.977 197.798C305.277 187.511 305.821 177.992 305.921 170.989C307.198 172.862 309.499 175.902 312.027 178.576C310.648 191.041 306.489 217.594 300.697 232.859C299.783 234.952 298.833 237.059 297.848 239.16C289.765 256.394 272.38 279.681 271.258 280.231Z" fill="#E73C28"/>
<path d="M305.931 167.159C309.363 172.143 313.69 177.262 318.728 181.329C318.63 181.905 318.485 182.673 318.294 183.584C316.349 182.738 314.111 180.782 312.027 178.576C309.499 175.902 307.198 172.862 305.921 170.989C305.94 169.61 305.943 168.329 305.931 167.159Z" fill="#B62F1F"/>
<path d="M314.491 196.84C311.971 203.398 307.276 217.781 300.697 232.859C306.489 217.594 310.648 191.041 312.027 178.576C314.111 180.782 316.349 182.738 318.294 183.584C317.867 185.624 317.212 188.38 316.354 191.287C315.812 193.125 315.189 195.023 314.491 196.84Z" fill="#9F2C1E"/>
<path d="M200.067 193.594L200.096 184.202L205.081 186.831C206.612 189.239 206.684 190.787 206.763 192.47C206.822 193.732 206.885 195.069 207.568 196.901L200.067 193.594Z" fill="#F4AE80"/>
<path d="M274.892 213.309C284.075 213.309 298.108 202.968 303.977 197.798C303.698 200.002 303.385 202.242 303.034 204.5C302.439 204.5 281.97 222.692 262.841 216.755C253.661 213.907 238.105 208.987 223.972 204.5C219.535 203.091 215.237 201.725 211.322 200.479C207.009 199.106 203.13 197.827 200.067 196.849C200.13 196.87 200.002 196.829 200.067 196.849V193.678V193.594L207.568 196.901L207.365 196.84L246.198 208.521C251.937 210.117 265.71 213.309 274.892 213.309Z" fill="#153322"/>
<path fill-rule="evenodd" clip-rule="evenodd" d="M400 209.67C383.485 202.457 347.814 167.657 337.255 86.1575C336.426 79.1361 331.478 58.5826 318.317 32.5396C294.382 24.5107 237.193 6.77001 200.001 0.00335889L200.096 127.328V127.37C201.702 127.721 203.37 128.091 205.094 128.479C209.867 129.554 215.066 130.769 220.564 132.106C229.516 134.283 239.263 136.783 249.259 139.524C253.752 140.757 258.296 142.038 262.841 143.361C275.217 146.963 287.601 150.874 298.996 154.946C304.927 157.065 310.59 159.228 315.844 161.414C327.108 166.1 336.493 170.891 342.611 175.58C345.482 177.781 347.635 179.96 348.924 182.095C349.381 182.736 356.474 188.49 365.949 194.597C376.307 201.273 389.51 208.37 400 209.67ZM310.856 80.4128C304.926 69.4977 309.326 58.0081 310.856 55.3272C298.996 71.7956 299.761 77.9234 298.613 87.881C297.695 95.8471 301.546 100.009 303.587 101.094C301.75 97.1109 302.439 94.3279 303.013 93.4342C306.074 93.5874 307.094 100.136 307.221 103.392C306.074 123.307 293.448 119.094 292.683 119.477C292.683 119.477 297.542 122.082 304.735 119.477C311.927 116.873 314.491 106.137 314.873 101.094C315.511 97.8386 315.6 89.1448 310.856 80.4128Z" fill="#407444"/>
<path d="M271.258 280.231C272.406 278.477 277.877 269.186 290.579 246.054C296.884 234.571 300.755 219.154 303.034 204.5C302.439 204.5 281.97 222.692 262.841 216.755C253.661 213.907 238.105 208.987 223.972 204.5C219.535 203.091 215.237 201.725 211.322 200.479L200.096 255.916V314.991C218.282 306.186 244.996 293.104 271.258 280.231Z" fill="#407444"/>
<path d="M200.096 255.916L211.322 200.479C207.009 199.106 203.13 197.827 200.067 196.849L200.096 255.916Z" fill="#4F9054"/>
<path d="M195.122 186.77C193.591 189.178 193.519 190.726 193.44 192.409C193.381 193.67 193.318 195.008 192.635 196.84L200.067 193.678V193.594L200.096 184.202L195.122 186.77Z" fill="#F4AE80"/>
<path fill-rule="evenodd" clip-rule="evenodd" d="M150.741 139.524C169.182 134.467 186.772 130.233 200.096 127.328V127.37V137.907C197.07 143.009 193.275 148.459 189.582 151.523C192.017 151.055 195.796 149.91 200.09 147.921L200.096 147.918V184.202L195.122 186.77C193.591 189.178 193.519 190.726 193.44 192.409C193.381 193.67 193.318 195.008 192.635 196.84L153.802 208.521C148.063 210.117 134.29 213.309 125.108 213.309C115.925 213.309 101.892 202.968 96.023 197.798C94.723 187.511 94.1793 177.992 94.0793 170.989C94.0596 169.61 94.0571 168.329 94.0694 167.159C97.1435 162.695 99.4996 158.34 101.004 154.946C112.399 150.874 124.783 146.963 137.159 143.361C146.648 155.727 169.297 166.804 179.436 170.797C181.094 169.648 184.448 167.082 184.601 166.01C184.754 164.938 181.221 157.01 179.436 153.18C170.062 148.967 151.2 140.338 150.741 139.524ZM175.801 188.415C172.485 181.776 161.339 166.661 143.281 159.308C137.478 157.265 123.539 153.027 114.204 152.414C114.459 153.435 115.352 155.746 116.882 156.818C115.415 157.201 111.755 157.737 108.847 156.818C108.975 157.201 109.651 158.235 111.334 159.308C109.549 159.308 105.442 158.733 103.3 156.435C103.555 157.52 104.868 160.035 108.082 161.414C107.317 161.925 104.524 162.716 99.4739 161.797C100.43 162.244 102.305 163.444 102.152 164.669C101.999 165.895 97.8798 166.074 95.8393 166.01C96.0944 167.733 97.8288 171.64 102.726 173.478C103.172 173.861 103.147 174.895 99.4739 175.968C101.961 176.223 106.781 177.653 106.169 181.329C105.557 181.329 103.619 181.968 102.726 182.287C104.639 183.117 108.656 185.504 109.421 188.415C110.187 191.325 116.117 196.393 118.986 198.564C123.258 202.138 133.716 208.981 141.368 207.755C149.02 206.53 153.228 205.074 154.376 204.5C157.628 203.351 164.706 200.21 167.001 196.84C169.297 193.47 170.253 190.457 170.445 189.372C170.7 188.606 170.98 186.729 170.062 185.351C172.052 187.036 174.717 188.095 175.801 188.415Z" fill="#E0A178"/>
<path fill-rule="evenodd" clip-rule="evenodd" d="M249.259 139.524C248.8 140.338 229.938 148.967 220.564 153.18C218.779 157.01 215.246 164.938 215.399 166.01C215.552 167.082 218.906 169.648 220.564 170.797C230.703 166.804 253.352 155.727 262.841 143.361C275.217 146.963 287.601 150.874 298.996 154.946C300.5 158.34 302.856 162.695 305.931 167.159C305.943 168.329 305.94 169.61 305.921 170.989C305.821 177.992 305.277 187.511 303.977 197.798C298.108 202.968 284.075 213.309 274.892 213.309C265.71 213.309 251.937 210.117 246.198 208.521L207.568 196.901C206.885 195.069 206.822 193.732 206.763 192.47C206.684 190.787 206.612 189.239 205.081 186.831L200.096 184.202V147.918C206.706 144.856 214.536 139.791 220.564 132.106C229.516 134.283 239.263 136.783 249.259 139.524ZM205.094 128.479C203.37 128.091 201.702 127.721 200.096 127.37V137.907C202.265 134.25 204.038 130.771 205.094 128.479ZM256.719 159.308C238.661 166.661 227.515 181.776 224.199 188.415C225.283 188.095 227.948 187.036 229.938 185.351C229.02 186.729 229.3 188.606 229.555 189.372C229.747 190.457 230.703 193.47 232.999 196.84C235.294 200.21 242.372 203.351 245.624 204.5C246.772 205.074 250.98 206.53 258.632 207.755C266.284 208.981 276.742 202.138 281.014 198.564C283.883 196.393 289.813 191.325 290.579 188.415C291.344 185.504 295.361 183.117 297.274 182.287C296.381 181.968 294.443 181.329 293.831 181.329C293.219 177.653 298.039 176.223 300.526 175.968C296.853 174.895 296.828 173.861 297.274 173.478C302.171 171.64 303.906 167.733 304.161 166.01C302.12 166.074 298.001 165.895 297.848 164.669C297.695 163.444 299.57 162.244 300.526 161.797C295.476 162.716 292.683 161.925 291.918 161.414C295.132 160.035 296.445 157.52 296.7 156.435C294.558 158.733 290.451 159.308 288.666 159.308C290.349 158.235 291.025 157.201 291.153 156.818C288.245 157.737 284.585 157.201 283.118 156.818C284.648 155.746 285.541 153.435 285.796 152.414C276.461 153.027 262.522 157.265 256.719 159.308Z" fill="#ECAC82"/>
<path d="M200.096 137.907C197.07 143.009 193.275 148.459 189.582 151.523C192.017 151.055 195.796 149.91 200.09 147.921L200.096 147.918V137.907Z" fill="#E0A178"/>
<path d="M220.564 132.106C215.066 130.769 209.867 129.554 205.094 128.479C204.038 130.771 202.265 134.25 200.096 137.907V147.918C206.706 144.856 214.536 139.791 220.564 132.106Z" fill="#ECAC82"/>
</g>
<defs>
<clipPath id="clip0_659_276">
<rect width="400" height="315" fill="white"/>
</clipPath>
</defs>
</svg>
