<svg width="400" height="315" viewBox="0 0 400 315" fill="none" xmlns="http://www.w3.org/2000/svg">
<path d="M199.715 157.499V166.268C239.306 165.751 282.81 145.482 299.936 135.253C300.026 135.2 300.115 135.146 300.204 135.093L293.5 131.889C264.983 145.953 229.901 158.61 199.715 157.499Z" fill="#F68F46"/>
<path d="M199.715 166.268V176.01C200.28 175.751 208.587 175.036 212.703 174.711C217.543 183.386 227.918 181.429 233.873 178.817C234.517 178.534 235.109 178.244 235.637 177.959C249.318 172.377 263.421 164.94 275.495 157.911C275.503 157.906 275.51 157.902 275.518 157.898C276.212 157.493 276.9 157.09 277.581 156.689C281.99 154.089 286.097 151.565 289.776 149.232C290.169 148.982 290.558 148.735 290.942 148.49C291.199 148.325 291.455 148.161 291.708 147.999C296.467 144.944 300.401 142.278 303.198 140.289C302.011 138.491 300.92 136.805 299.936 135.253C282.81 145.482 239.306 165.751 199.715 166.268Z" fill="#1C1E2B"/>
<path d="M199.715 157.499V166.268C160.125 165.751 116.554 145.482 99.4279 135.253C99.3378 135.2 99.2485 135.146 99.1598 135.093L105.864 131.889C134.38 145.953 169.529 158.61 199.715 157.499Z" fill="#F68F46"/>
<path d="M199.715 166.268V176.01C199.151 175.751 190.777 175.036 186.661 174.711C184.3 178.943 180.621 180.645 176.781 180.974C172.75 181.321 168.541 180.155 165.491 178.817C164.847 178.534 164.255 178.244 163.727 177.959C144.223 170.001 123.862 158.275 109.745 149.331C104.044 145.72 99.362 142.562 96.1656 140.289C97.3527 138.491 98.4436 136.805 99.4279 135.253C116.554 145.482 160.125 165.751 199.715 166.268Z" fill="#1C1E2B"/>
<path d="M199.715 65.9227L199.715 0C180.545 0.324742 136.771 5.65052 115.037 24.3557C109.98 26.8454 98.4542 34.5526 92.809 45.4639C95.2787 36.9124 103.676 16.0423 117.507 0.974227C104.335 9.85052 75.8028 35.3969 67.0528 66.5722L55.0567 100.021C56.3504 101.861 59.6434 105.736 62.466 106.515C72.2538 113.419 87.7158 122.939 105.864 131.889C134.38 145.953 169.529 158.61 199.715 157.499V135.742C196.328 121.713 186.543 118.206 182.074 118.206L186.308 114.959C194.776 106.645 185.249 105.216 179.251 105.216C179.839 104.351 183.248 100.964 185.602 94.8247C187.719 89.3041 183.956 88.5464 181.368 88.6546C189.554 83.1991 197.245 71.0105 199.715 65.9227Z" fill="#4F5054"/>
<path d="M199.715 0L199.715 65.9227C202.185 71.0105 209.81 83.1991 217.995 88.6546C215.408 88.5464 211.645 89.3041 213.762 94.8247C216.116 100.964 219.524 104.351 220.112 105.216C214.114 105.216 204.588 106.645 213.056 114.959L217.29 118.206C212.821 118.206 203.102 121.713 199.715 135.742V157.499C229.901 158.61 264.983 145.953 293.5 131.889C311.648 122.939 327.11 113.419 336.898 106.515C339.72 105.736 343.013 101.861 344.307 100.021L332.311 66.5722C323.561 35.3969 295.029 9.85052 281.857 0.974227C295.688 16.0423 304.085 36.9124 306.555 45.4639C300.909 34.5526 289.384 26.8454 284.327 24.3557C262.593 5.65052 218.885 0.324742 199.715 0Z" fill="#656668"/>
<path d="M199.715 135.742L199.715 65.9227C197.245 71.0105 189.554 83.1991 181.368 88.6546C183.956 88.5464 187.719 89.3041 185.602 94.8247C183.248 100.964 179.839 104.351 179.251 105.216C185.249 105.216 194.776 106.645 186.308 114.959L182.074 118.206C186.543 118.206 196.328 121.713 199.715 135.742Z" fill="#D9DADB"/>
<path d="M199.715 65.9227L199.715 135.742C203.102 121.713 212.821 118.206 217.29 118.206L213.056 114.959C204.588 106.645 214.114 105.216 220.112 105.216C219.524 104.351 216.116 100.964 213.762 94.8247C211.645 89.3041 215.408 88.5464 217.995 88.6546C209.81 83.1991 202.185 71.0105 199.715 65.9227Z" fill="#F5F7F6"/>
<path d="M62.466 106.515C61.7604 109.871 60.4902 118.011 61.0547 123.727C51.9989 139.098 32.123 178.998 25.0665 215.629C24.9393 216.625 24.979 217.98 25.3227 219.526C46.7998 206.588 72.8379 173.855 89.2807 150.395C91.8224 146.769 94.1347 143.364 96.1656 140.289C97.3527 138.491 98.4436 136.805 99.4279 135.253C99.3378 135.2 99.2485 135.146 99.1598 135.093L105.864 131.889C87.7158 122.939 72.2538 113.419 62.466 106.515Z" fill="#34373C"/>
<path d="M163.727 177.959C150.11 172.403 136.075 165.01 124.039 158.01C122.511 166.67 123.493 183.205 138.323 187.052C156.033 191.645 163.593 183.25 165.491 178.817C164.847 178.534 164.255 178.244 163.727 177.959Z" fill="#F68F46"/>
<path d="M102.688 221.149L112.214 254.273L128.241 264.015L116.801 253.624L107.628 221.149C104.523 218.267 103.041 219.948 102.688 221.149Z" fill="#1E1E2B"/>
<path d="M136.118 264.262L142.052 261.36C134.713 241.096 132.913 232.083 133.031 230.242C137.547 229.982 149.967 226.474 155.612 224.753C139.131 227.241 122.686 223.332 109.745 217.966C112.097 219.893 118.636 224.787 125.975 228.943C126.798 233.814 130.19 247.895 136.118 264.262Z" fill="#1E1E2B"/>
<path d="M91.9857 241.933L100.924 257.493L121.741 269.438C126.386 268.645 130.561 267.588 131.973 266.289L128.241 264.015L112.214 254.273L102.116 248.103L91.9857 241.933Z" fill="#818588"/>
<path d="M89.9864 252L105.864 280.902C110.105 280.577 118.488 279.567 125.269 277.763H112.567L108.686 271.006L100.924 257.493L91.9857 241.933L83.9883 237.062L89.9864 252Z" fill="#77787A"/>
<path d="M136.118 264.262L131.973 266.289C130.561 267.588 126.386 268.645 121.741 269.438C117.095 270.231 111.979 270.761 108.686 271.006L112.567 277.763H125.269C127.513 277.166 129.582 276.482 131.267 275.706C135.678 274.118 143.826 270.629 147.144 267.423C147.895 266.697 148.399 265.986 148.555 265.314C149.402 261.677 145.38 260.768 143.263 260.768L142.052 261.36L136.118 264.262Z" fill="#AEB0AF"/>
<path d="M199.715 271.809V264.015C190.118 264.275 170.313 262.175 161.61 261.093L147.144 267.423C143.826 270.629 135.678 274.118 131.267 275.706C143.498 287.072 171.489 308.83 181.368 311.428C184.036 312.602 191.392 314.934 199.715 314.999V274.732C196.069 273.974 186.661 272.978 178.193 275.057C169.976 277.074 163.087 276.399 160.43 275.764C160.336 275.747 160.259 275.727 160.199 275.706C160.272 275.725 160.349 275.745 160.43 275.764C161.801 276.02 166.835 275.864 178.193 273.433C193.364 270.186 198.657 271.809 199.715 271.809Z" fill="#393943"/>
<path d="M162.316 256.222C160.34 251.026 153.965 253.407 151.025 255.247L143.263 260.768C145.38 260.768 149.402 261.677 148.555 265.314C148.399 265.986 147.895 266.697 147.144 267.423L161.61 261.093C163.303 259.534 162.786 257.196 162.316 256.222Z" fill="#2D2D36"/>
<path d="M199.715 256.871V252.65C192.659 251.784 175.935 249.337 165.491 246.479C155.047 243.622 148.673 242.907 146.791 242.907C144.735 243.096 141.637 244.344 143.528 247.778C150.232 250.376 183.78 254.923 199.715 256.871Z" fill="#DFE1E1"/>
<path d="M199.715 264.015V256.871C183.78 254.923 150.232 250.376 143.528 247.778C143.801 248.273 144.177 248.813 144.674 249.402C148.626 254.078 150.672 255.356 151.025 255.247C153.965 253.407 160.34 251.026 162.316 256.222C162.786 257.196 163.303 259.534 161.61 261.093C170.313 262.175 190.118 264.275 199.715 264.015Z" fill="#C4C4C4"/>
<path d="M78.696 175.361C78.696 175.606 79.6911 189.378 83.9883 199.04C85.38 202.17 87.118 204.868 89.2807 206.536C90.0893 207.16 90.9867 207.812 91.9667 208.485C96.4029 211.528 102.529 214.973 109.745 217.966C122.686 223.332 139.131 227.241 155.612 224.753C158.913 224.255 162.215 223.5 165.491 222.448C168.666 220.717 174.453 215.499 172.195 208.485C153.926 215.21 113.369 218.863 86.0509 185.753C85.3546 184.909 84.6669 184.041 83.9883 183.149C82.1531 180.735 80.3851 178.143 78.696 175.361Z" fill="#30303A"/>
<path fill-rule="evenodd" clip-rule="evenodd" d="M199.715 242.258V187.701C193.223 186.662 187.366 190.299 185.249 192.247C176.217 203.678 159.375 205.67 152.084 205.237C118.212 206.276 96.5725 182.289 89.9864 170.165L89.2807 150.395C87.7377 158.609 84.9315 177.179 86.0509 185.753C113.369 218.863 153.926 215.21 172.195 208.485C174.453 215.499 168.666 220.717 165.491 222.448C162.215 223.5 158.913 224.255 155.612 224.753C149.967 226.474 137.547 229.982 133.031 230.242C132.913 232.083 134.713 241.096 142.052 261.36L143.263 260.768L151.025 255.247C150.672 255.356 148.626 254.078 144.674 249.402C144.177 248.813 143.801 248.273 143.528 247.778C141.637 244.344 144.735 243.096 146.791 242.907C148.673 242.907 155.047 243.622 165.491 246.479C175.935 249.337 192.659 251.784 199.715 252.65V247.778C199.715 246.999 194.07 243.773 191.247 242.258C190.071 241.5 185.955 239.335 178.898 236.737C171.842 234.139 174.547 231.974 176.781 231.217C183.273 232.256 194.776 239.01 199.715 242.258ZM83.9883 199.04C85.38 202.17 87.118 204.868 89.2807 206.536C90.0893 207.16 90.9867 207.812 91.9667 208.485C96.4029 211.528 102.529 214.973 109.745 217.966C112.097 219.893 118.636 224.787 125.975 228.943C126.798 233.814 130.19 247.895 136.118 264.262L131.973 266.289L128.241 264.015L116.801 253.624L107.628 221.149C104.523 218.267 103.041 219.948 102.688 221.149L112.214 254.273L102.116 248.103L91.9857 241.933C83.7577 227.609 83.9559 203.133 83.9861 199.403V199.402C83.9874 199.243 83.9883 199.121 83.9883 199.04Z" fill="#393943"/>
<path d="M25.3227 219.526C26.2495 223.692 29.3857 229.24 37.4154 232.84C39.5185 233.783 41.6875 234.787 43.9325 235.826L43.9337 235.826C56.3774 241.585 71.1563 248.424 89.9864 252L83.9883 237.062L91.9857 241.933C83.7577 227.609 83.9559 203.133 83.9861 199.403V199.402C83.9874 199.243 83.9883 199.121 83.9883 199.04C79.6911 189.378 78.696 175.606 78.696 175.361C80.3851 178.143 82.1531 180.735 83.9883 183.149C84.6669 184.041 85.3546 184.909 86.0509 185.753C84.9315 177.179 87.7377 158.609 89.2807 150.395C72.8379 173.855 46.7998 206.588 25.3227 219.526Z" fill="#1D1F2B"/>
<path d="M138.323 187.052C123.493 183.205 122.511 166.67 124.039 158.01C118.836 154.984 114.006 152.031 109.745 149.331C105.275 160.281 103.088 182.381 125.975 192.247C156.107 205.237 169.725 188.088 176.781 180.974C172.75 181.321 168.541 180.155 165.491 178.817C163.593 183.25 156.033 191.645 138.323 187.052Z" fill="white"/>
<path fill-rule="evenodd" clip-rule="evenodd" d="M275.495 157.911L275.518 157.898C276.212 157.493 276.9 157.09 277.581 156.689C276.893 157.095 276.197 157.502 275.495 157.911Z" fill="#D5D5D5"/>
<path d="M235.637 177.959C249.253 172.403 263.288 165.01 275.324 158.01C276.853 166.67 275.871 183.205 261.04 187.052C243.33 191.645 235.771 183.25 233.873 178.817C234.517 178.534 235.109 178.244 235.637 177.959Z" fill="#F68F46"/>
<path d="M261.04 187.052C275.871 183.205 276.853 166.67 275.324 158.01C280.528 154.984 285.358 152.031 289.619 149.331C294.088 160.281 296.276 182.381 273.389 192.247C243.257 205.237 229.639 188.088 222.582 180.974C226.614 181.321 230.823 180.155 233.873 178.817C235.771 183.25 243.33 191.645 261.04 187.052Z" fill="white"/>
<path d="M199.715 264.015V271.809C200.774 271.809 205.999 270.186 221.171 273.433C232.529 275.864 237.563 276.02 238.934 275.764C239.015 275.745 239.092 275.725 239.165 275.706C239.105 275.727 239.028 275.747 238.934 275.764C236.276 276.399 229.388 277.074 221.171 275.057C212.703 272.978 203.361 273.974 199.715 274.732V314.999C208.039 314.934 215.328 312.602 217.995 311.428C227.875 308.83 255.865 287.072 268.097 275.706C263.686 274.118 255.537 270.629 252.22 267.423L237.754 261.093C229.051 262.175 209.312 264.275 199.715 264.015Z" fill="#474752"/>
<path d="M310.083 206.536C318.924 199.716 320.668 175.686 320.668 175.361C318.029 179.707 315.198 183.59 312.218 187.052C284.922 218.766 245.195 215.121 227.169 208.485C224.911 215.499 230.697 220.717 233.873 222.448C237.149 223.5 240.451 224.255 243.752 224.753C260.226 227.354 276.67 223.464 289.619 217.966C296.834 214.973 302.961 211.528 307.397 208.485C308.377 207.812 309.274 207.16 310.083 206.536Z" fill="#3B3B45"/>
<path d="M338.309 123.727C338.873 118.011 337.603 109.871 336.898 106.515C327.11 113.419 311.648 122.939 293.5 131.889L300.204 135.093C300.115 135.146 300.026 135.2 299.936 135.253C300.92 136.805 302.011 138.491 303.198 140.289C305.229 143.364 307.541 146.769 310.083 150.395C326.526 173.855 352.564 206.588 374.041 219.526C374.385 217.98 374.424 216.625 374.297 215.629C367.241 178.998 347.365 139.098 338.309 123.727Z" fill="#3F434A"/>
<path d="M309.377 252C331.605 247.778 348.188 239.01 361.948 232.84C369.978 229.24 373.114 223.692 374.041 219.526C352.564 206.588 326.526 173.855 310.083 150.395C311.506 156.119 313.926 171.464 312.218 187.052C315.198 183.59 318.029 179.707 320.668 175.361C320.668 175.686 318.924 199.716 310.083 206.536C309.274 207.16 308.377 207.812 307.397 208.485C305.851 217.469 301.657 237.971 297.248 248.103L307.378 241.933L315.375 237.062L309.377 252Z" fill="#1D1F2B"/>
<path d="M267.391 266.289L256.101 260.768C253.984 260.768 249.961 261.677 250.808 265.314C250.965 265.986 251.468 266.697 252.22 267.423C255.537 270.629 263.686 274.118 268.097 275.706C269.781 276.482 271.85 277.166 274.095 277.763H286.796L290.678 271.006C287.385 270.761 282.269 270.231 277.623 269.438C272.977 268.645 268.802 267.588 267.391 266.289Z" fill="#AEB0AF"/>
<path d="M293.5 280.902L309.377 252L315.375 237.062L307.378 241.933L298.44 257.493L290.678 271.006L286.796 277.763H274.095C280.875 279.567 289.259 280.577 293.5 280.902Z" fill="#77787A"/>
<path d="M298.44 257.493L307.378 241.933L297.248 248.103L287.149 254.273L271.123 264.015L267.391 266.289C268.802 267.588 272.977 268.645 277.623 269.438L298.44 257.493Z" fill="#818588"/>
<path d="M248.338 255.247C248.691 255.356 250.738 254.078 254.689 249.402C255.187 248.813 255.563 248.273 255.835 247.778C249.131 250.376 215.651 254.923 199.715 256.871V264.015C209.312 264.275 229.051 262.175 237.754 261.093C236.06 259.534 236.578 257.196 237.048 256.222C239.024 251.026 245.398 253.407 248.338 255.247Z" fill="#C4C4C4"/>
<path d="M199.715 247.778V242.258C194.776 239.01 183.273 232.256 176.781 231.217C174.547 231.974 171.842 234.139 178.898 236.737C185.955 239.335 190.071 241.5 191.247 242.258C194.07 243.773 199.715 246.999 199.715 247.778Z" fill="#191B27"/>
<path d="M199.715 242.258V247.778C199.715 246.999 205.294 243.773 208.116 242.258C209.292 241.5 213.409 239.335 220.465 236.737C227.522 234.139 224.817 231.974 222.582 231.217C216.09 232.256 204.655 239.01 199.715 242.258Z" fill="#191B27"/>
<path d="M199.715 274.732V271.809C198.657 271.809 193.364 270.186 178.193 273.433C166.835 275.864 161.801 276.02 160.43 275.764C163.087 276.399 169.976 277.074 178.193 275.057C186.661 272.978 196.069 273.974 199.715 274.732Z" fill="#191B27"/>
<path d="M199.715 271.809V274.732C203.361 273.974 212.703 272.978 221.171 275.057C229.388 277.074 236.276 276.399 238.934 275.764C237.563 276.02 232.529 275.864 221.171 273.433C205.999 270.186 200.774 271.809 199.715 271.809Z" fill="#191B27"/>
<path fill-rule="evenodd" clip-rule="evenodd" d="M199.715 242.258V187.701C206.207 186.662 211.998 190.299 214.114 192.247C223.147 203.678 239.988 205.67 247.28 205.237C281.151 206.276 302.791 182.289 309.377 170.165L310.083 150.395C311.506 156.119 313.926 171.464 312.218 187.052C284.922 218.766 245.195 215.121 227.169 208.485C224.911 215.499 230.697 220.717 233.873 222.448C237.149 223.5 240.451 224.255 243.752 224.753C249.397 226.474 261.816 229.982 266.333 230.242C266.45 232.083 264.768 241.154 257.429 261.418L256.101 260.768L248.338 255.247C248.691 255.356 250.738 254.078 254.689 249.402C255.187 248.813 255.563 248.273 255.835 247.778C257.727 244.344 254.628 243.096 252.572 242.907C250.691 242.907 244.316 243.622 233.873 246.479C223.429 249.337 206.772 251.784 199.715 252.65V247.778C199.715 246.999 205.294 243.773 208.116 242.258C209.292 241.5 213.409 239.335 220.465 236.737C227.522 234.139 224.817 231.974 222.582 231.217C216.09 232.256 204.655 239.01 199.715 242.258ZM263.406 264.34L267.391 266.289L271.123 264.015L282.563 253.624L291.736 221.149C294.841 218.267 296.323 219.948 296.676 221.149L287.149 254.273L297.248 248.103C301.657 237.971 305.851 217.469 307.397 208.485C302.961 211.528 296.834 214.973 289.619 217.966C287.267 219.893 280.728 224.787 273.389 228.943C272.566 233.814 269.334 247.973 263.406 264.34Z" fill="#474752"/>
<path d="M257.429 261.418L263.406 264.34C269.334 247.973 272.566 233.814 273.389 228.943C280.728 224.787 287.267 219.893 289.619 217.966C276.67 223.464 260.226 227.354 243.752 224.753C249.397 226.474 261.816 229.982 266.333 230.242C266.45 232.083 264.768 241.154 257.429 261.418Z" fill="#1E1E2B"/>
<path d="M287.149 254.273L296.676 221.149C296.323 219.948 294.841 218.267 291.736 221.149L282.563 253.624L271.123 264.015L287.149 254.273Z" fill="#1E1E2B"/>
<path d="M248.338 255.247C245.398 253.407 239.024 251.026 237.048 256.222C236.578 257.196 236.06 259.534 237.754 261.093L252.22 267.423C251.468 266.697 250.965 265.986 250.808 265.314C249.961 261.677 253.984 260.768 256.101 260.768L248.338 255.247Z" fill="#2D2D36"/>
<path d="M115.037 24.3557C113.861 21.7577 112.708 13.4443 117.507 0.974227C103.676 16.0423 95.2787 36.9124 92.809 45.4639C98.4542 34.5526 109.98 26.8454 115.037 24.3557Z" fill="#1B1D2A"/>
<path d="M281.857 0.974227C286.655 13.4443 285.503 21.7577 284.327 24.3557C289.384 26.8454 300.909 34.5526 306.555 45.4639C304.085 36.9124 295.688 16.0423 281.857 0.974227Z" fill="#1B1D2A"/>
<path d="M199.715 187.701V176.01C199.151 175.751 190.777 175.036 186.661 174.711C184.3 178.943 180.621 180.645 176.781 180.974C169.725 188.088 156.107 205.237 125.975 192.247C103.088 182.381 105.275 160.281 109.745 149.331C104.044 145.72 99.362 142.562 96.1656 140.289C94.1347 143.364 91.8224 146.769 89.2807 150.395L89.9864 170.165C96.5725 182.289 118.212 206.276 152.084 205.237C159.375 205.67 176.217 203.678 185.249 192.247C187.366 190.299 193.223 186.662 199.715 187.701Z" fill="#4C4E57"/>
<path fill-rule="evenodd" clip-rule="evenodd" d="M289.776 149.232C290.169 148.982 290.558 148.735 290.942 148.49C291.199 148.325 291.455 148.161 291.708 147.999C291.078 148.403 290.434 148.814 289.776 149.232Z" fill="#D2D2D2"/>
<path d="M199.715 176.01V187.701C206.207 186.662 211.998 190.299 214.114 192.247C223.147 203.678 239.988 205.67 247.28 205.237C281.151 206.276 302.791 182.289 309.377 170.165L310.083 150.395C307.541 146.769 305.229 143.364 303.198 140.289C300.401 142.278 296.467 144.944 291.708 147.999C291.455 148.161 291.199 148.325 290.942 148.49C290.558 148.735 290.169 148.982 289.776 149.232L289.619 149.331C294.088 160.281 296.276 182.381 273.389 192.247C243.257 205.237 229.639 188.088 222.582 180.974C218.742 180.645 215.064 178.943 212.703 174.711C208.587 175.036 200.28 175.751 199.715 176.01Z" fill="#64666D"/>
</svg>
