<svg width="553" height="406" viewBox="0 0 553 406" fill="none" xmlns="http://www.w3.org/2000/svg">
<path fill-rule="evenodd" clip-rule="evenodd" d="M266.156 66.8002L256.942 68.3715C258.416 63.7886 258.563 55.2512 247.359 57.7653C248.066 57.0119 247.417 55.4556 249.939 53.1992C236.34 51.4319 166.629 95.8366 133.474 118.26C134.729 127.085 138.546 131.723 140.855 134.528C141.937 135.843 142.688 136.756 142.688 137.508C149.568 141.698 165.76 152.592 175.49 162.649C185.22 172.705 197.235 181.504 202.026 184.647C203.992 184.516 207.702 183.154 206.818 178.754C205.933 174.355 205.22 168.803 204.975 166.577C205.466 164.22 208.439 160.606 216.4 165.006C219.103 168.148 225.172 176.476 227.826 184.647C236.671 189.361 252.077 201.774 242.936 213.715C245.935 211.359 252.934 204.445 256.942 195.646C255.59 192.634 251.119 187.082 244.042 188.968V183.861C246.499 182.159 253.256 175.533 260.627 162.649C256.794 160.763 254.853 158.982 254.362 158.328C253.379 157.411 251.119 154.557 249.939 150.471C248.76 146.386 244.779 143.269 242.936 142.222L241.462 137.508C243.919 136.984 250.455 133.737 256.942 124.938C259.314 128.332 262.052 134.508 261.952 141.367C264.137 135.18 263.743 122.634 263.244 116.721C262.935 118.006 259.783 120.801 258.047 122.188C255.59 117.081 248.833 107.182 241.462 108.439C241.462 108.046 239.619 103.333 252.151 98.6187C254.976 97.3093 261.291 93.8263 263.944 90.3695C265.425 86.8983 265.002 76.6971 264.779 71.3013C264.749 70.586 264.723 69.9551 264.706 69.4355C264.765 76.3314 263.109 89.1487 255.836 92.7264C256.082 90.7623 254.362 85.8128 245.516 81.7274C246.254 79.6324 249.349 75.2851 255.836 74.6566C257.433 74.0019 261.438 71.8283 264.682 68.3715L266.156 66.8002ZM234.828 170.112C232.175 174.198 229.545 174.695 228.563 174.433C226.966 173.386 223.476 169.562 222.297 162.649C221.118 155.735 216.646 147.983 214.557 144.972C224.582 143.715 232.74 155.185 235.565 161.077C241.757 161.392 242.077 164.875 241.462 166.577C240.357 166.053 237.482 166.027 234.828 170.112Z" fill="#7A313C"/>
<path d="M267.262 50.6945C261.383 51.0088 258.669 49.516 258.047 48.7304C253.794 50.4305 251.362 51.9263 249.939 53.1992C247.417 55.4556 248.066 57.0119 247.359 57.7653C258.563 55.2512 258.416 63.7886 256.942 68.3715L266.156 66.8002L267.262 50.6945Z" fill="#F9443B"/>
<path d="M255.836 74.6566C249.349 75.2851 246.254 79.6324 245.516 81.7274C254.362 85.8128 256.082 90.7623 255.836 92.7264C263.109 89.1487 264.765 76.3314 264.706 69.4355C264.691 68.9956 264.682 68.6354 264.682 68.3715C261.438 71.8283 257.433 74.0019 255.836 74.6566Z" fill="#F9443B"/>
<path d="M252.151 98.6187C239.619 103.333 241.462 108.046 241.462 108.439C248.833 107.182 255.59 117.081 258.047 122.188C259.783 120.801 262.935 118.006 263.244 116.721C263.232 116.575 263.22 116.433 263.207 116.296C262.618 115.353 263.453 98.6187 263.944 90.3695C261.291 93.8263 254.976 97.3093 252.151 98.6187Z" fill="#F9443B"/>
<path d="M249.939 150.471C251.119 154.557 253.379 157.411 254.362 158.328C259.915 152.973 261.871 146.944 261.952 141.367C262.052 134.508 259.314 128.332 256.942 124.938C250.455 133.737 243.919 136.984 241.462 137.508L242.936 142.222C244.779 143.269 248.76 146.386 249.939 150.471Z" fill="#F9443B"/>
<path d="M244.042 183.861V188.968C251.119 187.082 255.59 192.634 256.942 195.646C269.325 189.675 264.559 171.16 260.627 162.649C253.256 175.533 246.499 182.159 244.042 183.861Z" fill="#F9443B"/>
<path d="M146.005 36.1601L152.271 16.1262C139.862 21.3638 113.056 35.9244 105.095 52.2658C99.2265 64.3116 97.1365 68.5595 96.6401 69.5408C97.5343 69.2123 100.874 72.5132 107.306 88.4054C110.444 96.1577 111.006 103.855 110.402 110.403C109.758 117.393 107.786 123.074 106.2 126.116C94.775 117.867 87.4037 85.6556 87.4037 82.5131C87.0317 83.6915 88.5094 125.411 105.463 141.477C111.88 135.201 118.45 128.765 123.154 124.152C118.854 113.284 110.918 89.741 113.572 82.5131C116.225 75.2851 124.014 60.1222 127.577 53.4443C131.017 48.7304 139.518 38.6742 146.005 36.1601Z" fill="#34101C"/>
<path d="M96.6178 69.5499C94.4064 68.3715 87.6249 65.7003 78.1897 64.4433L87.4037 82.5131C87.5957 83.9093 93.4844 93.439 99.5247 100.976C100.737 99.0901 105.218 91.8098 107.306 88.4054C100.874 72.5132 97.5343 69.2123 96.6401 69.5408C96.463 69.8907 96.4886 69.8253 96.6178 69.5499Z" fill="#582333"/>
<path d="M110.402 110.403C111.006 103.855 110.444 96.1577 107.306 88.4054C105.218 91.8098 100.737 99.0901 99.5247 100.976C103.681 106.161 107.909 110.403 110.402 110.403Z" fill="#743643"/>
<path d="M87.4037 82.5131C87.4037 85.6556 94.775 117.867 106.2 126.116C107.786 123.074 109.758 117.393 110.402 110.403C107.909 110.403 103.681 106.161 99.5247 100.976C93.4844 93.439 87.5957 83.9093 87.4037 82.5131Z" fill="#361220"/>
<path d="M142.688 137.508C130.525 138.591 105.9 141.049 104.701 142.222C105.311 143.165 107.429 145.419 108.412 146.428C119.288 147.352 133.002 148.507 133.474 148.507C134.211 148.507 140.845 150.471 149.691 156.364C156.767 161.077 167.136 170.898 171.436 175.219C181.461 180.876 188.389 188.837 190.601 192.11C201.805 196.824 212.469 212.93 216.4 220.393C221.437 223.143 233.796 225.657 242.936 213.715C252.077 201.774 236.671 189.361 227.826 184.647C225.172 176.476 219.103 168.148 216.4 165.006C208.439 160.606 205.466 164.22 204.975 166.577C205.22 168.803 205.933 174.355 206.818 178.754C207.702 183.154 203.992 184.516 202.026 184.647C197.235 181.504 185.22 172.705 175.49 162.649C165.76 152.592 149.568 141.698 142.688 137.508Z" fill="#F9443B"/>
<path d="M104.701 142.222C103.467 143.428 102.242 144.626 101.04 145.8C103.153 145.98 105.694 146.197 108.412 146.428C107.429 145.419 105.311 143.165 104.701 142.222Z" fill="#F9443B"/>
<path fill-rule="evenodd" clip-rule="evenodd" d="M227.826 260.461L216.4 238.07L186.178 203.502L161.485 178.754L142.688 166.577L126.84 158.328L137.528 178.754C133.965 179.016 125.734 179.776 121.311 180.718C123.154 181.897 127.798 184.175 131.631 183.861C135.464 183.547 133.228 183.992 131.631 184.254L117.994 190.539C120.82 193.027 126.987 200.517 129.051 210.573C129.132 210.965 129.218 211.358 129.311 211.751C131.591 221.429 137.393 231.153 140.108 234.928C144.162 240.296 156.104 252.133 171.436 256.533C190.601 262.033 206.449 263.997 207.555 263.997H220.454C219.963 262.033 221.339 258.576 227.826 260.461ZM163.696 248.284C133.032 234.142 137.159 200.752 143.056 185.825C149.684 186.684 155.89 188.653 161.485 191.175C174.307 196.957 183.915 205.65 188.021 210.573L207.162 232.964L218.243 245.927C212.837 252.605 194.36 262.425 163.696 248.284Z" fill="#110311"/>
<path d="M94.775 196.431C99.1977 199.181 108.117 207.038 108.412 216.465C106.937 216.465 94.0378 213.323 92.9322 206.252C92.0476 200.595 93.7921 197.348 94.775 196.431Z" fill="#F9443B"/>
<path d="M113.203 187.789C111.237 187.789 108.485 190.068 113.203 199.181C117.921 208.295 120.574 207.692 121.311 206.252L122.417 199.967C121.557 197.872 118.51 192.503 113.203 187.789Z" fill="#F9443B"/>
<path d="M116.151 236.106C111.729 237.216 102.22 235.233 99.5663 218.429C99.6146 218.455 99.7325 218.509 99.9103 218.592C102.447 219.762 117.185 226.562 116.151 236.106Z" fill="#F9443B"/>
<path d="M171.436 256.533C156.104 252.133 144.162 240.296 140.108 234.928C137.393 231.153 131.591 221.429 129.311 211.751C126.758 212.537 120.109 213.558 113.94 211.359C115.66 216.334 120.353 228.171 125.366 235.713C130.034 238.725 140.698 247.262 146.005 257.319C146.988 258.628 151.902 262.661 163.696 268.318C175.49 273.974 187.775 275.388 192.444 275.388H203.5C205.22 275.127 211.019 272.482 220.454 263.997H207.555C206.449 263.997 190.601 262.033 171.436 256.533Z" fill="#F9443B"/>
<path d="M273.896 241.606C273.896 238.725 271.611 232.1 262.47 228.643C261.61 227.202 258.49 224.243 252.888 223.929C247.286 223.615 245.394 221.441 245.148 220.393L235.197 230.607V250.248C235.197 253.076 243.059 258.235 246.991 260.461C247.063 260.423 247.299 260.332 247.675 260.188C251.156 258.855 266.578 252.95 273.896 241.606Z" fill="#F9443B"/>
<path d="M269.841 207.823L265.419 196.824C263.207 198.003 258.416 202.088 256.942 209.002C257.433 210.966 257.826 215.208 255.468 216.465C253.109 217.722 255.468 220.393 256.942 221.572C258.17 221.703 261.217 221.493 263.576 219.608C265.935 217.722 267.999 220.917 268.736 222.75C269.227 223.536 270.431 224.4 271.316 221.572C272.2 218.744 270.701 211.228 269.841 207.823Z" fill="#F9443B"/>
<path d="M109.886 273.424L102.146 265.961C100.672 271.067 99.124 282.302 104.726 286.387C110.328 290.473 114.432 288.09 115.783 286.387L110.779 275.388L109.886 273.424Z" fill="#F9443B"/>
<path d="M102.146 265.961L109.886 273.424L110.779 275.388C119.696 280.495 139.813 292.594 148.953 300.136C158.094 307.678 178.561 318.468 187.652 322.92L208.66 331.562L207.923 341.775L227.088 342.954L247.359 356.703C251.659 357.75 263.502 359.217 276.476 356.703V353.56C256.942 349.763 213.968 337.769 198.341 320.17C197.708 320.17 196.921 319.509 195.511 318.326C191.171 314.683 180.933 306.09 151.165 296.601C150.551 293.982 149.838 288.352 151.902 286.78C153.966 285.209 161.362 287.959 164.802 289.53H173.647C152.516 282.59 107.306 265.647 95.5121 253.39C95.6867 255.616 97.2579 261.247 102.146 265.961Z" fill="#250719"/>
<path d="M181.387 336.669C190.355 344.263 211.24 361.731 223.034 370.844C236.325 381.114 267.588 393.3 274.967 396.176C275.773 396.49 276.294 396.693 276.476 396.77V396.622V356.773V356.703C263.502 359.217 251.659 357.75 247.359 356.703L227.088 342.954L207.923 341.775L208.66 331.562L187.652 322.92C178.561 318.468 158.094 307.678 148.953 300.136C139.813 292.594 119.696 280.495 110.779 275.388L115.783 286.387C118.854 290.447 127.061 300.215 135.317 306.814C143.572 313.414 169.47 329.467 181.387 336.669Z" fill="#441424"/>
<path d="M242.936 278.138C239.005 277.745 230.332 277.981 227.088 282.066C225.186 284.463 225.05 287.788 225.536 290.709C225.879 292.767 226.53 294.624 227.088 295.815C230.037 289.53 233.722 291.101 235.197 292.673L243.674 300.333L252.151 307.993L256.573 316.242L259.153 303.672L242.936 278.138Z" fill="#813541"/>
<path d="M235.197 292.673C233.722 291.101 230.037 289.53 227.088 295.815C226.53 294.624 225.879 292.767 225.536 290.709C224.152 295.03 223.686 305.164 232.897 311.135C231.121 305.599 231.504 299.383 232.248 295.815C235.886 296.758 236.958 298.565 237.04 299.351C237.04 305.95 239.988 309.433 241.462 310.35L251.355 316.242L254.362 316.635C253.625 314.409 250.455 308.032 243.674 300.333L235.197 292.673Z" fill="#0C0408"/>
<path d="M239.619 320.17C248.465 325.513 252.888 324.229 253.993 322.92V317.813L251.355 316.242L241.462 310.35C239.988 309.433 237.04 305.95 237.04 299.351C236.958 298.565 235.886 296.758 232.248 295.815C231.504 299.383 231.121 305.599 232.897 311.135C234.054 314.743 236.129 318.062 239.619 320.17Z" fill="#F9AE1D"/>
<path d="M143.056 185.825C137.159 200.752 133.032 234.142 163.696 248.284C194.36 262.425 212.837 252.605 218.243 245.927L207.162 232.964C200.781 238.725 183.672 247.184 166.276 234.928C148.88 222.672 155.833 200.653 161.485 191.175C155.89 188.653 149.684 186.684 143.056 185.825Z" fill="white"/>
<path d="M188.021 210.573C183.915 205.65 174.307 196.957 161.485 191.175C155.833 200.653 148.88 222.672 166.276 234.928C183.672 247.184 200.781 238.725 207.162 232.964L188.021 210.573Z" fill="#FC4118"/>
<path d="M87.4037 82.5131C81.9982 99.5353 71.1133 138.372 70.8185 157.542L84.0867 162.256C85.021 161.426 92.4386 154.205 101.04 145.8C102.242 144.626 103.467 143.428 104.701 142.222L105.463 141.477C88.5094 125.411 87.0317 83.6915 87.4037 82.5131Z" fill="#561E2B"/>
<path d="M70.8185 157.542C56.0761 190.801 21.3576 263.054 0.42334 285.995C10.1288 278.007 33.0041 257.712 46.862 240.427C60.7199 223.143 77.4526 202.847 84.0867 194.86L91.0894 184.647L89.6151 165.006L84.0867 162.256L70.8185 157.542Z" fill="#762C39"/>
<path d="M46.862 240.427C33.0041 257.712 10.1288 278.007 0.42334 285.995C0.802898 286.075 1.19241 286.159 1.59163 286.247C14.1693 287.309 53.6354 245.418 79.2954 215.685C83.0789 211.301 86.5623 207.181 89.6151 203.502L91.0894 184.647L84.0867 194.86C77.4526 202.847 60.7199 223.143 46.862 240.427Z" fill="#140313"/>
<path d="M120.206 342.954C120.943 339.811 123.449 333.133 127.577 331.562C114.677 314.016 89.0254 274.446 89.6151 256.533C88.2637 254.962 86.0769 249.069 88.1409 238.07L79.664 218.822C80.4011 228.25 83.1284 251.583 88.1409 269.496C93.1533 287.409 101.286 303.672 104.726 309.564C107.675 314.54 114.014 325.905 115.783 331.562C117.552 337.219 119.469 341.513 120.206 342.954Z" fill="#180717"/>
<path fill-rule="evenodd" clip-rule="evenodd" d="M276.476 0.41333C244.042 5.52001 171.657 19.8187 146.005 36.1601C139.518 38.6742 131.017 48.7304 127.577 53.4443C124.014 60.1222 116.225 75.2851 113.572 82.5131C110.918 89.741 118.854 113.284 123.154 124.152C118.45 128.765 111.88 135.201 105.463 141.477L104.701 142.222C105.9 141.049 130.525 138.591 142.688 137.508C142.688 136.756 141.937 135.843 140.855 134.528C138.546 131.723 134.729 127.085 133.474 118.26C166.629 95.8366 236.34 51.4319 249.939 53.1992C251.362 51.9263 253.794 50.4305 258.047 48.7304C258.669 49.516 261.383 51.0088 267.262 50.6945L266.156 66.8002L264.682 68.3715C264.694 68.7073 264.702 69.0627 264.706 69.4355C264.723 69.9551 264.749 70.586 264.779 71.3013C265.002 76.6971 265.425 86.8983 263.944 90.3695C263.453 98.6187 262.618 115.353 263.207 116.296C263.276 116.406 263.285 116.55 263.244 116.721C263.743 122.634 264.137 135.18 261.952 141.367C261.871 146.944 259.915 152.973 254.362 158.328C254.853 158.982 256.794 160.763 260.627 162.649C264.559 171.16 269.325 189.675 256.942 195.646C252.934 204.445 245.935 211.359 242.936 213.715C233.796 225.657 221.437 223.143 216.4 220.393C212.469 212.93 201.805 196.824 190.601 192.11C188.389 188.837 181.461 180.876 171.436 175.219C167.136 170.898 156.767 161.077 149.691 156.364C140.845 150.471 134.211 148.507 133.474 148.507C133.002 148.507 119.288 147.352 108.412 146.428C105.694 146.197 103.153 145.98 101.04 145.8C92.4386 154.205 85.021 161.426 84.0867 162.256L89.6151 165.006L91.0894 184.647L89.6151 203.502C86.5623 207.181 83.0789 211.301 79.2954 215.685L79.664 218.822L88.1409 238.07C86.0769 249.069 88.2637 254.962 89.6151 256.533C89.0254 274.446 114.677 314.016 127.577 331.562C136.3 337.454 155.588 349.632 162.959 351.203C170.084 355.019 186.326 363.426 194.286 366.523C202.149 369.666 221.413 377.051 235.565 381.45C246.745 389.045 270.579 404.391 276.476 405.02V404.966V396.77C276.294 396.693 275.773 396.49 274.967 396.176C267.588 393.3 236.325 381.114 223.034 370.844C211.24 361.731 190.355 344.263 181.387 336.669C169.47 329.467 143.572 313.414 135.317 306.814C127.061 300.215 118.854 290.447 115.783 286.387C114.432 288.09 110.328 290.473 104.726 286.387C99.124 282.302 100.672 271.067 102.146 265.961C97.2579 261.247 95.6867 255.616 95.5121 253.39C107.306 265.647 152.516 282.59 173.647 289.53H164.802C161.362 287.959 153.966 285.209 151.902 286.78C149.838 288.352 150.551 293.982 151.165 296.601C180.933 306.09 191.171 314.683 195.511 318.326C196.921 319.509 197.708 320.17 198.341 320.17C213.968 337.769 256.942 349.763 276.476 353.56V353.488V232.964C275.247 231.392 272.495 222.2 271.316 198.003C270.136 173.805 274.264 56.194 276.476 0.41333ZM227.088 282.066C230.332 277.981 239.005 277.745 242.936 278.138L259.153 303.672L256.573 316.242L252.151 307.993L243.674 300.333C250.455 308.032 253.625 314.409 254.362 316.635L251.355 316.242L253.993 317.813V322.92C252.888 324.229 248.465 325.513 239.619 320.17C236.129 318.062 234.054 314.743 232.897 311.135C223.686 305.164 224.152 295.03 225.536 290.709C225.05 287.788 225.186 284.463 227.088 282.066ZM265.419 196.824L269.841 207.823C270.701 211.228 272.2 218.744 271.316 221.572C270.431 224.4 269.227 223.536 268.736 222.75C267.999 220.917 265.935 217.722 263.576 219.608C261.217 221.493 258.17 221.703 256.942 221.572C255.468 220.393 253.109 217.722 255.468 216.465C257.826 215.208 257.433 210.966 256.942 209.002C258.416 202.088 263.207 198.003 265.419 196.824ZM273.896 241.606C266.578 252.95 251.156 258.855 247.675 260.188C247.299 260.332 247.063 260.423 246.991 260.461C243.059 258.235 235.197 253.076 235.197 250.248V230.607L245.148 220.393C245.394 221.441 247.286 223.615 252.888 223.929C258.49 224.243 261.61 227.202 262.47 228.643C271.611 232.1 273.896 238.725 273.896 241.606ZM227.826 260.461C221.339 258.576 219.963 262.033 220.454 263.997C211.019 272.482 205.22 275.127 203.5 275.388H192.444C187.775 275.388 175.49 273.974 163.696 268.318C151.902 262.661 146.988 258.628 146.005 257.319C140.698 247.262 130.034 238.725 125.366 235.713C120.353 228.171 115.66 216.334 113.94 211.359C120.109 213.558 126.758 212.537 129.311 211.751C129.218 211.358 129.132 210.965 129.051 210.573C126.987 200.517 120.82 193.027 117.994 190.539L131.631 184.254C133.228 183.992 135.464 183.547 131.631 183.861C127.798 184.175 123.154 181.897 121.311 180.718C125.734 179.776 133.965 179.016 137.528 178.754L126.84 158.328L142.688 166.577L161.485 178.754L186.178 203.502L216.4 238.07L227.826 260.461ZM113.203 199.181C108.485 190.068 111.237 187.789 113.203 187.789C118.51 192.503 121.557 197.872 122.417 199.967L121.311 206.252C120.574 207.692 117.921 208.295 113.203 199.181ZM108.412 216.465C108.117 207.038 99.1977 199.181 94.775 196.431C93.7921 197.348 92.0476 200.595 92.9322 206.252C94.0378 213.323 106.937 216.465 108.412 216.465ZM99.5663 218.429C99.6146 218.455 99.7325 218.509 99.9103 218.592C102.447 219.762 117.185 226.562 116.151 236.106C111.729 237.216 102.22 235.233 99.5663 218.429Z" fill="#561E29"/>
<path d="M88.1409 269.496C83.1284 251.583 80.4011 228.25 79.664 218.822L79.2954 215.685C53.6354 245.418 14.1693 287.309 1.59163 286.247C24.0642 291.204 77.3297 308.989 120.206 342.954C119.469 341.513 117.552 337.219 115.783 331.562C114.014 325.905 107.675 314.54 104.726 309.564C101.286 303.672 93.1533 287.409 88.1409 269.496Z" fill="#330F1B"/>
<path d="M276.476 0.41333C274.264 56.194 270.136 173.805 271.316 198.003C272.495 222.2 275.247 231.392 276.476 232.964V232.345V9.82927V0.471487V0.41333Z" fill="#210917"/>
<path d="M162.959 351.203L151.165 367.702L178.807 364.166L182.861 369.666L194.286 366.523C186.326 363.426 170.084 355.019 162.959 351.203Z" fill="#1C0516"/>
<path d="M228.563 174.433C229.545 174.695 232.175 174.198 234.828 170.112C237.482 166.027 240.357 166.053 241.462 166.577C242.077 164.875 241.757 161.392 235.565 161.077C232.74 155.185 224.582 143.715 214.557 144.972C216.646 147.983 221.118 155.735 222.297 162.649C223.476 169.562 226.966 173.386 228.563 174.433Z" fill="#F9443B"/>
<path d="M285.321 50.6945C291.2 51.0088 293.913 49.516 294.535 48.7304C298.789 50.4305 301.221 51.9263 302.643 53.1992C305.165 55.4556 304.516 57.0119 305.223 57.7653C294.019 55.2512 294.166 63.7886 295.641 68.3715L286.427 66.8002L285.321 50.6945Z" fill="#F9443B"/>
<path d="M296.746 74.6566C303.233 75.2851 306.329 79.6324 307.066 81.7274C298.221 85.8128 296.501 90.7623 296.746 92.7264C289.474 89.1487 287.818 76.3314 287.877 69.4355C287.892 68.9956 287.901 68.6354 287.901 68.3715C291.144 71.8283 295.149 74.0019 296.746 74.6566Z" fill="#F9443B"/>
<path d="M300.432 98.6187C312.963 103.333 311.12 108.046 311.12 108.439C303.749 107.182 296.992 117.081 294.535 122.188C292.8 120.801 289.648 118.006 289.338 116.721C289.35 116.575 289.363 116.433 289.375 116.296C289.965 115.353 289.129 98.6187 288.638 90.3695C291.292 93.8263 297.606 97.3093 300.432 98.6187Z" fill="#F9443B"/>
<path d="M302.643 150.471C301.464 154.557 299.203 157.411 298.221 158.328C292.668 152.973 290.711 146.944 290.63 141.367C290.531 134.508 293.269 128.332 295.641 124.938C302.127 133.737 308.663 136.984 311.12 137.508L309.646 142.222C307.803 143.269 303.823 146.386 302.643 150.471Z" fill="#F9443B"/>
<path d="M308.54 183.861V188.968C301.464 187.082 296.992 192.634 295.641 195.646C283.257 189.675 288.024 171.16 291.955 162.649C299.326 175.533 306.083 182.159 308.54 183.861Z" fill="#F9443B"/>
<path d="M406.578 36.1601L400.312 16.1262C412.72 21.3638 439.527 35.9244 447.488 52.2658C453.356 64.3116 455.446 68.5595 455.942 69.5408C455.048 69.2123 451.709 72.5132 445.277 88.4054C442.139 96.1577 441.577 103.855 442.18 110.403C442.824 117.393 444.796 123.074 446.382 126.116C457.808 117.867 465.179 85.6556 465.179 82.5131C465.551 83.6915 464.073 125.411 447.119 141.477C440.703 135.201 434.132 128.765 429.428 124.152C433.728 113.284 441.665 89.741 439.011 82.5131C436.357 75.2851 428.568 60.1222 425.006 53.4443C421.566 48.7304 413.064 38.6742 406.578 36.1601Z" fill="#34101C"/>
<path d="M455.965 69.5499C458.176 68.3715 464.958 65.7003 474.393 64.4433L465.179 82.5131C464.987 83.9093 459.098 93.439 453.058 100.976C451.845 99.0901 447.365 91.8098 445.277 88.4054C451.709 72.5132 455.048 69.2123 455.942 69.5408C456.119 69.8907 456.094 69.8253 455.965 69.5499Z" fill="#582333"/>
<path d="M442.18 110.403C441.577 103.855 442.139 96.1577 445.277 88.4054C447.365 91.8098 451.845 99.0901 453.058 100.976C448.902 106.161 444.674 110.403 442.18 110.403Z" fill="#743643"/>
<path d="M465.179 82.5131C465.179 85.6556 457.808 117.867 446.382 126.116C444.796 123.074 442.824 117.393 442.18 110.403C444.674 110.403 448.902 106.161 453.058 100.976C459.098 93.439 464.987 83.9093 465.179 82.5131Z" fill="#361220"/>
<path d="M409.895 137.508C422.057 138.591 446.682 141.049 447.882 142.222C447.272 143.165 445.154 145.419 444.171 146.428C433.295 147.352 419.58 148.507 419.109 148.507C418.372 148.507 411.737 150.471 402.892 156.364C395.816 161.077 385.447 170.898 381.147 175.219C371.122 180.876 364.193 188.837 361.982 192.11C350.777 196.824 340.114 212.93 336.182 220.393C331.145 223.143 318.786 225.657 309.646 213.715C300.506 201.774 315.912 189.361 324.757 184.647C327.411 176.476 333.48 168.148 336.182 165.006C344.143 160.606 347.116 164.22 347.608 166.577C347.362 168.803 346.65 174.355 345.765 178.754C344.88 183.154 348.591 184.516 350.556 184.647C355.348 181.504 367.363 172.705 377.093 162.649C386.823 152.592 403.015 141.698 409.895 137.508Z" fill="#F9443B"/>
<path d="M447.882 142.222C449.115 143.428 450.34 144.626 451.542 145.8C449.43 145.98 446.889 146.197 444.171 146.428C445.154 145.419 447.272 143.165 447.882 142.222Z" fill="#F9443B"/>
<path fill-rule="evenodd" clip-rule="evenodd" d="M324.757 260.461L336.182 238.07L366.404 203.502L391.098 178.754L409.895 166.577L425.743 158.328L415.055 178.754C418.617 179.016 426.848 179.776 431.271 180.718C429.428 181.897 424.785 184.175 420.951 183.861C417.118 183.547 419.354 183.992 420.951 184.254L434.588 190.539C431.763 193.027 425.595 200.517 423.531 210.573C423.451 210.965 423.364 211.358 423.271 211.751C420.991 221.429 415.19 231.153 412.475 234.928C408.42 240.296 396.479 252.133 381.147 256.533C361.982 262.033 346.134 263.997 345.028 263.997H332.128C332.62 262.033 331.244 258.576 324.757 260.461ZM388.887 248.284C419.551 234.142 415.423 200.752 409.526 185.825C402.898 186.684 396.692 188.653 391.098 191.175C378.276 196.957 368.667 205.65 364.562 210.573L345.421 232.964L334.34 245.927C339.745 252.605 358.222 262.425 388.887 248.284Z" fill="#110311"/>
<path d="M457.808 196.431C453.385 199.181 444.466 207.038 444.171 216.465C445.645 216.465 458.545 213.323 459.65 206.252C460.535 200.595 458.79 197.348 457.808 196.431Z" fill="#F9443B"/>
<path d="M439.38 187.789C441.345 187.789 444.097 190.068 439.38 199.181C434.662 208.295 432.008 207.692 431.271 206.252L430.165 199.967C431.025 197.872 434.072 192.503 439.38 187.789Z" fill="#F9443B"/>
<path d="M436.431 236.106C440.854 237.216 450.363 235.233 453.016 218.429C452.968 218.455 452.851 218.509 452.675 218.59L452.672 218.592C450.135 219.762 435.398 226.562 436.431 236.106Z" fill="#F9443B"/>
<path d="M381.147 256.533C396.479 252.133 408.42 240.296 412.475 234.928C415.19 231.153 420.991 221.429 423.271 211.751C425.825 212.537 432.473 213.558 438.642 211.359C436.922 216.334 432.229 228.171 427.217 235.713C422.549 238.725 411.885 247.262 406.578 257.319C405.595 258.628 400.681 262.661 388.887 268.318C377.093 273.974 364.807 275.388 360.139 275.388H349.082C347.362 275.127 341.563 272.482 332.128 263.997H345.028C346.134 263.997 361.982 262.033 381.147 256.533Z" fill="#F9443B"/>
<path d="M278.687 241.606C278.687 238.725 280.972 232.1 290.112 228.643C290.972 227.202 294.093 224.243 299.695 223.929C305.297 223.615 307.189 221.441 307.435 220.393L317.386 230.607V250.248C317.386 253.076 309.523 258.235 305.592 260.461C305.52 260.423 305.283 260.332 304.907 260.188C301.427 258.855 286.004 252.95 278.687 241.606Z" fill="#F9443B"/>
<path d="M282.741 207.823L287.164 196.824C289.375 198.003 294.166 202.088 295.641 209.002C295.149 210.966 294.756 215.208 297.115 216.465C299.474 217.722 297.115 220.393 295.641 221.572C294.412 221.703 291.365 221.493 289.007 219.608C286.648 217.722 284.584 220.917 283.847 222.75C283.355 223.536 282.151 224.4 281.267 221.572C280.382 218.744 281.881 211.228 282.741 207.823Z" fill="#F9443B"/>
<path d="M442.697 273.424L450.436 265.961C451.911 271.067 453.459 282.302 447.856 286.387C442.254 290.473 438.151 288.09 436.8 286.387L441.803 275.388L442.697 273.424Z" fill="#F9443B"/>
<path d="M450.436 265.961L442.697 273.424L441.803 275.388C432.887 280.495 412.769 292.594 403.629 300.136C394.489 307.678 374.021 318.468 364.93 322.92L343.922 331.562L344.659 341.775L325.494 342.954L305.223 356.703C300.964 357.74 289.304 359.189 276.476 356.773C276.353 356.75 276.23 356.726 276.107 356.703V353.56C276.229 353.536 276.352 353.512 276.476 353.488C296.176 349.613 338.713 337.659 354.242 320.17C354.874 320.17 355.662 319.509 357.072 318.326C361.412 314.683 371.649 306.09 401.418 296.601C402.032 293.982 402.745 288.352 400.681 286.78C398.617 285.209 391.221 287.959 387.781 289.53H378.936C400.066 282.59 445.277 265.647 457.07 253.39C456.896 255.616 455.325 261.247 450.436 265.961Z" fill="#250719"/>
<path d="M309.646 278.138C313.577 277.745 322.251 277.981 325.494 282.066C327.397 284.463 327.532 287.788 327.046 290.709C326.704 292.767 326.053 294.624 325.494 295.815C322.546 289.53 318.86 291.101 317.386 292.673L308.909 300.333L300.432 307.993L296.009 316.242L293.429 303.672L309.646 278.138Z" fill="#813541"/>
<path d="M317.386 292.673C318.86 291.101 322.546 289.53 325.494 295.815C326.053 294.624 326.704 292.767 327.046 290.709C328.431 295.03 328.897 305.164 319.686 311.135C321.462 305.599 321.078 299.383 320.334 295.815C316.696 296.758 315.624 298.565 315.543 299.351C315.543 305.95 312.595 309.433 311.12 310.35L301.227 316.242L298.221 316.635C298.958 314.409 302.127 308.032 308.909 300.333L317.386 292.673Z" fill="#0C0408"/>
<path d="M312.963 320.17C304.118 325.513 299.695 324.229 298.589 322.92V317.813L301.227 316.242L311.12 310.35C312.595 309.433 315.543 305.95 315.543 299.351C315.624 298.565 316.696 296.758 320.334 295.815C321.078 299.383 321.462 305.599 319.686 311.135C318.528 314.743 316.453 318.062 312.963 320.17Z" fill="#F9AE1D"/>
<path d="M409.526 185.825C415.423 200.752 419.551 234.142 388.887 248.284C358.222 262.425 339.745 252.605 334.34 245.927L345.421 232.964C351.801 238.725 368.911 247.184 386.307 234.928C403.703 222.672 396.749 200.653 391.098 191.175C396.692 188.653 402.898 186.684 409.526 185.825Z" fill="white"/>
<path d="M364.562 210.573C368.667 205.65 378.276 196.957 391.098 191.175C396.749 200.653 403.703 222.672 386.307 234.928C368.911 247.184 351.801 238.725 345.421 232.964L364.562 210.573Z" fill="#FC4118"/>
<path d="M505.72 240.427C519.578 257.712 542.454 278.007 552.159 285.995C551.78 286.075 551.39 286.159 550.991 286.247C538.413 287.309 498.947 245.418 473.287 215.685C469.504 211.301 466.02 207.181 462.967 203.502L461.493 184.647L468.496 194.86C475.13 202.847 491.863 223.143 505.72 240.427Z" fill="#140313"/>
<path d="M432.377 342.954C431.64 339.811 429.134 333.133 425.006 331.562C437.905 314.016 463.557 274.446 462.967 256.533C464.319 254.962 466.506 249.069 464.442 238.07L472.919 218.822C472.181 228.25 469.454 251.583 464.442 269.496C459.429 287.409 451.296 303.672 447.856 309.564C444.908 314.54 438.569 325.905 436.8 331.562C435.031 337.219 433.114 341.513 432.377 342.954Z" fill="#180717"/>
<path d="M464.442 269.496C469.454 251.583 472.181 228.25 472.919 218.822L473.287 215.685C498.947 245.418 538.413 287.309 550.991 286.247C528.518 291.204 475.253 308.989 432.377 342.954C433.114 341.513 435.031 337.219 436.8 331.562C438.569 325.905 444.908 314.54 447.856 309.564C451.296 303.672 459.429 287.409 464.442 269.496Z" fill="#330F1B"/>
<path d="M276.107 0.41333C276.225 3.38439 276.348 6.53085 276.476 9.82927C278.743 68.4576 282.383 175.094 281.267 198.003C280.194 220.011 277.821 229.606 276.476 232.345C276.342 232.617 276.218 232.822 276.107 232.964V0.41333Z" fill="#210917"/>
<path d="M389.624 351.203L401.418 367.702L373.776 364.166L369.721 369.666L358.296 366.523C366.257 363.426 382.498 355.019 389.624 351.203Z" fill="#1C0516"/>
<path d="M324.02 174.433C323.037 174.695 320.408 174.198 317.754 170.112C315.101 166.027 312.226 166.053 311.12 166.577C310.506 164.875 310.825 161.392 317.017 161.077C319.843 155.185 328 143.715 338.025 144.972C335.937 147.983 331.465 155.735 330.285 162.649C329.106 169.562 325.617 173.386 324.02 174.433Z" fill="#F9443B"/>
<path fill-rule="evenodd" clip-rule="evenodd" d="M276.476 0.471487C276.352 0.45197 276.229 0.432585 276.107 0.41333C276.225 3.38439 276.348 6.53085 276.476 9.82927V0.471487ZM276.476 404.966V396.77V396.622C276.302 396.69 276.178 396.74 276.107 396.77V405.02C276.223 405.007 276.346 404.989 276.476 404.966ZM276.476 232.345C276.342 232.617 276.218 232.822 276.107 232.964V353.56C276.229 353.536 276.352 353.512 276.476 353.488V232.964V232.345Z" fill="#561E29"/>
<path fill-rule="evenodd" clip-rule="evenodd" d="M389.624 351.203C396.995 349.632 416.283 337.454 425.006 331.562C437.905 314.016 463.557 274.446 462.967 256.533C464.319 254.962 466.506 249.069 464.442 238.07L472.919 218.822L473.287 215.685C469.504 211.301 466.02 207.181 462.967 203.502L461.493 184.647L462.967 165.006L468.496 162.256C467.562 161.426 460.144 154.205 451.542 145.8C449.43 145.98 446.889 146.197 444.171 146.428C433.295 147.352 419.58 148.507 419.109 148.507C418.372 148.507 411.737 150.471 402.892 156.364C395.816 161.077 385.447 170.898 381.147 175.219C371.122 180.876 364.193 188.837 361.982 192.11C350.777 196.824 340.114 212.93 336.182 220.393C331.145 223.143 318.786 225.657 309.646 213.715C306.648 211.359 299.649 204.445 295.641 195.646C283.257 189.675 288.024 171.16 291.955 162.649C295.788 160.763 297.729 158.982 298.221 158.328C292.668 152.973 290.711 146.944 290.63 141.367C288.445 135.18 288.84 122.634 289.338 116.721C289.297 116.55 289.306 116.406 289.375 116.296C289.965 115.353 289.129 98.6187 288.638 90.3695C287.158 86.8983 287.58 76.6971 287.803 71.3013C287.833 70.586 287.859 69.9551 287.877 69.4355C287.88 69.0627 287.888 68.7073 287.901 68.3715L286.427 66.8002L285.321 50.6945C291.2 51.0088 293.913 49.516 294.535 48.7304C298.789 50.4305 301.221 51.9263 302.643 53.1992C316.242 51.4319 385.953 95.8366 419.109 118.26C417.854 127.085 414.037 131.723 411.728 134.528C410.646 135.843 409.895 136.756 409.895 137.508C422.057 138.591 446.682 141.049 447.882 142.222L447.119 141.477C440.703 135.201 434.132 128.765 429.428 124.152C433.728 113.284 441.665 89.741 439.011 82.5131C436.357 75.2851 428.568 60.1222 425.006 53.4443C421.566 48.7304 413.064 38.6742 406.578 36.1601C381.022 19.8803 309.086 5.62787 276.476 0.471487V9.82927C278.743 68.4576 282.383 175.094 281.267 198.003C280.194 220.011 277.821 229.606 276.476 232.345V232.964V353.488C296.176 349.613 338.713 337.659 354.242 320.17C354.874 320.17 355.662 319.509 357.072 318.326C361.412 314.683 371.649 306.09 401.418 296.601C402.032 293.982 402.745 288.352 400.681 286.78C398.617 285.209 391.221 287.959 387.781 289.53H378.936C400.066 282.59 445.277 265.647 457.07 253.39C456.896 255.616 455.325 261.247 450.436 265.961C451.911 271.067 453.459 282.302 447.856 286.387C442.254 290.473 438.151 288.09 436.8 286.387C433.728 290.447 425.522 300.215 417.266 306.814C409.01 313.414 383.113 329.467 371.196 336.669C362.227 344.263 341.342 361.731 329.548 370.844C316.258 381.114 284.995 393.3 277.616 396.176C277.127 396.366 276.743 396.516 276.476 396.622V396.77V404.966C282.937 403.79 306.057 388.895 317.017 381.45C331.17 377.051 350.433 369.666 358.296 366.523C366.257 363.426 382.498 355.019 389.624 351.203ZM309.646 278.138C313.577 277.745 322.251 277.981 325.494 282.066C327.397 284.463 327.532 287.788 327.046 290.709C328.431 295.03 328.897 305.164 319.686 311.135C318.528 314.743 316.453 318.062 312.963 320.17C304.118 325.513 299.695 324.229 298.589 322.92V317.813L301.227 316.242L298.221 316.635C298.958 314.409 302.127 308.032 308.909 300.333L300.432 307.993L296.009 316.242L293.429 303.672L309.646 278.138ZM287.164 196.824L282.741 207.823C281.881 211.228 280.382 218.744 281.267 221.572C282.151 224.4 283.355 223.536 283.847 222.75C284.584 220.917 286.648 217.722 289.007 219.608C291.365 221.493 294.412 221.703 295.641 221.572C297.115 220.393 299.474 217.722 297.115 216.465C294.756 215.208 295.149 210.966 295.641 209.002C294.166 202.088 289.375 198.003 287.164 196.824ZM290.112 228.643C280.972 232.1 278.687 238.725 278.687 241.606C286.004 252.95 301.427 258.855 304.907 260.188C305.283 260.332 305.52 260.423 305.592 260.461C309.523 258.235 317.386 253.076 317.386 250.248V230.607L307.435 220.393C307.189 221.441 305.297 223.615 299.695 223.929C294.093 224.243 290.972 227.202 290.112 228.643ZM324.757 260.461L336.182 238.07L366.404 203.502L391.098 178.754L409.895 166.577L425.743 158.328L415.055 178.754C418.617 179.016 426.848 179.776 431.271 180.718C429.428 181.897 424.785 184.175 420.951 183.861C417.118 183.547 419.354 183.992 420.951 184.254L434.588 190.539C431.763 193.027 425.595 200.517 423.531 210.573C423.451 210.965 423.364 211.358 423.271 211.751C425.825 212.537 432.473 213.558 438.642 211.359C436.922 216.334 432.229 228.171 427.217 235.713C422.549 238.725 411.885 247.262 406.578 257.319C405.595 258.628 400.681 262.661 388.887 268.318C377.093 273.974 364.807 275.388 360.139 275.388H349.082C347.362 275.127 341.563 272.482 332.128 263.997C332.62 262.033 331.244 258.576 324.757 260.461ZM439.38 199.181C444.097 190.068 441.345 187.789 439.38 187.789C434.072 192.503 431.025 197.872 430.165 199.967L431.271 206.252C432.008 207.692 434.662 208.295 439.38 199.181ZM444.171 216.465C444.466 207.038 453.385 199.181 457.808 196.431C458.79 197.348 460.535 200.595 459.65 206.252C458.545 213.323 445.645 216.465 444.171 216.465ZM453.016 218.429C450.363 235.233 440.854 237.216 436.431 236.106C435.398 226.562 450.135 219.762 452.672 218.592L452.675 218.59C452.851 218.509 452.968 218.455 453.016 218.429Z" fill="#682532"/>
<path fill-rule="evenodd" clip-rule="evenodd" d="M295.641 68.3715L286.427 66.8002L287.901 68.3715C291.144 71.8283 295.149 74.0019 296.746 74.6566C303.233 75.2851 306.329 79.6324 307.066 81.7274C298.221 85.8128 296.501 90.7623 296.746 92.7264C289.474 89.1487 287.818 76.3314 287.877 69.4355C287.859 69.9551 287.833 70.586 287.803 71.3013C287.58 76.6971 287.158 86.8983 288.638 90.3695C291.292 93.8263 297.606 97.3093 300.432 98.6187C312.963 103.333 311.12 108.046 311.12 108.439C303.749 107.182 296.992 117.081 294.535 122.188C292.8 120.801 289.648 118.006 289.338 116.721C288.84 122.634 288.445 135.18 290.63 141.367C290.531 134.508 293.269 128.332 295.641 124.938C302.127 133.737 308.663 136.984 311.12 137.508L309.646 142.222C307.803 143.269 303.823 146.386 302.643 150.471C301.464 154.557 299.203 157.411 298.221 158.328C297.729 158.982 295.788 160.763 291.955 162.649C299.326 175.533 306.083 182.159 308.54 183.861V188.968C301.464 187.082 296.992 192.634 295.641 195.646C299.649 204.445 306.648 211.359 309.646 213.715C300.506 201.774 315.912 189.361 324.757 184.647C327.411 176.476 333.48 168.148 336.182 165.006C344.143 160.606 347.116 164.22 347.608 166.577C347.362 168.803 346.65 174.355 345.765 178.754C344.88 183.154 348.591 184.516 350.556 184.647C355.348 181.504 367.363 172.705 377.093 162.649C386.823 152.592 403.015 141.698 409.895 137.508C409.895 136.756 410.646 135.843 411.728 134.528C414.037 131.723 417.854 127.085 419.109 118.26C385.953 95.8366 316.242 51.4319 302.643 53.1992C305.165 55.4556 304.516 57.0119 305.223 57.7653C294.019 55.2512 294.166 63.7886 295.641 68.3715ZM317.754 170.112C320.408 174.198 323.037 174.695 324.02 174.433C325.617 173.386 329.106 169.562 330.285 162.649C331.465 155.735 335.937 147.983 338.025 144.972C328 143.715 319.843 155.185 317.017 161.077C310.825 161.392 310.506 164.875 311.12 166.577C312.226 166.053 315.101 166.027 317.754 170.112Z" fill="#8C3946"/>
<path d="M552.159 285.995C531.225 263.054 496.507 190.801 481.764 157.542L468.496 162.256L462.967 165.006L461.493 184.647L468.496 194.86C475.13 202.847 491.863 223.143 505.72 240.427C519.578 257.712 542.454 278.007 552.159 285.995Z" fill="#863241"/>
<path d="M481.764 157.542C481.469 138.372 470.584 99.5353 465.179 82.5131C465.551 83.6915 464.073 125.411 447.119 141.477L447.882 142.222C449.115 143.428 450.34 144.626 451.542 145.8C460.144 154.205 467.562 161.426 468.496 162.256L481.764 157.542Z" fill="#682532"/>
<path fill-rule="evenodd" clip-rule="evenodd" d="M276.476 356.773C276.353 356.75 276.23 356.726 276.107 356.703V396.77C276.178 396.74 276.302 396.69 276.476 396.622V356.773Z" fill="#441424"/>
<path d="M329.548 370.844C341.342 361.731 362.227 344.263 371.196 336.669C383.113 329.467 409.01 313.414 417.266 306.814C425.522 300.215 433.728 290.447 436.8 286.387L441.803 275.388C432.887 280.495 412.769 292.594 403.629 300.136C394.489 307.678 374.021 318.468 364.93 322.92L343.922 331.562L344.659 341.775L325.494 342.954L305.223 356.703C300.964 357.74 289.304 359.189 276.476 356.773V396.622C276.743 396.516 277.127 396.366 277.616 396.176C284.995 393.3 316.258 381.114 329.548 370.844Z" fill="#52182B"/>
</svg>
