<svg width="400" height="315" viewBox="0 0 400 315" fill="none" xmlns="http://www.w3.org/2000/svg">
<path d="M200 0C197.539 0 117.688 20.0047 87.0599 37.6209L113.039 108.085C117.126 100.548 121.072 93.8142 124.524 88.1949C129.387 80.2797 133.27 74.5766 135.189 71.9573C126.001 89.872 114.771 124.408 110.304 139.436C149.245 134.782 169.008 143.793 174.021 148.881C179.435 150.402 186.852 153.118 193.71 157.351C193.528 138.64 194.531 99.0682 200 90.4692V0Z" fill="#57515F"/>
<path d="M168.005 147.498C169.398 147.72 171.491 148.17 174.021 148.881C169.008 143.793 149.245 134.782 110.304 139.436C114.771 124.408 126.001 89.872 135.189 71.9573C133.27 74.5766 129.387 80.2797 124.524 88.1949C109.648 121.249 104.47 143.297 103.741 150.189C105.246 149.541 106.62 149.131 107.843 148.991C113.475 146.604 121.602 145.523 130.267 145.214C134.499 145.064 138.859 145.097 143.12 145.254C152.837 145.61 162.035 146.603 168.005 147.498Z" fill="#302F3D"/>
<path d="M87.0599 37.6209C81.3172 56.2322 68.6285 102.114 63.8155 136.749C54.062 162.327 33.844 214.439 31 218.261C31.8669 218.848 32.753 219.445 33.6575 220.052C40.1167 211.672 49.3404 200.55 59.2542 189.597C64.7671 183.506 70.4934 177.468 76.0764 171.981C77.4284 170.652 78.772 169.356 80.1021 168.1C89.1302 159.569 97.5379 152.859 103.741 150.189C104.47 143.297 109.648 121.249 124.524 88.1949C121.072 93.8142 117.126 100.548 113.039 108.085L87.0599 37.6209Z" fill="#373946"/>
<path d="M59.2542 189.597C57.6938 198.555 54.8683 220.112 56.0495 234.682C73.0882 245.573 92.8734 257.762 112.398 269.318C100.636 255.082 92.5202 236.867 86.9957 220.052C80.9842 201.755 78.0415 185.113 76.8106 177.057C76.3494 174.038 76.1284 172.225 76.0764 171.981C70.4934 177.468 64.7671 183.506 59.2542 189.597Z" fill="#030303"/>
<path d="M59.2542 189.597C49.3404 200.55 40.1167 211.672 33.6575 220.052C40.2583 224.483 47.8347 229.432 56.0495 234.682C54.8683 220.112 57.6938 198.555 59.2542 189.597Z" fill="#23262F"/>
<path d="M174.021 148.881C171.491 148.17 169.398 147.72 168.005 147.498C162.035 146.603 152.837 145.61 143.12 145.254C145.526 146.086 160.348 154.262 167.458 158.246C171.924 161.232 181.295 166.786 183.045 165.114C184.795 163.442 185.415 159.839 185.506 158.246L183.045 162.427C180.311 155.858 174.568 150.185 174.021 148.881Z" fill="#17141A"/>
<path d="M163.083 160.934C156.738 155.918 138.562 148.364 130.267 145.214C135.098 147.767 146.839 153.947 155.152 158.246C163.465 162.546 172.107 169.194 175.388 171.981C173.93 170.389 169.427 165.95 163.083 160.934Z" fill="#17141A"/>
<path d="M171.286 189C168.096 183.227 159.637 170.13 151.324 163.919C143.01 157.709 134.734 156.355 131.634 156.455C128.717 156.479 122.446 155.497 120.696 151.379C120.513 152.374 120.805 154.664 123.43 155.858C120.878 156.654 114.953 157.649 111.672 155.261C111.58 155.957 111.945 157.53 114.133 158.246C113.403 158.844 111.343 159.799 108.937 158.844L110.304 160.038C109.028 160.735 105.327 161.531 100.733 159.142C101.462 160.536 103.413 163.501 105.382 164.218C103.832 164.616 99.6938 165.293 95.5372 164.815C97.4515 166.109 101.663 169.115 103.194 170.787C102.647 171.483 100.678 172.877 97.178 172.877C97.4515 172.874 104.288 173.175 107.843 180.341C106.84 180.441 104.561 181.177 103.468 183.327C104.835 182.431 107.843 180.938 108.937 182.133C110.031 183.327 110.487 184.024 110.578 184.223C109.575 184.422 107.46 185.357 107.023 187.507C107.661 186.81 109.539 185.417 111.945 185.417C114.351 185.417 112.948 185.616 111.945 185.716L117.141 190.194C116.412 190.393 114.844 191.209 114.406 192.882C114.771 192.284 116.102 191.15 118.508 191.389C119.237 191.687 121.024 192.583 122.337 193.777C121.881 194.076 120.969 194.972 120.969 196.166C121.425 195.469 122.774 194.195 124.524 194.673C126.274 195.151 127.624 195.668 128.079 195.867C127.259 196.464 125.728 198.077 126.165 199.749C126.621 198.654 128.134 196.524 130.54 196.763C132.947 197.002 138.835 196.863 141.479 196.763L146.265 196.017C136.648 197.46 115.992 194.733 110.304 172.28C113.363 167.902 119.427 163.419 128.079 163.232C135.541 163.07 144.929 166.105 155.972 175.16C160.365 178.762 165.566 183.653 170.466 189.337C170.742 189.226 171.015 189.113 171.286 189Z" fill="#17141A"/>
<path d="M146.265 196.017L151.05 195.27C154.563 194.503 163.188 192.276 170.466 189.337C165.566 183.653 160.365 178.762 155.972 175.16C156.629 192.752 143.12 194.304 136.283 192.882C118.782 184.82 128.626 165.114 128.079 163.232C119.427 163.419 113.363 167.902 110.304 172.28C115.992 194.733 136.648 197.46 146.265 196.017Z" fill="white"/>
<path d="M128.079 163.232C128.626 165.114 118.782 184.82 136.283 192.882C143.12 194.304 156.629 192.752 155.972 175.16C144.929 166.105 135.541 163.07 128.079 163.232Z" fill="#FF8391"/>
<path fill-rule="evenodd" clip-rule="evenodd" d="M191.249 195.569C171.56 210.139 138.744 209.204 124.798 206.915C95.5372 212.588 78.0356 178.251 76.8106 177.057C90.8557 215.753 123.77 239.36 138.471 246.327C151.232 265.897 176.865 305.09 177.303 305.307C186.925 310.068 194.791 313.491 200 315V192.284C197.902 192.437 195.544 193.33 193.71 194.214C192.676 194.713 191.808 195.21 191.249 195.569ZM196.718 264.54C196.627 259.265 195.179 246.915 189.608 247.223C185.658 247.441 192.982 259.12 196.718 264.54Z" fill="#383A47"/>
<path d="M80.1021 168.1C78.772 169.356 77.4284 170.652 76.0764 171.981C76.1284 172.225 76.3494 174.038 76.8106 177.057C78.0356 178.251 95.5372 212.588 124.798 206.915C85.4191 197.957 81.8641 170.19 80.1021 168.1Z" fill="#6C6879"/>
<path d="M76.8106 177.057C78.0415 185.113 80.9842 201.755 86.9957 220.052C91.3925 228.213 106.476 247.462 131.634 259.166C135.736 264.189 145.745 277.894 152.964 292.527C161.818 297.381 170.058 301.723 177.303 305.307C176.865 305.09 151.232 265.897 138.471 246.327C123.77 239.36 90.8557 215.753 76.8106 177.057Z" fill="#635E72"/>
<path d="M86.9957 220.052C92.5202 236.867 100.636 255.082 112.398 269.318C126.427 277.62 140.321 285.596 152.964 292.527C145.745 277.894 135.736 264.189 131.634 259.166C106.476 247.462 91.3925 228.213 86.9957 220.052Z" fill="#383A47"/>
<path d="M196.718 264.54C196.627 259.265 195.179 246.915 189.608 247.223C185.658 247.441 192.982 259.12 196.718 264.54Z" fill="#383A48"/>
<path fill-rule="evenodd" clip-rule="evenodd" d="M200 90.4692C194.531 99.0682 193.528 138.64 193.71 157.351C186.852 153.118 179.435 150.402 174.021 148.881C174.568 150.185 180.311 155.858 183.045 162.427L185.506 158.246C185.415 159.839 184.795 163.442 183.045 165.114C181.295 166.786 171.924 161.232 167.458 158.246C160.348 154.262 145.526 146.086 143.12 145.254C138.859 145.097 134.499 145.064 130.267 145.214C138.562 148.364 156.738 155.918 163.083 160.934C169.427 165.95 173.93 170.389 175.388 171.981C172.107 169.194 163.465 162.546 155.152 158.246C146.839 153.947 135.098 147.767 130.267 145.214C121.602 145.523 113.475 146.604 107.843 148.991C106.62 149.131 105.246 149.541 103.741 150.189C97.5379 152.859 89.1302 159.569 80.1021 168.1C81.8641 170.19 85.4191 197.957 124.798 206.915C138.744 209.204 171.56 210.139 191.249 195.569C191.808 195.21 192.676 194.713 193.71 194.214C193.71 188.893 194.039 177.833 195.351 176.161C196.664 174.489 198.997 172.678 200 171.981V90.4692ZM151.324 163.919C159.637 170.13 168.096 183.227 171.286 189C171.015 189.113 170.742 189.226 170.466 189.337C163.188 192.276 154.563 194.503 151.05 195.27L146.265 196.017L141.479 196.763C138.835 196.863 132.947 197.002 130.54 196.763C128.134 196.524 126.621 198.654 126.165 199.749C125.728 198.077 127.259 196.464 128.079 195.867C127.624 195.668 126.274 195.151 124.524 194.673C122.774 194.195 121.425 195.469 120.969 196.166C120.969 194.972 121.881 194.076 122.337 193.777C121.024 192.583 119.237 191.687 118.508 191.389C116.102 191.15 114.771 192.284 114.406 192.882C114.844 191.209 116.412 190.393 117.141 190.194L111.945 185.716C112.948 185.616 114.351 185.417 111.945 185.417C109.539 185.417 107.661 186.81 107.023 187.507C107.46 185.357 109.575 184.422 110.578 184.223C110.487 184.024 110.031 183.327 108.937 182.133C107.843 180.938 104.835 182.431 103.468 183.327C104.561 181.177 106.84 180.441 107.843 180.341C104.288 173.175 97.4515 172.874 97.178 172.877C100.678 172.877 102.647 171.483 103.194 170.787C101.663 169.115 97.4515 166.109 95.5372 164.815C99.6938 165.293 103.832 164.616 105.382 164.218C103.413 163.501 101.462 160.536 100.733 159.142C105.327 161.531 109.028 160.735 110.304 160.038L108.937 158.844C111.343 159.799 113.403 158.844 114.133 158.246C111.945 157.53 111.58 155.957 111.672 155.261C114.953 157.649 120.878 156.654 123.43 155.858C120.805 154.664 120.513 152.374 120.696 151.379C122.446 155.497 128.717 156.479 131.634 156.455C134.734 156.355 143.01 157.709 151.324 163.919Z" fill="#F8B8AC"/>
<path d="M193.71 194.214C195.544 193.33 197.902 192.437 200 192.284V171.981C198.997 172.678 196.664 174.489 195.351 176.161C194.039 177.833 193.71 188.893 193.71 194.214Z" fill="#FDCDC3"/>
<path d="M200 0C202.461 0 282.312 20.0047 312.94 37.6209L286.961 108.085C282.874 100.548 278.928 93.8142 275.476 88.1949C270.613 80.2797 266.73 74.5766 264.811 71.9573C273.999 89.872 285.229 124.408 289.696 139.436C250.755 134.782 230.992 143.793 225.979 148.881C220.565 150.402 213.148 153.118 206.29 157.351C206.472 138.64 205.469 99.0682 200 90.4692V0Z" fill="#57515F"/>
<path d="M231.995 147.498C230.602 147.72 228.509 148.17 225.979 148.881C230.992 143.793 250.755 134.782 289.696 139.436C285.229 124.408 273.999 89.872 264.811 71.9573C266.73 74.5766 270.613 80.2797 275.476 88.1949C290.352 121.249 295.53 143.297 296.259 150.189C294.754 149.541 293.38 149.131 292.157 148.991C286.525 146.604 278.398 145.523 269.733 145.214C265.501 145.064 261.141 145.097 256.88 145.254C247.163 145.61 237.965 146.603 231.995 147.498Z" fill="#302F3D"/>
<path d="M312.94 37.6209C318.683 56.2322 331.372 102.114 336.184 136.749C345.938 162.327 366.156 214.439 369 218.261C368.133 218.848 367.247 219.445 366.343 220.052C359.883 211.672 350.66 200.55 340.746 189.597C335.233 183.506 329.507 177.468 323.924 171.981C322.572 170.652 321.228 169.356 319.898 168.1C310.87 159.569 302.462 152.859 296.259 150.189C295.53 143.297 290.352 121.249 275.476 88.1949C278.928 93.8142 282.874 100.548 286.961 108.085L312.94 37.6209Z" fill="#373946"/>
<path d="M340.746 189.597C342.306 198.555 345.132 220.112 343.951 234.682C326.912 245.573 307.127 257.762 287.602 269.318C299.364 255.082 307.48 236.867 313.004 220.052C319.016 201.755 321.958 185.113 323.189 177.057C323.651 174.038 323.872 172.225 323.924 171.981C329.507 177.468 335.233 183.506 340.746 189.597Z" fill="#030303"/>
<path d="M340.746 189.597C350.66 200.55 359.883 211.672 366.343 220.052C359.742 224.483 352.165 229.432 343.951 234.682C345.132 220.112 342.306 198.555 340.746 189.597Z" fill="#23262F"/>
<path d="M225.979 148.881C228.509 148.17 230.602 147.72 231.995 147.498C237.965 146.603 247.163 145.61 256.88 145.254C254.474 146.086 239.652 154.262 232.542 158.246C228.076 161.232 218.705 166.786 216.955 165.114C215.205 163.442 214.585 159.839 214.494 158.246L216.955 162.427C219.689 155.858 225.432 150.185 225.979 148.881Z" fill="#17141A"/>
<path d="M236.917 160.934C243.262 155.918 261.438 148.364 269.733 145.214C264.902 147.767 253.161 153.947 244.848 158.246C236.535 162.546 227.893 169.194 224.612 171.981C226.07 170.389 230.573 165.95 236.917 160.934Z" fill="#17141A"/>
<path d="M228.714 189C231.904 183.227 240.363 170.13 248.676 163.919C256.99 157.709 265.266 156.355 268.366 156.455C271.283 156.479 277.554 155.497 279.304 151.379C279.487 152.374 279.195 154.664 276.57 155.858C279.122 156.654 285.047 157.649 288.328 155.261C288.42 155.957 288.055 157.53 285.867 158.246C286.597 158.844 288.657 159.799 291.063 158.844L289.696 160.038C290.972 160.735 294.673 161.531 299.267 159.142C298.538 160.536 296.587 163.501 294.618 164.218C296.168 164.616 300.306 165.293 304.463 164.815C302.549 166.109 298.337 169.115 296.806 170.787C297.353 171.483 299.322 172.877 302.822 172.877C302.549 172.874 295.712 173.175 292.157 180.341C293.16 180.441 295.439 181.177 296.532 183.327C295.165 182.431 292.157 180.938 291.063 182.133C289.969 183.327 289.513 184.024 289.422 184.223C290.425 184.422 292.54 185.357 292.977 187.507C292.339 186.81 290.461 185.417 288.055 185.417C285.649 185.417 287.052 185.616 288.055 185.716L282.859 190.194C283.588 190.393 285.156 191.209 285.594 192.882C285.229 192.284 283.898 191.15 281.492 191.389C280.763 191.687 278.976 192.583 277.663 193.777C278.119 194.076 279.031 194.972 279.031 196.166C278.575 195.469 277.226 194.195 275.476 194.673C273.726 195.151 272.376 195.668 271.921 195.867C272.741 196.464 274.272 198.077 273.835 199.749C273.379 198.654 271.866 196.524 269.46 196.763C267.053 197.002 261.165 196.863 258.521 196.763L253.735 196.017C263.352 197.46 284.008 194.733 289.696 172.28C286.637 167.902 280.573 163.419 271.921 163.232C264.459 163.07 255.071 166.105 244.027 175.16C239.635 178.762 234.434 183.653 229.534 189.337C229.258 189.226 228.985 189.113 228.714 189Z" fill="#17141A"/>
<path d="M253.735 196.017L248.95 195.27C245.437 194.503 236.812 192.276 229.534 189.337C234.434 183.653 239.635 178.762 244.027 175.16C243.371 192.752 256.88 194.304 263.717 192.882C281.218 184.82 271.374 165.114 271.921 163.232C280.573 163.419 286.637 167.902 289.696 172.28C284.008 194.733 263.352 197.46 253.735 196.017Z" fill="white"/>
<path d="M271.921 163.232C271.374 165.114 281.218 184.82 263.717 192.882C256.88 194.304 243.371 192.752 244.027 175.16C255.071 166.105 264.459 163.07 271.921 163.232Z" fill="#FF8391"/>
<path fill-rule="evenodd" clip-rule="evenodd" d="M208.751 195.569C228.44 210.139 261.256 209.204 275.202 206.915C304.463 212.588 321.964 178.251 323.189 177.057C309.144 215.753 276.23 239.36 261.529 246.327C248.768 265.897 223.135 305.09 222.697 305.307C213.075 310.068 205.209 313.491 200 315V192.284C202.098 192.437 204.456 193.33 206.29 194.214C207.324 194.713 208.192 195.21 208.751 195.569ZM203.282 264.54C203.373 259.265 204.821 246.915 210.392 247.223C214.342 247.441 207.018 259.12 203.282 264.54Z" fill="#383A47"/>
<path d="M319.898 168.1C321.228 169.356 322.572 170.652 323.924 171.981C323.872 172.225 323.651 174.038 323.189 177.057C321.964 178.251 304.463 212.588 275.202 206.915C314.581 197.957 318.136 170.19 319.898 168.1Z" fill="#6C6879"/>
<path d="M323.189 177.057C321.958 185.113 319.016 201.755 313.004 220.052C308.607 228.213 293.524 247.462 268.366 259.166C264.264 264.189 254.255 277.894 247.036 292.527C238.182 297.381 229.942 301.723 222.697 305.307C223.135 305.09 248.768 265.897 261.529 246.327C276.23 239.36 309.144 215.753 323.189 177.057Z" fill="#635E72"/>
<path d="M313.004 220.052C307.48 236.867 299.364 255.082 287.602 269.318C273.573 277.62 259.679 285.596 247.036 292.527C254.255 277.894 264.264 264.189 268.366 259.166C293.524 247.462 308.607 228.213 313.004 220.052Z" fill="#383A47"/>
<path d="M203.282 264.54C203.373 259.265 204.821 246.915 210.392 247.223C214.342 247.441 207.018 259.12 203.282 264.54Z" fill="#383A48"/>
<path fill-rule="evenodd" clip-rule="evenodd" d="M200 90.4692C205.469 99.0682 206.472 138.64 206.29 157.351C213.148 153.118 220.565 150.402 225.979 148.881C225.432 150.185 219.689 155.858 216.955 162.427L214.494 158.246C214.585 159.839 215.205 163.442 216.955 165.114C218.705 166.786 228.076 161.232 232.542 158.246C239.652 154.262 254.474 146.086 256.88 145.254C261.141 145.097 265.501 145.064 269.733 145.214C261.438 148.364 243.262 155.918 236.917 160.934C230.573 165.95 226.07 170.389 224.612 171.981C227.893 169.194 236.535 162.546 244.848 158.246C253.161 153.947 264.902 147.767 269.733 145.214C278.398 145.523 286.525 146.604 292.157 148.991C293.38 149.131 294.754 149.541 296.259 150.189C302.462 152.859 310.87 159.569 319.898 168.1C318.136 170.19 314.581 197.957 275.202 206.915C261.256 209.204 228.44 210.139 208.751 195.569C208.192 195.21 207.324 194.713 206.29 194.214C206.29 188.893 205.961 177.833 204.649 176.161C203.336 174.489 201.003 172.678 200 171.981V90.4692ZM248.676 163.919C240.363 170.13 231.904 183.227 228.714 189C228.985 189.113 229.258 189.226 229.534 189.337C236.812 192.276 245.437 194.503 248.95 195.27L253.735 196.017L258.521 196.763C261.165 196.863 267.053 197.002 269.46 196.763C271.866 196.524 273.379 198.654 273.835 199.749C274.272 198.077 272.741 196.464 271.921 195.867C272.376 195.668 273.726 195.151 275.476 194.673C277.226 194.195 278.575 195.469 279.031 196.166C279.031 194.972 278.119 194.076 277.663 193.777C278.976 192.583 280.763 191.687 281.492 191.389C283.898 191.15 285.229 192.284 285.594 192.882C285.156 191.209 283.588 190.393 282.859 190.194L288.055 185.716C287.052 185.616 285.649 185.417 288.055 185.417C290.461 185.417 292.339 186.81 292.977 187.507C292.54 185.357 290.425 184.422 289.422 184.223C289.513 184.024 289.969 183.327 291.063 182.133C292.157 180.938 295.165 182.431 296.532 183.327C295.439 181.177 293.16 180.441 292.157 180.341C295.712 173.175 302.549 172.874 302.822 172.877C299.322 172.877 297.353 171.483 296.806 170.787C298.337 169.115 302.549 166.109 304.463 164.815C300.306 165.293 296.168 164.616 294.618 164.218C296.587 163.501 298.538 160.536 299.267 159.142C294.673 161.531 290.972 160.735 289.696 160.038L291.063 158.844C288.657 159.799 286.597 158.844 285.867 158.246C288.055 157.53 288.42 155.957 288.328 155.261C285.047 157.649 279.122 156.654 276.57 155.858C279.195 154.664 279.487 152.374 279.304 151.379C277.554 155.497 271.283 156.479 268.366 156.455C265.266 156.355 256.99 157.709 248.676 163.919Z" fill="#F8B8AC"/>
<path d="M206.29 194.214C204.456 193.33 202.098 192.437 200 192.284V171.981C201.003 172.678 203.336 174.489 204.649 176.161C205.961 177.833 206.29 188.893 206.29 194.214Z" fill="#FDCDC3"/>
</svg>
