<svg width="400" height="315" viewBox="0 0 400 315" fill="none" xmlns="http://www.w3.org/2000/svg">
<path fill-rule="evenodd" clip-rule="evenodd" d="M192.652 69.1952L185.972 70.336C187.041 67.0089 187.148 60.811 179.025 62.6361C179.537 62.0892 179.067 60.9594 180.895 59.3213C171.036 58.0383 120.497 90.275 96.4596 106.554C97.3692 112.961 100.137 116.328 101.81 118.364C102.595 119.319 103.14 119.981 103.14 120.527C108.127 123.569 119.866 131.478 126.921 138.779C133.975 146.08 142.685 152.468 146.159 154.749C147.584 154.654 150.274 153.665 149.633 150.471C148.991 147.277 148.475 143.247 148.297 141.631C148.653 139.92 150.808 137.296 156.58 140.49C158.539 142.771 162.939 148.817 164.863 154.749C171.276 158.171 182.445 167.183 175.818 175.852C177.992 174.141 183.066 169.122 185.972 162.734C184.992 160.548 181.75 156.517 176.62 157.886V154.179C178.401 152.943 183.3 148.133 188.644 138.779C185.865 137.41 184.458 136.117 184.102 135.642C183.389 134.977 181.75 132.904 180.895 129.938C180.04 126.973 177.154 124.71 175.818 123.95L174.749 120.527C176.531 120.147 181.269 117.79 185.972 111.402C187.691 113.866 189.677 118.349 189.604 123.329C191.189 118.837 190.903 109.729 190.541 105.436C190.317 106.369 188.032 108.399 186.774 109.405C184.992 105.698 180.094 98.5116 174.749 99.4242C174.749 99.139 173.413 95.7169 182.498 92.2947C184.547 91.3442 189.125 88.8156 191.049 86.306C192.122 83.786 191.816 76.3801 191.654 72.4629C191.632 71.9436 191.613 71.4856 191.601 71.1085C191.643 76.1146 190.443 85.4198 185.17 88.0171C185.348 86.5912 184.102 82.9979 177.689 80.0321C178.223 78.5111 180.468 75.3551 185.17 74.8988C186.328 74.4235 189.232 72.8455 191.583 70.336L192.652 69.1952ZM169.94 144.197C168.016 147.163 166.11 147.524 165.397 147.334C164.24 146.574 161.71 143.798 160.855 138.779C160 133.76 156.758 128.132 155.244 125.946C162.512 125.033 168.426 133.361 170.474 137.638C174.963 137.866 175.195 140.395 174.749 141.631C173.948 141.25 171.864 141.231 169.94 144.197Z" fill="#7A313C"/>
<path d="M193.454 57.5029C189.192 57.7311 187.224 56.6474 186.774 56.077C183.69 57.3113 181.927 58.3972 180.895 59.3213C179.067 60.9594 179.537 62.0892 179.025 62.6361C187.148 60.811 187.041 67.0089 185.972 70.336L192.652 69.1952L193.454 57.5029Z" fill="#F9443B"/>
<path d="M185.17 74.8988C180.468 75.3551 178.223 78.5111 177.689 80.0321C184.102 82.9979 185.348 86.5912 185.17 88.0171C190.443 85.4198 191.643 76.1146 191.601 71.1085C191.59 70.789 191.583 70.5276 191.583 70.336C189.232 72.8455 186.328 74.4235 185.17 74.8988Z" fill="#F9443B"/>
<path d="M182.498 92.2947C173.413 95.7169 174.749 99.139 174.749 99.4242C180.094 98.5116 184.992 105.698 186.774 109.405C188.032 108.399 190.317 106.369 190.541 105.436C190.532 105.331 190.523 105.228 190.514 105.128C190.087 104.443 190.692 92.2947 191.049 86.306C189.125 88.8156 184.547 91.3442 182.498 92.2947Z" fill="#F9443B"/>
<path d="M180.895 129.938C181.75 132.904 183.389 134.977 184.102 135.642C188.127 131.754 189.546 127.378 189.604 123.329C189.677 118.349 187.691 113.866 185.972 111.402C181.269 117.79 176.531 120.147 174.749 120.527L175.818 123.95C177.154 124.71 180.04 126.973 180.895 129.938Z" fill="#F9443B"/>
<path d="M176.62 154.179V157.886C181.75 156.517 184.992 160.548 185.972 162.734C194.95 158.399 191.494 144.958 188.644 138.779C183.3 148.133 178.401 152.943 176.62 154.179Z" fill="#F9443B"/>
<path d="M105.544 46.9513L110.087 32.4072C101.091 36.2095 81.6567 46.7802 75.8851 58.6436C71.6307 67.3886 70.1156 70.4724 69.7556 71.1849C70.4039 70.9464 72.8252 73.3427 77.4883 84.8801C79.763 90.5081 80.1706 96.0961 79.7331 100.85C79.2661 105.924 77.8363 110.049 76.6867 112.257C68.4035 106.269 63.0595 82.8838 63.0595 80.6024C62.7898 81.4579 63.8611 111.745 76.1523 123.409C80.8044 118.853 85.5676 114.18 88.978 110.831C85.8606 102.941 80.1069 85.8497 82.0307 80.6024C83.9546 75.3551 89.6014 64.3472 92.1844 59.4992C94.6783 56.077 100.842 48.7764 105.544 46.9513Z" fill="#34101C"/>
<path d="M69.7395 71.1915C68.1363 70.336 63.2198 68.3967 56.3794 67.4842L63.0595 80.6024C63.1986 81.616 67.4678 88.5344 71.847 94.0058C72.7261 92.637 75.9742 87.3516 77.4883 84.8801C72.8252 73.3427 70.4039 70.9464 69.7556 71.1849C69.6273 71.4389 69.6459 71.3914 69.7395 71.1915Z" fill="#582333"/>
<path d="M79.7331 100.85C80.1706 96.0961 79.763 90.5081 77.4883 84.8801C75.9742 87.3516 72.7261 92.637 71.847 94.0058C74.8601 97.7705 77.9253 100.85 79.7331 100.85Z" fill="#743643"/>
<path d="M63.0595 80.6024C63.0595 82.8838 68.4035 106.269 76.6867 112.257C77.8363 110.049 79.2661 105.924 79.7331 100.85C77.9253 100.85 74.8601 97.7705 71.847 94.0058C67.4678 88.5344 63.1986 81.616 63.0595 80.6024Z" fill="#361220"/>
<path d="M103.14 120.527C94.322 121.313 76.4693 123.098 75.5997 123.95C76.0418 124.634 77.5774 126.27 78.2899 127.003C86.1748 127.674 96.1175 128.512 96.4596 128.512C96.994 128.512 101.804 129.938 108.216 134.216C113.347 137.638 120.864 144.768 123.981 147.905C131.249 152.011 136.273 157.791 137.876 160.167C145.999 163.589 153.73 175.282 156.58 180.7C160.232 182.696 169.192 184.522 175.818 175.852C182.445 167.183 171.276 158.171 164.863 154.749C162.939 148.817 158.539 142.771 156.58 140.49C150.808 137.296 148.653 139.92 148.297 141.631C148.475 143.247 148.991 147.277 149.633 150.471C150.274 153.665 147.584 154.654 146.159 154.749C142.685 152.468 133.975 146.08 126.921 138.779C119.866 131.478 108.127 123.569 103.14 120.527Z" fill="#F9443B"/>
<path d="M75.5997 123.95C74.7053 124.825 73.8172 125.695 72.9459 126.547C74.4774 126.678 76.3194 126.835 78.2899 127.003C77.5774 126.27 76.0418 124.634 75.5997 123.95Z" fill="#F9443B"/>
<path fill-rule="evenodd" clip-rule="evenodd" d="M164.863 209.788L156.58 193.533L134.669 168.438L116.767 150.471L103.14 141.631L91.65 135.642L99.3988 150.471C96.8159 150.661 90.8484 151.213 87.6419 151.897C88.978 152.753 92.3447 154.407 95.1236 154.179C97.9025 153.95 96.2815 154.274 95.1236 154.464L85.2371 159.027C87.2857 160.833 91.7568 166.27 93.2532 173.571C93.3116 173.856 93.3745 174.141 93.4416 174.426C95.0948 181.452 99.3006 188.511 101.269 191.252C104.208 195.149 112.866 203.743 123.981 206.937C137.876 210.929 149.365 212.355 150.167 212.355H159.519C159.163 210.929 160.16 208.42 164.863 209.788ZM118.37 200.948C96.1389 190.681 99.1316 166.441 103.407 155.604C108.212 156.228 112.711 157.657 116.767 159.488C126.063 163.686 133.029 169.997 136.005 173.571L149.882 189.826L157.916 199.237C153.997 204.085 140.601 211.214 118.37 200.948Z" fill="#110311"/>
<path d="M68.4035 163.304C71.6099 165.301 78.0762 171.004 78.2899 177.848C77.2211 177.848 67.8691 175.567 67.0675 170.434C66.4262 166.327 67.6909 163.97 68.4035 163.304Z" fill="#F9443B"/>
<path d="M81.7635 157.03C80.3385 157.03 78.3434 158.684 81.7635 165.301C85.1837 171.917 87.1075 171.479 87.6419 170.434L88.4436 165.871C87.8201 164.35 85.6112 160.453 81.7635 157.03Z" fill="#F9443B"/>
<path d="M83.9011 192.107C80.6947 192.913 73.8009 191.474 71.8771 179.274C71.9121 179.293 71.9976 179.333 72.1265 179.392C73.9658 180.242 84.6502 185.179 83.9011 192.107Z" fill="#F9443B"/>
<path d="M123.981 206.937C112.866 203.743 104.208 195.149 101.269 191.252C99.3006 188.511 95.0948 181.452 93.4416 174.426C91.5906 174.997 86.7704 175.738 82.2979 174.141C83.5449 177.753 86.9472 186.347 90.5812 191.822C93.9657 194.009 101.697 200.206 105.544 207.507C106.257 208.458 109.82 211.385 118.37 215.492C126.921 219.599 135.827 220.625 139.212 220.625H147.228C148.475 220.435 152.679 218.515 159.519 212.355H150.167C149.365 212.355 137.876 210.929 123.981 206.937Z" fill="#F9443B"/>
<path d="M198.263 196.1C198.263 194.009 196.607 189.199 189.98 186.689C189.356 185.643 187.094 183.495 183.033 183.267C178.971 183.039 177.6 181.461 177.422 180.7L170.207 188.115V202.374C170.207 204.427 175.907 208.172 178.758 209.788C178.81 209.761 178.981 209.695 179.254 209.59C181.777 208.623 192.958 204.336 198.263 196.1Z" fill="#F9443B"/>
<path d="M195.324 171.575L192.118 163.589C190.514 164.445 187.041 167.411 185.972 172.43C186.328 173.856 186.613 176.936 184.903 177.848C183.193 178.761 184.903 180.7 185.972 181.556C186.863 181.651 189.071 181.499 190.782 180.13C192.492 178.761 193.988 181.08 194.522 182.411C194.879 182.982 195.752 183.609 196.393 181.556C197.034 179.502 195.947 174.046 195.324 171.575Z" fill="#F9443B"/>
<path d="M79.3587 219.199L73.7475 213.781C72.6787 217.488 71.5564 225.644 75.6179 228.61C79.6794 231.576 82.6542 229.846 83.6339 228.61L80.0065 220.625L79.3587 219.199Z" fill="#F9443B"/>
<path d="M73.7475 213.781L79.3587 219.199L80.0065 220.625C86.4706 224.333 101.055 233.116 107.682 238.592C114.309 244.067 129.147 251.9 135.738 255.132L150.969 261.406L150.434 268.821L164.329 269.676L179.025 279.657C182.142 280.418 190.728 281.482 200.134 279.657V277.376C185.972 274.619 154.816 265.912 143.487 253.136C143.028 253.136 142.458 252.656 141.436 251.797C138.289 249.152 130.867 242.913 109.285 236.025C108.84 234.124 108.323 230.036 109.82 228.895C111.316 227.755 116.678 229.751 119.172 230.892H125.585C110.265 225.854 77.4883 213.553 68.9379 204.655C69.0644 206.271 70.2036 210.359 73.7475 213.781Z" fill="#250719"/>
<path d="M131.196 265.113C137.698 270.627 152.839 283.308 161.389 289.924C171.025 297.38 193.69 306.226 199.04 308.314C199.624 308.542 200.002 308.689 200.134 308.746V308.638V279.708V279.657C190.728 281.482 182.142 280.418 179.025 279.657L164.329 269.676L150.434 268.821L150.969 261.406L135.738 255.132C129.147 251.9 114.309 244.067 107.682 238.592C101.055 233.116 86.4706 224.333 80.0065 220.625L83.6339 228.61C85.8606 231.557 91.8103 238.649 97.7956 243.44C103.781 248.231 122.556 259.885 131.196 265.113Z" fill="#441424"/>
<path d="M175.818 222.622C172.968 222.336 166.68 222.507 164.329 225.473C162.949 227.213 162.851 229.627 163.203 231.747C163.452 233.242 163.924 234.59 164.329 235.455C166.466 230.892 169.138 232.032 170.207 233.173L176.353 238.734L182.498 244.295L185.705 250.284L187.575 241.158L175.818 222.622Z" fill="#813541"/>
<path d="M170.207 233.173C169.138 232.032 166.466 230.892 164.329 235.455C163.924 234.59 163.452 233.242 163.203 231.747C162.2 234.884 161.862 242.242 168.54 246.577C167.252 242.558 167.53 238.044 168.069 235.455C170.707 236.139 171.484 237.451 171.543 238.021C171.543 242.812 173.681 245.341 174.749 246.006L181.922 250.284L184.102 250.569C183.567 248.953 181.269 244.324 176.353 238.734L170.207 233.173Z" fill="#0C0408"/>
<path d="M173.413 253.136C179.826 257.014 183.033 256.083 183.834 255.132V251.425L181.922 250.284L174.749 246.006C173.681 245.341 171.543 242.812 171.543 238.021C171.484 237.451 170.707 236.139 168.069 235.455C167.53 238.044 167.252 242.558 168.54 246.577C169.379 249.196 170.883 251.605 173.413 253.136Z" fill="#F9AE1D"/>
<path d="M103.407 155.604C99.1316 166.441 96.1389 190.681 118.37 200.948C140.601 211.214 153.997 204.085 157.916 199.237L149.882 189.826C145.256 194.009 132.852 200.149 120.24 191.252C107.629 182.354 112.67 166.369 116.767 159.488C112.711 157.657 108.212 156.228 103.407 155.604Z" fill="white"/>
<path d="M136.005 173.571C133.029 169.997 126.063 163.686 116.767 159.488C112.67 166.369 107.629 182.354 120.24 191.252C132.852 200.149 145.256 194.009 149.882 189.826L136.005 173.571Z" fill="#FC4118"/>
<path d="M63.0595 80.6024C59.1405 92.9602 51.2492 121.155 51.0354 135.072L60.6546 138.494C61.332 137.891 66.7096 132.649 72.9459 126.547C73.8172 125.695 74.7053 124.825 75.5997 123.95L76.1523 123.409C63.8611 111.745 62.7898 81.4579 63.0595 80.6024Z" fill="#561E2B"/>
<path d="M51.0354 135.072C40.3474 159.217 15.177 211.671 0 228.325C7.0363 222.526 23.6206 207.792 33.6673 195.244C43.7141 182.696 55.845 167.962 60.6546 162.164L65.7315 154.749L64.6627 140.49L60.6546 138.494L51.0354 135.072Z" fill="#762C39"/>
<path d="M33.6673 195.244C23.6206 207.792 7.0363 222.526 0 228.325C0.275174 228.383 0.557562 228.444 0.846994 228.508C9.96558 229.279 38.5779 198.868 57.181 177.282C59.924 174.099 62.4494 171.108 64.6627 168.438L65.7315 154.749L60.6546 162.164C55.845 167.962 43.7141 182.696 33.6673 195.244Z" fill="#140313"/>
<path d="M86.8403 269.676C87.3747 267.395 89.1917 262.547 92.1844 261.406C82.8323 248.668 64.2351 219.941 64.6627 206.937C63.6829 205.796 62.0975 201.518 63.5939 193.533L57.4482 179.56C57.9826 186.404 59.9599 203.343 63.5939 216.348C67.2278 229.352 73.124 241.158 75.6179 245.436C77.7555 249.048 82.3514 257.299 83.6339 261.406C84.9165 265.512 86.3059 268.63 86.8403 269.676Z" fill="#180717"/>
<path fill-rule="evenodd" clip-rule="evenodd" d="M200.134 21C176.62 24.7073 124.142 35.0878 105.544 46.9513C100.842 48.7764 94.6783 56.077 92.1844 59.4992C89.6014 64.3472 83.9546 75.3551 82.0307 80.6024C80.1069 85.8497 85.8606 102.941 88.978 110.831C85.5676 114.18 80.8044 118.853 76.1523 123.409L75.5997 123.95C76.4693 123.098 94.322 121.313 103.14 120.527C103.14 119.981 102.595 119.319 101.81 118.364C100.137 116.328 97.3692 112.961 96.4596 106.554C120.497 90.275 171.036 58.0383 180.895 59.3213C181.927 58.3972 183.69 57.3113 186.774 56.077C187.224 56.6474 189.192 57.7311 193.454 57.5029L192.652 69.1952L191.583 70.336C191.592 70.5797 191.598 70.8378 191.601 71.1085C191.613 71.4856 191.632 71.9436 191.654 72.4629C191.816 76.3801 192.122 83.786 191.049 86.306C190.692 92.2947 190.087 104.443 190.514 105.128C190.564 105.208 190.571 105.313 190.541 105.436C190.903 109.729 191.189 118.837 189.604 123.329C189.546 127.378 188.127 131.754 184.102 135.642C184.458 136.117 185.865 137.41 188.644 138.779C191.494 144.958 194.95 158.399 185.972 162.734C183.066 169.122 177.992 174.141 175.818 175.852C169.192 184.522 160.232 182.696 156.58 180.7C153.73 175.282 145.999 163.589 137.876 160.167C136.273 157.791 131.249 152.011 123.981 147.905C120.864 144.768 113.347 137.638 108.216 134.216C101.804 129.938 96.994 128.512 96.4596 128.512C96.1175 128.512 86.1748 127.674 78.2899 127.003C76.3194 126.835 74.4774 126.678 72.9459 126.547C66.7096 132.649 61.332 137.891 60.6546 138.494L64.6627 140.49L65.7315 154.749L64.6627 168.438C62.4494 171.108 59.924 174.099 57.181 177.282L57.4482 179.56L63.5939 193.533C62.0975 201.518 63.6829 205.796 64.6627 206.937C64.2351 219.941 82.8323 248.668 92.1844 261.406C98.5081 265.684 112.492 274.524 117.836 275.665C123.002 278.435 134.776 284.539 140.548 286.787C146.248 289.068 160.214 294.43 170.474 297.624C178.579 303.137 195.858 314.278 200.134 314.734V314.695V308.746C200.002 308.689 199.624 308.542 199.04 308.314C193.69 306.226 171.025 297.38 161.389 289.924C152.839 283.308 137.698 270.627 131.196 265.113C122.556 259.885 103.781 248.231 97.7956 243.44C91.8103 238.649 85.8606 231.557 83.6339 228.61C82.6542 229.846 79.6794 231.576 75.6179 228.61C71.5564 225.644 72.6787 217.488 73.7475 213.781C70.2036 210.359 69.0644 206.271 68.9379 204.655C77.4883 213.553 110.265 225.854 125.585 230.892H119.172C116.678 229.751 111.316 227.755 109.82 228.895C108.323 230.036 108.84 234.124 109.285 236.025C130.867 242.913 138.289 249.152 141.436 251.797C142.458 252.656 143.028 253.136 143.487 253.136C154.816 265.912 185.972 274.619 200.134 277.376V277.324V189.826C199.243 188.685 197.248 182.012 196.393 164.445C195.538 146.878 198.53 61.4954 200.134 21ZM164.329 225.473C166.68 222.507 172.968 222.336 175.818 222.622L187.575 241.158L185.705 250.284L182.498 244.295L176.353 238.734C181.269 244.324 183.567 248.953 184.102 250.569L181.922 250.284L183.834 251.425V255.132C183.033 256.083 179.826 257.014 173.413 253.136C170.883 251.605 169.379 249.196 168.54 246.577C161.862 242.242 162.2 234.884 163.203 231.747C162.851 229.627 162.949 227.213 164.329 225.473ZM192.118 163.589L195.324 171.575C195.947 174.046 197.034 179.502 196.393 181.556C195.752 183.609 194.879 182.982 194.522 182.411C193.988 181.08 192.492 178.761 190.782 180.13C189.071 181.499 186.863 181.651 185.972 181.556C184.903 180.7 183.193 178.761 184.903 177.848C186.613 176.936 186.328 173.856 185.972 172.43C187.041 167.411 190.514 164.445 192.118 163.589ZM198.263 196.1C192.958 204.336 181.777 208.623 179.254 209.59C178.981 209.695 178.81 209.761 178.758 209.788C175.907 208.172 170.207 204.427 170.207 202.374V188.115L177.422 180.7C177.6 181.461 178.971 183.039 183.033 183.267C187.094 183.495 189.356 185.643 189.98 186.689C196.607 189.199 198.263 194.009 198.263 196.1ZM164.863 209.788C160.16 208.42 159.163 210.929 159.519 212.355C152.679 218.515 148.475 220.435 147.228 220.625H139.212C135.827 220.625 126.921 219.599 118.37 215.492C109.82 211.385 106.257 208.458 105.544 207.507C101.697 200.206 93.9657 194.009 90.5812 191.822C86.9472 186.347 83.5449 177.753 82.2979 174.141C86.7704 175.738 91.5906 174.997 93.4416 174.426C93.3745 174.141 93.3116 173.856 93.2532 173.571C91.7568 166.27 87.2857 160.833 85.2371 159.027L95.1236 154.464C96.2815 154.274 97.9025 153.95 95.1236 154.179C92.3447 154.407 88.978 152.753 87.6419 151.897C90.8484 151.213 96.8159 150.661 99.3988 150.471L91.65 135.642L103.14 141.631L116.767 150.471L134.669 168.438L156.58 193.533L164.863 209.788ZM81.7635 165.301C78.3434 158.684 80.3385 157.03 81.7635 157.03C85.6112 160.453 87.8201 164.35 88.4436 165.871L87.6419 170.434C87.1075 171.479 85.1837 171.917 81.7635 165.301ZM78.2899 177.848C78.0762 171.004 71.6099 165.301 68.4035 163.304C67.6909 163.97 66.4262 166.327 67.0675 170.434C67.8691 175.567 77.2211 177.848 78.2899 177.848ZM71.8771 179.274C71.9121 179.293 71.9976 179.333 72.1265 179.392C73.9658 180.242 84.6502 185.179 83.9011 192.107C80.6947 192.913 73.8009 191.474 71.8771 179.274Z" fill="#561E29"/>
<path d="M63.5939 216.348C59.9599 203.343 57.9826 186.404 57.4482 179.56L57.181 177.282C38.5779 198.868 9.96558 229.279 0.846994 228.508C17.1393 232.107 55.756 245.018 86.8403 269.676C86.3059 268.63 84.9165 265.512 83.6339 261.406C82.3514 257.299 77.7555 249.048 75.6179 245.436C73.124 241.158 67.2278 229.352 63.5939 216.348Z" fill="#330F1B"/>
<path d="M200.134 21C198.53 61.4954 195.538 146.878 196.393 164.445C197.248 182.012 199.243 188.685 200.134 189.826V189.377V27.8357V21.0422V21Z" fill="#210917"/>
<path d="M117.836 275.665L109.285 287.642L129.325 285.076L132.265 289.068L140.548 286.787C134.776 284.539 123.002 278.435 117.836 275.665Z" fill="#1C0516"/>
<path d="M165.397 147.334C166.11 147.524 168.016 147.163 169.94 144.197C171.864 141.231 173.948 141.25 174.749 141.631C175.195 140.395 174.963 137.866 170.474 137.638C168.426 133.361 162.512 125.033 155.244 125.946C156.758 128.132 160 133.76 160.855 138.779C161.71 143.798 164.24 146.574 165.397 147.334Z" fill="#F9443B"/>
<path d="M206.546 57.5029C210.808 57.7311 212.776 56.6474 213.226 56.077C216.31 57.3113 218.073 58.3972 219.105 59.3213C220.933 60.9594 220.463 62.0892 220.975 62.6361C212.852 60.811 212.959 67.0089 214.028 70.336L207.348 69.1952L206.546 57.5029Z" fill="#F9443B"/>
<path d="M214.83 74.8988C219.532 75.3551 221.777 78.5111 222.311 80.0321C215.898 82.9979 214.652 86.5912 214.83 88.0171C209.557 85.4198 208.357 76.1146 208.399 71.1085C208.41 70.789 208.417 70.5276 208.417 70.336C210.768 72.8455 213.672 74.4235 214.83 74.8988Z" fill="#F9443B"/>
<path d="M217.502 92.2947C226.587 95.7169 225.251 99.139 225.251 99.4242C219.906 98.5116 215.008 105.698 213.226 109.405C211.968 108.399 209.683 106.369 209.459 105.436C209.468 105.331 209.477 105.228 209.486 105.128C209.913 104.443 209.308 92.2947 208.951 86.306C210.875 88.8156 215.453 91.3442 217.502 92.2947Z" fill="#F9443B"/>
<path d="M219.105 129.938C218.25 132.904 216.611 134.977 215.898 135.642C211.873 131.754 210.454 127.378 210.396 123.329C210.324 118.349 212.309 113.866 214.028 111.402C218.731 117.79 223.469 120.147 225.251 120.527L224.182 123.95C222.846 124.71 219.96 126.973 219.105 129.938Z" fill="#F9443B"/>
<path d="M223.38 154.179V157.886C218.25 156.517 215.008 160.548 214.028 162.734C205.05 158.399 208.506 144.958 211.356 138.779C216.7 148.133 221.599 152.943 223.38 154.179Z" fill="#F9443B"/>
<path d="M294.456 46.9513L289.913 32.4072C298.909 36.2095 318.343 46.7802 324.115 58.6436C328.369 67.3886 329.884 70.4724 330.244 71.1849C329.596 70.9464 327.175 73.3427 322.512 84.8801C320.237 90.5081 319.829 96.0961 320.267 100.85C320.734 105.924 322.164 110.049 323.313 112.257C331.597 106.269 336.941 82.8838 336.941 80.6024C337.21 81.4579 336.139 111.745 323.848 123.409C319.196 118.853 314.432 114.18 311.022 110.831C314.139 102.941 319.893 85.8497 317.969 80.6024C316.045 75.3551 310.399 64.3472 307.816 59.4992C305.322 56.077 299.158 48.7764 294.456 46.9513Z" fill="#34101C"/>
<path d="M330.261 71.1915C331.864 70.336 336.78 68.3967 343.621 67.4842L336.941 80.6024C336.801 81.616 332.532 88.5344 328.153 94.0058C327.274 92.637 324.026 87.3516 322.512 84.8801C327.175 73.3427 329.596 70.9464 330.244 71.1849C330.373 71.4389 330.354 71.3914 330.261 71.1915Z" fill="#582333"/>
<path d="M320.267 100.85C319.829 96.0961 320.237 90.5081 322.512 84.8801C324.026 87.3516 327.274 92.637 328.153 94.0058C325.14 97.7705 322.075 100.85 320.267 100.85Z" fill="#743643"/>
<path d="M336.941 80.6024C336.941 82.8838 331.597 106.269 323.313 112.257C322.164 110.049 320.734 105.924 320.267 100.85C322.075 100.85 325.14 97.7705 328.153 94.0058C332.532 88.5344 336.801 81.616 336.941 80.6024Z" fill="#361220"/>
<path d="M296.86 120.527C305.678 121.313 323.531 123.098 324.4 123.95C323.958 124.634 322.423 126.27 321.71 127.003C313.825 127.674 303.882 128.512 303.54 128.512C303.006 128.512 298.196 129.938 291.784 134.216C286.653 137.638 279.136 144.768 276.019 147.905C268.751 152.011 263.727 157.791 262.124 160.167C254.001 163.589 246.27 175.282 243.42 180.7C239.768 182.696 230.808 184.522 224.182 175.852C217.555 167.183 228.724 158.171 235.137 154.749C237.061 148.817 241.461 142.771 243.42 140.49C249.192 137.296 251.347 139.92 251.703 141.631C251.525 143.247 251.009 147.277 250.367 150.471C249.726 153.665 252.416 154.654 253.841 154.749C257.315 152.468 266.025 146.08 273.079 138.779C280.134 131.478 291.873 123.569 296.86 120.527Z" fill="#F9443B"/>
<path d="M324.4 123.95C325.295 124.825 326.183 125.695 327.054 126.547C325.523 126.678 323.681 126.835 321.71 127.003C322.423 126.27 323.958 124.634 324.4 123.95Z" fill="#F9443B"/>
<path fill-rule="evenodd" clip-rule="evenodd" d="M235.137 209.788L243.42 193.533L265.331 168.438L283.233 150.471L296.86 141.631L308.35 135.642L300.601 150.471C303.184 150.661 309.152 151.213 312.358 151.897C311.022 152.753 307.655 154.407 304.876 154.179C302.098 153.95 303.719 154.274 304.876 154.464L314.763 159.027C312.714 160.833 308.243 166.27 306.747 173.571C306.688 173.856 306.626 174.141 306.558 174.426C304.905 181.452 300.699 188.511 298.731 191.252C295.792 195.149 287.134 203.743 276.019 206.937C262.124 210.929 250.635 212.355 249.833 212.355H240.481C240.837 210.929 239.84 208.42 235.137 209.788ZM281.63 200.948C303.861 190.681 300.868 166.441 296.593 155.604C291.788 156.228 287.289 157.657 283.233 159.488C273.937 163.686 266.971 169.997 263.995 173.571L250.118 189.826L242.084 199.237C246.003 204.085 259.399 211.214 281.63 200.948Z" fill="#110311"/>
<path d="M331.597 163.304C328.39 165.301 321.924 171.004 321.71 177.848C322.779 177.848 332.131 175.567 332.933 170.434C333.574 166.327 332.309 163.97 331.597 163.304Z" fill="#F9443B"/>
<path d="M318.236 157.03C319.662 157.03 321.657 158.684 318.236 165.301C314.816 171.917 312.892 171.479 312.358 170.434L311.556 165.871C312.18 164.35 314.389 160.453 318.236 157.03Z" fill="#F9443B"/>
<path d="M316.099 192.107C319.305 192.913 326.199 191.474 328.123 179.274C328.088 179.293 328.003 179.332 327.876 179.391L327.873 179.392C326.034 180.242 315.35 185.179 316.099 192.107Z" fill="#F9443B"/>
<path d="M276.019 206.937C287.134 203.743 295.792 195.149 298.731 191.252C300.699 188.511 304.905 181.452 306.558 174.426C308.409 174.997 313.23 175.738 317.702 174.141C316.455 177.753 313.053 186.347 309.419 191.822C306.034 194.009 298.303 200.206 294.456 207.507C293.743 208.458 290.18 211.385 281.63 215.492C273.079 219.599 264.173 220.625 260.788 220.625H252.772C251.525 220.435 247.321 218.515 240.481 212.355H249.833C250.635 212.355 262.124 210.929 276.019 206.937Z" fill="#F9443B"/>
<path d="M201.737 196.1C201.737 194.009 203.393 189.199 210.02 186.689C210.644 185.643 212.906 183.495 216.967 183.267C221.029 183.039 222.4 181.461 222.578 180.7L229.793 188.115V202.374C229.793 204.427 224.093 208.172 221.242 209.788C221.19 209.761 221.019 209.695 220.746 209.59C218.223 208.623 207.042 204.336 201.737 196.1Z" fill="#F9443B"/>
<path d="M204.676 171.575L207.882 163.589C209.486 164.445 212.959 167.411 214.028 172.43C213.672 173.856 213.387 176.936 215.097 177.848C216.807 178.761 215.097 180.7 214.028 181.556C213.137 181.651 210.929 181.499 209.218 180.13C207.508 178.761 206.012 181.08 205.478 182.411C205.121 182.982 204.248 183.609 203.607 181.556C202.966 179.502 204.053 174.046 204.676 171.575Z" fill="#F9443B"/>
<path d="M320.641 219.199L326.252 213.781C327.321 217.488 328.444 225.644 324.382 228.61C320.321 231.576 317.346 229.846 316.366 228.61L319.993 220.625L320.641 219.199Z" fill="#F9443B"/>
<path d="M326.252 213.781L320.641 219.199L319.993 220.625C313.529 224.333 298.945 233.116 292.318 238.592C285.691 244.067 270.853 251.9 264.262 255.132L249.031 261.406L249.566 268.821L235.671 269.676L220.975 279.657C217.887 280.411 209.434 281.462 200.134 279.708C200.045 279.692 199.956 279.675 199.866 279.657V277.376C199.955 277.359 200.044 277.341 200.134 277.324C214.416 274.51 245.254 265.832 256.513 253.136C256.972 253.136 257.543 252.656 258.564 251.797C261.711 249.152 269.133 242.913 290.715 236.025C291.16 234.124 291.677 230.036 290.18 228.895C288.684 227.755 283.322 229.751 280.828 230.892H274.415C289.735 225.854 322.512 213.553 331.062 204.655C330.936 206.271 329.796 210.359 326.252 213.781Z" fill="#250719"/>
<path d="M224.182 222.622C227.032 222.336 233.32 222.507 235.671 225.473C237.051 227.213 237.149 229.627 236.797 231.747C236.548 233.242 236.076 234.59 235.671 235.455C233.534 230.892 230.862 232.032 229.793 233.173L223.647 238.734L217.502 244.295L214.295 250.284L212.425 241.158L224.182 222.622Z" fill="#813541"/>
<path d="M229.793 233.173C230.862 232.032 233.534 230.892 235.671 235.455C236.076 234.59 236.548 233.242 236.797 231.747C237.8 234.884 238.138 242.242 231.46 246.577C232.748 242.558 232.47 238.044 231.931 235.455C229.293 236.139 228.516 237.451 228.457 238.021C228.457 242.812 226.319 245.341 225.251 246.006L218.078 250.284L215.898 250.569C216.433 248.953 218.731 244.324 223.647 238.734L229.793 233.173Z" fill="#0C0408"/>
<path d="M226.587 253.136C220.174 257.014 216.967 256.083 216.166 255.132V251.425L218.078 250.284L225.251 246.006C226.319 245.341 228.457 242.812 228.457 238.021C228.516 237.451 229.293 236.139 231.931 235.455C232.47 238.044 232.748 242.558 231.46 246.577C230.621 249.196 229.117 251.605 226.587 253.136Z" fill="#F9AE1D"/>
<path d="M296.593 155.604C300.868 166.441 303.861 190.681 281.63 200.948C259.399 211.214 246.003 204.085 242.084 199.237L250.118 189.826C254.744 194.009 267.148 200.149 279.76 191.252C292.371 182.354 287.33 166.369 283.233 159.488C287.289 157.657 291.788 156.228 296.593 155.604Z" fill="white"/>
<path d="M263.995 173.571C266.971 169.997 273.937 163.686 283.233 159.488C287.33 166.369 292.371 182.354 279.76 191.252C267.148 200.149 254.744 194.009 250.118 189.826L263.995 173.571Z" fill="#FC4118"/>
<path d="M366.333 195.244C376.379 207.792 392.964 222.526 400 228.325C399.725 228.383 399.442 228.444 399.153 228.508C390.034 229.279 361.422 198.868 342.819 177.282C340.076 174.099 337.551 171.108 335.337 168.438L334.269 154.749L339.345 162.164C344.155 167.962 356.286 182.696 366.333 195.244Z" fill="#140313"/>
<path d="M313.16 269.676C312.625 267.395 310.808 262.547 307.816 261.406C317.168 248.668 335.765 219.941 335.337 206.937C336.317 205.796 337.902 201.518 336.406 193.533L342.552 179.56C342.017 186.404 340.04 203.343 336.406 216.348C332.772 229.352 326.876 241.158 324.382 245.436C322.244 249.048 317.649 257.299 316.366 261.406C315.084 265.512 313.694 268.63 313.16 269.676Z" fill="#180717"/>
<path d="M336.406 216.348C340.04 203.343 342.017 186.404 342.552 179.56L342.819 177.282C361.422 198.868 390.034 229.279 399.153 228.508C382.861 232.107 344.244 245.018 313.16 269.676C313.694 268.63 315.084 265.512 316.366 261.406C317.649 257.299 322.244 249.048 324.382 245.436C326.876 241.158 332.772 229.352 336.406 216.348Z" fill="#330F1B"/>
<path d="M199.866 21C199.952 23.1569 200.041 25.4412 200.134 27.8357C201.777 70.3985 204.417 147.814 203.607 164.445C202.83 180.423 201.109 187.389 200.134 189.377C200.037 189.574 199.947 189.723 199.866 189.826V21Z" fill="#210917"/>
<path d="M282.164 275.665L290.715 287.642L270.675 285.076L267.735 289.068L259.452 286.787C265.224 284.539 276.998 278.435 282.164 275.665Z" fill="#1C0516"/>
<path d="M234.603 147.334C233.89 147.524 231.984 147.163 230.06 144.197C228.136 141.231 226.052 141.25 225.251 141.631C224.805 140.395 225.037 137.866 229.526 137.638C231.574 133.361 237.488 125.033 244.756 125.946C243.242 128.132 240 133.76 239.145 138.779C238.29 143.798 235.76 146.574 234.603 147.334Z" fill="#F9443B"/>
<path fill-rule="evenodd" clip-rule="evenodd" d="M200.134 21.0422C200.044 21.0281 199.955 21.014 199.866 21C199.952 23.1569 200.041 25.4412 200.134 27.8357V21.0422ZM200.134 314.695V308.746V308.638C200.008 308.687 199.918 308.723 199.866 308.746V314.734C199.95 314.725 200.04 314.712 200.134 314.695ZM200.134 189.377C200.037 189.574 199.947 189.723 199.866 189.826V277.376C199.955 277.359 200.044 277.341 200.134 277.324V189.826V189.377Z" fill="#561E29"/>
<path fill-rule="evenodd" clip-rule="evenodd" d="M282.164 275.665C287.508 274.524 301.492 265.684 307.816 261.406C317.168 248.668 335.765 219.941 335.337 206.937C336.317 205.796 337.902 201.518 336.406 193.533L342.552 179.56L342.819 177.282C340.076 174.099 337.551 171.108 335.337 168.438L334.269 154.749L335.337 140.49L339.345 138.494C338.668 137.891 333.29 132.649 327.054 126.547C325.523 126.678 323.681 126.835 321.71 127.003C313.825 127.674 303.882 128.512 303.54 128.512C303.006 128.512 298.196 129.938 291.784 134.216C286.653 137.638 279.136 144.768 276.019 147.905C268.751 152.011 263.727 157.791 262.124 160.167C254.001 163.589 246.27 175.282 243.42 180.7C239.768 182.696 230.808 184.522 224.182 175.852C222.008 174.141 216.934 169.122 214.028 162.734C205.05 158.399 208.506 144.958 211.356 138.779C214.135 137.41 215.542 136.117 215.898 135.642C211.873 131.754 210.454 127.378 210.396 123.329C208.811 118.837 209.097 109.729 209.459 105.436C209.429 105.313 209.436 105.208 209.486 105.128C209.913 104.443 209.308 92.2947 208.951 86.306C207.878 83.786 208.184 76.3801 208.346 72.4629C208.368 71.9436 208.387 71.4856 208.399 71.1085C208.402 70.8378 208.408 70.5797 208.417 70.336L207.348 69.1952L206.546 57.5029C210.808 57.7311 212.776 56.6474 213.226 56.077C216.31 57.3113 218.073 58.3972 219.105 59.3213C228.964 58.0383 279.503 90.275 303.54 106.554C302.631 112.961 299.863 116.328 298.19 118.364C297.405 119.319 296.86 119.981 296.86 120.527C305.678 121.313 323.531 123.098 324.4 123.95L323.848 123.409C319.196 118.853 314.432 114.18 311.022 110.831C314.139 102.941 319.893 85.8497 317.969 80.6024C316.045 75.3551 310.399 64.3472 307.816 59.4992C305.322 56.077 299.158 48.7764 294.456 46.9513C275.928 35.1326 223.775 24.7856 200.134 21.0422V27.8357C201.777 70.3985 204.417 147.814 203.607 164.445C202.83 180.423 201.109 187.389 200.134 189.377V189.826V277.324C214.416 274.51 245.254 265.832 256.513 253.136C256.972 253.136 257.543 252.656 258.564 251.797C261.711 249.152 269.133 242.913 290.715 236.025C291.16 234.124 291.677 230.036 290.18 228.895C288.684 227.755 283.322 229.751 280.828 230.892H274.415C289.735 225.854 322.512 213.553 331.062 204.655C330.936 206.271 329.796 210.359 326.252 213.781C327.321 217.488 328.444 225.644 324.382 228.61C320.321 231.576 317.346 229.846 316.366 228.61C314.139 231.557 308.19 238.649 302.204 243.44C296.219 248.231 277.444 259.885 268.804 265.113C262.302 270.627 247.161 283.308 238.611 289.924C228.975 297.38 206.31 306.226 200.96 308.314C200.606 308.452 200.327 308.561 200.134 308.638V308.746V314.695C204.818 313.842 221.58 303.029 229.526 297.624C239.786 294.43 253.752 289.068 259.452 286.787C265.224 284.539 276.998 278.435 282.164 275.665ZM224.182 222.622C227.032 222.336 233.32 222.507 235.671 225.473C237.051 227.213 237.149 229.627 236.797 231.747C237.8 234.884 238.138 242.242 231.46 246.577C230.621 249.196 229.117 251.605 226.587 253.136C220.174 257.014 216.967 256.083 216.166 255.132V251.425L218.078 250.284L215.898 250.569C216.433 248.953 218.731 244.324 223.647 238.734L217.502 244.295L214.295 250.284L212.425 241.158L224.182 222.622ZM207.882 163.589L204.676 171.575C204.053 174.046 202.966 179.502 203.607 181.556C204.248 183.609 205.121 182.982 205.478 182.411C206.012 181.08 207.508 178.761 209.218 180.13C210.929 181.499 213.137 181.651 214.028 181.556C215.097 180.7 216.807 178.761 215.097 177.848C213.387 176.936 213.672 173.856 214.028 172.43C212.959 167.411 209.486 164.445 207.882 163.589ZM210.02 186.689C203.393 189.199 201.737 194.009 201.737 196.1C207.042 204.336 218.223 208.623 220.746 209.59C221.019 209.695 221.19 209.761 221.242 209.788C224.093 208.172 229.793 204.427 229.793 202.374V188.115L222.578 180.7C222.4 181.461 221.029 183.039 216.967 183.267C212.906 183.495 210.644 185.643 210.02 186.689ZM235.137 209.788L243.42 193.533L265.331 168.438L283.233 150.471L296.86 141.631L308.35 135.642L300.601 150.471C303.184 150.661 309.152 151.213 312.358 151.897C311.022 152.753 307.655 154.407 304.876 154.179C302.098 153.95 303.719 154.274 304.876 154.464L314.763 159.027C312.714 160.833 308.243 166.27 306.747 173.571C306.688 173.856 306.626 174.141 306.558 174.426C308.409 174.997 313.23 175.738 317.702 174.141C316.455 177.753 313.053 186.347 309.419 191.822C306.034 194.009 298.303 200.206 294.456 207.507C293.743 208.458 290.18 211.385 281.63 215.492C273.079 219.599 264.173 220.625 260.788 220.625H252.772C251.525 220.435 247.321 218.515 240.481 212.355C240.837 210.929 239.84 208.42 235.137 209.788ZM318.236 165.301C321.657 158.684 319.662 157.03 318.236 157.03C314.389 160.453 312.18 164.35 311.556 165.871L312.358 170.434C312.892 171.479 314.816 171.917 318.236 165.301ZM321.71 177.848C321.924 171.004 328.39 165.301 331.597 163.304C332.309 163.97 333.574 166.327 332.933 170.434C332.131 175.567 322.779 177.848 321.71 177.848ZM328.123 179.274C326.199 191.474 319.305 192.913 316.099 192.107C315.35 185.179 326.034 180.242 327.873 179.392L327.876 179.391C328.003 179.332 328.088 179.293 328.123 179.274Z" fill="#682532"/>
<path fill-rule="evenodd" clip-rule="evenodd" d="M214.028 70.336L207.348 69.1952L208.417 70.336C210.768 72.8455 213.672 74.4235 214.83 74.8988C219.532 75.3551 221.777 78.5111 222.311 80.0321C215.898 82.9979 214.652 86.5912 214.83 88.0171C209.557 85.4198 208.357 76.1146 208.399 71.1085C208.387 71.4856 208.368 71.9436 208.346 72.4629C208.184 76.3801 207.878 83.786 208.951 86.306C210.875 88.8156 215.453 91.3442 217.502 92.2947C226.587 95.7169 225.251 99.139 225.251 99.4242C219.906 98.5116 215.008 105.698 213.226 109.405C211.968 108.399 209.683 106.369 209.459 105.436C209.097 109.729 208.811 118.837 210.396 123.329C210.324 118.349 212.309 113.866 214.028 111.402C218.731 117.79 223.469 120.147 225.251 120.527L224.182 123.95C222.846 124.71 219.96 126.973 219.105 129.938C218.25 132.904 216.611 134.977 215.898 135.642C215.542 136.117 214.135 137.41 211.356 138.779C216.7 148.133 221.599 152.943 223.38 154.179V157.886C218.25 156.517 215.008 160.548 214.028 162.734C216.934 169.122 222.008 174.141 224.182 175.852C217.555 167.183 228.724 158.171 235.137 154.749C237.061 148.817 241.461 142.771 243.42 140.49C249.192 137.296 251.347 139.92 251.703 141.631C251.525 143.247 251.009 147.277 250.367 150.471C249.726 153.665 252.416 154.654 253.841 154.749C257.315 152.468 266.025 146.08 273.079 138.779C280.134 131.478 291.873 123.569 296.86 120.527C296.86 119.981 297.405 119.319 298.19 118.364C299.863 116.328 302.631 112.961 303.54 106.554C279.503 90.275 228.964 58.0383 219.105 59.3213C220.933 60.9594 220.463 62.0892 220.975 62.6361C212.852 60.811 212.959 67.0089 214.028 70.336ZM230.06 144.197C231.984 147.163 233.89 147.524 234.603 147.334C235.76 146.574 238.29 143.798 239.145 138.779C240 133.76 243.242 128.132 244.756 125.946C237.488 125.033 231.574 133.361 229.526 137.638C225.037 137.866 224.805 140.395 225.251 141.631C226.052 141.25 228.136 141.231 230.06 144.197Z" fill="#8C3946"/>
<path d="M400 228.325C384.823 211.671 359.653 159.217 348.965 135.072L339.345 138.494L335.337 140.49L334.269 154.749L339.345 162.164C344.155 167.962 356.286 182.696 366.333 195.244C376.379 207.792 392.964 222.526 400 228.325Z" fill="#863241"/>
<path d="M348.965 135.072C348.751 121.155 340.859 92.9602 336.941 80.6024C337.21 81.4579 336.139 111.745 323.848 123.409L324.4 123.95C325.295 124.825 326.183 125.695 327.054 126.547C333.29 132.649 338.668 137.891 339.345 138.494L348.965 135.072Z" fill="#682532"/>
<path fill-rule="evenodd" clip-rule="evenodd" d="M200.134 279.708C200.045 279.692 199.956 279.675 199.866 279.657V308.746C199.918 308.723 200.008 308.687 200.134 308.638V279.708Z" fill="#441424"/>
<path d="M238.611 289.924C247.161 283.308 262.302 270.627 268.804 265.113C277.444 259.885 296.219 248.231 302.204 243.44C308.19 238.649 314.139 231.557 316.366 228.61L319.993 220.625C313.529 224.333 298.945 233.116 292.318 238.592C285.691 244.067 270.853 251.9 264.262 255.132L249.031 261.406L249.566 268.821L235.671 269.676L220.975 279.657C217.887 280.411 209.434 281.462 200.134 279.708V308.638C200.327 308.561 200.606 308.452 200.96 308.314C206.31 306.226 228.975 297.38 238.611 289.924Z" fill="#52182B"/>
</svg>
