<svg width="405" height="405" viewBox="0 0 405 405" fill="none" xmlns="http://www.w3.org/2000/svg">
<path d="M82.6933 44.4656C64.0309 59.9698 52.9916 82.3395 49.8047 91.5862C42.0287 132.12 23.7997 216.608 13.0918 230.288C10.4148 237.255 4.60198 251.796 2.76633 254.228C0.930692 256.661 0.216831 264.109 0.0893555 267.529C1.10733 272.789 4.3527 282.976 10.1371 289.189C10.3528 288.008 14.1713 251.086 59.4016 215.567C67.949 208.855 77.9617 202.21 89.6895 195.89C95.8029 192.595 102.382 189.389 109.463 186.307C110.188 186.09 110.954 185.864 111.758 185.63C131.172 179.972 173.309 168.959 202.393 167.207V0.484253V0.104248C169.98 8.52712 101.282 29.0224 82.6933 44.4656Z" fill="#2C2B3B"/>
<path d="M202.393 0.104248V0.484253V167.207C231.476 168.959 273.613 179.972 293.027 185.63C293.831 185.864 294.597 186.09 295.322 186.307C302.403 189.389 308.982 192.595 315.095 195.89C326.823 202.21 336.836 208.855 345.383 215.567C390.614 251.086 394.432 288.008 394.648 289.189C400.432 282.976 403.678 272.789 404.696 267.529C404.568 264.109 403.854 256.661 402.019 254.228C400.183 251.796 394.37 237.255 391.693 230.288C380.985 216.608 362.756 132.12 354.98 91.5862C351.793 82.3395 340.754 59.9698 322.092 44.4656C303.503 29.0224 234.805 8.52712 202.393 0.104248Z" fill="#585C68"/>
<path d="M15.004 292.989C28.0064 304.263 59.4418 329.926 81.1636 342.39C102.885 354.854 130.751 370.13 141.969 376.21C150.383 380.264 168.586 389.358 174.093 393.31C179.6 397.262 195.254 402.557 202.393 404.711V401.671C184.928 395.084 146.635 377.297 134.703 356.929C131.261 353.002 120.936 342.413 107.169 331.469C103.982 327.415 96.3076 314.673 91.1067 296.128C79.7614 285.615 57.26 251.136 59.4016 215.567C14.1713 251.086 10.3528 288.008 10.1371 289.189C11.5961 290.756 13.2168 292.07 15.004 292.989Z" fill="#111020"/>
<path fill-rule="evenodd" clip-rule="evenodd" d="M91.1067 296.128C108.851 300.08 119.661 302.588 122.848 303.348C126.29 307.908 133.326 317.181 133.938 317.789C134.703 318.549 134.703 324.629 143.499 324.629C150.536 324.629 167.847 321.589 175.623 320.069L202.393 313.509V167.207C173.309 168.959 131.172 179.972 111.758 185.63C114.435 186.307 151.147 214.807 166.827 216.327C175.495 217.467 189.925 216.175 178.3 201.887C182.506 204.674 189.314 213.591 182.889 226.967C183.654 226.587 201.245 225.827 191.302 201.887C196.274 207.207 202.163 220.051 185.948 228.867C180.594 230.387 167.592 231.983 158.414 226.207L168.739 240.648L166.827 244.068C165.297 243.054 162.008 240.42 161.091 237.988C160.326 240.394 158.108 246.12 155.354 249.768C157.649 249.261 163.538 248.324 168.739 248.628C163.003 251.414 150 258.356 143.881 263.828C140.44 267.248 118.259 271.808 116.729 277.888C116.729 277.128 112.905 275.228 118.259 269.528C112.905 270.541 100.897 270.592 95.6958 262.688C99.1376 265.095 107.321 269.376 112.522 267.248C104.619 263.828 88.9651 253.112 89.577 237.607C88.1747 236.721 84.8349 234.719 82.6933 233.807C84.8604 232.034 89.271 228.031 89.577 226.207C89.9594 223.927 92.6364 217.847 97.6079 211.387C101.585 206.219 110.993 202.394 115.199 201.127C109.846 197.96 96.6901 194.515 86.9 206.067L89.6895 195.89C77.9617 202.21 67.949 208.855 59.4016 215.567C57.26 251.136 79.7614 285.615 91.1067 296.128ZM192.067 306.768H180.594C186.407 314.977 196.784 314.749 201.245 313.609C199.716 311.785 194.489 308.288 192.067 306.768ZM189.389 303.348C189.389 303.348 205.833 306.388 195.508 266.488C179.447 280.928 173.711 301.068 189.389 303.348Z" fill="#373948"/>
<path fill-rule="evenodd" clip-rule="evenodd" d="M111.758 185.63C110.954 185.864 110.188 186.09 109.463 186.307C102.382 189.389 95.8029 192.595 89.6895 195.89L86.9 206.067C96.6901 194.515 109.846 197.96 115.199 201.127C110.993 202.394 101.585 206.219 97.6079 211.387C92.6364 217.847 89.9594 223.927 89.577 226.207C89.271 228.031 84.8604 232.034 82.6933 233.807C84.8349 234.719 88.1747 236.721 89.577 237.607C88.9651 253.112 104.619 263.828 112.522 267.248C107.321 269.376 99.1376 265.095 95.6958 262.688C100.897 270.592 112.905 270.541 118.259 269.528C112.905 275.228 116.729 277.128 116.729 277.888C118.259 271.808 140.44 267.248 143.881 263.828C150 258.356 163.003 251.414 168.739 248.628C163.538 248.324 157.649 249.261 155.354 249.768C158.108 246.12 160.326 240.394 161.091 237.988C162.008 240.42 165.297 243.054 166.827 244.068L168.739 240.648L158.414 226.207C167.592 231.983 180.594 230.387 185.948 228.867C202.163 220.051 196.274 207.207 191.302 201.887C201.245 225.827 183.654 226.587 182.889 226.967C189.314 213.591 182.506 204.674 178.3 201.887C189.925 216.175 175.495 217.467 166.827 216.327C151.147 214.807 114.435 186.307 111.758 185.63ZM151.147 223.927C140.312 218.354 118.412 207.283 117.494 207.587C107.092 210.019 101.177 216.961 99.52 220.127C97.9903 221.901 95.4663 228.715 97.6079 241.788C99.7495 254.86 113.542 260.661 120.171 261.928C127.437 262.815 143.958 261.32 151.912 248.248C159.867 235.175 154.717 226.587 151.147 223.927Z" fill="#12101F"/>
<path fill-rule="evenodd" clip-rule="evenodd" d="M148.47 345.149C157.266 357.309 200.48 360.25 202.393 360.63V313.509L175.623 320.069C167.847 321.589 150.536 324.629 143.499 324.629C134.703 324.629 134.703 318.549 133.938 317.789C133.326 317.181 126.29 307.908 122.848 303.348C124.378 305.755 128.431 312.773 132.409 321.589C137.38 332.609 139.675 332.989 148.47 345.149ZM149.235 337.549C139.675 336.029 143.117 327.669 143.117 327.289C150.765 325.465 153.952 328.049 154.589 329.569C155.813 337.169 151.53 338.056 149.235 337.549ZM158.796 336.409C155.354 324.629 165.297 326.529 166.062 325.769C171.263 326.377 170.779 333.115 169.886 336.409C165.909 341.273 160.836 338.436 158.796 336.409ZM176.005 339.069C172.946 334.813 173.966 327.669 174.858 324.629C179.065 321.969 183.271 324.249 183.654 325.389C183.96 326.301 183.271 334.382 182.889 338.309C181.359 341.045 177.662 339.956 176.005 339.069ZM200.098 325.769C194.285 317.561 187.988 322.349 185.566 325.769C184.648 334.585 185.948 339.069 186.713 340.209C191.175 340.589 200.174 341.121 200.48 340.209C200.786 339.297 200.353 330.202 200.098 325.769ZM151.147 344.389C149.618 344.085 147.451 340.969 146.176 339.449C148.873 338.57 150.171 338.761 153.824 339.069C155.354 341.349 151.53 344.389 151.147 344.389ZM165.68 351.989C160.173 350.469 158.796 344.009 158.796 340.969C169.198 341.577 172.308 343.502 172.563 344.389C172.563 347.556 171.187 353.509 165.68 351.989ZM183.271 345.149C179.906 341.501 175.75 343.122 174.093 344.389C174.475 347.429 173.711 353.509 179.447 354.649C184.036 355.561 183.909 348.696 183.271 345.149ZM200.863 344.009L185.566 343.629C184.419 352.749 187.478 356.549 194.744 357.309C200.557 357.917 201.245 348.696 200.863 344.009Z" fill="#140D25"/>
<path d="M189.389 303.348C189.389 303.348 205.833 306.388 195.508 266.488C179.447 280.928 173.711 301.068 189.389 303.348Z" fill="#100F21"/>
<path d="M143.117 327.289C143.117 327.669 139.675 336.029 149.235 337.549C151.53 338.056 155.813 337.169 154.589 329.569C153.952 328.049 150.765 325.465 143.117 327.289Z" fill="#D4DFD9"/>
<path d="M166.062 325.769C165.297 326.529 155.354 324.629 158.796 336.409C160.836 338.436 165.909 341.273 169.886 336.409C170.779 333.115 171.263 326.377 166.062 325.769Z" fill="#D4DFD9"/>
<path d="M174.858 324.629C173.966 327.669 172.946 334.813 176.005 339.069C177.662 339.956 181.359 341.045 182.889 338.309C183.271 334.382 183.96 326.301 183.654 325.389C183.271 324.249 179.065 321.969 174.858 324.629Z" fill="#D4DFD9"/>
<path d="M185.566 325.769C187.988 322.349 194.285 317.561 200.098 325.769C200.353 330.202 200.786 339.297 200.48 340.209C200.174 341.121 191.175 340.589 186.713 340.209C185.948 339.069 184.648 334.585 185.566 325.769Z" fill="#D4DFD9"/>
<path d="M146.176 339.449C147.451 340.969 149.618 344.085 151.147 344.389C151.53 344.389 155.354 341.349 153.824 339.069C150.171 338.761 148.873 338.57 146.176 339.449Z" fill="#D4DFD9"/>
<path d="M158.796 340.969C158.796 344.009 160.173 350.469 165.68 351.989C171.187 353.509 172.563 347.556 172.563 344.389C172.308 343.502 169.198 341.577 158.796 340.969Z" fill="#D4DFD9"/>
<path d="M174.093 344.389C175.75 343.122 179.906 341.501 183.271 345.149C183.909 348.696 184.036 355.561 179.447 354.649C173.711 353.509 174.475 347.429 174.093 344.389Z" fill="#D4DFD9"/>
<path d="M185.566 343.629L200.863 344.009C201.245 348.696 200.557 357.917 194.744 357.309C187.478 356.549 184.419 352.749 185.566 343.629Z" fill="#D4DFD9"/>
<path d="M219.219 343.629L203.922 344.009C203.54 348.696 204.228 357.917 210.041 357.309C217.307 356.549 220.367 352.749 219.219 343.629Z" fill="#D4DFD9"/>
<path d="M219.219 325.769C216.797 322.349 210.5 317.561 204.687 325.769C204.432 330.202 203.999 339.297 204.305 340.209C204.611 341.121 213.61 340.589 218.072 340.209C218.837 339.069 220.137 334.585 219.219 325.769Z" fill="#D4DFD9"/>
<path d="M134.703 356.929C146.635 377.297 184.928 395.084 202.393 401.671V360.63C200.48 360.25 157.266 357.309 148.47 345.149C139.675 332.989 137.38 332.609 132.409 321.589C128.431 312.773 124.378 305.755 122.848 303.348C119.661 302.588 108.851 300.08 91.1067 296.128C96.3076 314.673 103.982 327.415 107.169 331.469C120.936 342.413 131.261 353.002 134.703 356.929Z" fill="#2C2E39"/>
<path fill-rule="evenodd" clip-rule="evenodd" d="M202.393 167.207V313.509L229.162 320.069C236.938 321.589 254.249 324.629 261.286 324.629C270.082 324.629 270.082 318.549 270.847 317.789C271.459 317.181 278.495 307.908 281.937 303.348C285.124 302.588 295.934 300.08 313.678 296.128C325.024 285.615 347.525 251.136 345.383 215.567C336.836 208.855 326.823 202.21 315.095 195.89L317.885 206.067C308.095 194.515 294.939 197.96 289.586 201.127C293.792 202.394 303.2 206.219 307.177 211.387C312.149 217.847 314.826 223.927 315.208 226.207C315.514 228.031 319.925 232.034 322.092 233.807C319.95 234.719 316.61 236.721 315.208 237.607C315.82 253.112 300.166 263.828 292.263 267.248C297.464 269.376 305.647 265.095 309.089 262.688C303.888 270.592 291.88 270.541 286.526 269.528C291.88 275.228 288.056 277.128 288.056 277.888C286.526 271.808 264.345 267.248 260.904 263.828C254.785 258.356 241.782 251.414 236.046 248.628C241.247 248.324 247.136 249.261 249.431 249.768C246.677 246.12 244.459 240.394 243.694 237.988C242.777 240.42 239.488 243.054 237.958 244.068L236.046 240.648L246.371 226.207C237.193 231.983 224.191 230.387 218.837 228.867C202.622 220.051 208.511 207.207 213.483 201.887C203.54 225.827 221.131 226.587 221.896 226.967C215.471 213.591 222.279 204.674 226.485 201.887C214.86 216.175 229.29 217.467 237.958 216.327C253.638 214.807 290.35 186.307 293.027 185.63C273.613 179.972 231.476 168.959 202.393 167.207ZM212.718 306.768H224.191C218.378 314.977 208.001 314.749 203.54 313.609C205.069 311.709 210.296 308.288 212.718 306.768ZM215.396 303.348C215.396 303.348 198.952 306.388 209.277 266.488C225.338 280.928 231.074 301.068 215.396 303.348Z" fill="#484A5A"/>
<path d="M202.393 360.63V401.671C219.857 395.084 258.15 377.297 270.082 356.929C273.524 353.002 283.849 342.413 297.616 331.469C300.803 327.415 308.477 314.673 313.678 296.128C295.934 300.08 285.124 302.588 281.937 303.348C280.407 305.755 276.354 312.773 272.376 321.589C267.405 332.609 265.11 332.989 256.315 345.149C247.519 357.309 204.305 360.25 202.393 360.63Z" fill="#3A3C4B"/>
<path fill-rule="evenodd" clip-rule="evenodd" d="M202.393 313.509V360.63C204.305 360.25 247.519 357.309 256.315 345.149C265.11 332.989 267.405 332.609 272.376 321.589C276.354 312.773 280.407 305.755 281.937 303.348C278.495 307.908 271.459 317.181 270.847 317.789C270.082 318.549 270.082 324.629 261.286 324.629C254.249 324.629 236.938 321.589 229.162 320.069L202.393 313.509ZM255.55 337.549C265.11 336.029 261.668 327.669 261.668 327.289C254.02 325.465 250.833 328.049 250.196 329.569C248.972 337.169 253.255 338.056 255.55 337.549ZM245.989 336.409C249.431 324.629 239.488 326.529 238.723 325.769C233.522 326.377 234.006 333.115 234.899 336.409C238.876 341.273 243.949 338.436 245.989 336.409ZM228.78 339.069C231.839 334.813 230.819 327.669 229.927 324.629C225.72 321.969 221.514 324.249 221.131 325.389C220.825 326.301 221.514 334.382 221.896 338.309C223.426 341.045 227.123 339.956 228.78 339.069ZM204.687 325.769C210.5 317.561 216.797 322.349 219.219 325.769C220.137 334.585 218.837 339.069 218.072 340.209C213.61 340.589 204.611 341.121 204.305 340.209C203.999 339.297 204.432 330.202 204.687 325.769ZM253.638 344.389C255.167 344.085 257.334 340.969 258.609 339.449C255.912 338.57 254.614 338.761 250.961 339.069C249.431 341.349 253.255 344.389 253.638 344.389ZM239.105 351.989C244.612 350.469 245.989 344.009 245.989 340.969C235.587 341.577 232.477 343.502 232.222 344.389C232.222 347.556 233.598 353.509 239.105 351.989ZM221.514 345.149C224.879 341.501 229.035 343.122 230.692 344.389C230.31 347.429 231.074 353.509 225.338 354.649C220.749 355.561 220.876 348.696 221.514 345.149ZM203.922 344.009L219.219 343.629C220.367 352.749 217.307 356.549 210.041 357.309C204.228 357.917 203.54 348.696 203.922 344.009Z" fill="#140D25"/>
<path d="M229.927 324.629C230.819 327.669 231.839 334.813 228.78 339.069C227.123 339.956 223.426 341.045 221.896 338.309C221.514 334.382 220.825 326.301 221.131 325.389C221.514 324.249 225.72 321.969 229.927 324.629Z" fill="#D4DFD9"/>
<path d="M238.723 325.769C239.488 326.529 249.431 324.629 245.989 336.409C243.949 338.436 238.876 341.273 234.899 336.409C234.006 333.115 233.522 326.377 238.723 325.769Z" fill="#D4DFD9"/>
<path d="M261.668 327.289C261.668 327.669 265.11 336.029 255.55 337.549C253.255 338.056 248.972 337.169 250.196 329.569C250.833 328.049 254.02 325.465 261.668 327.289Z" fill="#D4DFD9"/>
<path d="M230.692 344.389C229.035 343.122 224.879 341.501 221.514 345.149C220.876 348.696 220.749 355.561 225.338 354.649C231.074 353.509 230.31 347.429 230.692 344.389Z" fill="#D4DFD9"/>
<path d="M245.989 340.969C245.989 344.009 244.612 350.469 239.105 351.989C233.598 353.509 232.222 347.556 232.222 344.389C232.477 343.502 235.587 341.577 245.989 340.969Z" fill="#D4DFD9"/>
<path d="M258.609 339.449C257.334 340.969 255.167 344.085 253.638 344.389C253.255 344.389 249.431 341.349 250.961 339.069C254.614 338.761 255.912 338.57 258.609 339.449Z" fill="#D4DFD9"/>
<path d="M215.396 303.348C215.396 303.348 198.952 306.388 209.277 266.488C225.338 280.928 231.074 301.068 215.396 303.348Z" fill="#100F21"/>
<path d="M224.191 306.768H212.718C210.296 308.288 205.069 311.709 203.54 313.609C208.001 314.749 218.378 314.977 224.191 306.768Z" fill="#1D1C2D"/>
<path d="M180.594 306.768H192.067C194.489 308.288 199.716 311.785 201.245 313.609C196.784 314.749 186.407 314.977 180.594 306.768Z" fill="#1D1C2D"/>
<path fill-rule="evenodd" clip-rule="evenodd" d="M295.322 186.307C294.597 186.09 293.831 185.864 293.027 185.63C290.35 186.307 253.638 214.807 237.958 216.327C229.29 217.467 214.86 216.175 226.485 201.887C222.279 204.674 215.471 213.591 221.896 226.967C221.131 226.587 203.54 225.827 213.483 201.887C208.511 207.207 202.622 220.051 218.837 228.867C224.191 230.387 237.193 231.983 246.371 226.207L236.046 240.648L237.958 244.068C239.488 243.054 242.777 240.42 243.694 237.988C244.459 240.394 246.677 246.12 249.431 249.768C247.136 249.261 241.247 248.324 236.046 248.628C241.782 251.414 254.785 258.356 260.904 263.828C264.345 267.248 286.526 271.808 288.056 277.888C288.056 277.128 291.88 275.228 286.526 269.528C291.88 270.541 303.888 270.592 309.089 262.688C305.647 265.095 297.464 269.376 292.263 267.248C300.166 263.828 315.82 253.112 315.208 237.607C316.61 236.721 319.95 234.719 322.092 233.807C319.925 232.034 315.514 228.031 315.208 226.207C314.826 223.927 312.149 217.847 307.177 211.387C303.2 206.219 293.792 202.394 289.586 201.127C294.939 197.96 308.095 194.515 317.885 206.067L315.095 195.89C308.982 192.595 302.403 189.389 295.322 186.307ZM253.638 223.927C264.473 218.354 286.373 207.283 287.291 207.587C287.549 207.647 287.804 207.71 288.056 207.776C297.983 210.361 303.649 217.039 305.265 220.127C306.795 221.901 309.319 228.715 307.177 241.788C305.036 254.86 291.243 260.661 284.614 261.928C277.348 262.815 260.827 261.32 252.873 248.248C244.918 235.175 250.068 226.587 253.638 223.927Z" fill="#12101F"/>
<path d="M202.393 401.671V404.711C209.531 402.557 225.185 397.262 230.692 393.31C236.199 389.358 254.402 380.264 262.816 376.21C274.034 370.13 301.9 354.854 323.621 342.39C345.343 329.926 376.779 304.263 389.781 292.989C391.568 292.07 393.189 290.756 394.648 289.189C394.432 288.008 390.614 251.086 345.383 215.567C347.525 251.136 325.024 285.615 313.678 296.128C308.477 314.673 300.803 327.415 297.616 331.469C283.849 342.413 273.524 353.002 270.082 356.929C258.15 377.297 219.857 395.084 202.393 401.671Z" fill="#111020"/>
<path d="M120.171 261.928C127.437 262.815 143.958 261.32 151.912 248.248C113.364 253.72 112.65 223.167 117.494 207.587C107.092 210.019 101.177 216.961 99.52 220.127C97.9903 221.901 95.4663 228.715 97.6079 241.788C99.7495 254.86 113.542 260.661 120.171 261.928Z" fill="#D4DFD9"/>
<path d="M252.873 248.248C260.827 261.32 277.348 262.815 284.614 261.928C291.243 260.661 305.036 254.86 307.177 241.788C309.319 228.715 306.795 221.901 305.265 220.127C303.649 217.039 297.983 210.361 288.056 207.776C293.92 221.773 295.092 249.464 252.873 248.248Z" fill="#D4DFD9"/>
<path d="M151.147 223.927C140.312 218.354 118.412 207.283 117.494 207.587C112.65 223.167 113.364 253.72 151.912 248.248C159.867 235.175 154.717 226.587 151.147 223.927Z" fill="#C2CEC7"/>
<path d="M287.291 207.587C286.373 207.283 264.473 218.354 253.638 223.927C250.068 226.587 244.918 235.175 252.873 248.248C295.092 249.464 293.92 221.773 288.056 207.776C287.804 207.71 287.549 207.647 287.291 207.587Z" fill="#C2CEC7"/>
</svg>
