<svg width="516" height="405" viewBox="0 0 516 405" fill="none" xmlns="http://www.w3.org/2000/svg">
<path d="M139.812 105.531C128.93 104.532 125.034 87.0781 122.078 78.2586C121.65 76.9492 121.294 75.3315 121.048 73.4376C119.258 59.6313 123.306 31.152 147.47 0.511302C131.32 16.3651 106.795 51.5312 109.037 88.9802C109.737 100.689 113.055 112.621 120.063 124.256C129.197 132.808 144.718 139.577 152.77 120.592C156.088 112.77 158.137 100.574 157.949 82.3291C157.898 82.4627 157.845 82.5984 157.791 82.7362C154.594 90.8587 146.787 106.172 139.812 105.531Z" fill="#B82820"/>
<path d="M122.078 78.2586C125.034 87.0781 128.93 104.532 139.812 105.531C146.787 106.172 154.594 90.8587 157.791 82.7362C151.86 97.7158 144.409 92.5055 141.424 88.0279C135.853 81.545 134.164 70.6857 134.661 58.4875C135.487 38.2113 142.353 14.2357 147.47 0.511302C123.306 31.152 119.258 59.6313 121.048 73.4376C121.294 75.3315 121.65 76.9492 122.078 78.2586Z" fill="#FC5E55"/>
<path d="M376.663 105.531C387.545 104.532 391.441 87.0781 394.397 78.2586C394.825 76.9492 395.181 75.3315 395.426 73.4376C397.217 59.6313 393.169 31.152 369.005 0.511302C374.122 14.2357 380.988 38.2113 381.814 58.4875C382.311 70.6857 380.622 81.545 375.05 88.0279C372.066 92.5055 364.615 97.7158 358.684 82.7362C361.881 90.8587 369.688 106.172 376.663 105.531Z" fill="#FC5E55"/>
<path d="M116.032 169.439C123.153 178.258 140.377 197.525 152.307 204.038C154.512 205.242 157.255 206.651 160.368 208.177C162.139 209.046 164.031 209.953 166.01 210.882C184.075 219.36 209.524 229.683 218.81 229.683C219.848 229.683 220.868 229.701 221.872 229.718C232.408 229.904 241.179 230.059 250.247 209.058C248.023 213.783 241.548 221.025 230.095 218.285C217.842 215.354 189.253 196.44 176.49 187.349C165.473 179.615 139.651 163.007 124.496 158.448C117.242 160.483 116.032 168.217 116.032 169.439Z" fill="#040716"/>
<path d="M364.168 204.038C376.098 197.525 393.322 178.258 400.442 169.439C400.442 164.88 394.8 160.212 391.978 158.448C376.824 163.007 351.002 179.615 339.985 187.349C327.222 196.44 298.633 215.354 286.38 218.285C274.927 221.025 268.452 213.783 266.228 209.058C275.296 230.059 284.067 229.904 294.603 229.718C295.607 229.701 296.627 229.683 297.665 229.683C306.951 229.683 332.4 219.36 350.465 210.882C352.444 209.953 354.336 209.046 356.107 208.177C359.22 206.651 361.963 205.242 364.168 204.038Z" fill="#040716"/>
<path d="M364.168 204.038C361.963 205.242 359.22 206.651 356.107 208.177C360.138 210.597 370.617 215.354 380.29 215.029C376.528 223.984 365.458 243.604 351.271 250.442C337.083 257.281 324.132 255.734 319.43 254.106C315.802 253.02 306.774 248.896 299.68 241.08C296.134 238.475 294.71 233.753 294.441 231.718C290.894 233.386 288.933 240.011 288.395 243.115C293.554 242.138 301.83 247.593 305.323 250.442C311.906 256.548 330.151 266.725 350.465 258.583C370.778 250.442 381.768 238.909 384.724 234.16C388.754 228.869 396.976 217.227 397.621 212.993C398.266 208.76 405.682 202.003 409.31 199.154C381.58 208.597 367.661 206.345 364.168 204.038Z" fill="#020816"/>
<path d="M160.368 208.177C157.255 206.651 154.512 205.242 152.307 204.038C148.814 206.345 134.895 208.597 107.165 199.154C110.793 202.003 118.209 208.76 118.854 212.993C119.499 217.227 127.721 228.869 131.751 234.16C134.707 238.909 145.697 250.442 166.01 258.583C186.324 266.725 204.569 256.548 211.152 250.442C214.645 247.593 222.921 242.138 228.08 243.115C227.542 240.011 225.581 233.386 222.034 231.718C221.765 233.753 220.341 238.475 216.794 241.08C209.701 248.896 200.673 253.02 197.045 254.106C192.343 255.734 179.392 257.281 165.204 250.442C151.017 243.604 139.947 223.984 136.185 215.029C145.858 215.354 156.337 210.597 160.368 208.177Z" fill="#020816"/>
<path d="M160.368 208.177C156.337 210.597 145.858 215.354 136.185 215.029C139.947 223.984 151.017 243.604 165.204 250.442C179.392 257.281 192.343 255.734 197.045 254.106C200.673 253.02 209.701 248.896 216.794 241.08C213.973 238.773 207.847 233.183 205.912 229.276L206.001 227.003C200.197 245.565 188.984 248 184.148 246.779C165.124 239.615 164.13 219.863 166.01 210.882C164.031 209.953 162.139 209.046 160.368 208.177Z" fill="white"/>
<path d="M380.29 215.029C370.617 215.354 360.138 210.597 356.107 208.177C354.336 209.046 352.444 209.953 350.465 210.882C352.345 219.863 351.351 239.615 332.327 246.779C327.491 248 316.367 245.537 310.563 226.976V229.276C308.628 233.183 302.502 238.773 299.68 241.08C306.774 248.896 315.802 253.02 319.43 254.106C324.132 255.734 337.083 257.281 351.271 250.442C365.458 243.604 376.528 223.984 380.29 215.029Z" fill="white"/>
<path d="M206.001 227.003C194.261 223.378 178.399 216.696 166.01 210.882C164.13 219.863 165.124 239.615 184.148 246.779C188.984 248 200.197 245.565 206.001 227.003Z" fill="#FF3423"/>
<path d="M350.465 210.882C338.107 216.682 322.293 223.345 310.563 226.976C316.367 245.537 327.491 248 332.327 246.779C351.351 239.615 352.345 219.863 350.465 210.882Z" fill="#FF3423"/>
<path d="M258.308 350.578C239.365 348 201.317 342.762 200.673 342.437C200.028 342.111 191.806 341.758 187.775 341.622L198.657 334.703C210.883 333.888 236.221 332.504 239.768 333.481C244.202 334.703 250.247 338.366 258.308 338.366V332.667C254.681 332.939 245.25 332.911 236.544 330.632C227.838 328.352 220.825 324.798 218.407 323.305C204.864 315.425 189.656 306.996 183.745 303.766C183.288 303.527 182.679 303.251 181.92 302.952C177.099 301.055 166.201 298.223 149.485 297.661C147.413 297.591 145.395 297.352 143.44 296.972C127.141 293.807 115.111 280.836 110.793 274.051C113.05 281.216 121.406 289.52 125.303 292.776C129.736 296.439 140.78 303.604 149.485 302.952C158.191 302.301 167.354 304.038 170.847 304.988C186.646 309.547 209.674 324.255 219.213 331.039C213.731 329.736 200.001 330.225 193.821 330.632L183.745 344.879C186.432 345.015 193.337 345.693 199.463 347.321C205.59 348.949 241.246 353.97 258.308 356.276V350.578Z" fill="#FF3423"/>
<path d="M315.802 342.437C315.158 342.762 277.252 348 258.308 350.578V356.276C275.371 353.97 310.885 348.949 317.012 347.321C323.138 345.693 330.043 345.015 332.73 344.879L322.654 330.632C316.474 330.225 302.744 329.736 297.262 331.039C306.801 324.255 329.828 309.547 345.628 304.988C349.121 304.038 358.284 302.301 366.99 302.952C375.695 303.604 386.739 296.439 391.172 292.776C395.069 289.52 403.425 281.216 405.682 274.051C401.364 280.836 389.334 293.807 373.035 296.972C371.079 297.352 369.062 297.591 366.99 297.661C350.274 298.223 339.376 301.055 334.555 302.952C333.796 303.251 333.187 303.527 332.73 303.766C326.819 306.996 311.611 315.425 298.068 323.305C295.65 324.798 288.637 328.352 279.931 330.632C271.225 332.911 261.936 332.939 258.308 332.667V338.366C266.369 338.366 272.273 334.703 276.707 333.481C280.254 332.504 305.592 333.888 317.818 334.703L328.7 341.622C324.669 341.758 316.447 342.111 315.802 342.437Z" fill="#FF3423"/>
<path d="M184.954 317.606C179.042 325.476 170.202 345.693 182.132 363.603C176.221 361.568 165.204 353.508 168.429 337.552C171.653 321.595 180.789 317.606 184.954 317.606Z" fill="#FF3423"/>
<path d="M200.673 342.437C201.317 342.762 239.365 348 258.308 350.578V338.366C250.247 338.366 244.202 334.703 239.768 333.481C236.221 332.504 210.883 333.888 198.657 334.703L187.775 341.622C191.806 341.758 200.028 342.111 200.673 342.437Z" fill="white"/>
<path d="M258.308 350.578C277.252 348 315.158 342.762 315.802 342.437C316.447 342.111 324.669 341.758 328.7 341.622L317.818 334.703C305.592 333.888 280.254 332.504 276.707 333.481C272.273 334.703 266.369 338.366 258.308 338.366V350.578Z" fill="white"/>
<path d="M213.57 297.254C212.63 299.967 211.958 306.372 216.794 310.279C221.631 314.187 230.632 310.551 234.529 308.244C229.558 308.608 219.696 307.598 220.019 300.648C217.067 299.236 214.82 298.009 213.57 297.254Z" fill="#FF3423"/>
<path d="M299.68 310.279C304.517 306.372 303.845 299.967 302.905 297.254C301.655 298.009 299.408 299.236 296.456 300.648C296.779 307.598 286.925 308.244 281.946 308.244C285.842 310.551 294.844 314.187 299.68 310.279Z" fill="#FF3423"/>
<path d="M331.521 317.606C337.433 325.476 346.273 345.693 334.343 363.603C340.254 361.568 351.271 353.508 348.046 337.552C344.822 321.595 335.686 317.606 331.521 317.606Z" fill="#FF3423"/>
<path d="M358.526 82.3291C357.881 144.853 383.515 136.332 396.412 124.256C403.42 112.621 406.738 100.689 407.438 88.9802C409.68 51.5312 385.155 16.3651 369.005 0.511302C393.169 31.152 397.217 59.6313 395.426 73.4376C395.181 75.3315 394.825 76.9492 394.397 78.2586C391.441 87.0781 387.545 104.532 376.663 105.531C369.688 106.172 361.881 90.8587 358.684 82.7362C358.63 82.5984 358.577 82.4627 358.526 82.3291Z" fill="#AA140B"/>
<path fill-rule="evenodd" clip-rule="evenodd" d="M76.9368 162.519C69.4133 193.862 43.6451 262.003 0.760742 283.821C17.6888 279.615 57.3487 284.309 80.5643 336.738C87.013 328.732 100.555 312.803 103.135 313.129C103.77 313.209 104.765 315.279 106.274 318.419C112.424 331.218 127.111 361.784 160.771 347.728C161.443 356.005 168.026 371.582 188.984 367.674C194.896 370.388 211.071 379.641 228.483 394.947C231.782 398.145 242.285 404.484 258.237 404.71L258.308 404.709V356.276C241.246 353.97 205.59 348.949 199.463 347.321C193.337 345.693 186.432 345.015 183.745 344.879L193.821 330.632C200.001 330.225 213.731 329.736 219.213 331.039C209.674 324.255 186.646 309.547 170.847 304.988C167.354 304.038 158.191 302.301 149.485 302.952C140.78 303.604 129.736 296.439 125.303 292.776C121.406 289.52 113.05 281.216 110.793 274.051C115.111 280.836 127.141 293.807 143.44 296.972C144.246 297.12 179.311 295.218 195.836 276.087C172.862 278.393 122.965 272.179 107.165 228.869C104.747 223.984 100.394 210.714 102.329 196.711C102.405 196.634 102.598 196.102 102.926 195.197C104.326 191.331 108.195 180.652 116.032 169.439C116.032 168.217 117.242 160.483 124.496 158.448C124.496 157.227 125.303 149.9 136.588 144.201C140.39 141.759 148.949 133.618 152.77 120.592C144.718 139.577 129.197 132.808 120.063 124.256C113.055 112.621 109.737 100.689 109.037 88.9802C95.6305 107.926 82.3968 132.813 76.9368 162.519ZM182.132 363.603C170.202 345.693 179.042 325.476 184.954 317.606C180.789 317.606 171.653 321.595 168.429 337.552C165.204 353.508 176.221 361.568 182.132 363.603Z" fill="#040716"/>
<path fill-rule="evenodd" clip-rule="evenodd" d="M215.585 271.202C210.985 272.969 200.673 275.544 195.836 276.087C172.862 278.393 122.965 272.179 107.165 228.869C104.747 223.984 100.394 210.714 102.329 196.711C102.405 196.634 102.598 196.102 102.926 195.197C104.326 191.331 108.195 180.652 116.032 169.439C123.153 178.258 140.377 197.525 152.307 204.038C148.814 206.345 134.895 208.597 107.165 199.154C110.793 202.003 118.209 208.76 118.854 212.993C119.499 217.227 127.721 228.869 131.751 234.16C134.707 238.909 145.697 250.442 166.01 258.583C186.324 266.725 204.569 256.548 211.152 250.442C214.645 247.593 222.921 242.138 228.08 243.115C227.542 240.011 225.581 233.386 222.034 231.718C221.765 233.753 220.341 238.475 216.794 241.08C213.973 238.773 207.847 233.183 205.912 229.276L206.001 227.003C211.379 228.664 215.892 229.683 218.81 229.683C219.848 229.683 220.868 229.701 221.872 229.718C232.408 229.904 241.179 230.059 250.247 209.058C250.402 208.728 250.536 208.41 250.651 208.109C251.94 205.829 251.994 203.088 251.86 202.003C253.339 202.424 255.808 202.932 258.308 203.054V252.885C254.762 251.908 249.576 254.377 247.426 255.734C235.818 262.573 220.556 269.303 215.585 271.202Z" fill="#B82820"/>
<path d="M215.585 176.359C224.318 184.228 243.799 200.375 251.86 202.003C253.339 202.424 255.808 202.932 258.308 203.054V42.0308C258.308 141.352 229.826 173.102 215.585 176.359Z" fill="#050716"/>
<path fill-rule="evenodd" clip-rule="evenodd" d="M320.639 276.087C315.802 275.544 305.081 273.807 300.89 271.202C295.919 269.303 280.657 262.573 269.049 255.734C266.899 254.377 261.855 251.908 258.308 252.885V203.054C260.642 203.168 263.004 202.946 264.615 202.003C264.568 203.146 264.744 205.968 265.824 208.109C265.939 208.41 266.073 208.728 266.228 209.058C275.296 230.059 284.067 229.904 294.603 229.718C295.607 229.701 296.627 229.683 297.665 229.683C300.599 229.683 305.145 228.652 310.563 226.976V229.276C308.628 233.183 302.502 238.773 299.68 241.08C296.134 238.475 294.71 233.753 294.441 231.718C290.894 233.386 288.933 240.011 288.395 243.115C293.554 242.138 301.83 247.593 305.323 250.442C311.906 256.548 330.151 266.725 350.465 258.583C370.778 250.442 381.768 238.909 384.724 234.16C388.754 228.869 396.976 217.227 397.621 212.993C398.266 208.76 405.682 202.003 409.31 199.154C381.58 208.597 367.661 206.345 364.168 204.038C376.098 197.525 393.322 178.258 400.442 169.439C408.28 180.652 412.149 191.331 413.549 195.197L413.549 195.198C413.877 196.103 414.07 196.634 414.146 196.711C416.081 210.714 411.728 223.984 409.31 228.869C393.51 272.179 343.613 278.393 320.639 276.087Z" fill="#D82D24"/>
<path d="M264.615 202.003C272.676 200.375 292.157 184.228 300.89 176.359C286.649 173.102 258.308 141.352 258.308 42.0308V203.054C260.642 203.168 263.004 202.946 264.615 202.003Z" fill="#2D2D33"/>
<path fill-rule="evenodd" clip-rule="evenodd" d="M183.745 303.766C189.656 306.996 204.864 315.425 218.407 323.305C220.825 324.798 227.838 328.352 236.544 330.632C245.25 332.911 254.681 332.939 258.308 332.667V252.885C254.762 251.908 249.576 254.377 247.426 255.734C235.818 262.573 220.556 269.303 215.585 271.202V272.016C214.772 278.936 206.901 294.811 181.92 302.952C182.679 303.251 183.288 303.527 183.745 303.766ZM233.722 290.741C236.947 295.951 250.113 314.757 256.293 323.305C252.746 323.631 250.785 321.812 250.247 320.863C242.831 311.419 236.947 307.43 234.932 306.616C229.166 304.753 223.963 302.536 220.019 300.648C219.696 307.598 229.558 308.608 234.529 308.244C230.632 310.551 221.631 314.187 216.794 310.279C211.958 306.372 212.63 299.967 213.57 297.254C214.215 290.089 218.675 287.213 220.825 286.67C223.781 285.856 230.498 285.53 233.722 290.741Z" fill="#040716"/>
<path fill-rule="evenodd" clip-rule="evenodd" d="M298.068 323.305C311.611 315.425 326.819 306.996 332.73 303.766C333.187 303.527 333.796 303.251 334.555 302.952C309.574 294.811 301.703 278.936 300.89 272.016V271.202C295.919 269.303 280.657 262.573 269.049 255.734C266.899 254.377 261.855 251.908 258.308 252.885V332.667C261.936 332.939 271.225 332.911 279.931 330.632C288.637 328.352 295.65 324.798 298.068 323.305ZM260.182 323.305C266.362 314.757 279.528 295.951 282.752 290.741C285.977 285.53 292.694 285.856 295.65 286.67C297.8 287.213 302.26 290.089 302.905 297.254C303.845 299.967 304.517 306.372 299.68 310.279C294.844 314.187 285.842 310.551 281.946 308.244C286.925 308.244 296.779 307.598 296.456 300.648C292.512 302.536 287.309 304.753 281.543 306.616C279.528 307.43 273.644 311.419 266.227 320.863C265.69 321.812 263.729 323.631 260.182 323.305Z" fill="#2D2D33"/>
<path fill-rule="evenodd" clip-rule="evenodd" d="M258.308 0.104248C284.641 0.646987 343.935 10.9319 371.02 47.7295C371.399 48.276 372.686 49.5195 374.66 51.4273C376.504 53.2097 378.949 55.5719 381.814 58.4875C382.311 70.6857 380.622 81.545 375.05 88.0279C372.066 92.5055 364.615 97.7158 358.684 82.7362C358.63 82.5984 358.577 82.4627 358.526 82.3291C358.349 99.5043 360.154 111.318 363.134 119.171C364.424 129.266 376.859 142.469 379.949 144.233C370.92 139.674 323.46 163.74 300.89 176.359C286.649 173.102 258.308 141.352 258.308 42.0308V0.104248Z" fill="#484852"/>
<path fill-rule="evenodd" clip-rule="evenodd" d="M515.714 283.821C472.83 262.003 447.062 193.862 439.538 162.519C434.078 132.813 420.844 107.926 407.438 88.9802C406.738 100.689 403.42 112.621 396.412 124.256C387.058 133.014 371.003 139.903 363.134 119.171C364.424 129.266 376.859 142.469 379.949 144.233C391.234 149.931 391.978 157.227 391.978 158.448C394.8 160.212 400.442 164.88 400.442 169.439C408.28 180.652 412.149 191.331 413.549 195.197L413.549 195.198C413.877 196.103 414.07 196.634 414.146 196.711C416.081 210.714 411.728 223.984 409.31 228.869C393.51 272.179 343.613 278.393 320.639 276.087C337.164 295.218 372.229 297.12 373.035 296.972C389.334 293.807 401.364 280.836 405.682 274.051C403.425 281.216 395.069 289.52 391.172 292.776C386.739 296.439 375.695 303.604 366.99 302.952C358.284 302.301 349.121 304.038 345.628 304.988C329.828 309.547 306.801 324.255 297.262 331.039C302.744 329.736 316.474 330.225 322.654 330.632L332.73 344.879C330.043 345.015 323.138 345.693 317.012 347.321C310.885 348.949 275.371 353.97 258.308 356.276V404.709C274.221 404.465 284.698 398.14 287.992 394.947C305.404 379.641 321.579 370.388 327.491 367.674C348.449 371.582 355.032 356.005 355.704 347.728C397.621 365.232 410.116 313.536 413.34 313.129C415.92 312.803 429.462 328.732 435.911 336.738C459.126 284.309 498.786 279.615 515.714 283.821ZM334.343 363.603C346.273 345.693 337.433 325.476 331.521 317.606C335.686 317.606 344.822 321.595 348.046 337.552C351.271 353.508 340.254 361.568 334.343 363.603Z" fill="#2D2D33"/>
<path d="M143.44 296.972C145.395 297.352 147.413 297.591 149.485 297.661C166.201 298.223 177.099 301.055 181.92 302.952C206.901 294.811 214.772 278.936 215.585 272.016V271.202C210.985 272.969 200.673 275.544 195.836 276.087C179.311 295.218 144.246 297.12 143.44 296.972Z" fill="#383841"/>
<path d="M366.99 297.661C369.062 297.591 371.079 297.352 373.035 296.972C372.229 297.12 337.164 295.218 320.639 276.087C315.802 275.544 305.081 273.807 300.89 271.202V272.016C301.703 278.936 309.574 294.811 334.555 302.952C339.376 301.055 350.274 298.223 366.99 297.661Z" fill="#383841"/>
<path d="M256.293 323.305C250.113 314.757 236.947 295.951 233.722 290.741C230.498 285.53 223.781 285.856 220.825 286.67C218.675 287.213 214.215 290.089 213.57 297.254C214.82 298.009 217.067 299.236 220.019 300.648C223.963 302.536 229.166 304.753 234.932 306.616C236.947 307.43 242.831 311.419 250.247 320.863C250.785 321.812 252.746 323.631 256.293 323.305Z" fill="#383841"/>
<path d="M282.752 290.741C279.528 295.951 266.362 314.757 260.182 323.305C263.729 323.631 265.69 321.812 266.227 320.863C273.644 311.419 279.528 307.43 281.543 306.616C287.309 304.753 292.512 302.536 296.456 300.648C299.408 299.236 301.655 298.009 302.905 297.254C302.26 290.089 297.8 287.213 295.65 286.67C292.694 285.856 285.977 285.53 282.752 290.741Z" fill="#383841"/>
<path d="M176.49 187.349C189.253 196.44 217.842 215.354 230.095 218.285C241.548 221.025 248.023 213.783 250.247 209.058C250.381 208.746 250.516 208.43 250.651 208.109C251.94 205.829 251.994 203.088 251.86 202.003C243.799 200.375 224.318 184.228 215.585 176.359C193.015 163.74 145.616 139.642 136.588 144.201C125.303 149.9 124.496 157.227 124.496 158.448C139.651 163.007 165.473 179.615 176.49 187.349Z" fill="#8A1912"/>
<path d="M286.38 218.285C298.633 215.354 327.222 196.44 339.985 187.349C351.002 179.615 376.824 163.007 391.978 158.448C391.978 157.227 391.234 149.931 379.949 144.233C370.92 139.674 323.46 163.74 300.89 176.359C292.157 184.228 272.676 200.375 264.615 202.003C264.568 203.146 264.744 205.968 265.824 208.109C265.959 208.43 266.094 208.746 266.228 209.058C268.452 213.783 274.927 221.025 286.38 218.285Z" fill="#B3231B"/>
<path d="M258.308 0.104248C231.976 0.646987 172.54 10.9319 145.455 47.7295C144.722 48.7865 140.593 52.4509 134.661 58.4875C134.164 70.6857 135.853 81.545 141.424 88.0279C144.409 92.5055 151.86 97.7158 157.791 82.7362C157.845 82.5984 157.898 82.4627 157.949 82.3291C158.137 100.574 156.088 112.77 152.77 120.592C148.949 133.618 140.39 141.759 136.588 144.201C145.616 139.642 193.015 163.74 215.585 176.359C229.826 173.102 258.308 141.352 258.308 42.0308V0.104248Z" fill="#27282C"/>
</svg>
