<svg width="435" height="406" viewBox="0 0 435 406" fill="none" xmlns="http://www.w3.org/2000/svg">
<path d="M217.063 0.758789C213.903 0.758789 111.364 26.4542 72.0344 49.0814L105.394 139.591C110.643 129.909 115.71 121.26 120.143 114.042C126.387 103.875 131.374 96.5497 133.838 93.1854C122.039 116.196 107.618 160.556 101.883 179.859C151.888 173.881 177.265 185.456 183.703 191.991C190.655 193.945 200.179 197.434 208.986 202.87C208.752 178.837 210.04 128.008 217.063 116.963V0.758789Z" fill="#57515F"/>
<path d="M175.977 190.214C177.767 190.499 180.454 191.077 183.703 191.991C177.265 185.456 151.888 173.881 101.883 179.859C107.618 160.556 122.039 116.196 133.838 93.1854C131.374 96.5497 126.387 103.875 120.143 114.042C101.04 156.499 94.3915 184.818 93.4551 193.671C95.3871 192.839 97.1526 192.312 98.7225 192.132C105.955 189.067 116.391 187.678 127.517 187.281C132.952 187.088 138.551 187.131 144.022 187.332C156.5 187.789 168.311 189.065 175.977 190.214Z" fill="#302F3D"/>
<path d="M72.0344 49.0814C64.6601 72.9871 48.3663 131.92 42.1859 176.408C29.6613 209.262 3.69893 276.198 0.046875 281.107C1.16012 281.861 2.298 282.628 3.45939 283.408C11.7538 272.643 23.5981 258.358 36.3286 244.29C43.4078 236.466 50.7611 228.71 57.9304 221.662C59.6665 219.956 61.3918 218.291 63.0998 216.677C74.693 205.72 85.4895 197.1 93.4551 193.671C94.3915 184.818 101.04 156.499 120.143 114.042C115.71 121.26 110.643 129.909 105.394 139.591L72.0344 49.0814Z" fill="#373946"/>
<path d="M36.3286 244.29C34.3249 255.795 30.6967 283.485 32.2134 302.2C54.0931 316.189 79.4997 331.845 104.571 346.688C89.4684 328.402 79.0461 305.007 71.952 283.408C64.2325 259.905 60.4538 238.53 58.8731 228.182C58.2808 224.305 57.9972 221.976 57.9304 221.662C50.7611 228.71 43.4078 236.466 36.3286 244.29Z" fill="#030303"/>
<path d="M36.3286 244.29C23.5981 258.358 11.7538 272.643 3.45939 283.408C11.9357 289.099 21.6646 295.456 32.2134 302.2C30.6967 283.485 34.3249 255.795 36.3286 244.29Z" fill="#23262F"/>
<path d="M183.703 191.991C180.454 191.077 177.767 190.499 175.977 190.214C168.311 189.065 156.5 187.789 144.022 187.332C147.112 188.401 166.145 198.903 175.275 204.021C181.011 207.856 193.044 214.989 195.291 212.842C197.539 210.694 198.335 206.066 198.452 204.021L195.291 209.39C191.78 200.953 184.405 193.666 183.703 191.991Z" fill="#17141A"/>
<path d="M169.657 207.472C161.51 201.029 138.169 191.327 127.517 187.281C133.721 190.56 148.798 198.498 159.473 204.021C170.148 209.543 181.245 218.083 185.459 221.662C183.586 219.617 177.803 213.915 169.657 207.472Z" fill="#17141A"/>
<path d="M180.191 243.523C176.094 236.108 165.232 219.285 154.557 211.307C143.882 203.33 133.253 201.592 129.273 201.72C125.528 201.75 117.474 200.489 115.227 195.2C114.993 196.478 115.367 199.419 118.739 200.953C115.461 201.975 107.853 203.254 103.639 200.186C103.522 201.08 103.99 203.1 106.799 204.021C105.863 204.788 103.217 206.015 100.127 204.788L101.883 206.322C100.244 207.217 95.4918 208.239 89.5924 205.171C90.5288 206.961 93.0337 210.771 95.562 211.691C93.5722 212.202 88.2579 213.072 82.9203 212.458C85.3784 214.12 90.7863 217.981 92.7528 220.128C92.0505 221.023 89.5221 222.813 85.0273 222.813C85.3784 222.809 94.1574 223.196 98.7225 232.401C97.4349 232.529 94.5086 233.475 93.1039 236.236C94.8597 235.085 98.7225 233.168 100.127 234.702C101.532 236.236 102.117 237.131 102.234 237.386C100.946 237.642 98.2309 238.844 97.669 241.605C98.4884 240.71 100.9 238.92 103.99 238.92C107.08 238.92 105.277 239.176 103.99 239.304L110.662 245.057C109.725 245.312 107.712 246.361 107.15 248.508C107.618 247.741 109.327 246.284 112.418 246.591C113.354 246.974 115.648 248.125 117.334 249.659C116.749 250.042 115.578 251.193 115.578 252.727C116.163 251.832 117.896 250.196 120.143 250.809C122.391 251.423 124.123 252.088 124.708 252.343C123.655 253.11 121.688 255.181 122.25 257.329C122.835 255.923 124.778 253.187 127.869 253.494C130.959 253.801 138.52 253.622 141.915 253.494L148.06 252.535C135.711 254.389 109.187 250.886 101.883 222.046C105.81 216.423 113.598 210.664 124.708 210.424C134.291 210.217 146.345 214.115 160.526 225.746C166.167 230.372 172.846 236.654 179.138 243.955C179.492 243.812 179.843 243.668 180.191 243.523Z" fill="#17141A"/>
<path d="M148.06 252.535L154.206 251.576C158.717 250.591 169.792 247.73 179.138 243.955C172.846 236.654 166.167 230.372 160.526 225.746C161.369 248.342 144.022 250.336 135.243 248.508C112.769 238.153 125.411 212.842 124.708 210.424C113.598 210.664 105.81 216.423 101.883 222.046C109.187 250.886 135.711 254.389 148.06 252.535Z" fill="white"/>
<path d="M124.708 210.424C125.411 212.842 112.769 238.153 135.243 248.508C144.022 250.336 161.369 248.342 160.526 225.746C146.345 214.115 134.291 210.217 124.708 210.424Z" fill="#FF8391"/>
<path fill-rule="evenodd" clip-rule="evenodd" d="M205.826 251.96C180.542 270.675 138.403 269.474 120.494 266.533C82.9203 273.82 60.4462 229.716 58.8731 228.182C76.9087 277.885 119.174 308.208 138.052 317.157C154.44 342.294 187.355 392.636 187.917 392.915C200.274 399.03 210.373 403.427 217.063 405.365V247.741C214.369 247.937 211.341 249.084 208.986 250.22C207.658 250.861 206.544 251.499 205.826 251.96ZM212.849 340.551C212.732 333.776 210.872 317.913 203.719 318.308C198.646 318.588 208.051 333.589 212.849 340.551Z" fill="#383A47"/>
<path d="M63.0998 216.677C61.3918 218.291 59.6665 219.956 57.9304 221.662C57.9972 221.976 58.2808 224.305 58.8731 228.182C60.4462 229.716 82.9203 273.82 120.494 266.533C69.9275 255.028 65.3624 219.361 63.0998 216.677Z" fill="#6C6879"/>
<path d="M58.8731 228.182C60.4538 238.53 64.2325 259.905 71.952 283.408C77.598 293.891 96.9667 318.614 129.273 333.648C134.541 340.1 147.393 357.703 156.664 376.5C168.033 382.734 178.614 388.311 187.917 392.915C187.355 392.636 154.44 342.294 138.052 317.157C119.174 308.208 76.9087 277.885 58.8731 228.182Z" fill="#635E72"/>
<path d="M71.952 283.408C79.0461 305.007 89.4684 328.402 104.571 346.688C122.586 357.352 140.428 367.597 156.664 376.5C147.393 357.703 134.541 340.1 129.273 333.648C96.9667 318.614 77.598 293.891 71.952 283.408Z" fill="#383A47"/>
<path d="M212.849 340.551C212.732 333.776 210.872 317.913 203.719 318.308C198.646 318.588 208.051 333.589 212.849 340.551Z" fill="#383A48"/>
<path fill-rule="evenodd" clip-rule="evenodd" d="M217.063 116.963C210.04 128.008 208.752 178.837 208.986 202.87C200.179 197.434 190.655 193.945 183.703 191.991C184.405 193.666 191.78 200.953 195.291 209.39L198.452 204.021C198.335 206.066 197.539 210.694 195.291 212.842C193.044 214.989 181.011 207.856 175.275 204.021C166.145 198.903 147.112 188.401 144.022 187.332C138.551 187.131 132.952 187.088 127.517 187.281C138.169 191.327 161.51 201.029 169.657 207.472C177.803 213.915 183.586 219.617 185.459 221.662C181.245 218.083 170.148 209.543 159.473 204.021C148.798 198.498 133.721 190.56 127.517 187.281C116.391 187.678 105.955 189.067 98.7225 192.132C97.1526 192.312 95.3871 192.839 93.4551 193.671C85.4895 197.1 74.693 205.72 63.0998 216.677C65.3624 219.361 69.9275 255.028 120.494 266.533C138.403 269.474 180.542 270.675 205.826 251.96C206.544 251.499 207.658 250.861 208.986 250.22C208.986 243.385 209.408 229.179 211.093 227.031C212.779 224.884 215.775 222.557 217.063 221.662V116.963ZM154.557 211.307C165.232 219.285 176.094 236.108 180.191 243.523C179.843 243.668 179.492 243.812 179.138 243.955C169.792 247.73 158.717 250.591 154.206 251.576L148.06 252.535L141.915 253.494C138.52 253.622 130.959 253.801 127.869 253.494C124.778 253.187 122.835 255.923 122.25 257.329C121.688 255.181 123.655 253.11 124.708 252.343C124.123 252.088 122.391 251.423 120.143 250.809C117.896 250.196 116.163 251.832 115.578 252.727C115.578 251.193 116.749 250.042 117.334 249.659C115.648 248.125 113.354 246.974 112.418 246.591C109.327 246.284 107.618 247.741 107.15 248.508C107.712 246.361 109.725 245.312 110.662 245.057L103.99 239.304C105.277 239.176 107.08 238.92 103.99 238.92C100.9 238.92 98.4884 240.71 97.669 241.605C98.2309 238.844 100.946 237.642 102.234 237.386C102.117 237.131 101.532 236.236 100.127 234.702C98.7225 233.168 94.8597 235.085 93.1039 236.236C94.5086 233.475 97.4349 232.529 98.7225 232.401C94.1574 223.196 85.3784 222.809 85.0273 222.813C89.5221 222.813 92.0505 221.023 92.7528 220.128C90.7863 217.981 85.3784 214.12 82.9203 212.458C88.2579 213.072 93.5722 212.202 95.562 211.691C93.0337 210.771 90.5288 206.961 89.5924 205.171C95.4918 208.239 100.244 207.217 101.883 206.322L100.127 204.788C103.217 206.015 105.863 204.788 106.799 204.021C103.99 203.1 103.522 201.08 103.639 200.186C107.853 203.254 115.461 201.975 118.739 200.953C115.367 199.419 114.993 196.478 115.227 195.2C117.474 200.489 125.528 201.75 129.273 201.72C133.253 201.592 143.882 203.33 154.557 211.307Z" fill="#F8B8AC"/>
<path d="M208.986 250.22C211.341 249.084 214.369 247.937 217.063 247.741V221.662C215.775 222.557 212.779 224.884 211.093 227.031C209.408 229.179 208.986 243.385 208.986 250.22Z" fill="#FDCDC3"/>
<path d="M217.063 0.758789C220.223 0.758789 322.762 26.4542 362.092 49.0814L328.731 139.591C323.483 129.909 318.416 121.26 313.983 114.042C307.738 103.875 302.752 96.5497 300.288 93.1854C312.087 116.196 326.507 160.556 332.243 179.859C282.238 173.881 256.861 185.456 250.423 191.991C243.471 193.945 233.947 197.434 225.14 202.87C225.374 178.837 224.086 128.008 217.063 116.963V0.758789Z" fill="#57515F"/>
<path d="M258.149 190.214C256.359 190.499 253.672 191.077 250.423 191.991C256.861 185.456 282.238 173.881 332.243 179.859C326.507 160.556 312.087 116.196 300.288 93.1854C302.752 96.5497 307.738 103.875 313.983 114.042C333.086 156.499 339.734 184.818 340.671 193.671C338.739 192.839 336.973 192.312 335.403 192.132C328.171 189.067 317.735 187.678 306.608 187.281C301.174 187.088 295.575 187.131 290.104 187.332C277.626 187.789 265.815 189.065 258.149 190.214Z" fill="#302F3D"/>
<path d="M362.092 49.0814C369.466 72.9871 385.76 131.92 391.94 176.408C404.465 209.262 430.427 276.198 434.079 281.107C432.966 281.861 431.828 282.628 430.667 283.408C422.372 272.643 410.528 258.358 397.797 244.29C390.718 236.466 383.365 228.71 376.196 221.662C374.46 219.956 372.734 218.291 371.026 216.677C359.433 205.72 348.636 197.1 340.671 193.671C339.734 184.818 333.086 156.499 313.983 114.042C318.416 121.26 323.483 129.909 328.731 139.591L362.092 49.0814Z" fill="#373946"/>
<path d="M397.797 244.29C399.801 255.795 403.429 283.485 401.913 302.2C380.033 316.189 354.626 331.845 329.555 346.688C344.658 328.402 355.08 305.007 362.174 283.408C369.893 259.905 373.672 238.53 375.253 228.182C375.845 224.305 376.129 221.976 376.196 221.662C383.365 228.71 390.718 236.466 397.797 244.29Z" fill="#030303"/>
<path d="M397.797 244.29C410.528 258.358 422.372 272.643 430.667 283.408C422.19 289.099 412.461 295.456 401.913 302.2C403.429 283.485 399.801 255.795 397.797 244.29Z" fill="#23262F"/>
<path d="M250.423 191.991C253.672 191.077 256.359 190.499 258.149 190.214C265.815 189.065 277.626 187.789 290.104 187.332C287.014 188.401 267.981 198.903 258.851 204.021C253.115 207.856 241.082 214.989 238.835 212.842C236.587 210.694 235.791 206.066 235.674 204.021L238.835 209.39C242.346 200.953 249.721 193.666 250.423 191.991Z" fill="#17141A"/>
<path d="M264.469 207.472C272.616 201.029 295.957 191.327 306.608 187.281C300.405 190.56 285.328 198.498 274.653 204.021C263.978 209.543 252.881 218.083 248.667 221.662C250.54 219.617 256.323 213.915 264.469 207.472Z" fill="#17141A"/>
<path d="M253.935 243.523C258.031 236.108 268.894 219.285 279.569 211.307C290.244 203.33 300.873 201.592 304.853 201.72C308.598 201.75 316.652 200.489 318.899 195.2C319.133 196.478 318.759 199.419 315.387 200.953C318.665 201.975 326.273 203.254 330.487 200.186C330.604 201.08 330.136 203.1 327.327 204.021C328.263 204.788 330.909 206.015 333.999 204.788L332.243 206.322C333.882 207.217 338.634 208.239 344.534 205.171C343.597 206.961 341.092 210.771 338.564 211.691C340.554 212.202 345.868 213.072 351.206 212.458C348.747 214.12 343.34 217.981 341.373 220.128C342.076 221.023 344.604 222.813 349.099 222.813C348.747 222.809 339.969 223.196 335.403 232.401C336.691 232.529 339.617 233.475 341.022 236.236C339.266 235.085 335.403 233.168 333.999 234.702C332.594 236.236 332.009 237.131 331.892 237.386C333.179 237.642 335.895 238.844 336.457 241.605C335.638 240.71 333.226 238.92 330.136 238.92C327.046 238.92 328.849 239.176 330.136 239.304L323.464 245.057C324.4 245.312 326.414 246.361 326.976 248.508C326.507 247.741 324.798 246.284 321.708 246.591C320.772 246.974 318.478 248.125 316.792 249.659C317.377 250.042 318.548 251.193 318.548 252.727C317.963 251.832 316.23 250.196 313.983 250.809C311.735 251.423 310.003 252.088 309.418 252.343C310.471 253.11 312.438 255.181 311.876 257.329C311.291 255.923 309.348 253.187 306.257 253.494C303.167 253.801 295.605 253.622 292.211 253.494L286.066 252.535C298.415 254.389 324.939 250.886 332.243 222.046C328.316 216.423 320.528 210.664 309.418 210.424C299.835 210.217 287.781 214.115 273.6 225.746C267.959 230.372 261.28 236.654 254.988 243.955C254.634 243.812 254.283 243.668 253.935 243.523Z" fill="#17141A"/>
<path d="M286.066 252.535L279.92 251.576C275.409 250.591 264.334 247.73 254.988 243.955C261.28 236.654 267.959 230.372 273.6 225.746C272.757 248.342 290.104 250.336 298.883 248.508C321.357 238.153 308.715 212.842 309.418 210.424C320.528 210.664 328.316 216.423 332.243 222.046C324.939 250.886 298.415 254.389 286.066 252.535Z" fill="white"/>
<path d="M309.418 210.424C308.715 212.842 321.357 238.153 298.883 248.508C290.104 250.336 272.757 248.342 273.6 225.746C287.781 214.115 299.835 210.217 309.418 210.424Z" fill="#FF8391"/>
<path fill-rule="evenodd" clip-rule="evenodd" d="M228.3 251.96C253.583 270.675 295.723 269.474 313.632 266.533C351.206 273.82 373.68 229.716 375.253 228.182C357.217 277.885 314.952 308.208 296.074 317.157C279.686 342.294 246.771 392.636 246.209 392.915C233.852 399.03 223.753 403.427 217.063 405.365V247.741C219.757 247.937 222.785 249.084 225.14 250.22C226.468 250.861 227.582 251.499 228.3 251.96ZM221.277 340.551C221.394 333.776 223.254 317.913 230.407 318.308C235.48 318.588 226.075 333.589 221.277 340.551Z" fill="#383A47"/>
<path d="M371.026 216.677C372.734 218.291 374.46 219.956 376.196 221.662C376.129 221.976 375.845 224.305 375.253 228.182C373.68 229.716 351.206 273.82 313.632 266.533C364.198 255.028 368.764 219.361 371.026 216.677Z" fill="#6C6879"/>
<path d="M375.253 228.182C373.672 238.53 369.893 259.905 362.174 283.408C356.528 293.891 337.159 318.614 304.853 333.648C299.585 340.1 286.733 357.703 277.462 376.5C266.093 382.734 255.512 388.311 246.209 392.915C246.771 392.636 279.686 342.294 296.074 317.157C314.952 308.208 357.217 277.885 375.253 228.182Z" fill="#635E72"/>
<path d="M362.174 283.408C355.08 305.007 344.658 328.402 329.555 346.688C311.54 357.352 293.698 367.597 277.462 376.5C286.733 357.703 299.585 340.1 304.853 333.648C337.159 318.614 356.528 293.891 362.174 283.408Z" fill="#383A47"/>
<path d="M221.277 340.551C221.394 333.776 223.254 317.913 230.407 318.308C235.48 318.588 226.075 333.589 221.277 340.551Z" fill="#383A48"/>
<path fill-rule="evenodd" clip-rule="evenodd" d="M217.063 116.963C224.086 128.008 225.374 178.837 225.14 202.87C233.947 197.434 243.471 193.945 250.423 191.991C249.721 193.666 242.346 200.953 238.835 209.39L235.674 204.021C235.791 206.066 236.587 210.694 238.835 212.842C241.082 214.989 253.115 207.856 258.851 204.021C267.981 198.903 287.014 188.401 290.104 187.332C295.575 187.131 301.174 187.088 306.608 187.281C295.957 191.327 272.616 201.029 264.469 207.472C256.323 213.915 250.54 219.617 248.667 221.662C252.881 218.083 263.978 209.543 274.653 204.021C285.328 198.498 300.405 190.56 306.608 187.281C317.735 187.678 328.171 189.067 335.403 192.132C336.973 192.312 338.739 192.839 340.671 193.671C348.636 197.1 359.433 205.72 371.026 216.677C368.764 219.361 364.198 255.028 313.632 266.533C295.723 269.474 253.583 270.675 228.3 251.96C227.582 251.499 226.468 250.861 225.14 250.22C225.14 243.385 224.718 229.179 223.033 227.031C221.347 224.884 218.351 222.557 217.063 221.662V116.963ZM279.569 211.307C268.894 219.285 258.031 236.108 253.935 243.523C254.283 243.668 254.634 243.812 254.988 243.955C264.334 247.73 275.409 250.591 279.92 251.576L286.066 252.535L292.211 253.494C295.605 253.622 303.167 253.801 306.257 253.494C309.348 253.187 311.291 255.923 311.876 257.329C312.438 255.181 310.471 253.11 309.418 252.343C310.003 252.088 311.735 251.423 313.983 250.809C316.23 250.196 317.963 251.832 318.548 252.727C318.548 251.193 317.377 250.042 316.792 249.659C318.478 248.125 320.772 246.974 321.708 246.591C324.798 246.284 326.507 247.741 326.976 248.508C326.414 246.361 324.4 245.312 323.464 245.057L330.136 239.304C328.849 239.176 327.046 238.92 330.136 238.92C333.226 238.92 335.638 240.71 336.457 241.605C335.895 238.844 333.179 237.642 331.892 237.386C332.009 237.131 332.594 236.236 333.999 234.702C335.403 233.168 339.266 235.085 341.022 236.236C339.617 233.475 336.691 232.529 335.403 232.401C339.969 223.196 348.747 222.809 349.099 222.813C344.604 222.813 342.076 221.023 341.373 220.128C343.34 217.981 348.747 214.12 351.206 212.458C345.868 213.072 340.554 212.202 338.564 211.691C341.092 210.771 343.597 206.961 344.534 205.171C338.634 208.239 333.882 207.217 332.243 206.322L333.999 204.788C330.909 206.015 328.263 204.788 327.327 204.021C330.136 203.1 330.604 201.08 330.487 200.186C326.273 203.254 318.665 201.975 315.387 200.953C318.759 199.419 319.133 196.478 318.899 195.2C316.652 200.489 308.598 201.75 304.853 201.72C300.873 201.592 290.244 203.33 279.569 211.307Z" fill="#F8B8AC"/>
<path d="M225.14 250.22C222.785 249.084 219.757 247.937 217.063 247.741V221.662C218.351 222.557 221.347 224.884 223.033 227.031C224.718 229.179 225.14 243.385 225.14 250.22Z" fill="#FDCDC3"/>
</svg>
