<svg width='100%' height='100%' viewBox="0 0 390 730" fill="none" xmlns="http://www.w3.org/2000/svg">
<path d="M373.216 183.917H363.685C364.033 186.277 363.414 188.638 363.685 190.996H373.682C373.561 188.645 373.406 186.284 373.216 183.917Z" fill="#878787"/>
<path d="M25.8206 137.347L42.91 140.71C44.0732 137.711 44.088 136.063 45.445 133.105C37.3824 130.187 32.0856 128.592 28.987 128.592C27.8473 131.502 26.7932 134.423 25.8206 137.347Z" fill="#878787"/>
<path d="M16 376.531H28.87V367.403H16V376.531Z" fill="#878787"/>
<path d="M52.9408 644.98L62.605 632.11C60.9873 630.04 59.4015 627.617 57.925 625.48L48.1352 638.814C49.6714 640.898 51.2726 642.954 52.9408 644.98Z" fill="#878787"/>
<path d="M337.221 644.98L325.957 634.517C324.425 636.412 322.832 638.277 321.175 640.105L332.406 650.538C334.07 648.714 335.674 646.86 337.221 644.98Z" fill="#878787"/>
<path fill-rule="evenodd" clip-rule="evenodd" d="M16 198.26C16.0207 179.782 18.7896 158.485 25.8206 137.347L42.91 140.71C28.987 157.48 29.0083 193.425 28.987 213.64L28.87 367.403H16V198.26ZM16 535.801V376.531H28.87L29.455 526.615C29.455 555.378 37.1582 595.421 57.925 625.48L48.1352 638.814C24.1298 606.25 16 566.99 16 535.801ZM52.9408 644.98C79.927 677.739 126.107 702.115 196.773 702.115C263.381 702.115 305.086 680.479 332.406 650.538L321.175 640.105C297.304 666.442 252.884 688.075 196.773 688.075C135.585 688.075 86.1077 662.188 62.605 632.11L52.9408 644.98ZM374.02 535.801C374.058 568.986 364.911 611.308 337.221 644.98L325.957 634.517C362.528 602.848 361.93 535.801 361.93 502.643H374.02V535.801ZM361.93 496.309H374.02L373.682 190.996C373.682 186.626 373.911 195.454 373.682 190.996H363.685L361.93 496.309ZM373.216 183.917C367.233 109.35 326.188 28 195.122 28C97.1082 28 49.3674 76.5514 28.987 128.592C32.0856 128.592 37.3824 130.187 45.445 133.105C68.065 67.975 123.002 40.3681 201.362 40.3681C306.499 40.3681 354.247 119.903 363.685 183.917H373.216Z" fill="#A1A1A1"/>
<path d="M374.02 496.309H361.93V502.643H374.02V496.309Z" fill="#878787"/>
</svg>
