<svg width="101" height="80" viewBox="0 0 101 80" fill="none" xmlns="http://www.w3.org/2000/svg">
<path d="M83 70H18C16.625 70 15.5 71.125 15.5 72.5V77.5C15.5 78.875 16.625 80 18 80H83C84.375 80 85.5 78.875 85.5 77.5V72.5C85.5 71.125 84.375 70 83 70ZM93 20C88.8594 20 85.5 23.3594 85.5 27.5C85.5 28.6094 85.75 29.6406 86.1875 30.5938L74.875 37.375C72.4688 38.8125 69.3594 38 67.9687 35.5625L55.2344 13.2812C56.9062 11.9062 58 9.84375 58 7.5C58 3.35938 54.6406 0 50.5 0C46.3594 0 43 3.35938 43 7.5C43 9.84375 44.0938 11.9062 45.7656 13.2812L33.0312 35.5625C31.6406 38 28.5156 38.8125 26.125 37.375L14.8281 30.5938C15.25 29.6563 15.5156 28.6094 15.5156 27.5C15.5156 23.3594 12.1562 20 8.01562 20C3.875 20 0.5 23.3594 0.5 27.5C0.5 31.6406 3.85938 35 8 35C8.40625 35 8.8125 34.9375 9.20313 34.875L20.5 65H80.5L91.7969 34.875C92.1875 34.9375 92.5938 35 93 35C97.1406 35 100.5 31.6406 100.5 27.5C100.5 23.3594 97.1406 20 93 20Z" fill="#FF9E0D"/>
</svg>
