<svg width="390" height="844" viewBox="0 0 390 844" fill="none" xmlns="http://www.w3.org/2000/svg">
<g clip-path="url(#clip0_528_3)">
<rect width="390" height="844" fill="white"/>
<path d="M-349.061 85.4594C-372.799 211.816 -456.118 407.824 -494.995 490.439C-495.12 490.705 -495.211 490.955 -495.285 491.238C-507.535 538.381 -503.259 639.214 -388.685 668.788C-274.385 698.291 43.7761 899.794 190.954 998.426C192.44 999.422 194.286 999.469 195.86 998.622L381.517 898.659C783.706 665.328 862.791 549.321 852.059 520.484C814.911 430.678 724.27 192.732 658.889 -40.5989C593.724 -273.16 323.051 -376.074 194.573 -398.777C193.713 -398.929 192.87 -398.834 192.056 -398.521L-120.224 -278.268C-120.88 -278.016 -121.448 -277.649 -121.935 -277.143C-188.252 -208.289 -325.371 -40.6379 -349.061 85.4594Z" fill="#191B2B"/>
<path d="M-311.628 63.4138C-332.668 175.489 -406.51 349.33 -440.985 422.647C-441.11 422.913 -441.201 423.163 -441.274 423.446C-452.119 465.289 -448.294 554.686 -346.757 580.912C-245.494 607.068 36.2534 785.603 166.852 873.169C168.338 874.166 170.187 874.215 171.763 873.366L336.065 784.842C692.625 577.842 762.736 474.927 753.222 449.345C720.289 369.673 639.931 158.581 581.968 -48.4185C524.221 -254.646 284.436 -345.956 170.475 -366.149C169.615 -366.302 168.771 -366.207 167.956 -365.893L-108.64 -259.31C-109.296 -259.057 -109.864 -258.69 -110.351 -258.183C-169.175 -197.047 -290.636 -48.4015 -311.628 63.4138Z" fill="#1C1E2C"/>
<path d="M-239.334 77.392C-257.6 174.788 -321.694 325.848 -351.641 389.609C-351.766 389.874 -351.857 390.124 -351.93 390.408C-361.33 426.802 -357.968 504.445 -269.839 527.232C-181.986 549.947 62.3062 704.876 175.851 781.068C177.338 782.066 179.192 782.117 180.768 781.267L323.104 704.499C632.731 524.563 693.615 435.103 685.353 412.866C656.754 343.611 586.974 160.117 536.64 -19.8191C486.523 -198.982 278.509 -278.365 179.481 -295.979C178.62 -296.132 177.774 -296.037 176.958 -295.723L-62.9338 -203.189C-63.5898 -202.936 -64.1589 -202.567 -64.6459 -202.06C-115.763 -148.856 -221.117 -19.7443 -239.334 77.392Z" fill="#1F212D"/>
<path d="M-182.856 83.1443C-198.772 168.044 -254.606 299.708 -280.718 355.333C-280.842 355.598 -280.933 355.848 -281.006 356.132C-289.182 387.889 -286.212 455.525 -209.444 475.383C-132.952 495.169 79.6092 630.002 178.705 696.51C180.192 697.509 182.049 697.561 183.626 696.711L307.353 629.951C577.218 473.056 630.282 395.051 623.081 375.661C598.156 315.274 537.336 155.276 493.467 -1.61899C449.813 -157.74 268.716 -226.97 182.339 -242.388C181.478 -242.541 180.631 -242.446 179.815 -242.131L-28.9814 -161.558C-29.6374 -161.305 -30.2072 -160.935 -30.6941 -160.428C-75.2808 -113.977 -166.989 -1.49519 -182.856 83.1443Z" fill="#21232F"/>
<path d="M-129.794 109.75C-143.167 181.162 -190.065 291.891 -212.026 338.734C-212.15 338.999 -212.241 339.25 -212.314 339.533C-219.165 366.284 -216.62 423.12 -152.143 439.816C-87.9436 456.44 90.2843 569.581 173.745 625.637C175.234 626.636 177.097 626.692 178.674 625.839L282.266 569.884C509.109 437.858 553.714 372.218 547.661 355.901C526.708 305.086 475.585 170.449 438.709 38.4228C402.05 -92.8279 250.077 -151.098 177.388 -164.145C176.526 -164.3 175.677 -164.205 174.86 -163.889L-0.291092 -96.2259C-0.947235 -95.9724 -1.5181 -95.6019 -2.00473 -95.094C-39.5258 -55.9327 -116.47 38.5997 -129.794 109.75Z" fill="#232532"/>
<path d="M-83.1325 119.68C-94.6715 181.221 -135.126 276.63 -154.095 317.047C-154.219 317.312 -154.31 317.564 -154.383 317.848C-160.279 340.935 -158.038 389.867 -102.425 404.25C-47.0881 418.561 106.389 515.835 178.574 564.239C180.061 565.237 181.926 565.295 183.502 564.444L272.58 516.389C468.403 402.561 506.908 345.969 501.683 331.901C483.596 288.09 439.463 172.012 407.63 58.1835C376.013 -54.8709 245.036 -105.121 182.219 -116.432C181.358 -116.586 180.508 -116.492 179.692 -116.177L28.7973 -57.958C28.1414 -57.7049 27.5697 -57.3339 27.0831 -56.8264C-5.34325 -23.0003 -71.6423 58.3985 -83.1325 119.68Z" fill="#262835"/>
<path d="M388.332 346.322C376.867 352.568 259.609 387.822 193.951 464.627V488.165L343.227 405.165C359.125 391.745 398.106 362.426 426.846 352.516C455.586 342.606 451.622 300.899 446.048 281.285C430.356 244.947 398.725 163.103 397.734 126.434C396.743 89.7659 381.01 19.9907 372.339 14.6225C358.506 -7.88239 315.726 -7.97556 262.705 -27.7964C209.833 -47.5616 195.272 -47.0011 195.186 -46.9979L193.221 153.069C226.876 170.412 312.57 204.231 366.034 230.494C401.34 247.837 478.146 297.389 388.332 346.322Z" fill="#515153"/>
<path d="M193.951 464.627C128.294 387.822 11.4332 352.568 -0.0315568 346.322C-89.8452 297.389 -13.0392 247.837 22.2669 230.494C75.7304 204.231 159.567 170.412 193.221 153.069L195.186 -46.9979C194.571 -46.9978 181.316 -47.6172 128.295 -27.7964C75.2743 -7.97556 35.5913 -7.88239 21.758 14.6225C13.0864 19.9907 -5.74338 89.7659 -6.73442 126.434C-7.72546 163.103 -39.3562 244.947 -55.0477 281.285C-60.6223 300.899 -64.5865 342.606 -35.8463 352.516C-7.10605 362.426 31.8749 391.745 47.7729 405.165L193.951 488.165V464.627Z" fill="#262835"/>
<path d="M193.951 464.627C259.609 387.822 376.867 352.568 388.332 346.322C462.013 306.179 423.556 265.619 387.87 242.767C385.392 258.458 377.914 293.301 368.003 306.68C355.615 323.404 340.75 342.605 317.832 354.993C294.914 367.381 203.772 413.217 193.862 426.225L193.951 464.627Z" fill="#0C121E"/>
<path d="M-0.0315568 346.322C11.4332 352.568 128.294 387.822 193.951 464.627L193.862 426.225C183.951 413.217 94.8473 367.381 71.9295 354.993C49.0117 342.605 34.146 323.404 21.758 306.68C11.8476 293.301 4.12703 257.684 1.64943 241.993C-34.3646 264.694 -74.5522 305.721 -0.0315568 346.322Z" fill="#0D111D"/>
<path d="M122.101 304.822C87.9101 323.156 41.579 296.77 34.7655 288.718C27.9521 280.665 12.3432 245.855 16.8029 240.404C19.187 237.49 35.2645 230.425 53.5714 223.178C65.9233 218.288 79.2901 213.316 90.1505 209.48C100.832 205.708 109.089 203.035 111.571 202.621C118.923 201.396 155.965 197.141 193.332 200.044L193.221 153.069C159.567 170.412 75.7304 204.231 22.2669 230.494C16.2552 233.447 9.04018 237.334 1.64943 241.993C4.12703 257.684 11.8476 293.301 21.758 306.68C34.146 323.404 49.0117 342.605 71.9295 354.993C94.8473 367.381 183.951 413.217 193.862 426.225L193.516 278.939C186.431 279.709 169.667 283.473 146.877 293.015C139.119 296.263 130.784 300.166 122.101 304.822Z" fill="#16151B"/>
<path d="M108.535 271.994C119.436 276.453 130.42 270.136 134.55 266.419C139.505 263.942 141.569 256.463 141.982 253.033C132.218 250.072 107.606 243.004 85.6168 236.734L87.475 247.218C89.9526 253.618 97.6332 267.534 108.535 271.994Z" fill="#FF9E0D"/>
<path d="M254.033 266.419C258.163 270.136 269.147 276.453 280.048 271.994C290.95 267.534 298.63 253.618 301.108 247.218L302.966 236.734C280.977 243.004 255.126 250.45 245.362 253.412C245.775 256.841 249.078 263.942 254.033 266.419Z" fill="#FF9E0D"/>
<path d="M111.571 202.621C109.089 203.035 100.832 205.708 90.1505 209.48C115.873 205.129 173.56 200.766 193.381 221.082C192.929 221.336 193.787 220.843 193.381 221.082L193.332 200.044C155.965 197.141 118.923 201.396 111.571 202.621Z" fill="#B76B4E"/>
<path d="M299.013 209.488C291.58 208.249 232.354 197.046 194.571 200.143C194.158 200.109 193.745 200.076 193.332 200.044L193.381 221.082C212.043 202.621 262.089 207.09 299.013 209.488Z" fill="#B76B4E"/>
<path d="M146.877 293.015C169.667 283.473 186.431 279.709 193.516 278.939L193.472 260.225C193.946 260.225 193.026 260.225 193.472 260.225C173.306 260.225 148.275 292.434 146.877 293.015Z" fill="#E2B395"/>
<path d="M193.516 278.939C200.146 279.659 217.226 282.985 237.929 291.243C220.849 271.994 207.667 260.241 193.472 260.225L193.516 278.939Z" fill="#E2B395"/>
<path d="M169.236 242.882L90.1505 209.48C79.2901 213.316 65.9233 218.288 53.5714 223.178L57.1244 228.636C64.595 230.751 74.7879 233.646 85.6168 236.734C107.606 243.004 132.218 250.072 141.982 253.033C154.866 256.998 165.932 248.044 169.236 242.882Z" fill="#0C121E"/>
<path d="M71.3706 273.852C57.0005 263.446 55.8856 239.372 57.1244 228.636L53.5714 223.178C47.799 225.463 42.2482 227.73 37.2784 229.855C37.2784 229.855 37.3035 230.866 39.7811 247.218C42.2588 263.57 62.286 271.994 71.3706 273.852Z" fill="#0C121E"/>
<path d="M299.013 209.488L219.347 242.882C222.65 248.044 232.478 257.376 245.362 253.412C244.918 253.546 245.743 253.294 245.362 253.412C255.126 250.45 280.977 243.004 302.966 236.734C313.795 233.646 323.988 230.751 331.459 228.636L335.274 223.061C323.013 218.212 309.783 213.292 299.013 209.488Z" fill="#0C121E"/>
<path d="M34.7655 288.718C41.579 296.77 87.9101 323.156 122.101 304.822C130.784 300.166 139.119 296.263 146.877 293.015C148.275 292.434 173.306 260.225 193.472 260.225C193.946 260.225 193.026 260.225 193.472 260.225L193.381 221.082C192.929 221.336 193.787 220.843 193.381 221.082C173.56 200.766 115.873 205.129 90.1505 209.48L169.236 242.882C165.932 248.044 154.866 256.998 141.982 253.033C141.569 256.463 139.505 263.942 134.55 266.419C136.821 265.593 141.982 266.419 139.733 272.392C136.806 280.166 123.51 286.588 114.729 287.479C105.259 288.616 85.7407 284.258 71.3706 273.852C62.286 271.994 42.2588 263.57 39.7811 247.218C37.3035 230.866 37.2784 229.855 37.2784 229.855C26.487 234.468 18.4352 238.409 16.8029 240.404C12.3432 245.855 27.9521 280.665 34.7655 288.718Z" fill="#CD8365"/>
<path d="M57.1244 228.636C55.8856 239.372 57.0005 263.446 71.3706 273.852C85.7407 284.258 105.259 288.616 114.729 287.479C123.51 286.588 136.806 280.166 139.733 272.392C141.982 266.419 136.821 265.593 134.55 266.419C130.42 270.136 119.436 276.453 108.535 271.994C97.6332 267.534 89.9526 253.618 87.475 247.218L85.6168 236.734C74.7879 233.646 64.595 230.751 57.1244 228.636Z" fill="#FAFFFF"/>
<path d="M317.212 273.852C331.582 263.446 332.697 239.372 331.459 228.636C323.988 230.751 313.795 233.646 302.966 236.734L301.108 247.218C298.63 253.618 290.95 267.534 280.048 271.994C269.147 276.453 258.163 270.136 254.033 266.419C250.253 265.295 246.641 267.323 248.225 272.392C250.703 280.321 261.581 287.479 273.854 287.479C286.127 287.479 302.842 284.258 317.212 273.852Z" fill="#FAFFFF"/>
<path d="M331.459 228.636C332.697 239.372 331.582 263.446 317.212 273.852C326.297 271.994 346.458 263.59 348.802 247.218L351.32 229.623C351.15 229.55 350.979 229.478 350.807 229.405C350.554 229.297 350.3 229.19 350.045 229.082C349.536 228.867 349.022 228.651 348.504 228.434C344.352 226.695 339.882 224.883 335.274 223.061L331.459 228.636Z" fill="#0C121E"/>
<path d="M267.041 304.822C301.232 323.156 347.563 296.77 354.376 288.718C361.19 280.665 376.799 245.855 372.339 240.404C370.679 238.376 362.384 234.336 351.32 229.623L348.802 247.218C346.458 263.59 326.297 271.994 317.212 273.852C302.842 284.258 286.127 287.479 273.854 287.479C261.581 287.479 250.703 280.321 248.225 272.392C246.641 267.323 250.253 265.295 254.033 266.419C249.078 263.942 245.775 256.841 245.362 253.412C232.478 257.376 222.65 248.044 219.347 242.882L299.013 209.488C288.321 205.711 301.497 209.902 299.013 209.488C262.089 207.09 212.043 202.621 193.381 221.082L193.472 260.225C207.667 260.241 220.849 271.994 237.929 291.243C246.885 294.815 256.716 299.286 267.041 304.822Z" fill="#CD8365"/>
<path fill-rule="evenodd" clip-rule="evenodd" d="M350.807 229.405C350.554 229.297 350.3 229.19 350.045 229.082C349.536 228.867 349.022 228.651 348.504 228.434C349.283 228.76 350.051 229.084 350.807 229.405Z" fill="#4F4E53"/>
<path d="M354.376 288.718C347.563 296.77 301.232 323.156 267.041 304.822C256.716 299.286 246.885 294.815 237.929 291.243C217.226 282.985 200.146 279.659 193.516 278.939L193.862 426.225C203.772 413.217 294.914 367.381 317.832 354.993C340.75 342.605 355.615 323.404 368.003 306.68C377.914 293.301 385.392 258.458 387.87 242.767C380.056 237.764 372.375 233.609 366.034 230.494C312.57 204.231 226.876 170.412 193.221 153.069L193.332 200.044C193.745 200.076 194.158 200.109 194.571 200.143C232.354 197.046 291.58 208.249 299.013 209.488C288.321 205.711 301.497 209.902 299.013 209.488C309.783 213.292 323.013 218.212 335.274 223.061C339.882 224.883 344.352 226.695 348.504 228.434C349.022 228.651 349.536 228.867 350.045 229.082C350.3 229.19 350.554 229.297 350.807 229.405L351.32 229.623C362.384 234.336 370.679 238.376 372.339 240.404C376.799 245.855 361.19 280.665 354.376 288.718Z" fill="#4A4A4D"/>
</g>
<defs>
<clipPath id="clip0_528_3">
<rect width="390" height="844" fill="white"/>
</clipPath>
</defs>
</svg>
