<svg width="1353" height="1399" viewBox="0 0 1353 1399" fill="none" xmlns="http://www.w3.org/2000/svg">
<path d="M150.939 484.459C127.201 610.816 43.8817 806.824 5.00456 889.439C4.87967 889.705 4.78893 889.955 4.71517 890.238C-7.53461 937.381 -3.25893 1038.21 111.315 1067.79C225.615 1097.29 543.776 1298.79 690.954 1397.43C692.44 1398.42 694.286 1398.47 695.86 1397.62L881.517 1297.66C1283.71 1064.33 1362.79 948.321 1352.06 919.484C1314.91 829.678 1224.27 591.732 1158.89 358.401C1093.72 125.84 823.051 22.9262 694.573 0.22305C693.713 0.0711335 692.87 0.165696 692.056 0.479421L379.776 120.732C379.12 120.984 378.552 121.351 378.065 121.857C311.748 190.711 174.629 358.362 150.939 484.459Z" fill="#191B2B"/>
<path d="M188.372 462.414C167.332 574.489 93.4897 748.33 59.0146 821.647C58.8898 821.913 58.7991 822.163 58.7255 822.446C47.8805 864.289 51.7062 953.686 153.243 979.912C254.506 1006.07 536.253 1184.6 666.852 1272.17C668.338 1273.17 670.187 1273.21 671.763 1272.37L836.065 1183.84C1192.62 976.842 1262.74 873.927 1253.22 848.345C1220.29 768.673 1139.93 557.581 1081.97 350.581C1024.22 144.354 784.436 53.0438 670.475 32.8506C669.615 32.6982 668.771 32.7929 667.956 33.107L391.36 139.69C390.704 139.943 390.136 140.31 389.649 140.817C330.825 201.953 209.364 350.599 188.372 462.414Z" fill="#1C1E2C"/>
<path d="M260.666 476.392C242.4 573.788 178.306 724.847 148.359 788.608C148.234 788.873 148.143 789.123 148.07 789.407C138.67 825.802 142.032 903.445 230.161 926.231C318.014 948.946 562.306 1103.88 675.851 1180.07C677.338 1181.07 679.192 1181.12 680.768 1180.27L823.104 1103.5C1132.73 923.563 1193.61 834.103 1185.35 811.865C1156.75 742.61 1086.97 559.116 1036.64 379.18C986.523 200.018 778.509 120.634 679.481 103.02C678.62 102.867 677.774 102.962 676.958 103.277L437.066 195.811C436.41 196.064 435.841 196.432 435.354 196.939C384.237 250.143 278.883 379.255 260.666 476.392Z" fill="#1F212D"/>
<path d="M317.144 482.144C301.228 567.044 245.394 698.707 219.282 754.332C219.158 754.597 219.067 754.848 218.994 755.131C210.818 786.888 213.789 854.525 290.556 874.382C367.048 894.168 579.609 1029 678.705 1095.51C680.193 1096.51 682.05 1096.56 683.626 1095.71L807.354 1028.95C1077.22 872.055 1130.28 794.051 1123.08 774.661C1098.16 714.274 1037.34 554.276 993.467 397.381C949.814 241.259 768.717 172.029 682.34 156.612C681.478 156.458 680.631 156.553 679.815 156.868L471.019 237.442C470.363 237.695 469.793 238.064 469.306 238.571C424.719 285.022 333.011 397.504 317.144 482.144Z" fill="#21232F"/>
<path d="M370.206 508.751C356.833 580.163 309.935 690.892 287.974 737.734C287.85 737.999 287.759 738.25 287.686 738.534C280.835 765.284 283.38 822.12 347.857 838.816C412.056 855.44 590.284 968.581 673.745 1024.64C675.234 1025.64 677.097 1025.69 678.674 1024.84L782.266 968.884C1009.11 836.858 1053.71 771.218 1047.66 754.901C1026.71 704.086 975.585 569.449 938.709 437.423C902.05 306.173 750.077 247.902 677.388 234.855C676.526 234.701 675.677 234.796 674.86 235.111L499.709 302.775C499.053 303.028 498.482 303.399 497.995 303.907C460.474 343.068 383.53 437.6 370.206 508.751Z" fill="#232532"/>
<path d="M416.868 518.68C405.329 580.221 364.874 675.63 345.906 716.047C345.782 716.312 345.69 716.564 345.618 716.848C339.722 739.935 341.962 788.867 397.575 803.25C452.912 817.561 606.39 914.835 678.574 963.239C680.062 964.237 681.926 964.295 683.503 963.444L772.58 915.389C968.403 801.561 1006.91 744.969 1001.68 730.901C983.596 687.09 939.464 571.012 907.631 457.184C876.014 344.129 745.036 293.879 682.219 282.568C681.358 282.414 680.508 282.508 679.692 282.823L528.798 341.042C528.142 341.295 527.57 341.666 527.084 342.174C494.657 376 428.358 457.398 416.868 518.68Z" fill="#262835"/>
<path d="M888.332 745.322C876.867 751.568 759.609 786.822 693.951 863.627V887.165L843.227 804.165C859.125 790.745 898.106 761.426 926.846 751.516C955.586 741.606 951.622 699.899 946.048 680.285C930.356 643.947 898.725 562.103 897.734 525.434C896.743 488.766 881.01 418.991 872.339 413.623C858.506 391.118 815.726 391.024 762.705 371.204C709.833 351.438 695.272 351.999 695.186 352.002L693.221 552.069C726.876 569.412 812.57 603.231 866.034 629.494C901.34 646.837 978.146 696.389 888.332 745.322Z" fill="#515153"/>
<path d="M693.951 863.627C628.294 786.822 511.433 751.568 499.968 745.322C410.155 696.389 486.961 646.837 522.267 629.494C575.73 603.231 659.567 569.412 693.221 552.069L695.186 352.002C694.571 352.002 681.316 351.383 628.295 371.204C575.274 391.024 535.591 391.118 521.758 413.623C513.086 418.991 494.257 488.766 493.266 525.434C492.275 562.103 460.644 643.947 444.952 680.285C439.378 699.899 435.414 741.606 464.154 751.516C492.894 761.426 531.875 790.745 547.773 804.165L693.951 887.165V863.627Z" fill="#262835"/>
<path d="M693.951 863.627C759.609 786.822 876.867 751.568 888.332 745.322C962.013 705.179 923.556 664.619 887.87 641.767C885.392 657.458 877.914 692.301 868.003 705.68C855.615 722.404 840.75 741.605 817.832 753.993C794.914 766.381 703.772 812.217 693.862 825.225L693.951 863.627Z" fill="#0C121E"/>
<path d="M499.968 745.322C511.433 751.568 628.294 786.822 693.951 863.627L693.862 825.225C683.951 812.217 594.847 766.381 571.93 753.993C549.012 741.605 534.146 722.404 521.758 705.68C511.848 692.301 504.127 656.684 501.649 640.993C465.635 663.694 425.448 704.721 499.968 745.322Z" fill="#0D111D"/>
<path d="M622.101 703.822C587.91 722.156 541.579 695.77 534.766 687.718C527.952 679.665 512.343 644.855 516.803 639.404C519.187 636.49 535.265 629.425 553.571 622.178C565.923 617.288 579.29 612.316 590.15 608.48C600.832 604.708 609.089 602.035 611.571 601.621C618.923 600.396 655.965 596.141 693.332 599.044L693.221 552.069C659.567 569.412 575.73 603.231 522.267 629.494C516.255 632.447 509.04 636.334 501.649 640.993C504.127 656.684 511.848 692.301 521.758 705.68C534.146 722.404 549.012 741.605 571.93 753.993C594.847 766.381 683.951 812.217 693.862 825.225L693.516 677.939C686.431 678.709 669.667 682.473 646.877 692.015C639.119 695.263 630.784 699.166 622.101 703.822Z" fill="#16151B"/>
<path d="M608.535 670.994C619.436 675.453 630.42 669.136 634.55 665.419C639.505 662.942 641.569 655.463 641.982 652.033C632.218 649.072 607.606 642.004 585.617 635.734L587.475 646.218C589.953 652.618 597.633 666.534 608.535 670.994Z" fill="#FF9E0D"/>
<path d="M754.033 665.419C758.163 669.136 769.147 675.453 780.048 670.994C790.95 666.534 798.63 652.618 801.108 646.218L802.966 635.734C780.977 642.004 755.126 649.45 745.362 652.412C745.775 655.841 749.078 662.942 754.033 665.419Z" fill="#FF9E0D"/>
<path d="M611.571 601.621C609.089 602.035 600.832 604.708 590.15 608.48C615.873 604.129 673.56 599.766 693.381 620.082C692.929 620.336 693.787 619.843 693.381 620.082L693.332 599.044C655.965 596.141 618.923 600.396 611.571 601.621Z" fill="#B76B4E"/>
<path d="M799.013 608.488C791.58 607.249 732.354 596.046 694.571 599.143C694.158 599.109 693.745 599.076 693.332 599.044L693.381 620.082C712.043 601.621 762.089 606.09 799.013 608.488Z" fill="#B76B4E"/>
<path d="M646.877 692.015C669.667 682.473 686.431 678.709 693.516 677.939L693.472 659.225C693.946 659.225 693.026 659.225 693.472 659.225C673.306 659.225 648.275 691.434 646.877 692.015Z" fill="#E2B395"/>
<path d="M693.516 677.939C700.146 678.659 717.226 681.985 737.929 690.243C720.849 670.994 707.667 659.241 693.472 659.225L693.516 677.939Z" fill="#E2B395"/>
<path d="M669.236 641.882L590.15 608.48C579.29 612.316 565.923 617.288 553.571 622.178L557.124 627.636C564.595 629.751 574.788 632.646 585.617 635.734C607.606 642.004 632.218 649.072 641.982 652.033C654.866 655.998 665.932 647.044 669.236 641.882Z" fill="#0C121E"/>
<path d="M571.371 672.852C557 662.446 555.886 638.372 557.124 627.636L553.571 622.178C547.799 624.463 542.248 626.73 537.278 628.855C537.278 628.855 537.304 629.866 539.781 646.218C542.259 662.57 562.286 670.994 571.371 672.852Z" fill="#0C121E"/>
<path d="M799.013 608.488L719.347 641.882C722.65 647.044 732.478 656.376 745.362 652.412C744.918 652.546 745.743 652.294 745.362 652.412C755.126 649.45 780.977 642.004 802.966 635.734C813.795 632.646 823.988 629.751 831.459 627.636L835.274 622.061C823.013 617.212 809.783 612.292 799.013 608.488Z" fill="#0C121E"/>
<path d="M534.766 687.718C541.579 695.77 587.91 722.156 622.101 703.822C630.784 699.166 639.119 695.263 646.877 692.015C648.275 691.434 673.306 659.225 693.472 659.225C693.946 659.225 693.026 659.225 693.472 659.225L693.381 620.082C692.929 620.336 693.787 619.843 693.381 620.082C673.56 599.766 615.873 604.129 590.15 608.48L669.236 641.882C665.932 647.044 654.866 655.998 641.982 652.033C641.569 655.463 639.505 662.942 634.55 665.419C636.821 664.593 641.982 665.419 639.733 671.392C636.806 679.166 623.51 685.588 614.729 686.479C605.259 687.616 585.741 683.258 571.371 672.852C562.286 670.994 542.259 662.57 539.781 646.218C537.304 629.866 537.278 628.855 537.278 628.855C526.487 633.468 518.435 637.409 516.803 639.404C512.343 644.855 527.952 679.665 534.766 687.718Z" fill="#CD8365"/>
<path d="M557.124 627.636C555.886 638.372 557 662.446 571.371 672.852C585.741 683.258 605.259 687.616 614.729 686.479C623.51 685.588 636.806 679.166 639.733 671.392C641.982 665.419 636.821 664.593 634.55 665.419C630.42 669.136 619.436 675.453 608.535 670.994C597.633 666.534 589.953 652.618 587.475 646.218L585.617 635.734C574.788 632.646 564.595 629.751 557.124 627.636Z" fill="#FAFFFF"/>
<path d="M817.212 672.852C831.582 662.446 832.697 638.372 831.459 627.636C823.988 629.751 813.795 632.646 802.966 635.734L801.108 646.218C798.63 652.618 790.95 666.534 780.048 670.994C769.147 675.453 758.163 669.136 754.033 665.419C750.253 664.295 746.641 666.323 748.225 671.392C750.703 679.321 761.581 686.479 773.854 686.479C786.127 686.479 802.842 683.258 817.212 672.852Z" fill="#FAFFFF"/>
<path d="M831.459 627.636C832.697 638.372 831.582 662.446 817.212 672.852C826.297 670.994 846.458 662.59 848.802 646.218L851.32 628.623C851.15 628.55 850.979 628.478 850.807 628.405C850.554 628.297 850.3 628.19 850.045 628.082C849.536 627.867 849.022 627.651 848.504 627.434C844.352 625.695 839.882 623.883 835.274 622.061L831.459 627.636Z" fill="#0C121E"/>
<path d="M767.041 703.822C801.232 722.156 847.563 695.77 854.376 687.718C861.19 679.665 876.799 644.855 872.339 639.404C870.679 637.376 862.384 633.336 851.32 628.623L848.802 646.218C846.458 662.59 826.297 670.994 817.212 672.852C802.842 683.258 786.127 686.479 773.854 686.479C761.581 686.479 750.703 679.321 748.225 671.392C746.641 666.323 750.253 664.295 754.033 665.419C749.078 662.942 745.775 655.841 745.362 652.412C732.478 656.376 722.65 647.044 719.347 641.882L799.013 608.488C788.321 604.711 801.497 608.902 799.013 608.488C762.089 606.09 712.043 601.621 693.381 620.082L693.472 659.225C707.667 659.241 720.849 670.994 737.929 690.243C746.885 693.815 756.716 698.286 767.041 703.822Z" fill="#CD8365"/>
<path fill-rule="evenodd" clip-rule="evenodd" d="M850.807 628.405C850.554 628.297 850.3 628.19 850.045 628.082C849.536 627.867 849.022 627.651 848.504 627.434C849.283 627.76 850.051 628.084 850.807 628.405Z" fill="#4F4E53"/>
<path d="M854.376 687.718C847.563 695.77 801.232 722.156 767.041 703.822C756.716 698.286 746.885 693.815 737.929 690.243C717.226 681.985 700.146 678.659 693.516 677.939L693.862 825.225C703.772 812.217 794.914 766.381 817.832 753.993C840.75 741.605 855.615 722.404 868.003 705.68C877.914 692.301 885.392 657.458 887.87 641.767C880.056 636.764 872.375 632.609 866.034 629.494C812.57 603.231 726.876 569.412 693.221 552.069L693.332 599.044C693.745 599.076 694.158 599.109 694.571 599.143C732.354 596.046 791.58 607.249 799.013 608.488C788.321 604.711 801.497 608.902 799.013 608.488C809.783 612.292 823.013 617.212 835.274 622.061C839.882 623.883 844.352 625.695 848.504 627.434C849.022 627.651 849.536 627.867 850.045 628.082C850.3 628.19 850.554 628.297 850.807 628.405L851.32 628.623C862.384 633.336 870.679 637.376 872.339 639.404C876.799 644.855 861.19 679.665 854.376 687.718Z" fill="#4A4A4D"/>
</svg>
