<svg width="448" height="445" viewBox="0 0 448 445" fill="none" xmlns="http://www.w3.org/2000/svg">
<g clip-path="url(#clip0_663_24)">
<path d="M393.413 345.024C383.33 350.503 280.205 381.428 222.462 448.802V469.449L353.745 396.641C367.726 384.869 402.009 359.151 427.285 350.457C452.561 341.764 449.074 305.179 444.172 287.973C430.372 256.097 402.554 184.303 401.682 152.137C400.81 119.972 386.974 58.7645 379.347 54.0555C367.182 34.3141 329.558 34.2324 282.928 16.8455C236.429 -0.492597 223.623 -0.00100855 223.548 0.00187847L221.82 175.501C251.418 190.715 326.783 220.381 373.802 243.419C404.853 258.632 472.401 302.1 393.413 345.024Z" fill="#515153"/>
<path d="M222.462 448.802C164.719 381.428 61.9435 350.503 51.8607 345.024C-27.1273 302.1 40.421 258.632 71.4714 243.419C118.491 220.381 192.222 190.715 221.82 175.501L223.548 0.00187847C223.007 0.00188741 211.349 -0.541442 164.719 16.8455C118.09 34.2324 83.1898 34.3141 71.0239 54.0555C63.3975 58.7645 46.8373 119.972 45.9658 152.137C45.0942 184.303 17.276 256.097 3.47592 287.973C-1.42675 305.179 -4.9131 341.764 20.3629 350.457C45.6389 359.151 79.9213 384.869 93.903 396.641L222.462 469.449V448.802Z" fill="#262835"/>
<path d="M222.462 448.802C280.205 381.428 383.33 350.503 393.413 345.024C458.213 309.81 424.391 274.23 393.006 254.185C390.827 267.95 384.25 298.514 375.534 310.25C364.64 324.92 351.566 341.764 331.41 352.63C311.255 363.497 231.099 403.705 222.383 415.115L222.462 448.802Z" fill="#0C121E"/>
<path d="M51.8607 345.024C61.9435 350.503 164.719 381.428 222.462 448.802L222.383 415.115C213.667 403.705 135.303 363.497 115.148 352.63C94.9925 341.764 81.9187 324.92 71.0239 310.25C62.308 298.514 55.518 267.27 53.3391 253.506C21.666 273.419 -13.6776 309.409 51.8607 345.024Z" fill="#0D111D"/>
<path d="M159.272 308.62C129.202 324.703 88.4557 301.556 82.4635 294.493C76.4713 287.429 62.7439 256.894 66.666 252.112C68.7627 249.556 82.9023 243.359 99.0026 237.001C109.866 232.712 121.621 228.35 131.173 224.986C140.567 221.676 147.828 219.331 150.012 218.968C156.477 217.894 189.054 214.161 221.917 216.708L221.82 175.501C192.222 190.715 118.491 220.381 71.4714 243.419C66.1843 246.009 59.839 249.419 53.3391 253.506C55.518 267.27 62.308 298.514 71.0239 310.25C81.9187 324.92 94.9925 341.764 115.148 352.63C135.303 363.497 213.667 403.705 222.383 415.115L222.079 285.915C215.848 286.59 201.105 289.892 181.062 298.263C174.239 301.112 166.909 304.535 159.272 308.62Z" fill="#16151B"/>
<path d="M147.341 279.823C156.928 283.735 166.588 278.193 170.22 274.933C174.578 272.759 176.394 266.199 176.757 263.191C168.17 260.593 146.524 254.393 127.185 248.893L128.82 258.089C130.999 263.704 137.753 275.911 147.341 279.823Z" fill="#474747"/>
<path d="M275.302 274.933C278.934 278.193 288.594 283.735 298.181 279.823C307.769 275.911 314.523 263.704 316.702 258.089L318.337 248.893C298.998 254.393 276.263 260.925 267.676 263.522C268.039 266.531 270.944 272.759 275.302 274.933Z" fill="#474747"/>
<path d="M150.012 218.968C147.828 219.331 140.567 221.676 131.173 224.986C153.794 221.169 204.528 217.341 221.96 235.163C221.563 235.385 222.317 234.953 221.96 235.163L221.917 216.708C189.054 214.161 156.477 217.894 150.012 218.968Z" fill="#B76B4E"/>
<path d="M314.86 224.992C308.323 223.906 256.236 214.078 223.007 216.795C222.643 216.765 222.28 216.736 221.917 216.708L221.96 235.163C238.373 218.968 282.386 222.889 314.86 224.992Z" fill="#B76B4E"/>
<path d="M181.062 298.263C201.105 289.892 215.848 286.59 222.079 285.915L222.04 269.499C222.457 269.499 221.648 269.499 222.04 269.499C204.305 269.499 182.291 297.753 181.062 298.263Z" fill="#E2B395"/>
<path d="M222.079 285.915C227.91 286.547 242.931 289.464 261.139 296.708C246.117 279.823 234.525 269.513 222.04 269.499L222.079 285.915Z" fill="#E2B395"/>
<path d="M200.726 254.286L131.173 224.986C121.621 228.35 109.866 232.712 99.0026 237.001L102.127 241.789C108.697 243.645 117.662 246.184 127.185 248.893C146.524 254.393 168.17 260.593 176.757 263.191C188.088 266.668 197.82 258.814 200.726 254.286Z" fill="#0C121E"/>
<path d="M114.656 281.453C102.018 272.325 101.038 251.207 102.127 241.789L99.0026 237.001C93.9259 239.006 89.0442 240.995 84.6735 242.858C84.6735 242.858 84.6956 243.745 86.8746 258.089C89.0535 272.433 106.667 279.823 114.656 281.453Z" fill="#0C121E"/>
<path d="M314.86 224.992L244.796 254.286C247.702 258.814 256.345 267 267.676 263.522C267.285 263.641 268.011 263.42 267.676 263.522C276.263 260.925 298.998 254.393 318.337 248.893C327.86 246.184 336.824 243.645 343.395 241.789L346.751 236.899C335.967 232.645 324.331 228.329 314.86 224.992Z" fill="#0C121E"/>
<path d="M82.4635 294.493C88.4557 301.556 129.202 324.703 159.272 308.62C166.909 304.535 174.239 301.112 181.062 298.263C182.291 297.753 204.305 269.499 222.04 269.499C222.457 269.499 221.648 269.499 222.04 269.499L221.96 235.163C221.563 235.385 222.317 234.953 221.96 235.163C204.528 217.341 153.794 221.169 131.173 224.986L200.726 254.286C197.82 258.814 188.088 266.668 176.757 263.191C176.394 266.199 174.578 272.759 170.22 274.933C172.217 274.208 176.757 274.933 174.779 280.172C172.205 286.992 160.511 292.625 152.788 293.406C144.46 294.403 127.294 290.581 114.656 281.453C106.667 279.823 89.0535 272.433 86.8746 258.089C84.6956 243.745 84.6735 242.858 84.6735 242.858C75.1828 246.905 68.1016 250.362 66.666 252.112C62.7439 256.894 76.4713 287.429 82.4635 294.493Z" fill="#CD8365"/>
<path d="M102.127 241.789C101.038 251.207 102.018 272.325 114.656 281.453C127.294 290.581 144.46 294.403 152.788 293.406C160.511 292.625 172.205 286.992 174.779 280.172C176.757 274.933 172.217 274.208 170.22 274.933C166.588 278.193 156.928 283.735 147.341 279.823C137.753 275.911 130.999 263.704 128.82 258.089L127.185 248.893C117.662 246.184 108.697 243.645 102.127 241.789Z" fill="#FAFFFF"/>
<path d="M330.866 281.453C343.504 272.325 344.484 251.207 343.395 241.789C336.824 243.645 327.86 246.184 318.337 248.893L316.702 258.089C314.523 263.704 307.769 275.911 298.181 279.823C288.594 283.735 278.934 278.193 275.302 274.933C271.977 273.946 268.8 275.725 270.194 280.172C272.373 287.127 281.94 293.406 292.734 293.406C303.527 293.406 318.228 290.581 330.866 281.453Z" fill="#FAFFFF"/>
<path d="M343.395 241.789C344.484 251.207 343.504 272.325 330.866 281.453C338.855 279.823 356.587 272.451 358.647 258.089L360.862 242.655C360.712 242.591 360.562 242.527 360.411 242.463C360.189 242.369 359.965 242.275 359.741 242.18C359.293 241.992 358.841 241.802 358.385 241.612C354.734 240.086 350.803 238.497 346.751 236.899L343.395 241.789Z" fill="#0C121E"/>
<path d="M286.741 308.62C316.811 324.703 357.558 301.556 363.55 294.493C369.542 287.429 383.27 256.894 379.347 252.112C377.888 250.333 370.592 246.789 360.862 242.655L358.647 258.089C356.587 272.451 338.855 279.823 330.866 281.453C318.228 290.581 303.527 293.406 292.734 293.406C281.94 293.406 272.373 287.127 270.194 280.172C268.8 275.725 271.977 273.946 275.302 274.933C270.944 272.759 268.039 266.531 267.676 263.522C256.345 267 247.702 258.814 244.796 254.286L314.86 224.992C305.457 221.679 317.045 225.355 314.86 224.992C282.386 222.889 238.373 218.968 221.96 235.163L222.04 269.499C234.525 269.513 246.117 279.823 261.139 296.708C269.015 299.842 277.661 303.763 286.741 308.62Z" fill="#CD8365"/>
<path fill-rule="evenodd" clip-rule="evenodd" d="M360.411 242.463C360.189 242.369 359.965 242.275 359.741 242.18C359.293 241.992 358.841 241.802 358.385 241.612C359.071 241.898 359.746 242.182 360.411 242.463Z" fill="#4F4E53"/>
<path d="M363.55 294.493C357.558 301.556 316.811 324.703 286.741 308.62C277.661 303.763 269.015 299.842 261.139 296.708C242.931 289.464 227.91 286.547 222.079 285.915L222.383 415.115C231.099 403.705 311.255 363.497 331.41 352.63C351.566 341.764 364.64 324.92 375.534 310.25C384.25 298.514 390.827 267.95 393.006 254.185C386.135 249.796 379.38 246.152 373.802 243.419C326.783 220.381 251.418 190.715 221.82 175.501L221.917 216.708C222.28 216.736 222.643 216.765 223.007 216.795C256.236 214.078 308.323 223.906 314.86 224.992C305.457 221.679 317.045 225.355 314.86 224.992C324.331 228.329 335.967 232.645 346.751 236.899C350.803 238.497 354.734 240.086 358.385 241.612C358.841 241.802 359.293 241.992 359.741 242.18C359.965 242.275 360.189 242.369 360.411 242.463L360.862 242.655C370.592 246.789 377.888 250.333 379.347 252.112C383.27 256.894 369.542 287.429 363.55 294.493Z" fill="#4A4A4D"/>
<g style="mix-blend-mode:color">
<rect width="448" height="445" fill="#E30618" fill-opacity="0.8"/>
</g>
</g>
<defs>
<clipPath id="clip0_663_24">
<rect width="448" height="445" fill="white"/>
</clipPath>
</defs>
</svg>
