<svg width="86" height="78" viewBox="0 0 86 78" fill="none" xmlns="http://www.w3.org/2000/svg">
<path d="M41.4782 4.30723C37.4017 2.4238 29.8468 0.38526 32.2399 7.29856C34.633 14.2119 36.1176 19.4855 36.5607 21.2581C37.1147 24.2494 39.4856 29.7668 44.5376 27.9055C49.5896 26.0442 53.0684 24.2494 54.1763 23.5847L62.4856 21.9228C63.4827 21.8164 65.4105 21.3363 65.1446 20.2675C57.6012 14.9154 48.2033 8.43339 41.4782 4.30723Z" fill="#C6BFB9"/>
<path d="M36.8931 1.64841C28.3844 -2.87182 21.3825 7.29871 18.9451 12.949C20.7177 11.398 24.5954 9.22657 25.9249 12.949C27.2544 16.6714 28.9162 20.9257 29.5809 22.5876C30.5781 27.2408 33.7023 38.1425 38.2226 44.524C38.2226 50.2851 39.0867 62.4055 42.5434 64.7986C44.5376 58.262 49.7226 44.657 54.5087 42.5298C55.3958 41.711 56.6485 40.6403 58.1648 39.4553C62.5983 35.9906 69.2861 31.5487 75.6839 29.5674C74.9005 28.351 74.1464 27.2313 73.4538 26.2437C71.2599 24.6405 68.372 22.5574 65.1446 20.2675C65.4105 21.3363 63.4827 21.8164 62.4856 21.9228L54.1763 23.5847C53.0684 24.2494 49.5896 26.0442 44.5376 27.9055C39.4856 29.7668 37.1147 24.2494 36.5607 21.2581C36.1176 19.4855 34.633 14.2119 32.2399 7.29856C29.8468 0.38526 37.4017 2.4238 41.4782 4.30723C39.747 3.245 38.1928 2.33891 36.8931 1.64841Z" fill="#E3D9D0"/>
<path d="M54.5087 42.5298C49.7226 44.657 44.5376 58.262 42.5434 64.7986L43.8729 77.761C46.6475 75.4133 55.0329 71.7663 61.1561 69.3299C61.6879 62.585 59.3835 46.6031 58.1648 39.4553C56.6485 40.6403 55.3958 41.711 54.5087 42.5298Z" fill="#908585"/>
<path d="M84.422 58.4836C89.3594 53.7813 81.6672 38.8575 75.6839 29.5674C76.1592 32.7803 76.3787 39.8708 73.4538 42.5298C70.529 45.1888 72.2351 58.7002 73.4538 65.1236C77.2864 63.5465 81.43 61.3331 84.422 58.4836Z" fill="#908585"/>
<path d="M75.6839 29.5674C69.2861 31.5487 62.5983 35.9906 58.1648 39.4553C59.3835 46.6031 61.6879 62.585 61.1561 69.3299C62.6613 68.731 64.0297 68.2053 65.1446 67.7899C67.0473 67.3785 70.1339 66.4898 73.4538 65.1236C72.2351 58.7002 70.529 45.1888 73.4538 42.5298C76.3787 39.8708 76.1592 32.7803 75.6839 29.5674Z" fill="#756B6C"/>
<path d="M18.9451 12.949C4.05492 27.0415 0.11079 48.291 0 57.1542C0.886321 55.6031 3.3237 53.0327 5.98266 55.1599C6.86898 55.2707 9.17342 52.8997 11.3006 42.5298C13.4278 32.1598 18.1696 25.5789 20.2746 23.5847C20.2746 24.2494 19.6098 33.2234 21.9364 44.524C22.0472 46.7398 21.87 52.7668 20.2746 59.1483C18.6792 65.5298 18.7554 68.595 18.9928 69.3299C25.4126 59.926 26.2891 62.3908 25.9249 64.7986C25.0386 67.0991 24.263 71.5829 28.2515 71.1136C32.2399 70.6444 32.7939 73.1339 32.5723 74.4373L43.8729 77.761L42.5434 64.7986C39.0867 62.4055 38.2226 50.2851 38.2226 44.524C33.7023 38.1425 30.5781 27.2408 29.5809 22.5876C28.9162 20.9257 27.2544 16.6714 25.9249 12.949C24.5954 9.22657 20.7177 11.398 18.9451 12.949Z" fill="#A09694"/>
<path d="M0 57.1542C7.1792 58.7497 12.2977 60.921 13.9595 61.8073C15.9005 65.5398 17.6528 67.9101 18.9928 69.3299C18.7554 68.595 18.6792 65.5298 20.2746 59.1483C21.87 52.7668 22.0472 46.7398 21.9364 44.524C19.6098 33.2234 20.2746 24.2494 20.2746 23.5847C18.1696 25.5789 13.4278 32.1598 11.3006 42.5298C9.17342 52.8997 6.86898 55.2707 5.98266 55.1599C3.3237 53.0327 0.886321 55.6031 0 57.1542Z" fill="#756B6C"/>
<path d="M21.2717 71.1136L32.5723 74.4373C32.7939 73.1339 32.2399 70.6444 28.2515 71.1136C24.263 71.5829 25.0386 67.0991 25.9249 64.7986C26.2891 62.3908 25.4126 59.926 18.9928 69.3299C20.0394 70.4387 20.8345 70.9679 21.2717 71.1136Z" fill="#756B6C"/>
</svg>
