<svg width="34" height="34" viewBox="0 0 34 34" fill="none" xmlns="http://www.w3.org/2000/svg">
<g clip-path="url(#clip0_579_337)">
<circle cx="17" cy="17" r="17" fill="#0088CC"/>
<path d="M23.4157 13.0158L17.6037 23.4281C17.4967 23.6187 17.3289 23.756 17.1347 23.8118C16.9406 23.8676 16.7348 23.8376 16.5597 23.7281C16.4435 23.6549 16.3455 23.5502 16.2743 23.4236L10.5763 13.0113C10.4167 12.7195 10.3324 12.3835 10.333 12.0408C10.3402 11.535 10.5255 11.053 10.8482 10.7006C11.1709 10.3482 11.6047 10.1543 12.0543 10.1613H21.953C22.8977 10.1613 23.6663 10.9998 23.6663 12.0363C23.6663 12.3813 23.5797 12.7203 23.415 13.0158M11.975 12.6678L16.215 20.0216V11.9261H12.4183C11.9797 11.9261 11.783 12.2531 11.9757 12.6678M17.7837 20.0216L22.0237 12.6678C22.219 12.2531 22.019 11.9261 21.5803 11.9261H17.7837V20.0216Z" fill="white"/>
</g>
<defs>
<clipPath id="clip0_579_337">
<rect width="34" height="34" fill="white"/>
</clipPath>
</defs>
</svg>
