<svg width="34" height="34" viewBox="0 0 34 34" fill="none" xmlns="http://www.w3.org/2000/svg">
<path d="M27.191 2H6.80902C6.61963 2 6.4465 2.107 6.3618 2.27639L0.163716 14.6726C0.0662389 14.8675 0.106284 15.1032 0.262692 15.255L16.6518 31.162C16.8457 31.3503 17.1543 31.3503 17.3482 31.162L33.7373 15.255C33.8937 15.1032 33.9338 14.8675 33.8363 14.6726L27.6382 2.27639C27.5535 2.107 27.3804 2 27.191 2Z" fill="#50AF95"/>
<path d="M8.875 5.25H25.125V9.1175H8.875V5.25ZM19.4375 16.235V24.7662H14.5625V16.235H19.4375Z" fill="white"/>
<path d="M17.0007 11.3438C11.0532 11.3438 6.24316 12.53 6.24316 13.9763C6.24316 15.4225 11.0694 16.6088 17.0007 16.6088C22.9319 16.6088 27.7582 15.4225 27.7582 13.9763C27.7582 12.53 22.9319 11.3438 17.0007 11.3438ZM17.0007 15.4063C11.5082 15.4063 7.05566 14.5938 7.05566 13.5863C7.05566 12.5788 11.5082 11.7663 17.0007 11.7663C22.4932 11.7663 26.9457 12.5788 26.9457 13.5863C26.9457 14.5938 22.4932 15.4063 17.0007 15.4063Z" fill="white"/>
<path d="M17 14.805C17.845 14.805 18.6575 14.7888 19.4375 14.74V8.09375H14.5625V14.74C15.3425 14.7725 16.155 14.805 17 14.805Z" fill="white"/>
</svg>
