<svg width="390" height="172" viewBox="0 0 390 172" fill="none" xmlns="http://www.w3.org/2000/svg">
<path fill-rule="evenodd" clip-rule="evenodd" d="M-23.5481 66.9754L-49.0838 105.38L-20.5913 98.3058L-5.13189 104.125L-2.03892 106.181C3.16775 105.059 12.0748 106.645 6.04978 121.967C7.08077 122.653 23.7196 109.927 32.124 102.878C39.5896 100.408 56.3079 96.5816 63.4557 101.037L86.0417 107.877L71.114 115.793L91.8808 109.158L96.0047 111.9L100.895 109.576L102.57 109.852L111.95 111.398L124.679 113.496L119.534 117.881L137.389 116.743L141.255 119.314L135.339 125.416L144.09 121.199L148.47 122.996L140.59 137.085L157.146 127.278L167.109 131.301L162.753 149.592L175.697 134.038L177.758 134.293L176.566 142.793L182.737 134.63L195.303 161.571L200.507 134.179L206.708 150.569L204.97 133.058L221.223 156.131L213.805 127.038L229.696 135.002L218.606 122.053L254.757 129.735L228.209 112.083L248.121 108.969L236.355 104.862L275.664 97.1743L260.979 92.9856L283.295 89.6106C288.968 95.2409 301.018 107.789 303.84 112.936C304.253 113.21 311.678 110.465 315.339 109.059L312.419 107.861C317.079 104.392 327.843 98.4159 333.616 102.255C339.39 106.094 343.414 111.743 344.705 114.088L364.086 97.2389C370.319 93.0821 383.865 83.7027 388.187 79.4394L398.742 76.422L375.503 97.3967C388.54 87.48 415.267 68.4526 417.88 71.6773L407.685 88.6872L414.545 81.7254L411.037 92.0312L438.489 76.4597L485.791 5.32148L479.352 5.50098C474.468 12.6608 463.806 26.9814 460.234 26.9858L456.291 31.798L412.944 36.0569L410.367 34.3432L428.37 13.9757L394.84 43.7192C391.439 47.1572 383.591 55.2706 379.407 60.2205L363.024 70.8853L367.733 61.0072C362.132 67.195 349.916 78.9707 345.861 76.5719L332.465 73.2402L334.26 66.6278C330.459 71.0392 319.646 78.767 306.798 74.3872C293.95 70.0074 280.201 63.145 274.932 60.2612L277.41 50.3858L239.915 67.0855L246.946 59.8658L232.443 64.3474L239.906 59.2734L232.606 57.3937L235.431 50.3508L226.767 56.1131L220.584 54.2319L225.627 36.0263L208.906 51.6707L207.017 51.1579L207.181 45.3201L201.438 52.2806L200.203 25.0688L190.1 46.9719L187.077 31.9524L182.883 42.1732L179.78 32.3046L176.617 43.211L174.042 43.7292L173.186 45.0179L162.179 30.2657L167.701 53.2658L159.453 47.7816C159.711 47.953 165.131 57.132 164.959 57.3898C164.822 57.596 150.812 48.1069 143.824 43.3366L158.274 66.3259C152.205 64.2729 140.188 60.3214 140.669 60.9389C141.151 61.5564 151.066 68.9673 155.964 72.5955L120.77 75.2135L129.018 80.6977L120.522 82.8542L128.595 86.3641C127.309 87.7392 124.514 90.4897 123.621 90.4908C122.729 90.4918 114.15 91.1318 109.973 91.4516L116.751 88.5246C110.198 88.5039 95.5634 87.7433 89.4477 84.8663C83.3319 81.9892 69.817 60.9103 63.824 50.7304C63.4844 53.8499 58.2743 61.5366 40.1505 67.3275L48.3039 65.6865L37.0697 75.3149L-8.85646 76.7441C-5.42389 75.6812 1.30389 73.5383 0.754378 73.4703C0.20487 73.4023 -13.1554 71.2838 -19.7669 70.233L-23.5481 66.9754ZM26.0055 83.5696C21.371 84.5768 11.7244 86.7117 10.2141 87.1943L17.5161 91.3061L26.0055 83.5696ZM48.5064 91.0968C48.1631 91.166 52.8229 87.4002 55.1957 85.5087L71.3487 96.9926C63.8777 94.9985 48.8497 91.0277 48.5064 91.0968ZM317.019 78.5814C314.959 78.3263 310.666 77.8507 309.979 77.9889L314.961 80.5583L317.019 78.5814ZM311.616 82.7944C306.262 80.5975 295.417 76.1866 294.868 76.1186L308.872 85.8023L311.616 82.7944ZM362.281 96.0392C357.049 99.2505 346.189 105.931 344.61 106.963L347.189 109.793L362.281 96.0392ZM406.54 64.1365C405.939 64.4806 401.996 69.2928 400.795 69.981C405.887 68.6586 416.294 66.0133 417.187 66.0122C418.303 66.0109 407.14 63.7924 406.54 64.1365ZM448.572 37.8166L431.496 43.9324L439.399 47.7L448.572 37.8166ZM269.042 87.5675C271.015 86.2774 275.201 83.5596 276.162 83.009L279.943 86.2666L269.042 87.5675Z" fill="#2A2A2A"/>
<path fill-rule="evenodd" clip-rule="evenodd" d="M479.352 5.50098L485.791 5.32148L488.704 0.93978L474.286 4.7345L460.658 22.4354L454.73 18.4936L447.701 26.8293L422.204 26.6026L434.715 7.78708C430.826 10.2813 422.946 15.4245 422.535 16.0431C422.123 16.6617 425.218 10.5171 426.816 7.36742L376.14 56.1896L379.136 48.889L366.444 60.1503L368.583 54.1385L348.946 71.9325C346.338 73.1718 339.787 70.055 336.837 68.3416L341.807 60.8669L332.713 65.5995L332.449 59.8481C331.08 64.1421 318.984 70.5952 318.298 71.6262C310.884 73.8329 288.529 64.2223 278.279 59.1411L280.837 45.2309L252.951 56.4247L256.721 50.7543L237.151 53.3534L240.318 45.795L226.245 50.1903L231.968 26.4897L227.936 28.6408L210.99 43.8495L214.166 32.7516L203.952 45.4033L201.651 15.6239C199.31 19.8905 194.421 28.7329 193.599 29.97C192.776 31.2072 191.71 30.2013 191.28 29.5436L190.156 22.8489L186.215 28.7771L179.498 12.0452L173.862 36.1749L158.736 22.0286L161.765 42.6281L154.886 32.8499L157.389 44.1786L150.43 39.5513L155.161 47.5293L137.119 35.5327L146.933 58.7852L131.736 56.4857L143.427 70.207L104.713 71.9708L112.615 75.7385L112.274 77.37L107.467 77.8909L112.795 82.1768L103.439 83.3899L101.118 80.7315L98.9735 82.2794C97.8043 80.9072 98.1381 77.7591 98.4512 76.3566L80.5789 62.9862L78.1796 66.5946L72.0665 51.7506L68.7212 53.9867C66.7536 49.4923 62.9741 40.6241 62.8555 39.4335C62.5493 40.5775 59.6323 48.8506 58.0753 53.2269L50.0123 58.645L31.3938 67.0806L37.1493 70.1641L9.25193 72.4298L10.623 70.3679L-21.3201 63.6247L-23.5481 66.9754L-19.7669 70.233C-13.1554 71.2838 0.20487 73.4023 0.754378 73.4703C1.30389 73.5383 -5.42389 75.6812 -8.85646 76.7441L37.0697 75.3149L48.3039 65.6865L40.1505 67.3275C58.2743 61.5366 63.4844 53.8499 63.824 50.7304C69.817 60.9103 83.3319 81.9892 89.4477 84.8663C95.5634 87.7433 110.198 88.5039 116.751 88.5246L109.973 91.4516C114.15 91.1318 122.729 90.4918 123.621 90.4908C124.514 90.4897 127.309 87.7392 128.595 86.3641L120.522 82.8542L129.018 80.6977L120.77 75.2135L155.964 72.5955C151.066 68.9673 141.151 61.5564 140.669 60.9389C140.188 60.3214 152.205 64.2729 158.274 66.3259L143.824 43.3366C150.812 48.1069 164.822 57.596 164.959 57.3898C165.131 57.132 159.711 47.953 159.453 47.7816L167.701 53.2658L162.179 30.2657L173.186 45.0179L174.042 43.7292L176.617 43.211L179.78 32.3046L182.883 42.1732L187.077 31.9524L190.1 46.9719L200.203 25.0688L201.438 52.2806L207.181 45.3201L207.017 51.1579L208.906 51.6707L225.627 36.0263L220.584 54.2319L226.767 56.1131L235.431 50.3508L232.606 57.3937L239.906 59.2734L232.443 64.3474L246.946 59.8658L239.915 67.0855L277.41 50.3858L274.932 60.2612C280.201 63.145 293.95 70.0074 306.798 74.3872C319.646 78.767 330.459 71.0392 334.26 66.6278L332.465 73.2402L345.861 76.5719C349.916 78.9707 362.132 67.195 367.733 61.0072L363.024 70.8853L379.407 60.2205C383.591 55.2706 391.439 47.1572 394.84 43.7192L428.37 13.9757L410.367 34.3432L412.944 36.0569L456.291 31.798L460.234 26.9858C463.806 26.9814 474.468 12.6608 479.352 5.50098ZM452.252 28.369L456.282 23.9859L456.715 27.2476L452.252 28.369ZM84.626 73.1112C84.3683 72.9398 84.5369 70.45 84.6219 69.7632L94.5027 76.7047L92.6216 82.888C90.0423 79.6862 84.8322 73.2483 84.626 73.1112Z" fill="#FF7F08"/>
<path d="M-20.5913 98.3058L-49.0838 105.38L-53.0255 111.308C-44.4169 107.492 -26.8882 101.85 -25.6423 109.815C-22.7837 107.38 -16.8261 102.594 -15.8642 102.936C-14.6618 103.364 -6.41522 107.732 -5.64198 108.246C-5.02339 108.657 1.37299 111.671 4.49383 113.127C4.38274 115.903 2.80594 122.933 -2.6124 128.845C-1.41048 128.901 2.82944 128.152 10.1737 124.709C17.518 121.266 28.6707 110.494 33.3291 105.537C41.3948 102.351 59.6403 97.8309 68.0965 105.238L64.928 111.68L70.7631 109.613L57.3873 123.021L83.3023 114.233L97.8103 114.216L102.57 109.852L100.895 109.576L96.0047 111.9L91.8808 109.158L71.114 115.793L86.0417 107.877L63.4557 101.037C56.3079 96.5816 39.5896 100.408 32.124 102.878C23.7196 109.927 7.08077 122.653 6.04978 121.967C12.0748 106.645 3.16775 105.059 -2.03892 106.181L-5.13189 104.125L-20.5913 98.3058Z" fill="#FF7F08"/>
<path d="M55.1957 85.5087C52.8229 87.4002 48.1631 91.166 48.5064 91.0968C48.8497 91.0277 63.8777 94.9985 71.3487 96.9926L55.1957 85.5087Z" fill="#FF7F08"/>
<path d="M10.2141 87.1943C11.7244 86.7117 21.371 84.5768 26.0055 83.5696L17.5161 91.3061L10.2141 87.1943Z" fill="#FF7F08"/>
<path d="M119.534 117.881L124.679 113.496L111.95 111.398C112.754 111.531 115.034 113.282 116.074 114.14L107.605 120.728L134.988 119.236L125.132 132.382L139.716 124.982L142.209 127.382L134.243 142.157L154.061 131.918L159.216 135.345L153.329 164.884L173.473 140.736L172.263 151.501L176.226 145.541L177.705 161.764L182.921 144.416L194.972 171.014L201.21 147.656L209.034 157.691L207.384 141.725L226.56 168.229L219.649 132.783L238.289 142.203L230.974 126.931L265.408 134.959L237.826 114.389L262.459 110.325L250.349 105.618C259.417 102.602 279.081 97.9599 285.2 103.515L284.848 96.2189L304.535 119.717L318 108.97L316.196 107.77C320.457 105.647 329.444 101.934 331.301 104.06C333.157 106.187 341.244 115.752 345.056 120.269L373.695 92.8491L368.987 103.843L391.373 87.5051L388.381 98.1538L393.956 93.683L395.067 89.2176L407.502 78.901L396.965 97.5424L408.718 90.4888L407.438 97.4439L434.376 82.6456L438.489 76.4597L411.037 92.0312L414.545 81.7254L407.685 88.6872L417.88 71.6773C415.267 68.4526 388.54 87.48 375.503 97.3967L398.742 76.422L388.187 79.4394C383.865 83.7027 370.319 93.0821 364.086 97.2389L344.705 114.088C343.414 111.743 339.39 106.094 333.616 102.255C327.843 98.4159 317.079 104.392 312.419 107.861L315.339 109.059C311.678 110.465 304.253 113.21 303.84 112.936C301.018 107.789 288.968 95.2409 283.295 89.6106L260.979 92.9856L275.664 97.1743L236.355 104.862L248.121 108.969L228.209 112.083L254.757 129.735L218.606 122.053L229.696 135.002L213.805 127.038L221.223 156.131L204.97 133.058L206.708 150.569L200.507 134.179L195.303 161.571L182.737 134.63L176.566 142.793L177.758 134.293L175.697 134.038L162.753 149.592L167.109 131.301L157.146 127.278L140.59 137.085L148.47 122.996L144.09 121.199L135.339 125.416L141.255 119.314L137.389 116.743L119.534 117.881Z" fill="#FF7F08"/>
<path d="M276.162 83.009C275.201 83.5596 271.015 86.2774 269.042 87.5675L279.943 86.2666L276.162 83.009Z" fill="#FF7F08"/>
<path d="M294.868 76.1186C295.417 76.1866 306.262 80.5975 311.616 82.7944L308.872 85.8023L294.868 76.1186Z" fill="#FF7F08"/>
<path d="M309.979 77.9889C310.666 77.8507 314.959 78.3263 317.019 78.5814L314.961 80.5583L309.979 77.9889Z" fill="#FF7F08"/>
<path d="M344.61 106.963C346.189 105.931 357.049 99.2505 362.281 96.0392L347.189 109.793L344.61 106.963Z" fill="#FF7F08"/>
</svg>
